<?xml version="1.0" encoding="utf-8"?>
<!-- Generator: Adobe Illustrator 22.1.0, SVG Export Plug-In . SVG Version: 6.00 Build 0)  -->
<svg version="1.1" xmlns="http://www.w3.org/2000/svg" xmlns:xlink="http://www.w3.org/1999/xlink" x="0px" y="0px"
	 viewBox="0 0 612 792" style="enable-background:new 0 0 612 792;" xml:space="preserve">
<style type="text/css">
	.st0{fill:#FFFFFF;}
</style>
<g id="Layer_1">
	<g id="grass">
		<path class="st0" d="M119.8,482.5c-0.4,2.6-0.7,5.2-0.9,7.7c-0.1,1.3,0,2.7,0,4c-1.4-1.4-1.8-3.3-3.4-4.4c0.8,2.5,0.8,5,0.2,7.5
			c-0.4,1.7-1,3.3-1.4,4.9c-0.1,0.3-0.1,0.7-0.1,1c1.9-2.9,2.5-6.2,2.9-9.9c1.5,2.2,1.7,4.5,2.4,6.7c0.5-6.1-0.4-12.3,1.4-18.3
			c0.2,0,0.3,0,0.5,0c0.1,2.9,0.3,5.7,0.4,8.6c0.4,6.2,0.6,7,1.9,8.7c-1.5-6.4-1.4-12.6-1.6-18.8C120.4,480.8,120.1,481,119.8,482.5
			z"/>
		<path class="st0" d="M449.1,598.5c-4.4,6.9-8,14.3-10.2,22.3c-0.4-1-0.6-1.9-0.8-2.8c-0.9-4-2.1-7.8-4.5-11.2
			c-1.6-2.3-3.7-4.1-6.5-4.7c-1.3-0.3-2.6-0.5-4.1,0c2.4,1.6,3.9,3.6,5.1,5.9c0.9,1.7,1.6,3.5,2.2,5.3c2.1,6.1,2.7,12.4,2.9,18.8
			c0,0.2,0,0.5-0.1,1c-0.5-0.4-0.8-0.7-1-1c-1.2-1.8-2.4-3.5-3.5-5.3c-2.4-4.3-3.1-9.1-3-14.5c-0.5,0.6-0.6,0.8-0.8,1.1
			c-2.2,4.5-4.1,9-5.1,13.8c-0.4,1.9-0.4,3.9-0.5,5.9c0,0.9,0.3,1.8,1.1,2.5c0.8-0.8,0.9-0.9,0.6-1.5c-0.6-1.5-0.5-2.9-0.3-4.5
			c0.5-3.5,1.7-6.8,3-10c0.1-0.2,0.3-0.4,0.5-0.7c0.8,2.3,1.3,4.6,2.2,6.7c0.9,2.1,2.1,4,3.3,5.9c1.3,1.9,2.8,3.6,4.8,4.9
			c0.2-11.4-0.5-22.4-6.8-32.5c1.1,0.5,2.2,1,2.9,1.8c1.3,1.5,2.5,3.1,3.4,4.8c1.8,3.5,2.7,7.3,3.3,11.2c0.3,2.3,0.6,4.6,0.9,6.8
			c1.5,0.4,1.3-0.6,1.5-1.4c0.6-3.2,1-6.5,1.9-9.6c2.6-8.8,7.3-16.5,12.6-23.9c0.1-0.1,0.3-0.2,0.7-0.5c-6,12.9-8.3,26.1-6.7,39.9
			c1.6,0.2,1.5-0.7,1.4-1.5c-0.5-4.7-0.4-9.3,0-14c1.4-13.4,6-25.4,14.5-35.8c0.4-0.5,0.8-1.1,1.2-1.6c-0.4-0.3-0.7-0.6-1.1-0.9
			C458.6,585.2,453.5,591.6,449.1,598.5z"/>
		<path class="st0" d="M184.5,488.9c0.7-5.4,1.3-10.3,1.9-15.1c-0.2-0.2-0.3-0.3-0.5-0.4c-3.5-2.1-7-4.3-10.5-6.4
			c-1.3-0.8-2.6-0.5-4.2-0.2C176.8,473.4,181.9,480.1,184.5,488.9z"/>
		<path class="st0" d="M543.2,526.1c-1.5-0.2-3.2-0.4-4.8-0.7c-1.7,4.1,2.1,14.6,4.3,17.1C544,539.4,544.2,530.2,543.2,526.1z"/>
		<path class="st0" d="M167.9,463.3c1.2,1.4,2.5,2,4.5,1.4c-2.2-2.2-3.4-5-5.9-6.7c-3.5-2.5-6-4-7.8-4.2c0.8,0.9,1.4,1.6,2.1,2.4
			C163.2,458.5,165.7,460.8,167.9,463.3z"/>
		<path class="st0" d="M551.3,531.7c0.9-1.3,1.8-2.6,2.9-4c-2.5-0.3-4.6-0.6-6.9-1c0.5,3.2,0.9,6.1,1.4,9.4
			C549.7,534.4,550.4,533,551.3,531.7z"/>
		<path class="st0" d="M486.5,389.1c-0.7,0.1-1.3,0.2-1.9,0.4c-0.5,3.3-0.6,6.5,0.2,9.8C486.3,396,487.5,392.8,486.5,389.1z"/>
		<path class="st0" d="M330.1,615.7c-1.2,0.1-2.4,0.2-3.8,0.2c0.8,2.6,1.4,5,2.5,7.4C330,620.5,330.5,617.6,330.1,615.7z"/>
		<path class="st0" d="M359.2,613.1c-1.1,0.1-2.1,0.2-3.4,0.4c0.8,2.7,1.4,5.3,2.8,8.1C359.3,618.5,359.4,615.9,359.2,613.1z"/>
		<path class="st0" d="M482.3,389.9c-1.4,0.3-2.4,0.5-3.7,0.8c1.1,1.7,2,3.1,3.1,4.8C481.9,393.4,482.1,391.8,482.3,389.9z"/>
		<path class="st0" d="M239.2,612.3c-0.9-0.2-1.7-0.3-2.7-0.5c0.2,1.7,0.4,3.2,0.5,4.8C238,615.3,238.8,613.9,239.2,612.3z"/>
		<path class="st0" d="M495.1,524c0.4-1.3,0.7-2.6,1.2-4.1c-1-0.1-1.7-0.1-2.6-0.2c0.4,1.6,0.7,3,1,4.3
			C494.8,524,494.9,524,495.1,524z"/>
		<path class="st0" d="M189.7,597.8c0,1.1,0,2.2,0,3.4C191.2,598.7,191.2,598.5,189.7,597.8z"/>
		<path class="st0" d="M101.1,483c-0.1-0.3-0.2-0.6-0.3-1c-0.1,0-0.2,0.1-0.4,0.1c0.1,0.3,0.2,0.6,0.3,0.9
			C100.9,483.1,101,483,101.1,483z"/>
		<path class="st0" d="M612.2,538.5c-13.2-2.1-26.3-5.2-39.3-8.2c-0.2,0.1-0.6,0.1-0.9,0c-2.2-0.3-4.5-0.7-6.7-1
			c-1.9-0.3-3.8-0.5-5.9-0.9c-0.5,4.1,0.7,7.9,1.8,11.9c-2.5-1.5-3.4-9.3-2.1-16c-1.8,1.6-3.3,3.1-4.6,4.7c-1.3,1.7-2.7,3.5-3.7,5.4
			c-0.9,1.8-1.5,3.8-2.5,5.7c-0.1-0.4-0.3-0.8-0.3-1.2c-0.8-6.3-1.5-12.5-3.2-18.6c-0.5-1.9-1.2-3.8-2-5.6c-0.4-0.9-1-1.7-1.8-2.5
			c3.9,10.8,5.1,21.8,2.4,33.1c-1.2-0.8-2.2-2.5-4-7.2c-1-2.5-1.7-5.1-2.6-8c-1.9,4.8-2.7,9.5-2.3,14.4c-0.2,0-0.3,0-0.5,0.1
			c-0.2-0.3-0.5-0.5-0.5-0.8c-0.5-3.1-0.1-6.2,0.8-9.1c0.9-3.1,2-6.1,3.1-9.4c-10.6-1.6-21.4-2.9-32.3-4.3v5.5
			c-1-0.2-0.9-0.9-0.9-1.5c-0.2-2.7-0.2-5.5-0.6-8.2c-0.6-5.1-1.4-10.2-2.1-15.3c-0.1-0.7-0.3-1.3-0.5-2c-0.8,4.8-1.4,9.5-2.3,14.2
			c-0.9,4.7-2.2,9.3-4,14.2c-2.2-6.6-3.2-12.9-2.5-19.4c-3.3,7.9-3.6,16.3-3.4,24.8c-0.2,0-0.4,0-0.6,0c-0.1-0.5-0.3-0.9-0.3-1.4
			c0.1-3.6,0.2-7.3,0.3-10.9c0-0.7,0-1.3,0-2.2c-9.5-1-19-2.1-28.5-3.1c-0.4,0.6-0.6,1.2-1,1.7c-0.2-0.2-0.5-0.3-0.5-0.4
			c0.1-0.6,0.2-1.2,0.3-1.8c1.3-5.2,1.7-10.4,0.7-15.7c-0.7,4.1-1.3,8.2-3.2,12.3c-2.1-4.1-1.9-8.3-2.5-12.4
			c-0.8,3.9-0.6,7.9-0.5,12.1c-2.1-1.4-4.1-2.6-6.1-3.9c-0.1,0.1-0.1,0.2-0.2,0.2c0.8,1.5,1.7,2.9,2.5,4.4c1.6,3.1,1.6,3.5,1.3,4.6
			c-0.1,0-0.2,0-0.2,0c-0.6-2.1-2.2-2.3-4.1-2.4c-8.1-0.6-16.3-1.3-24.4-1.9c-2.6-0.2-5.2-0.3-8-0.5c0.2,1.4,0.2,2.6,0.5,3.8
			c0.8,4.1,1.5,8.2,2.5,12.3c0.4,1.6,1.2,3,2.1,4.4c2.8,4.5,4.6,9.5,5.9,14.6c2.7,10.8,2.8,21.6-1,32.2c-2,5.8-5.1,10.9-9.2,15.5
			c-1,1.1-2.1,2.2-3.3,3.1c-1.1,0.8-1.4,1.6-1.1,2.8c0.4,1.8,0.7,3.6,1.2,5.4c0.2,0.7,0.4,1.3-0.6,1.7c-0.9-0.8-1.2-1.9-1.3-3
			c-0.5-3-1-6.1-1.2-9.2c-0.4-6.2-0.6-12.3-0.8-18.5c0-0.3,0-0.7-0.1-1.2c-0.9,0.5-1,1.4-1.1,2.1c-0.5,2.7-1,5.4-1.2,8.1
			c-0.6,7.4-0.7,14.8-0.2,22.2c0.1,1.4,0.1,1.5-1.4,1.4c-0.1-4.2-1.2-8.2-3.3-11.9c-0.4,6.3-2,12.2-4.4,18.1
			c-0.5-0.2-0.8-0.3-1.3-0.5c1.1-3.3,2.4-6.6,3.1-10.1c-5.1,1.4-10,2.7-15,4.1c-0.1,0.6-0.1,1.3-0.2,2.1c-0.4,0-0.7,0.1-1.3,0.2
			c-0.2-9.1,0.3-18,2.6-26.7c-4.5,5-8.1,10.5-10.9,16.6c-2.7,6-4.2,12.4-4.6,18.9c-1,0.3-1.3-0.1-1.3-0.7c-0.1-1.2-0.2-2.5-0.3-3.7
			c-0.8-10.1-1.8-20.1-4.5-29.8c-0.7-2.6-1.8-5-2.9-7.4c-0.8-1.7-1.4-2.2-3.1-3.3c0.1,0.7,0.1,1.3,0.2,1.8
			c1.3,7.7,2.7,15.4,3.8,23.1c0.9,6.4,1.5,12.8,0.7,19.3c-0.2,1.9-0.7,3.8-2,5.7c-3-7.3-5.2-14.5-6.2-22.3c-0.3,0.4-0.5,0.5-0.6,0.7
			c-2.2,4.4-4.2,9-4.9,13.9c-0.2,1.6-0.1,3.3,0,4.9c0.1,0.8,0.1,1.4-0.9,1.4c-1.5-3-0.4-6.1-0.1-9.4c-3.3,0.3-6.4,0.5-9.5,0.7
			c0.3,3.1,0.7,5.9,0.9,8.8c0.1,2.9,0,5.7,0,8.6c-0.8,0.3-1.3,0.4-1.4-0.5c-0.1-0.6,0-1.2,0-1.8c0.1-6-0.3-11.9-2-17.7
			c-0.3-1.1-0.8-2.3-1.5-3.4c0.4,6.4-0.7,12.5-3.4,18.8c-3.6-9.3-6.4-18.3-7-27.9c-0.2,0-0.3,0-0.5,0c-0.4,1.9-1,3.8-1.3,5.7
			c-0.8,6.1-1.4,12.2-2.1,18.4c0,0.4,0,0.8-0.1,1.2c-0.2,0.8-0.7,0.7-1.5,0.3c0.2-3,0.4-6,0.6-9.4c-0.9,0-1.7,0-2.6,0
			c-10.9,0.1-21.8,0.3-32.7,0.3c-8.2,0-16.3-0.9-24.4-1.8c-2.3-0.3-4.6-0.6-7.1-0.9c-0.2,2-0.3,4-0.6,5.9c-0.3,2-1,3.8-2.6,5.4
			c-0.3-0.3-0.6-0.5-1-0.9c2.5-3.2,2.6-7,2.4-10.8c-0.2-4-1.6-10.4-3.2-14.5c-0.2,0.6-0.4,1.1-0.5,1.5c-1.7,7.4-4.9,14.2-8.3,20.9
			c-0.1,0.1-0.1,0.3-0.2,0.3c-0.3,0.2-0.7,0.3-1,0.4c-0.1-0.3-0.5-0.7-0.4-1c1.2-5.2-0.2-10.2-1.4-15.2c0-0.2-0.2-0.3-0.4-0.6
			c-1.4,3-3,5.7-5.3,8.2c-1.1-1.3-1.5-2.8-1.5-4.3c-0.1-2.5-0.1-5.1-0.1-7.6c0-1.3,0-2.6-0.3-3.9c-0.3,2.6-0.7,5.1-0.8,7.7
			c-0.2,3.2-0.3,6.4-0.5,9.7c0,0.9-0.2,1.5-1.5,1c0.2-10.2-3.8-19-9.4-27.3c1.3,6.5,0.8,12.8-0.7,19.1c-0.7,2.9-1.5,5.8-2.9,8.5
			c-1.3-0.1-1.2-0.7-0.9-1.5c0.9-2.7,1.7-5.3,2.5-8c0.1-0.3,0.1-0.5,0.2-1c-3.7-1.3-7.5-2.5-11.6-3.9c0.3,3.2,0.5,6.3,0.8,9.4
			c-0.4,0.1-0.8,0.2-1.4,0.3c-0.3-3.2-0.7-6.3-0.8-9.3c-0.3-6.2-0.5-12.3,0.2-18.5c0.4-3.9,1.2-7.7,3.2-11.5c-0.6,0.2-1,0.2-1.3,0.4
			c-2.9,1.8-4.4,4.5-4.6,7.8c-0.8,10.3-4.2,19.9-8.3,29.3c-0.1,0.3-0.4,0.5-0.8,1.1c0.2-2.3,0.5-4.2,0.6-6.1
			c0.4-6.4,0.6-12.8-0.7-19.1c-0.3-1.7-1-3.4-1.6-5.1c-0.4-0.9-1.1-1.6-1.6-2.5c-0.1,0.1-0.3,0.1-0.4,0.2c0.1,0.6,0.2,1.3,0.3,1.9
			c0.9,5.6,1.7,11.3,1,17c-0.2,2-0.6,3.9-2,5.6c-0.4-0.3-0.7-0.5-0.7-0.5c0.5-2.6,0.9-4.9,1.4-7.2c0.2-1.1-0.2-1.8-1.2-2.3
			c-3.3-2.1-6.4-4.5-9.1-7.3c-5-5.1-8.1-11-8.9-18.1c-0.2-1.7,0.2-3.4,0.5-5.1c0.7-3.2,2.2-6,3.8-8.9c0.5-1,1-2.1,1.2-3.2
			c1.4-6.7,2.7-13.4,4-20.2c0.1-0.7,0.2-1.3,0.3-2.1c-9,3.7-17.9,2.5-26.9,0.9c-3.7-0.6-7.4-1.5-10.8-3.2c-1.5-0.7-3-1.6-4.3-2.7
			c-2-1.7-1.9-3.8,0.2-5.4c1.2-0.9,2.6-1.7,4-2.1c3.7-1.1,7.4-1.8,11.1-2.9c2.5-0.7,5-1.5,7.3-2.7c4.5-2.4,5.9-6.2,4.4-11.1
			c-0.8-2.5-2-4.8-3.6-6.9c-4.1-5.8-9.2-10.5-14.9-14.6c-1.8-1.3-3.5-2.6-5.1-4.1c-1-0.9-1.9-0.6-2.9-0.4c-5.5,1.3-10.9,2.6-16.4,4
			c-3.2,0.8-6.4,1.8-9.8,2.8v3.6c-0.2,0-0.3,0-0.5,0c-0.8-3.3,0.1-6.6,0.7-9.9c-2,2.5-3,5.4-3.6,8.6c-0.9-2.2-0.8-4.7-2.5-6.6
			c0.9,2.9,1.4,5.9,1.3,9.3c-1.9-1.3-2.7-3-3.4-4.9c-1,1.3-1,2.8-1,4.5c-0.5-0.6-0.8-0.9-1.1-1.4c-4.1,1.5-8.2,3.1-12.6,4.7
			c0.6,1.2,1.1,2.1,1.5,3.1c-0.1,0.1-0.3,0.2-0.4,0.2c-0.6-0.9-1.2-1.7-1.8-2.6c-0.8,1.3,0.5,2.6-0.2,4c-0.2-0.4-0.4-0.8-0.6-1.2
			c-0.9-2.1-1.7-4.2-2.6-6.2c-0.3-0.7-1-1.3-1.7-1.8c0.6,1.8,1.2,3.5,1.7,5.3c0.5,1.8,0.5,3.6-0.9,5.1c0.1-1.1,0.3-2.2,0.5-3.8
			c-7.1,2.9-13.6,6.2-20,9.7c-6.4,3.5-12.6,7.5-18.6,11.9c-0.1-0.2-0.2-0.3-0.4-0.5c-7.4,4.6-15.4,7.8-23.5,10.7
			c-5.5,1.9-10.9,4.2-16.3,6.4v264.1c203.9,0,407.9,0,611.8,0C612.2,707.8,612.2,623.1,612.2,538.5z M121.7,490.5
			c-0.2-2.9-0.3-5.7-0.4-8.6c-0.2,0-0.3,0-0.5,0c-1.8,6-0.9,12.2-1.4,18.3c-0.7-2.2-0.9-4.5-2.4-6.7c-0.4,3.7-1,6.9-2.9,9.9
			c0-0.3,0-0.7,0.1-1c0.5-1.6,1-3.3,1.4-4.9c0.6-2.5,0.7-5-0.2-7.5c1.6,1.1,2,3,3.4,4.4c0-1.3-0.1-2.7,0-4c0.2-2.6,0.5-5.2,0.9-7.7
			c0.3-1.6,0.6-1.8,2.2-2.2c0.2,6.2,0.1,12.4,1.6,18.8C122.3,497.5,122.1,496.7,121.7,490.5z M464.2,581.8
			c-8.5,10.5-13.2,22.5-14.5,35.8c-0.5,4.7-0.6,9.3,0,14c0.1,0.8,0.3,1.7-1.4,1.5c-1.6-13.8,0.7-27,6.7-39.9
			c-0.4,0.3-0.6,0.4-0.7,0.5c-5.3,7.4-10,15.1-12.6,23.9c-0.9,3.1-1.3,6.4-1.9,9.6c-0.1,0.8,0,1.8-1.5,1.4c-0.3-2.2-0.5-4.5-0.9-6.8
			c-0.6-3.9-1.5-7.7-3.3-11.2c-0.9-1.7-2.1-3.3-3.4-4.8c-0.7-0.8-1.8-1.3-2.9-1.8c6.3,10,7,21.1,6.8,32.5c-2-1.2-3.6-3-4.8-4.9
			c-1.2-1.9-2.4-3.8-3.3-5.9c-0.9-2.1-1.4-4.3-2.2-6.7c-0.2,0.3-0.4,0.5-0.5,0.7c-1.3,3.2-2.4,6.5-3,10c-0.2,1.5-0.3,3,0.3,4.5
			c0.2,0.6,0.2,0.6-0.6,1.5c-0.8-0.6-1.2-1.5-1.1-2.5c0.1-2,0.1-4,0.5-5.9c1-4.8,3-9.4,5.1-13.8c0.1-0.2,0.3-0.4,0.8-1.1
			c-0.1,5.4,0.6,10.2,3,14.5c1,1.8,2.3,3.6,3.5,5.3c0.2,0.3,0.5,0.5,1,1c0.1-0.5,0.1-0.8,0.1-1c-0.2-6.4-0.8-12.7-2.9-18.8
			c-0.6-1.8-1.4-3.6-2.2-5.3c-1.1-2.3-2.6-4.3-5.1-5.9c1.5-0.6,2.8-0.3,4.1,0c2.8,0.7,4.9,2.4,6.5,4.7c2.4,3.4,3.6,7.2,4.5,11.2
			c0.2,0.9,0.4,1.8,0.8,2.8c2.2-8,5.7-15.3,10.2-22.3c4.4-6.9,9.5-13.3,15.2-19.3c0.4,0.3,0.7,0.5,1.1,0.9
			C465,580.7,464.6,581.2,464.2,581.8z"/>
		<path class="st0" d="M610.5,383.6c-0.1,0.1-0.2,0.1-0.4,0c-5.2-1.3-10.7-0.5-15.9-1.4c0,0-0.1,0-0.1,0c-0.1,0-0.2,0-0.3,0
			c-3.9,0.3-7.9-0.2-11.8-0.2c-3.8,0-7.7,0-11.5,0c-6.8,0-13.8-0.8-20.7-0.2c-0.1,0-0.1,0.1-0.3,0.1c-0.2,0-0.3,0-0.5,0
			c-0.3,0-0.7,0-1,0.1c-0.1,0.1-0.3,0.1-0.5,0.1c-1.8,0.1-3.7,0.1-5.6,0.2c-1.1,0.1-2.3,0.2-3.5,0.3c0.2,0.6,0.3,1.1,0.5,1.8
			c-1.3-0.6-1.5-1.8-2.2-2.5c-0.9,1.2,0.4,2.4,0.1,3.7c-0.9-0.1-0.8-0.9-1-1.4c-0.8-1.8-1.4-3.7-2.3-5.5c-0.5-1-1.2-1.7-2-2.5
			c1.1,3.5,3,6.8,1.3,10.6c-0.2,0-0.3,0-0.5,0c0.1-1.1,0.3-2.3,0.5-3.8c-11.5,0.8-22.8,2.1-34,3.9l-3.7-5.6l-25.8,5.1l2.2,6
			c-3.9,1-7.9,2-11.9,3.3c0.4,0.5,0.6,0.8,0.9,1.1c7.4,7.5,13.6,16,18.8,25.1c1.9,3.3,4,6.6,6.6,9.4c3.6,3.9,8,6.3,13.4,7
			c3.8,0.5,7.5,0.3,11.3-0.2c4.5-0.6,9.1-1.5,13.6-2c4.4-0.5,8.9-0.8,13.3,0.2c1.1,0.3,2.2,0.7,3.2,1.3c1.6,1,2.1,2.6,1.1,4.3
			c-0.7,1.1-1.6,2.2-2.7,3.1c-1.7,1.3-3.4,2.5-5.3,3.5c-10.6,5.6-21.7,10.1-33.5,12.7c-5,1.1-10,1.5-15.1,0.9
			c-5.7-0.7-10.8-3-15.2-6.7c-7.7-6.5-15.1-13.3-20.9-21.7c-1.1-1.6-2.3-3.2-3.5-4.8c-0.6-0.8-1.2-1.5-1.8-2.2
			c-3.5-3.9-6.1-4.2-10-0.8c-4.5,3.9-8.1,8.6-10.9,13.8c-1.7,3.2-2,6.5-1,10c0.2,0.9,0.5,1.7,0.8,2.6c2.5,7.1,2.2,14.1,0.2,21.2
			c-2.2,7.7-5.6,14.9-9.4,21.9c-0.7,1.3-1,2.6-0.9,4.1c0.4,3.7,0.7,7.4,1,11.2c11.6,0.9,23.1,1.8,35,2.7c-0.9-2-1.8-3.7-3.3-5
			c-0.7-0.6-1.5-0.7-2.2,0c-0.3,0.3-0.6,0.5-1,0.8c0-2.1,1.1-3.1,2.9-2.7c1.6,0.4,3,1.2,4.5,1.9c0.8,0.4,1.6,1,2.7,1.7
			c0-1,0-1.6,0-2.3c0.1-2.9,0.2-5.8,0.5-8.6c0.1-1.4,0.4-2.9,2.4-3.5c0,4.6-0.3,9.1,1.2,13.4c2.1-5.7,2.6-11.5,1.2-17.5l0.5-0.1
			c0.2,0.4,0.6,0.8,0.7,1.2c1.1,3.2,1.9,6.6,2.1,10c0.3,4,0.1,7.9-0.8,12.1c9.5,1,19,2.1,28.6,3.1c0.2-1,0.4-1.9,0.6-2.8
			c0.8-3.6,1.9-7.2,3.9-10.3c0.4-0.6,0.9-1.1,1.5-1.9c0.6,1.8-0.5,2.8-0.7,4c-0.1,1.3-0.5,2.6-0.7,3.8c-0.1,1.2-0.1,2.5-0.1,3.7
			c0,1.3,0.1,2.6,0.2,4c1.1,0.2,2.1,0.3,3.4,0.5c0.8-4,1.6-7.8,2.2-11.6c0.4-2.6,0.4-5.2,0.5-7.8c0-0.9-0.1-1.8-0.3-2.6
			c-0.4-2.1-1.3-3.9-3.5-4.8c1.4-0.7,1.9-0.8,2.8,0.2c0.9,1,1.7,2.2,2.1,3.5c1,3.1,1.9,6.3,2.5,9.5c0.7,4.4,1.1,8.8,1.6,13.3
			c0,0.4,0.1,0.8,0.2,1.3c12.6,1.7,25.2,3.4,38.1,5.1c-0.6-4.9-2.2-9.3-4.1-13.7c1.2-0.5,2.1-0.1,2.7,0.7c0.8,1,1.7,2.1,2.1,3.2
			c1,2.6,1.7,5.3,2.6,8c0.2,0.7,0.4,1.5,0.6,2.3c2.7,0.4,5.3,0.8,7.9,1.1c0.5,0.1,1.2-0.4,1.7-0.9c1.7-1.5,3.4-3,5.1-4.5
			c0.4-0.4,0.9-0.6,1.4-0.9c0.1,0.1,0.2,0.3,0.3,0.4c-0.8,1-1.7,1.9-2.3,2.9c-0.6,1.1-1,2.3-1.6,3.7c4.8,0.8,9.3,1.5,13.8,2.2
			c0,0.1,0,0.2,0,0.3c12.6,2.9,25.3,5.9,38,8c0.1-0.1,0.2-0.1,0.4-0.1c0.1,0,0.3,0.1,0.4,0.1V384.2
			C611.7,384,611.1,383.8,610.5,383.6z M525.8,390.7c-1.9,0.1-2.7,1.4-3.3,2.9c-0.9,2.6-1.1,5.4-1.1,8.1c0,3.1,0.2,6.2,0.4,9.2
			c0,0.4,0,0.8,0,1.3c-1.7-2.5-1.4-13.7,0.5-20.5c-2.1,0.9-2.7,2.6-2.9,4.6c-0.3,3.9-1.5,7.7-2.8,11.3c-0.4,1.1-0.9,2.2-1.5,3.5
			c0-3,0.1-5.8,0-8.5c-0.1-2.7-0.3-5.4-2.1-7.6c0.2,3.8,1.1,7.6,0,11.4c-0.1,0.4-0.4,0.8-0.8,1.1c1.2-4.6,0.3-9.2-0.5-13.8
			c1.8,0,2.6,1.1,2.9,2.3c0.6,2,0.9,4.1,1.2,6.2c0.2,1.2,0,2.5,0.3,3.8c0.2-0.4,0.4-0.7,0.6-1.1c1.1-3.1,1.7-6.2,2-9.4
			c0.4-3.5,4-6,7.4-5.3C526.1,390.4,526,390.7,525.8,390.7z"/>
	</g>
	<g id="clouds">
		<path class="st0" d="M212,222.9c0.9-0.7,1.6-1.3,2.4-1.8c5.1-3.9,10.6-7.4,16.8-9.3c10.4-3.1,19.3-0.8,26.8,7
			c3.1,3.2,5.6,7,7.4,11.1c0.4,1,1,1.5,2.1,1.6c1.8,0.2,3.6,0.5,5.6,1.7c-0.8,0.1-1.2,0.2-1.6,0.1c-12.6-0.4-25.2-0.8-37.8-1.1
			c-15.4-0.4-30.7-0.4-46.1,0.3c-3.2,0.1-6.4,0.5-9.6,0.7c-1,0.1-2.1,0-3-0.3c-14.1-3.6-28.4-6.6-42.9-8.6c-5-0.7-10.1-1.2-15.1-1.7
			c-0.3,0-0.6-0.1-1.4-0.2c5.8-4.4,12.1-5.3,18.7-4.8c0.2-0.4,0.3-0.7,0.4-1.1c2.1-5.9,6.6-8.7,12.6-9.2c5.6-0.5,11.1,0.6,16.3,2.5
			c1.4,0.5,2.4,0.3,3.6-0.4c5.5-3.4,11.2-6.3,17.6-7.6c2.8-0.6,5.6-0.8,8.4-0.5c5.8,0.8,10.2,3.7,13.5,8.4c2.3,3.3,3.8,7,4.7,10.9
			C211.6,221.3,211.8,222,212,222.9z"/>
		<path class="st0" d="M252.2,206.7c2.9-0.7,5.9-1.4,8.9-2c3.3-0.6,6.6-0.6,9.8-0.1c5.4,0.9,9.8,3.4,12.9,8.1
			c4-0.7,7.8-0.1,11.4,1.5c3.3,1.5,6.2,3.5,9.1,6.1c-0.8,0.1-1.2,0.2-1.7,0.2c-13.4,0-26.7,0-40.1,0c-1.1,0-1.9-0.4-2.6-1.2
			c-3.9-4.5-8.5-7.9-14.4-9.3c-5.5-1.3-10.7-0.7-16,1.2c-5.4,1.9-10.3,4.9-14.8,8.3c-0.6,0.4-1.2,0.8-2,1.3
			c-1.5-5.7-3.7-10.8-7.8-15c0.6-0.3,1-0.6,1.5-0.8c3.5-1.3,6.9-2.7,10.4-3.9c1.1-0.4,2-1,2.8-1.9c0.9-1.1,1.9-2.2,3-3.1
			c4-3.4,8.5-4.2,13.4-2.5c3.8,1.3,7,3.5,9.8,6.3C247.9,202,250,204.4,252.2,206.7z"/>
		<path class="st0" d="M480.3,202.1c3.8-0.7,7.4-1.4,11.1-1.9c4.4-0.6,8.9-1,13.3-0.2c1.7,0.3,3.2,1,4.9,1.5
			c0.9,0.3,1.8,0.7,2.7,0.7c6.2,0.2,12.3,0.5,18.4,2c2.9,0.7,5.8,1.6,8.3,3.5c2.9,2.2,3.7,4.9,2.4,8.3c-0.2,0.6-0.5,1.1-0.8,1.8
			c0.6,0,1,0,1.5,0c4-0.3,7.9-0.6,11.9,0.3c1,0.2,2.1,0.7,3,1.2c1,0.6,1.7,1.4,1.5,2.9c-0.7,0-1.4,0-2,0c-59.9,0-119.8,0-179.7,0
			c-4,0-7.3-2.1-10.1-4.8c-1.5-1.5-1.5-3.3,0-4.7c1.3-1.3,2.9-2.3,4.5-3.2c3.9-2.1,8.1-3.3,12.3-4.4c2.3-0.6,4.6-1.2,7-1.7
			c1.2-0.3,2.1-0.8,2.9-1.7c4.3-4.8,9-9.2,14.3-13c4.4-3.1,9-5.8,14.3-7c3.2-0.7,6.4-0.6,9.5,0.6c1.5,0.5,3.1,0.6,4.6,0.8
			c10.1,1.4,20.2,3.2,29.7,7c1.8,0.7,3.5,1.5,5.2,2.4C475.8,195.1,477.8,197.1,480.3,202.1z"/>
		<path class="st0" d="M72.2,386.7c-0.7-5.9,1.7-8.6,8.4-10c0.2-0.5,0.5-1.1,0.8-1.8c1.6-3.4,3.6-6.5,6.3-9.1
			c4.8-4.6,10.5-5.9,16.9-4c4.1,1.2,7.6,3.5,10.9,6c1,0.8,2,1.6,3.2,2.6c0.2-0.8,0.4-1.5,0.6-2.2c0.7-3,1.8-5.9,3.6-8.4
			c3.4-4.9,8.5-6.8,14.6-5.5c4.5,1,8.5,3,12.3,5.6c1.2,0.8,2.2,1,3.6,0.4c3.3-1.3,6.8-2,10.5-1.8c4.6,0.3,7.7,2.4,9.3,6.8
			c0.1,0.3,0.2,0.6,0.3,0.9c10.5,0.5,12.9,1.8,17.5,9.5c1.5,0.4,3,0.6,4.5,1c2.9,1,3.8,3.1,2.9,6c-0.1,0.2-0.1,0.4-0.2,0.6
			c-1.2,3.1-1.4,3.3-4.7,3.3c-39.5,0-79,0-118.4,0C74.1,386.7,73.2,386.7,72.2,386.7z"/>
	</g>
	<g id="moon">
		<path class="st0" d="M454.3,185.4c6.4-18,27.3-32.5,50.9-26.4c23.4,6.1,34.5,28.5,31.9,46.1c-2.5-0.7-5.1-1.6-7.6-2.2
			c-5.5-1.2-11.1-1.6-16.7-1.7c-1,0-2-0.1-2.9-0.7c-2.1-1.2-4.5-1.6-6.9-1.8c-6.7-0.5-13.3,0.5-19.8,1.9c-0.7,0.2-1.5,0.3-2.2,0.4
			c-1.9-4.6-5.6-7.3-9.7-9.5c-4.7-2.5-9.7-4.2-14.8-5.5C455.7,185.8,455.1,185.6,454.3,185.4z"/>
		<path class="st0" d="M457.8,223.3c24.5,0,48.7,0,73.4,0c-2.9,4.7-6.4,8.5-10.5,11.7c-7.5,5.7-16,8.7-25.3,8.8
			c-9,0.2-17.3-2.3-24.8-7.3C465.3,233.1,461.1,228.8,457.8,223.3z"/>
	</g>
	<g id="cap">
		<path class="st0" d="M69.1,248c0.6,0,1,0.1,1.6,0.1c0.2-0.6,0.3-1.1,0.5-1.6c0.2-0.7,0.4-1.5,0.7-2.1c1.6-3.7,4.3-5.1,8.3-4.1
			c3.7,1,7.1,2.7,9.4,5.9c2.1,2.9,4.1,5.8,6,8.9c5.3,8.4,10.4,16.9,16,25.2c9.7,14.3,21.1,27,34.8,37.6c2.3,1.8,4.7,3.5,7.2,5.4
			c-0.6,0.3-1,0.5-1.5,0.7c-10.6,4.1-21.4,7.5-32.7,9.6c-5.6,1-11.1,1.5-16.8,1.1c-2.7-0.2-5.3-0.8-7.7-1.9c-3-1.4-5.2-3.5-6.4-6.6
			c-2.5-6.5-6.1-12.4-11.2-17.3c-3.4-3.2-4.6-7.4-5.1-11.8c-0.3-2.9-0.6-5.9-0.7-8.8c-0.8-12.4-2.9-24.6-5.7-36.7
			c-0.3-1.5-0.6-3-1.1-4.4c-1.5-4.6-0.1-8.6,2.6-12.4c1.7-2.5,4.2-4.1,6.8-5.5c4.3-2.2,8.8-3.3,13.5-4c9.1-1.4,18.2-1.2,27.3-0.6
			c20.4,1.5,40.4,5.5,60.2,10.6c0.9,0.2,1.9,0.3,2.8,0.3c19.3-1.8,38.6-1.3,58-1c11.6,0.2,23.2,0.7,34.7,1c4.8,0.2,9.6,0.5,14.4,0.6
			c2.9,0.1,5.9-0.1,8.8-0.2c14.1-0.7,28.2-0.4,42.3,1.2c19.2,2.2,37.9,6.7,55.7,14.4c7.8,3.4,15.2,7.2,22.1,12.2
			c0.5,0.4,1.3,0.6,1.9,0.6c13-1.3,25.5,1.2,38,4.4c14.3,3.6,28.2,8.5,41.7,14.4c4.6,2,9.2,2.7,14,2.4c5.5-0.2,11-0.6,16.4-0.8
			c6-0.2,11.9,0.1,17.7,1.8c13.2,3.7,22,16,21.3,29.7c-0.2,4.6-1.7,8.9-3.9,12.9c-3.2,5.7-7.5,10.4-12.4,14.7
			c-5.4,4.6-11.3,8.5-17.5,11.8c-1.1,0.6-2.2,1.3-3.2,2.2c-8.5,7.1-17.8,13-28.6,16.1c-19.8,5.7-38.1,2.1-54.9-9.5
			c-0.9-0.6-1.8-1.2-2.8-1.7c-13.3-7-26.6-13.9-40.4-19.8c-5.6-2.3-11.2-4.4-17.1-5.9c-9-2.4-18-2.3-27.1-0.3
			c-8.2,1.9-16.4,3.8-24.6,5.6c-10.7,2.3-21.6,3.9-32.5,5c-17,1.7-34,2.6-51.1,2.3c-21-0.3-41.5-3.5-61.2-10.8
			c-24.7-9.1-45.3-23.9-62.3-43.9c-7.7-9-14.4-18.7-20.6-28.7c-2.8-4.5-5.4-9-8.3-13.5c-1.6-2.6-3.4-5.2-5.3-7.6
			c-2.9-3.8-6.9-5.8-11.5-6.7c-3.6-0.7-6.7,0.7-8.6,3.8C69.8,243.7,69.2,245.7,69.1,248z"/>
		<path class="st0" d="M433.2,360.4c-9.8,1.1-18.5-1.4-27.2-5.1c0.5-0.4,0.9-0.8,1.3-1c1.1-0.6,2.2-1.2,3.3-1.6
			c2.7-1.2,5.3-1.4,8.1,0.3c4,2.4,8.3,4.3,12.4,6.4C431.8,359.6,432.4,359.9,433.2,360.4z"/>
		<path id="body" class="st0" d="M223.4,605.4c-0.4-1.1-0.6-1.7-0.8-2.3c-2.7-7.9-6.9-14.9-12.2-21.3c-0.6-0.7-1.1-1.4-2-0.1
			c4.7,6.7,5.2,14.2,3.9,22.4c-4.2-1.1-8.1-2.5-12.2-4.1c0-3-0.1-6,0-9c0.1-4.2,0.4-8.5,1.5-12.6c0.4-1.6,1.1-3.1,1.8-4.6
			c0.9-1.7,2.3-2.9,4.4-2.9c0.4,0,0.9,0,1.2-0.2c0.2-0.1,0.5-0.5,0.5-0.8c0-0.2-0.3-0.7-0.5-0.7c-0.5-0.1-1.1-0.2-1.6,0
			c-2.2,0.7-4.5,1.3-6.6,2.3c-3.5,1.7-5.5,4.7-5.9,8.6c-0.5,4.9-1.3,9.8-2.8,14.5c-0.2,0.5-0.4,1-0.6,1.6c-0.7-0.4-1.3-0.6-1.7-0.8
			c-0.5-3.6-0.8-7.1-1.5-10.5c-0.4-2-1.3-3.9-2.2-5.7c-0.9-1.8-2.5-2.8-4.8-3.1c1,5.1,1.9,10.1,2.1,15.3c-0.5-0.2-0.8-0.3-1.1-0.4
			c-3.1-2.1-6.1-4.5-8.6-7.3c-4.2-4.5-6.8-9.8-7.4-15.9c-0.2-1.6,0-3.3,0.6-4.8c1-2.9,2.5-5.6,3.7-8.4c0.4-0.9,0.8-1.9,1-2.9
			c3-14.1,5.9-28.3,9-42.4c0.8-3.7,1.9-7.4,2.9-11.1c0.2-0.7,0.5-1.4,1-2c0.2,2.3,0.4,4.7,0.6,7c0.9,8.3,2.9,16.3,6.6,23.8
			c4,7.9,9.6,14.2,17.7,18c3.3,1.6,6.8,2.5,10.4,3.1c0.6,0.1,1.2,0.1,1.9,0.1c0.1-0.6,0.1-1.1,0.2-1.8c-1.2-0.2-2.2-0.4-3.3-0.6
			c-9.7-1.8-17.1-7-22.5-15.2c-3.9-6-6.2-12.6-7.7-19.6c-2.1-10-2.5-20-0.9-30c0.5-3.3,1-6.6,1.5-10c0.2-1.5,1-2.4,2.7-3.1
			c-0.3,0.9-0.6,1.5-0.8,2.1c-0.2,1.1-0.5,2.1-0.5,3.2c0,1.7,0.9,2.8,2.5,3.4c1.6,0.6,3.1,0.5,4.3-0.8c0.8-0.9,1.4-1.9,1.9-2.9
			c0.9-2.1,1.7-4.2,2.5-6.3c0.3-0.8,0.6-1.5,0.9-2.4c1.5,0,2.9,0,4.4,0c-0.3,0.7-0.5,1.4-0.8,2c-1.8,4.8-3,9.7-2.9,14.8
			c0,1.5,0.4,3.1,0.9,4.6c0.7,1.9,2.2,2.9,4.3,2.8c0.2,0,0.4,0,0.6,0c5.7-0.2,8.4-2.7,8.4-8.4c0-4,0.4-7.8,2.2-11.4
			c0.3-0.6,0.6-1.2,1-1.9c9.1,2.8,16.8,7.9,24.8,13c-0.3,0.5-0.6,1-1,1.4c-2.1,2.5-3.4,5.4-4.2,8.6c-0.7,2.6-1.9,5.1-2.9,7.7
			c-0.5,1.3-1.1,2.5-1.5,3.8c-0.5,1.7,0.2,3,1.9,3.5c2.4,0.8,4.9,1.5,7.3,2c2.3,0.5,4.4-0.2,5.8-2.2c1.1-1.5,2.1-3.1,2.7-4.8
			c1.1-3.2,2-6.6,2.9-9.8c0.5-1.6,0.9-3.1,1.4-4.7c5.2,0.9,10.3,1.8,15.6,2.8c0,0.2,0.1,0.6,0.1,1c-0.1,2.8,0.4,5.5,1.5,8
			c1.2,2.9,1.9,6,2.1,9.2c0.1,0.8,0.2,1.6,0.4,2.4c0.5,2.1,1.9,3.3,4,3.5c1.1,0.1,2.2,0.1,3.3-0.1c2.8-0.4,4.5-2.1,5.1-4.9
			c0.5-2.1,0.2-4.2-0.3-6.3c-0.6-2.3-1.3-4.5-2-6.7c-0.7-2.2-1.2-4.3-0.9-6.8c7.6-0.9,15.1-2.7,22.5-5.3c1.1,2.2,1.5,4.6,1.7,6.9
			c0.2,2.4,0.2,4.8,0.4,7.2c0.3,2.9,1.2,5.6,3.1,7.9c0.8,1,1.9,2,3.1,2.6c1.5,0.9,3.1,0.8,4.7,0c1.6-0.8,3.2-1.6,4.8-2.4
			c2.8-1.4,3.4-3,1.9-5.8c-0.1-0.2-0.2-0.4-0.3-0.5c-1.6-1.7-1.7-3.7-1.6-5.9c0.1-5.3-0.3-10.5-2-15.6c0-0.1,0-0.3,0-0.6
			c6.4-3.1,13.3-3,20-3.3c0.8,1.8,1.6,3.3,2.2,4.8c0.3,0.8,0.5,1.7,0.5,2.6c-0.1,2.5-0.5,4.9-0.7,7.4c-0.2,2.3-0.4,4.7-0.2,7
			c0.2,3,2,4.3,5,4.2c0.7,0,1.5-0.1,2.2-0.2c3.8-0.8,5.7-2.9,5.9-6.8c0.1-1.9,0.1-3.8-0.1-5.7c-0.4-3.7-0.9-7.5-1.3-11.2
			c-0.1-0.5,0-1,0-1.5c0.4-0.1,0.8-0.2,1.1-0.2c6.9,0.5,13.8,1,20.7,1.5c3.1,0.2,5.2,2,6.7,4.5c1.9,3.1,2.9,6.5,3.3,10.1
			c0.5,3.8,0.8,7.6,1.1,11.6c0.4,0,1,0.1,1.5,0.1c0.1-0.4,0.2-0.6,0.2-0.8c0.1-6-0.5-11.9-2.4-17.6c-0.6-1.7-1.4-3.3-2.3-4.8
			c-2-3.3-4.9-5-8.8-5.3c-6.5-0.4-13-0.9-19.5-1.4c-0.5,0-1.1-0.1-1.7-0.2c-0.4-1.7,0-3.3,0.5-4.9c1-3,2.3-5.9,3.4-8.8
			c0.4-1,0.9-2,1.1-3.1c0.5-2.3-0.6-4-2.8-4.8c-1.4-0.5-2.9-0.9-4.3-1.3c-2.1-0.6-3.8,0.1-5,1.9c-0.8,1.2-1.5,2.5-1.9,3.9
			c-1.3,4.5-2.5,9.1-3.7,13.7c-0.3,1-0.3,2-0.5,3.2c-7.2,0.5-14.5,0.3-21.2,3.6c-4.3-3.7-6.1-8.3-6.2-13.7c0-1.1-0.1-2.2-0.3-3.3
			c-0.7-3-2.8-4.2-5.7-3.3c-2.5,0.7-4.4,2.2-5.6,4.5c-2,4-2.2,8.3-1.4,12.6c0.2,1.2,1,2.2,1.5,3.4c0.8,1.8,1.5,3.6,2.4,5.7
			c-7.3,2.5-14.4,4.4-22,5.2c0.1-3.1,0.8-5.9,1.7-8.6c0.7-2.1,1.1-4.2,1.2-6.4c0-1,0-2.1-0.2-3.1c-0.3-2-1.5-3.8-4.2-3.6
			c-0.7,0.1-1.4,0-2.1,0c-2.5-0.1-4.2,1.2-5.1,3.4c-0.5,1.3-0.7,2.8-0.9,4.2c-0.2,1.7-0.1,3.4-0.2,5.1c-0.2,3.3-1.3,6.3-2.9,9.1
			c-2.8,0.4-11.1-0.9-14.9-2.5c0.4-1.2,1.2-2.1,2.2-2.8c0.7-0.5,1.1-1.2,1.2-2c0.3-2.1,0.4-4.2-0.2-6.3c-0.5-2-1.8-3.2-3.8-3.5
			c-1-0.2-2-0.3-3.1-0.4c-3.4-0.3-5.3,1.2-5.9,4.6c-0.4,2.1-1,4-2.6,5.6c-0.6-0.3-1.2-0.6-1.8-0.9c-7.4-4.7-14.8-9.3-23.5-12.3
			c1.5-2.2,2.9-4.1,5.5-4.7c2-0.5,3.6-1.6,5-3.1c2.3-2.8,3.8-6,4.4-9.6c0.5-3-0.7-4.5-3.6-4.7c-2.4-0.1-4.8-0.1-7.2,0.1
			c-3.3,0.3-7,4.2-7.4,7.5c-0.1,0.8-0.4,1.6-0.8,2.3c-1.6,2.9-3.8,5.2-6.6,6.9c-0.5,0.3-1.1,0.4-1.4,0.9c-1.1,1.9-2.9,1.7-4.7,1.7
			c-0.5,0-1,0-1.7,0c0.7-2.1,1.4-4,2.7-5.6c3.9-4.6,4.7-10,4.5-15.6c-0.1-2.3-0.5-4.6-0.7-6.9c-0.1-1.1-0.6-1.6-1.6-1.8
			c-0.5-0.1-0.9-0.2-1.4-0.3c-2.2-0.4-3.8,0.5-4.5,2.6c-0.4,1.2-0.8,2.6-0.6,3.8c0.6,7.6-2.1,14.3-5.4,20.8c-0.4,0.9-1,1.7-1.3,2.6
			c-0.8,2.3-2.5,3.7-5,4.5c3.6-17.3,9.3-33.8,17.3-49.5c0.2,0.2,0.4,0.3,0.5,0.4c1.1,2.7,3.4,3.5,5.9,3.9c1.3,0.2,2.6,0.2,3.9,0.2
			c4.7-0.1,9.3,0.6,14.1,1.2c-0.1,0.8-0.2,1.6-0.3,2.3c-0.3,2.5-0.4,4.9,0.2,7.4c1,4.1,3.6,6.5,7.8,7.2c0.8,0.1,1.6,0.3,2.6,0.4
			c-0.4,1.1-0.7,2.1-1,3.1c-0.5,1.5-0.5,2.9,0.1,4.4c0.5,1.1,0.8,2.3,1.2,3.5c1.5,4.8,4.6,8,9.2,9.9c3.8,1.6,7.7,2.4,11.8,2.7
			c5,0.4,10,0.7,14.9-0.7c2-0.6,4.1-1.3,5.8-2.4c9.3-5.8,6.3-17.8-0.9-21.5c-2.6-1.3-3-2.2-2.3-5c0.2-0.7,0.4-1.4,0.6-2.2
			c-0.6-0.2-1-0.4-1.5-0.6c-0.2,0.1-0.4,0.2-0.4,0.3c-0.7,1.6-1.1,3.3-1,5c0.1,1.9,0.9,3.2,2.7,4c4.6,2,7.2,7,6.4,12
			c-0.5,2.9-2.2,5-4.6,6.5c-2.5,1.6-5.4,2.5-8.3,2.8c-6.7,0.6-13.3,0.4-19.8-1.6c-1.7-0.5-3.3-1.3-4.9-2.1c-2.5-1.4-4.3-3.4-5.3-6.1
			c-0.7-1.9-1.5-3.8-2-5.8c-0.2-0.8-0.1-1.8,0.3-2.6c0.9-2.2,1.8-4.3,2.9-6.3c3.7-6.7,8.1-12.9,12.5-19.1c0.4-0.6,0.8-1.1,1.3-1.8
			c-0.5-0.4-0.9-0.8-1.5-1.2c-1.8,2.5-3.6,4.9-5.2,7.3c-0.8,1.3-1.7,1.6-3.2,1.3c-4.2-0.8-8.4-1.1-12.6-2.1c-4.4-1-8.9-1.3-13.4-1.8
			c-2.3-0.2-4.6-0.1-7-0.2c-1.9-0.1-3.8-0.1-5.8-1.4c3.9-0.2,7.1-1.5,10.3-2.6c3.5-1.2,6.9-1.4,10.4,0c3.1,1.3,6.4,2,9.8,2.3
			c5.5,0.4,10.7-0.5,15-4.3c0.5-0.4,1.2-0.6,1.8-1c1.7-1.1,3.6-2,5.2-3.3c2.8-2.5,2.6-5.3-0.3-7.6c-0.8-0.6-1.6-1.1-2.5-1.5
			c-7.6-3.4-15.4-6.6-23.6-8.3c-6.3-1.3-12.6-1.7-18.9,0.2c-1.5,0.5-2.9,1.1-4.7,1.7c0.2-0.6,0.4-1,0.6-1.4c1.1-2.2,2.3-4.4,3.4-6.6
			c1.3-2.6,1.8-5.4,1.9-8.4c0.2-5.6-0.3-11.1-1-16.6c-0.5-3.9-1.1-7.9-1.7-11.9c0.6,0,1.1-0.1,1.6,0c14.2,2.4,28.5,3.1,42.8,2.6
			c8.6-0.3,17.1-0.6,25.7-1.1c18.9-1.2,37.6-3.9,56-8.4c5.5-1.3,11.1-2.7,16.6-3.8c8.8-1.8,17.5-1.3,26,1.2
			c9,2.6,17.6,6.4,26.1,10.4c0.1,0.1,0.2,0.2,0.5,0.4c-0.3,0.1-0.6,0.3-0.8,0.4c-8.8,3-13.5,9.4-15.4,18.2
			c-1.2,5.7-0.8,11.4,0.1,17.2c1.6,10.1,3.2,20.2,4.7,30.3c0.1,1,0,2.1-0.2,3c-2.9,10.5-5.5,21.1-7.3,31.8
			c-1.1,6.6-1.9,13.2-1.9,19.8c0,4.6,0.9,9.1,2.1,13.6c0.9,3.4,1.8,6.9,2.9,10.3c0.6,1.7,1.4,3.3,2.4,4.7c1.9,2.6,4.4,3.3,7.4,2.1
			c1.4-0.6,2.8-1.4,4.4-2.2c0.2,2.1,0.4,4,0.6,6c0.7,6.8,1.4,13.6,2.9,20.3c0.7,3.2,1.8,6.2,3.6,9.1c3.2,5,4.8,10.6,6,16.3
			c1.8,9.2,1.7,18.4-1.4,27.4c-2,5.8-5,10.9-9.1,15.5c-0.7,0.8-1.6,1.5-2.4,2.3c-0.2,0.2-0.4,0.2-0.9,0.4c-0.8-7.7-0.8-15.2-1-22.6
			c-1.5-0.5-2.5,0.1-3.1,1.2c-0.6,1.1-1.1,2.4-1.3,3.6c-0.5,3.9-1,7.9-1.3,11.8c-0.2,2.9-0.2,5.9-0.3,9.2c-1.8-3.3-3.3-6.2-4.9-9
			c-1.1,0.2-1.5,0.5-1,1.4c1.5,3,1.5,6.2,1,9.5c-0.1,0.9-0.4,1.3-1.3,1.6c-4.7,1.6-9.4,2.9-14.4,4c-0.1-0.4-0.2-0.7-0.2-1
			c0-6.3,0.6-12.6,2.1-18.7c0.2-0.8,0.5-1.6,0.7-2.4c0.8-2.8,2.3-5.1,4.6-6.9c1.3-1,2.5-2.1,4-3.3c-2.1,0.5-5.1,2-6.3,3.4
			c-3.2,3.7-6.5,7.4-9.5,11.3c-4.3,5.7-7.4,12-9.4,18.9c-0.2,0.5,0,1.3-1.2,1.4c-0.2-1.6-0.4-3.3-0.6-5c-0.8-6.7-1.8-13.3-3.8-19.8
			c-0.7-2.3-1.6-4.5-2.7-6.7c-0.6-1.2-1.5-2.3-2.4-3.3c-0.9-1-2.2-1.6-4-1.5c2.4,12.3,4.9,24.6,5.5,37c-1.6,0.7-1.7,0.8-3.8,0.6
			c-1.6-3.9-1.9-8.7-0.9-15.6c-0.5,0.6-0.8,1-1,1.4c-2.5,4.4-4.8,8.9-6.4,13.8c-0.4,1.2-1,1.7-2.3,1.8c-2.6,0.1-5.2,0.4-7.8,0.6
			c-0.5,0-0.9,0-1.1,0c-1.5-3.1-3-6-4.5-8.9c-0.4-0.8-1.2-1.5-1.9-2.3c-0.4,0.3-0.8,0.6-1.1,0.9c1.7,3.4,2.4,6.9,2.3,10.8
			c-1.7,0.1-3.2,0.1-4.9,0.2c-0.9-3.2-1.7-6.4-2-9.6c-0.2-2.4-0.3-4.9-0.1-7.4c0.2-2.7,1.5-4.8,4.3-5.6c0.2,0,0.3-0.2,0.5-0.4
			c-2.3-1-3.5-0.9-4.9,0.9c-1.1,1.5-2,3.3-2.7,5c-1.9,4.9-2.6,10.1-3.3,15.2c-0.1,0.7-0.2,1.3-0.3,2.1c-3.5,0.1-6.9,0.3-10.2,0.4
			c-9.5,0.1-18.9,0.3-28.4,0c-7.2-0.2-14.5-1.1-21.7-1.8c-1.9-0.2-3.8-0.5-5.7-0.7c-1-0.1-1.4-0.5-1.5-1.5c-0.6-4.9-2-9.6-3.6-14.3
			c-0.4-1-0.7-2.1-0.9-3.1c-0.6-2.3-2.3-3.7-4-5.1c0.5,1.1,0.9,2.2,1.4,3.3c1.4,2.6,1.6,5.3,1,8.2c-0.8,3.7-1.9,7.3-3.5,10.9
			c-1.4-0.2-2.7-0.4-4.1-0.7c-0.8-2.9-1.6-5.7-2.4-8.4c-1.2-0.3-1.5,0.1-1.5,1.1c0,2.3-1,4.2-2.3,6.1c-0.7-0.2-1.4-0.3-2.2-0.5
			c-0.4-5.6,0.5-11.2,1-16.9c-1.5-0.1-2.4,0.7-2.8,1.9c-0.7,2.1-1.2,4.2-1.6,6.3c-0.3,1.5-0.3,3-0.5,4.5
			C223.7,604.2,223.6,604.5,223.4,605.4z M324.4,426.1c0.9,0,1.6,0,2.2,0c4.4,0.1,8.8,0,13.1-1c3-0.7,5.6-1.9,6.4-5.4
			c0.9,0.2,1.7,0.4,2.5,0.6c1.8,0.4,3.6,1,5.4,1.2c1.6,0.2,3.3,0.3,4.9,0.2c3.2-0.3,4.7-2.5,3.8-5.6c-0.3-0.9-0.7-1.8-1.1-2.6
			c-1.9-3.4-4.3-6.3-7.5-8.6c-3.5-2.5-7.3-4.3-11.3-5.7c-12.1-4-24.5-5.4-37.1-4c-3.8,0.4-7.6,1.1-11,3c-1.1,0.6-2.2,0.8-3.5,0.9
			c-3.9,0.4-7.8,0.7-11.6,1.3c-3,0.5-6,1.4-8.6,3.2c-3.4,2.3-4,5.6-1.5,8.8c1.2,1.6,3,2.8,4.5,4.1c0.6,0.5,1.2,1,1.4,1.9
			c0.6,2.7,2.3,4.9,4.6,6.3c1.7,1.1,3.7,1.8,5.5,2.7c0.6,0.3,1.3,0.4,1.9,0.6c-0.3,3.4,1.2,5.9,3.5,7.9c0.7,0.6,1.5,1.2,2.3,1.7
			c4.2,2.6,8.7,4.5,13.5,5.2c5.9,0.9,10.7-1,13.9-6.2c1.2-2,2-4.3,2.9-6.5C323.9,428.9,324.1,427.6,324.4,426.1z M374.5,527.1
			c-0.5,0.4-0.9,0.6-1.2,0.8c-4.3,3.2-8.9,5.9-13.7,8.3c-15.1,7.3-31.2,11-47.8,12.6c-5.7,0.5-11.5,0.6-17.2,0.9
			c-0.3,0-0.5,0.1-0.8,0.2c0,0.6,0,1.1,0,1.9c0.8,0,1.6,0,2.3,0c4.8-0.2,9.6-0.4,14.4-0.7c10.7-0.8,21.3-2.7,31.6-5.8
			c11.4-3.4,22.1-8.1,31.7-15.1c0.6-0.4,1.2-0.9,1.8-1.4C375.2,528.1,374.9,527.7,374.5,527.1z"/>
	</g>
	<g id="arms">
		<path class="st0" d="M393.2,470.5c0.1-8.8,1.2-16.5,2.7-24.1c1.8-9.5,3.9-18.9,6.9-28.1c2.8-8.8,7.9-16.1,15.4-21.5
			c7-5,14.9-6.4,23.3-5.3c4.9,0.6,9.5,2.1,13.9,4.1c1.2,0.5,2.4,1.3,3.3,2.3c7,7,12.8,15,17.9,23.5c1.9,3.2,3.9,6.4,6.2,9.4
			c3.9,5.2,9.1,8.4,15.6,9.4c3.8,0.5,7.7,0.4,11.5-0.1c4.5-0.6,9.1-1.4,13.6-2c3.9-0.5,7.9-0.8,11.9-0.2c1.2,0.2,2.4,0.5,3.5,1
			c1.2,0.6,1.4,1.4,0.6,2.5c-0.6,0.8-1.4,1.6-2.2,2.2c-1.6,1.1-3.1,2.2-4.8,3.1c-10.3,5.5-21.1,9.8-32.5,12.4
			c-5.5,1.2-11,1.7-16.5,0.7c-2.7-0.5-5.3-1.4-7.7-2.8c-1.5-0.9-3.1-1.8-4.5-2.9c-7.5-6.3-14.7-12.8-20.4-20.8
			c-1.5-2.1-3-4.3-4.6-6.3c-1.1-1.4-2.3-2.7-3.7-3.8c-2.3-1.9-5-2.2-7.7-0.7c-1.4,0.8-2.8,1.8-4,2.9c-3.7,3.4-6.7,7.4-9.3,11.7
			c-2.8,4.5-3.4,9.3-1.7,14.4c0.8,2.6,1.5,5.3,2,8c0.7,4.8-0.1,9.4-1.4,14c-2.2,7.8-5.7,15.1-9.8,22.1c-1.4,2.5-4.1,3.8-6.9,4.4
			c-1.4,0.3-2.6-0.3-3.4-1.4c-0.9-1.3-1.9-2.8-2.4-4.3c-1.4-4.4-2.5-9-3.7-13.5C393.5,477,393.1,473.2,393.2,470.5z"/>
		<path class="st0" d="M197.3,433.9c-4.7,12.2-8.1,24.6-10.4,37.5c-0.7-0.3-1.2-0.5-1.6-0.7c-3.3-2.1-6.6-4.1-9.9-6.3
			c-1.6-1.1-3-2.4-3.9-4.2c-0.3-0.5-0.7-1-1.1-1.4c-3.2-3.1-6.8-5.5-10.9-7.3c-0.6-0.2-1.2-0.4-1.8-0.5c-1.3-0.1-2.1,0.9-1.6,2.1
			c0.3,0.8,0.8,1.6,1.4,2.2c1.5,1.7,3.1,3.3,4.7,4.9c5.2,5,10,10.3,14.1,16.3c2.7,3.9,5.1,8,6.1,12.7c0.4,1.9,0.5,3.8-0.1,5.7
			c-2.9,9.4-4.9,19-7,28.5c-0.3,1.5-1,2.4-2.3,3.1c-2.4,1.2-5,1.9-7.7,2c-9,0.6-17.8-0.6-26.3-3.6c-1.7-0.6-3.4-1.5-4.9-2.5
			c-1.8-1.2-1.7-2.3,0.2-3.4c1.4-0.8,2.8-1.4,4.3-1.8c3-0.8,6-1.4,9-2.1c2.8-0.6,5.6-1.5,8.1-2.9c5.3-3,7.2-7.8,5.4-13.6
			c-1.1-3.4-2.9-6.3-5.1-9.1c-4.1-5.3-9-9.8-14.5-13.6c-7.9-5.4-12.4-12.9-13.8-22.2c-1.5-9.9,1.9-17.9,10.4-23.6
			c4.8-3.2,10.2-4.7,15.9-5.2c9.8-0.8,19.3,0.8,28.6,3.5c4.6,1.4,9.1,3.1,13.6,4.7C196.5,433.4,196.8,433.6,197.3,433.9z"/>
	</g>
	<g id="teeth_1_">
		<path class="st0" d="M208.7,442.3c-0.3,1.9-0.4,4.3-1,6.5c-0.4,1.6-1.1,3.3-2.1,4.6c-2.2,3-3.7,6.2-4.9,9.6
			c-0.9,2.6-1.8,5.2-2.8,7.7c-0.4,1.1-1.1,2.2-1.8,3.2c-0.7,1-1.6,1.1-2.5,0.7c-1-0.4-1.4-1.2-1.2-2.1c0.2-1.2,0.5-2.4,1.1-3.5
			c1.2-2.6,2.7-5.1,3.9-7.7c1.7-3.7,3.3-7.4,4.8-11.1c1.2-2.9,1.6-6.1,1.5-9.3c0-1.8,0.2-3.7,0.4-5.5c0.1-1,0.7-1.8,1.9-1.8
			c1.3-0.1,1.9,0.3,2.1,1.6C208.3,437.5,208.5,439.7,208.7,442.3z"/>
		<path class="st0" d="M325.1,490.9c0,0.6,0.1,1.2,0,1.8c-0.3,2.3,0,4.3,1.7,6c0.2,0.2,0.4,0.6,0.5,0.9c0.8,1.6,0.6,2.1-1,2.9
			c-1.6,0.8-3.3,1.7-4.9,2.5c-1.2,0.6-2.5,0.5-3.5-0.3c-1-0.9-2-1.9-2.7-3.1c-1.5-2.4-2.1-5.1-2-7.9c0.2-6-1.4-11.6-3.6-17.1
			c-0.6-1.5-1.4-3-2-4.5c-2-4.6-1.4-9.1,0.9-13.4c0.9-1.7,2.5-2.6,4.5-3c1.4-0.3,2.1,0.1,2.5,1.4c0.3,0.8,0.4,1.7,0.4,2.6
			c0,5.5,1.5,10.4,5.4,14.4c1.8,1.8,2.5,4.3,2.9,6.7c0.5,3.3,0.8,6.6,1.2,10C325.3,490.9,325.2,490.9,325.1,490.9z"/>
		<path class="st0" d="M229.5,444.5c1.2,0.1,2.5,0.1,3.7,0.3c1.3,0.2,1.8,0.7,1.6,1.9c-0.7,4.1-2.2,7.8-5.6,10.4
			c-0.7,0.5-1.6,0.9-2.4,1.1c-1.9,0.4-3.4,1.4-4.6,2.9c-4,4.8-6.5,10.2-6.6,16.6c0,1.4,0,2.9-0.2,4.3c-0.3,2.2-1.5,3.6-3.7,4.1
			c-0.4,0.1-0.8,0.2-1.2,0.3c-3.5,0.5-4.8-0.5-5.1-4.1c-0.3-2.9,0.1-5.7,0.7-8.6c0.7-3.2,1.7-6.3,3.1-9.3c0.7-1.4,1.6-2.4,3-3.2
			c3.2-1.8,5.6-4.4,7.3-7.6c0.5-1,0.9-2.2,1-3.3c0.1-1.1,0.6-1.9,1.3-2.7C223.8,445.2,226.4,444.3,229.5,444.5z"/>
		<path class="st0" d="M348.5,492.3c0.3-2.7,0.7-5.4,1-8c0.2-1.6,0.3-3.3,0.2-4.9c0-0.9-0.2-2-0.7-2.7c-1.9-2.7-1.9-5.7-1.2-8.7
			c1.2-4.7,2.5-9.4,3.8-14.1c0.3-1,0.8-1.9,1.3-2.8c0.7-1.2,1.8-1.7,3.2-1.2c1.3,0.4,2.6,0.8,3.9,1.2c1.3,0.5,1.8,1.3,1.5,2.7
			c-0.2,0.9-0.6,1.7-1,2.5c-1.9,3.7-3.4,7.5-4,11.6c-0.5,3.3,0,6.6,0.3,9.8c0.4,3.9,0.8,7.8,1.1,11.7c0,0.4,0,0.8,0,1.2
			c0,4.3-2.1,6.2-6.9,6c-1.2,0-1.9-0.6-2.2-1.8C348.7,494,348.6,493.1,348.5,492.3z"/>
		<path class="st0" d="M275.4,489.9c0.5-1.8,0.6-3.6,1.4-5.1c1.8-3.5,2.3-7.3,2.5-11.1c0.1-1,0-2.1,0.1-3.1c0.1-0.9,0.3-1.9,0.7-2.8
			c0.6-1.4,1.6-2.2,3.2-2.1c0.5,0,1,0,1.4,0c2.4,0,2.8,0.3,3.1,2.8c0.2,2.3,0,4.6-0.8,6.9c-1.3,3.9-2.2,7.9-2.3,12
			c0,2.8,0.5,5.4,1.4,8c0.8,2.5,1.6,5.1,2.1,7.7c0.3,1.3,0.1,2.7-0.1,4.1c-0.3,1.7-1.5,2.5-3.1,2.9c-0.3,0.1-0.5,0.1-0.8,0.1
			c-3.5,0.3-4.4-0.4-4.8-3.9c-0.3-3.4-1-6.7-2.3-10C276.3,494.3,276,492.1,275.4,489.9z"/>
		<path class="st0" d="M260.9,475.5c0.2,1.5-0.3,2.9-1.7,4.1c-1.7,1.5-2.6,3.7-3.2,5.9c-0.9,3-1.6,6.1-2.5,9.1
			c-0.8,2.4-1.6,4.8-2.7,7.1c-1.6,3.1-3.2,3.7-6.6,2.8c-1.6-0.5-3.3-0.9-4.9-1.3c-1.3-0.4-1.5-0.7-1-2.1c0.4-1.1,0.9-2.2,1.4-3.2
			c1.4-2.7,2.5-5.5,3-8.5c0.5-2.6,1.8-4.7,3.4-6.7c0.9-1.2,1.9-2.3,2.9-3.5c1.4-1.7,2.4-3.6,2.7-5.9c0.4-2.8,1.5-3.6,4.4-3.3
			c0.4,0,0.8,0.1,1.2,0.2c2.9,0.5,3.6,1.2,3.7,4.1C260.9,474.6,260.9,474.9,260.9,475.5z"/>
	</g>
	<g id="eyebrow">
		<path class="st0" d="M196.8,407.7c0.9-0.8,1.7-1.8,2.7-2.4c4.7-3.2,9.4-6.4,14.2-9.5c3.4-2.2,7.3-3.1,11.3-3.3
			c7.2-0.5,14,1.1,20.7,3.5c4.5,1.6,8.8,3.4,13.2,5.2c1.1,0.5,2.2,1.1,3.2,1.8c1.7,1.3,1.8,2.8,0.2,4.1c-1.4,1.2-3.1,2.1-4.7,3.2
			c-1,0.7-2.1,1.2-3.1,2c-2.9,2.2-6.2,3.1-9.8,3.2c-4.7,0.2-9.3-0.9-13.6-2.7c-4.2-1.7-8.4-3.7-12.6-5.6c-0.9-0.4-1.8-0.8-2.6-1.2
			c-3.6-2-7.1-2-10.9-0.4c-2.1,0.9-4.2,1.5-6.4,2.2c-0.5,0.2-1.1,0.2-1.6,0.3C197,408,196.9,407.8,196.8,407.7z"/>
		<path class="st0" d="M223.9,412.3c-3.6,1.1-7.1,2.2-10.5,3.1c-0.7,0.2-1.5,0.2-2.2,0c-3.3-0.8-6.6-1.6-9.9-2.6
			c-1.6-0.4-3.1-1-4.4-2.6c3.8-0.5,7.1-2.1,10.5-3.3c2.2-0.8,4.4-0.7,6.6,0.3c3.1,1.5,6.3,3,9.5,4.5
			C223.5,411.9,223.6,412,223.9,412.3z"/>
		<path class="st0" d="M356.5,419.9c-1.4-0.2-2.8-0.3-4.2-0.7c-4.6-1.4-9.4-2-14.1-2.6c-8.8-1.1-17.7-2.1-26.6-1.8
			c-2.5,0.1-5,0.5-7.5,0.9c-1.8,0.3-3.4,1.1-4.7,2.4c-1.6,1.6-3.8,2-5.9,2c-7.4,0.1-14.2-2-20.2-6.4c-1.1-0.8-2.1-2-2.8-3.2
			c-1-1.6-0.7-3.2,0.8-4.4c1.2-1,2.6-1.7,4.1-2.3c4.2-1.6,8.6-2,13.1-2.4c0.7-0.1,1.4-0.1,2.1-0.1c2,0,3.8-0.3,5.6-1.5
			c2.7-1.7,5.9-2.1,9.1-2.5c13.1-1.4,26-0.1,38.5,4.4c3.4,1.2,6.5,2.9,9.4,5c2.9,2.1,5.2,4.9,6.9,8.1c0.4,0.8,0.8,1.8,0.9,2.7
			c0.2,1.4-0.3,2.1-1.7,2.4C358.3,419.8,357.4,419.8,356.5,419.9z"/>
		<path class="st0" d="M277.5,418.8c2.7,0.8,5.1,1.7,7.4,2.3c3.3,0.8,6.7,1.2,10.2,0.7c2.1-0.3,4.1-1,5.7-2.5c1.3-1.3,3-1.6,4.7-1.9
			c1.6-0.3,3.3-0.4,4.9-0.5c8.4-0.4,16.7,0.4,25,1.5c2.8,0.3,5.5,0.8,8.3,1.1c0.1,1.6-0.7,2.4-1.8,2.8c-2,0.7-4,1.3-6.1,1.6
			c-6.4,0.9-12.8,0.3-19.2-0.9c-2.5-0.5-5-0.8-7.5-1.1c-4.4-0.4-8.6,0.6-12.7,1.8c-2.2,0.6-4.3,1.4-6.4,2.2
			c-0.9,0.3-1.8,0.5-2.8,0.1c-1.9-0.8-4-1.5-5.8-2.5C279.7,422.4,278.4,420.9,277.5,418.8z"/>
	</g>
	<g id="eyes">
		<path class="st0" d="M233.5,429.9c5.6,1.7,7.7,0.7,11.6-5.3c1.6,0.2,3.3,0.4,5.1,0.7c-0.2,0.5-0.3,0.9-0.5,1.2c-2,3.3-4,6.5-6,9.8
			c-0.5,0.8-1,1.1-2,1.1C236.9,437.3,233.8,434.6,233.5,429.9z"/>
		<path class="st0" d="M233.6,425.4c1.6,0.6,3.3,0.4,4.5-0.7c1.5-1.3,3-1.1,4.6-0.4c-0.7,1.7-1.8,2.9-3.4,3.8
			c-1.7,1-4.2,0.7-5.6-0.6c-0.4-0.4-0.4-1.1-0.6-1.7C233.3,425.6,233.4,425.5,233.6,425.4z"/>
		<path class="st0" d="M290,431.9c4.8,2.9,9.5,2.9,14.2,1.5c3.6-1.1,5.9-3.6,6.9-7.3c0.2-0.6,0.3-1.2,0.5-2c3.5,0.2,7,1,10.6,1.6
			c0,0.6,0,1.2-0.1,1.7c-0.6,2.6-1.3,5.2-2.7,7.5c-2.9,4.9-7.3,7-12.8,6c-4.4-0.8-8.5-2.5-12.3-4.9C292.6,435,291.1,433.9,290,431.9
			z"/>
		<path class="st0" d="M309.5,423.7c-0.5,4-2.4,6.7-6.1,7.9c-3.2,1-6.5,0.9-9.7,0c-1.7-0.5-2.5-1.5-2.5-2.9c0-0.7,0-1.4,0.9-1.6
			c0.9-0.2,1.7-1.1,2.7-0.2c0.5,0.4,1,0.9,1.6,1.2c2.4,1.5,4.7,0.8,6-1.7c0-0.1,0.1-0.1,0.1-0.2c0.3-2.2,1.9-2.6,3.7-2.5
			C307.2,423.7,308.3,423.7,309.5,423.7z"/>
		<path class="st0" d="M300.9,424.4c-1.1,2.8-2,3-4.2,1.2C298,425.2,299.3,424.9,300.9,424.4z"/>
		<path class="st0" d="M236.3,423.2c-0.9,0.8-1.7,0.7-2.7-0.3C234.7,422.2,235.5,423.1,236.3,423.2z"/>
	</g>
	<path id="sky" class="st0" d="M612.2,0.4c-203.9,0-407.9,0-611.8,0v526.7c0.1,0,0.3,0,0.4,0c4.9-2,9.8-4,14.7-5.8
		c8.6-3.1,17-6.4,24.8-11.2c0.1,0,0.1-0.1,0.2-0.1c11.8-8.7,24.6-15.5,38.1-21.4c-0.3-2.6-1.8-4.8-3.1-7.4c3.5,0.9,4.7,3.6,6.1,6
		c1.4-0.5,0.8-2.5,2.4-2.9c-0.2,0.7-0.3,1.3-0.5,2c0.5-0.1,1-0.2,1.4-0.3c3.5-1.3,7-2.7,10.6-3.9c1.1-0.4,1.7-1,2-2.1
		c0.3-0.9,0.8-1.8,1.5-2.6c0.1,0.8,0.1,1.6,0.3,2.3c0.1,0.3,0.5,0.5,0.8,0.7c0.2-0.3,0.7-0.7,0.7-1c-0.3-2-1-3.8-2.5-5.3
		c2.3-0.5,3.2,0.3,4.8,4.6c1.2-2.2,2.3-4.4,3.5-6.4c1.2-2,2.7-3.8,4.6-5.3c-2.2,3.4-4.1,6.9-4.4,11.2c8.9-2.3,17.6-4.5,26.5-6.8
		c-0.4-0.5-0.7-1.1-1.1-1.6c-4.4-6.2-6.9-13-6.8-20.7c0.1-7.8,3.3-14.2,9.4-19c4.7-3.8,10.2-5.8,16.1-6.7c9.1-1.3,18-0.2,26.9,1.9
		c6.2,1.5,12.3,3.4,18.2,5.9c0.6,0.3,1.3,0.5,1.9,0.7c2.4-5.3,4.8-10.4,7.2-15.7c-1.2-0.3-2.4-0.5-3.5-0.9c-1.8-0.7-3.6-1.3-5.2-2.4
		c-2.5-1.7-2.8-4.5-0.7-6.7c1.3-1.3,2.7-2.5,4.2-3.6c2.8-2,5.7-3.9,8.5-5.8c0.6-0.4,1.2-1.1,1.6-1.8c1.9-3.5,3.8-7,5.6-10.5
		c1.1-2.2,1.5-4.5,1.6-7c0.2-6.8-0.5-13.6-1.4-20.3c-0.3-2.3-0.7-4.6-1.1-6.9c-0.1-0.7-0.3-1.5-0.5-2.3c-21.1-4-40.8-11.5-58.4-23.1
		c-6.7,2.3-13.1,4.5-19.5,6.6c-7.7,2.4-15.5,4.2-23.5,5c-5.1,0.5-10.3,0.6-15.3-0.6c-3-0.8-5.9-1.9-8-4.3c-1.3-1.4-2.4-3.1-3.1-4.8
		c-2.5-6.2-5.8-11.8-10.7-16.4c-3.9-3.7-5.3-8.5-5.8-13.7c-0.5-4.7-0.7-9.4-1.2-14.1c-1.1-11.9-3.3-23.6-6.3-35.2
		c-0.9-3.4-0.5-6.5,0.7-9.6c1.5-3.9,4.2-6.8,7.7-9.1c4.4-2.8,9.2-4.2,14.2-5.1c9-1.7,18.1-1.5,27.3-1.1c0.9,0,1.7,0.1,2.5-0.6
		c4.8-3.9,10.4-5.3,16.5-5.3c0.6,0,1.2,0,1.9,0c0.1,0,0.1,0,0.3-0.1c0.2-0.3,0.4-0.7,0.6-1.1c2.2-5.1,6.2-7.8,11.6-8.7
		c5.7-0.9,11.2,0.1,16.6,1.9c2.2,0.7,3.9,0.6,5.8-0.7c5.5-3.4,11.4-6.1,17.8-7.1c6.1-1,11.9-0.2,17,3.7c0.8,0.6,1.4,0.5,2.2,0.2
		c3.8-1.5,7.5-2.9,11.3-4.3c0.9-0.3,1.5-0.8,2.1-1.5c1-1.1,2-2.3,3.1-3.3c4.4-3.8,9.3-4.6,14.8-2.6c3.2,1.2,6.1,3,8.5,5.2
		c2.6,2.4,4.9,4.9,7.6,7.6c2.2-0.5,4.7-1.2,7.3-1.7c3.8-0.7,7.6-0.9,11.4-0.2c5.2,1,9.7,3.4,12.8,7.9c9.3-1,16.1,3.6,22.3,9.5
		c-0.2,0.3-0.2,0.3-0.3,0.4c0,0-0.1,0.1-0.2,0.1c-0.3,0-0.5,0.1-0.8,0.1c-14.2,0-28.4,0-42.6,0c-0.1,0-0.1,0-0.2,0
		c-0.1,0-0.1,0-0.5,0.1c0.9,1.4,1.7,2.8,2.5,4.2c0.8,1.4,1.5,2.8,2.2,4.3c3,0.4,6,1.1,8.6,3c0.5,0.4,1.4,0.3,2.2,0.4
		c8.6,0.8,17.1,0,25.7-0.1c25.8-0.4,51.2,2.6,75.7,10.8c9.9,3.3,19.5,7.4,28.5,12.7c1.8,1,3.6,2,5.2,3.3c1.8,1.4,3.6,1.8,5.9,1.6
		c6.5-0.6,12.9,0.1,19.2,1.1c20.5,3.4,40.1,10.1,59.1,18.2c3.2,1.4,6.5,2.1,10,2c3.7-0.1,7.4-0.3,11.1-0.5
		c6.4-0.3,12.9-0.6,19.3,0.2c3.6,0.4,7.2,1.2,10.5,2.6c10.1,4.1,15.8,12,18.3,22.3c1.8,7.5,0.4,14.6-3.1,21.3
		c-3.7,6.9-9,12.4-15,17.3c-5,4.1-10.4,7.6-16.1,10.6c-1,0.5-2,1.2-2.9,1.9c-8.4,7.1-17.6,12.9-28.2,16.1
		c-20.7,6.3-39.8,2.8-57.5-9.3c-2.7-1.8-5.4-3.1-8.7-3.2c-1.4,0-2.9-0.1-4.3-0.1c-6.7,0.3-13.1-1-19.3-3.3c-2.2-0.8-4.5-1.7-6.8-2.5
		c-1.7,1.3-2.9,3.1-3.9,4.9c-2.2,4.1-3,8.5-3.2,13.1c-0.2,3.7,0.3,7.4,0.9,11c1.3,8.5,2.6,16.9,4,25.4c0.1,0.6,0.2,1.2,0.4,2.2
		c0.6-1.1,0.9-1.8,1.3-2.4c3-5.8,6.9-10.9,12.1-14.9c7.6-5.9,16.3-7.9,25.7-6.7c5.3,0.7,10.3,2.2,15.1,4.5c1.5,0.7,2.8,0.7,4.3,0.3
		c4.2-1.2,8.5-2.3,12.7-3.4c0.7-0.2,1.3-0.4,2.3-0.6c-0.5-1.1-1-2.2-1.5-3.2c0.1-0.1,0.2-0.2,0.3-0.2c0.8,0.7,1.6,1.4,2.2,2.2
		c0.6,0.7,1.2,0.9,2,0.6c1.2-0.3,2.4-0.6,3.6-0.8c0.9-2.5,0.9-5.3,2.9-7.2c0.2-0.2,0.7-0.2,1.2-0.4c-0.6,2.4-1.2,4.6-1.9,7.2
		c16-3.2,31.8-5.2,47.8-6.5c-0.5-2.9-1.8-5.1-3.1-7.4c2.4,0.1,3.2,0.9,6.2,6.1c0.6-1.2,1.1-2.3,1.6-3.4c0.1,0,0.3,0.1,0.4,0.1
		c0,1.3-1,2.7,0.3,4.1c3-0.1,6.1-0.3,9.2-0.4c0.1-0.1,0.2-0.1,0.3-0.1c0.5,0,1,0,1.5,0c7.1-0.7,14.4,0.2,21.5,0.2c4,0,8-0.1,12,0
		c3.9,0,7.8,0.6,11.7,0.2c0,0,0.1,0,0.1,0c0,0,0,0,0,0c5.2,1,10.6,0.2,15.7,1.4c0.1-0.1,0.2-0.1,0.4-0.1c0.6,0.1,1.2,0.3,1.8,0.5
		C612.2,255.5,612.2,128,612.2,0.4z M77,376.7c2.3-0.6,3.5-1.7,4.5-3.8c1.3-2.8,3.1-5.3,5.4-7.5c5.2-5.1,11.4-6.6,18.4-4.4
		c3.7,1.2,7,3.1,10.1,5.5c0.9,0.7,1.7,1.3,2.8,2.2c0.3-1,0.5-1.7,0.7-2.4c0.6-1.6,1.1-3.2,1.9-4.7c3.7-7.1,9.9-9.8,17.7-7.9
		c4.2,1,8,3,11.5,5.3c1.1,0.7,2.1,0.9,3.4,0.4c3.2-1.2,6.4-1.9,9.9-1.8c4.9,0.2,8.7,2.2,10.6,7c0.1,0.2,0.2,0.5,0.3,0.6
		c1.8,0.2,3.5,0.2,5.2,0.5c5,0.8,8.9,3.5,11.4,7.9c0.6,1,1.2,1.7,2.5,1.7c1,0,2,0.4,3,0.8c2.9,1.2,4,3.5,3.2,6.5
		c-0.1,0.5-0.3,0.9-0.5,1.4c-1.5,3.6-1.7,3.7-5.5,3.7H71.6C69.9,383.1,72.3,377.9,77,376.7z M559.4,223c-0.8,0-1.6,0.1-2.4,0.1
		c-7.4,0-14.8,0.1-22.2,0c-1.8,0-2.7,0.6-3.8,2.1c-9.6,13.7-22.9,20.5-39.6,19.5c-14.4-0.9-25.6-7.7-33.8-19.6c-1-1.4-1.9-2-3.6-1.9
		c-25.7,0.1-51.4,0-77.1,0c-4.5,0-8-2-11.2-4.9c-2.2-2-2.1-4.4,0-6.5c1.2-1.2,2.7-2.2,4.2-3c4.4-2.4,9.3-3.7,14.1-5
		c2.4-0.6,5-0.7,7.1-1.9c2.1-1.2,3.5-3.4,5.2-5.1c4.4-4.3,9-8.2,14.3-11.4c3.8-2.3,7.9-4.2,12.4-4.8c2.6-0.4,5-0.1,7.5,0.5
		c1.9,0.5,3.9,0.8,5.8,1.2c5.3,1,10.6,1.9,16,2.8c0.2,0,0.4,0,0.7,0c8.7-21.7,31.2-32.7,52.8-26.9c20,5.3,34.8,24.6,32.4,47.7
		c1.5,1.3,3.3,2.5,4.1,4.6c0.8,2,0.3,4-0.2,6.2c0.7,0,1.3,0,1.9,0c3.5-0.3,7-0.2,10.4,0.6c0.9,0.2,1.7,0.5,2.5,1
		C558.7,219.2,559.7,220.7,559.4,223z"/>
</g>
<g>
	<g id="outlines">
		<path d="M573.3,529c-4.5-0.7-9-1.4-13.8-2.2c0.6-1.3,1-2.6,1.6-3.7c0.6-1.1,1.5-2,2.3-2.9c-0.1-0.1-0.2-0.3-0.3-0.4
			c-0.5,0.3-1,0.5-1.4,0.9c-1.7,1.5-3.3,3-5.1,4.5c-0.5,0.4-1.2,0.9-1.7,0.9c-2.6-0.3-5.3-0.7-7.9-1.1c-0.2-0.9-0.3-1.6-0.6-2.3
			c-0.8-2.7-1.6-5.4-2.6-8c-0.4-1.2-1.3-2.2-2.1-3.2c-0.6-0.8-1.6-1.2-2.7-0.7c1.9,4.5,3.5,8.9,4.1,13.7
			c-12.9-1.7-25.5-3.4-38.1-5.1c-0.1-0.5-0.1-0.9-0.2-1.3c-0.5-4.4-0.9-8.9-1.6-13.3c-0.5-3.2-1.5-6.4-2.5-9.5
			c-0.4-1.3-1.3-2.4-2.1-3.5c-0.8-1-1.4-1-2.8-0.2c2.2,0.9,3.1,2.6,3.5,4.8c0.1,0.9,0.3,1.8,0.3,2.6c-0.1,2.6-0.1,5.2-0.5,7.8
			c-0.6,3.8-1.4,7.7-2.2,11.6c-1.3-0.2-2.3-0.3-3.4-0.5c-0.1-1.4-0.2-2.7-0.2-4c0-1.2,0-2.5,0.1-3.7c0.1-1.3,0.5-2.6,0.7-3.8
			c0.1-1.2,1.3-2.2,0.7-4c-0.7,0.8-1.1,1.3-1.5,1.9c-2.1,3.1-3.2,6.7-3.9,10.3c-0.2,0.9-0.4,1.8-0.6,2.8c-9.6-1.1-19.1-2.1-28.6-3.1
			c1-4.2,1.1-8.1,0.8-12.1c-0.2-3.4-1-6.8-2.1-10c-0.2-0.4-0.5-0.8-0.7-1.2l-0.5,0.1c1.4,6,0.9,11.8-1.2,17.5
			c-1.4-4.3-1.1-8.7-1.2-13.4c-1.9,0.7-2.2,2.2-2.4,3.5c-0.3,2.9-0.4,5.7-0.5,8.6c0,0.7,0,1.3,0,2.3c-1.1-0.7-1.9-1.3-2.7-1.7
			c-1.5-0.7-3-1.5-4.5-1.9c-1.8-0.4-2.9,0.6-2.9,2.7c0.4-0.3,0.7-0.5,1-0.8c0.8-0.6,1.5-0.6,2.2,0c1.5,1.3,2.4,3,3.3,5
			c-11.9-0.9-23.4-1.8-35-2.7c-0.3-3.9-0.6-7.5-1-11.2c-0.2-1.5,0.1-2.8,0.9-4.1c3.8-7,7.2-14.2,9.4-21.9c2-7.1,2.2-14.2-0.2-21.2
			c-0.3-0.8-0.5-1.7-0.8-2.6c-1-3.5-0.6-6.8,1-10c2.8-5.3,6.4-9.9,10.9-13.8c3.9-3.4,6.6-3.1,10,0.8c0.6,0.7,1.2,1.5,1.8,2.2
			c1.2,1.6,2.4,3.2,3.5,4.8c5.8,8.3,13.2,15.2,20.9,21.7c4.4,3.7,9.5,6,15.2,6.7c5.1,0.6,10.1,0.2,15.1-0.9
			c11.8-2.6,22.9-7.1,33.5-12.7c1.9-1,3.6-2.2,5.3-3.5c1.1-0.8,2-1.9,2.7-3.1c1-1.6,0.6-3.3-1.1-4.3c-1-0.6-2.1-1-3.2-1.3
			c-4.4-1-8.9-0.8-13.3-0.2c-4.6,0.6-9.1,1.4-13.6,2c-3.7,0.5-7.5,0.7-11.3,0.2c-5.3-0.7-9.7-3.1-13.4-7c-2.6-2.8-4.7-6.1-6.6-9.4
			c-5.3-9.1-11.4-17.6-18.8-25.1c-0.3-0.3-0.5-0.6-0.9-1.1c5.5-1.7,10.9-3.1,16.4-4.3c0.5,2.6-0.3,4.9-0.4,7.2
			c1.6-2.5,1.3-5.3,1.5-8.1c1.1,1.2,2.1,2.5,2.8,3.8c0.6,1.1,1,2.2,1.4,3.4c-0.1-1.2-0.3-2.3-0.7-3.5c0-0.1,0-0.2,0-0.3
			c-0.7-1-1.3-2-2-3.1c1.3-0.3,2.4-0.5,3.7-0.8c-0.2,1.6-0.4,3-0.6,4.6c0.2,0.6,0.3,1.1,0.4,1.7c0.6-3.3,0.9-6.6,1.9-9.8
			c-0.2,2.6-0.5,5.2-0.6,7.7c-0.1,3.8,0.3,5.9,1.3,7.7c1-2.8,2-5.5,3-8.1c0.1,0,0.2,0,0.4,0c0.3,2.4,0.6,4.8,0.9,7.2
			c0.1-0.1,0.3-0.1,0.4-0.2c0.1-0.5,0.2-1.1,0.2-1.6c-0.1-3.2-1-6.3-2.2-9.4c-0.2,0-0.4,0.2-0.5,0.4c0.5,3.3-0.6,6.2-2,9
			c-0.7-3.2-0.7-6.4-0.2-9.8c0.6-0.1,1.1-0.2,1.8-0.3c0.3-0.2,0.6-0.4,1-0.4c0.1,0,0.2,0,0.2,0.1c15-2.9,29.9-4.8,45.2-5.9
			c-0.2,1.5-0.3,2.6-0.5,3.8c0.2,0,0.3,0,0.5,0c1.7-3.7-0.2-7.1-1.3-10.6c0.8,0.8,1.6,1.6,2,2.5c0.9,1.8,1.5,3.7,2.3,5.5
			c0.2,0.5,0,1.3,1,1.4c0.3-1.2-1-2.4-0.1-3.7c0.8,0.7,0.9,2,2.2,2.5c-0.2-0.7-0.3-1.1-0.5-1.8c1.2-0.1,2.4-0.2,3.5-0.3
			c1.8-0.1,3.7-0.1,5.6-0.2c0.5,0,1-0.2,0.7-1c-3.5,0.1-7,0.3-10.4,0.4c-1.3-1.4-0.3-2.8-0.3-4.1c-0.1,0-0.3-0.1-0.4-0.1
			c-0.5,1.1-1,2.2-1.6,3.4c-3.1-5.3-3.8-6-6.2-6.1c1.3,2.3,2.6,4.5,3.1,7.4c-16,1.3-31.8,3.3-47.8,6.5c0.7-2.6,1.3-4.8,1.9-7.2
			c-0.5,0.2-1,0.1-1.2,0.4c-2,1.9-1.9,4.7-2.9,7.2c-1.2,0.3-2.4,0.5-3.6,0.8c-0.8,0.2-1.4,0-2-0.6c-0.7-0.8-1.5-1.5-2.2-2.2
			c-0.1,0.1-0.2,0.2-0.3,0.2c0.5,1,1,2.1,1.5,3.2c-0.9,0.3-1.6,0.5-2.3,0.6c-4.2,1.1-8.5,2.2-12.7,3.4c-1.5,0.4-2.8,0.4-4.3-0.3
			c-4.8-2.2-9.8-3.8-15.1-4.5c-9.5-1.2-18.1,0.8-25.7,6.7c-5.2,4-9,9.1-12.1,14.9c-0.3,0.7-0.7,1.3-1.3,2.4
			c-0.2-1.1-0.4-1.7-0.4-2.2c-1.3-8.5-2.6-16.9-4-25.4c-0.6-3.7-1.1-7.3-0.9-11c0.3-4.6,1-9,3.2-13.1c1-1.9,2.2-3.6,3.9-4.9
			c2.3,0.9,4.6,1.7,6.8,2.5c6.2,2.3,12.6,3.6,19.3,3.3c1.4-0.1,2.9,0.1,4.3,0.1c3.3,0,6,1.3,8.7,3.2c17.7,12.1,36.8,15.6,57.5,9.3
			c10.6-3.2,19.7-9.1,28.2-16.1c0.9-0.7,1.9-1.4,2.9-1.9c5.7-3,11.1-6.5,16.1-10.6c6-4.9,11.3-10.4,15-17.3c3.5-6.7,5-13.8,3.1-21.3
			c-2.5-10.3-8.2-18.1-18.3-22.3c-3.4-1.4-6.9-2.2-10.5-2.6c-6.4-0.8-12.9-0.5-19.3-0.2c-3.7,0.2-7.4,0.4-11.1,0.5
			c-3.5,0.1-6.7-0.6-10-2c-19.1-8.1-38.6-14.8-59.1-18.2c-6.4-1-12.8-1.7-19.2-1.1c-2.2,0.2-4.1-0.1-5.9-1.6
			c-1.6-1.3-3.4-2.3-5.2-3.3c-9-5.3-18.6-9.4-28.5-12.7c-24.6-8.2-49.9-11.3-75.7-10.8c-8.6,0.1-17.1,0.9-25.7,0.1
			c-0.7-0.1-1.6,0-2.2-0.4c-2.6-1.9-5.6-2.6-8.6-3c-0.8-1.5-1.5-2.9-2.2-4.3c-0.8-1.4-1.6-2.7-2.5-4.2c0.3-0.1,0.4-0.1,0.5-0.1
			c0.1,0,0.1,0,0.2,0c14.2,0,28.4,0,42.6,0c0.3,0,0.5,0,0.8-0.1c0.1,0,0.1-0.1,0.2-0.1c0,0,0.1-0.1,0.3-0.4
			c-6.3-5.9-13.1-10.5-22.3-9.5c-3.2-4.5-7.6-6.9-12.8-7.9c-3.8-0.7-7.7-0.6-11.4,0.2c-2.5,0.5-5,1.2-7.3,1.7
			c-2.6-2.6-5-5.2-7.6-7.6c-2.5-2.3-5.3-4.1-8.5-5.2c-5.4-2-10.4-1.1-14.8,2.6c-1.1,1-2.1,2.1-3.1,3.3c-0.6,0.7-1.2,1.2-2.1,1.5
			c-3.8,1.4-7.6,2.8-11.3,4.3c-0.8,0.3-1.4,0.4-2.2-0.2c-5-3.9-10.8-4.7-17-3.7c-6.5,1-12.3,3.7-17.8,7.1c-2,1.2-3.6,1.4-5.8,0.7
			c-5.4-1.8-10.9-2.8-16.6-1.9c-5.4,0.9-9.4,3.6-11.6,8.7c-0.2,0.4-0.4,0.8-0.6,1.1c-0.2,0.1-0.3,0.1-0.3,0.1c-0.6,0-1.2,0-1.9,0
			c-6.1,0-11.7,1.4-16.5,5.3c-0.8,0.6-1.6,0.6-2.5,0.6c-9.1-0.4-18.2-0.6-27.3,1.1c-5,0.9-9.9,2.3-14.2,5.1
			c-3.5,2.2-6.3,5.1-7.7,9.1c-1.2,3.1-1.6,6.3-0.7,9.6c3,11.5,5.2,23.3,6.3,35.2c0.4,4.7,0.7,9.4,1.2,14.1c0.5,5.2,1.9,10,5.8,13.7
			c4.9,4.6,8.2,10.2,10.7,16.4c0.7,1.7,1.8,3.4,3.1,4.8c2.1,2.4,5,3.5,8,4.3c5.1,1.3,10.2,1.1,15.3,0.6c8-0.8,15.8-2.6,23.5-5
			c6.5-2,12.8-4.3,19.5-6.6c17.6,11.7,37.3,19.2,58.4,23.1c0.2,0.8,0.3,1.6,0.5,2.3c0.4,2.3,0.7,4.6,1.1,6.9
			c0.9,6.7,1.7,13.5,1.4,20.3c-0.1,2.4-0.4,4.8-1.6,7c-1.8,3.5-3.7,7-5.6,10.5c-0.4,0.7-1,1.3-1.6,1.8c-2.8,2-5.7,3.8-8.5,5.8
			c-1.5,1.1-3,2.2-4.2,3.6c-2.1,2.2-1.8,5,0.7,6.7c1.6,1,3.4,1.7,5.2,2.4c1.1,0.4,2.3,0.6,3.5,0.9c-2.4,5.3-4.8,10.5-7.2,15.7
			c-0.7-0.2-1.3-0.5-1.9-0.7c-5.9-2.4-12-4.4-18.2-5.9c-8.9-2.1-17.8-3.2-26.9-1.9c-5.9,0.9-11.4,2.9-16.1,6.7
			c-6.1,4.9-9.3,11.2-9.4,19c-0.1,7.7,2.4,14.5,6.8,20.7c0.4,0.5,0.7,1.1,1.1,1.6c-8.9,2.3-17.6,4.5-26.5,6.8
			c0.3-4.3,2.2-7.7,4.4-11.2c-1.9,1.5-3.4,3.3-4.6,5.3c-1.3,2.1-2.4,4.3-3.5,6.4c-1.6-4.2-2.5-5.1-4.8-4.6c1.5,1.5,2.2,3.3,2.5,5.3
			c0,0.3-0.4,0.7-0.7,1c-0.3-0.2-0.7-0.4-0.8-0.7c-0.2-0.8-0.2-1.6-0.3-2.3c-0.7,0.8-1.2,1.7-1.5,2.6c-0.3,1.1-0.9,1.7-2,2.1
			c-3.6,1.2-7.1,2.6-10.6,3.9c-0.4,0.1-0.8,0.2-1.4,0.3c0.2-0.7,0.3-1.3,0.5-2c-1.6,0.4-1,2.4-2.4,2.9c-1.4-2.4-2.6-5.1-6.1-6
			c1.4,2.6,2.8,4.7,3.1,7.4c-13.8,6-26.9,12.9-39,22c0.4,0.5,0.6,0.8,0.9,1.2c6-4.4,12.1-8.4,18.6-11.9c6.4-3.5,12.9-6.8,20-9.7
			c-0.2,1.5-0.3,2.7-0.5,3.8c1.4-1.5,1.3-3.3,0.9-5.1c-0.5-1.8-1.1-3.5-1.7-5.3c0.8,0.5,1.4,1.1,1.7,1.8c0.9,2,1.8,4.1,2.6,6.2
			c0.2,0.4,0.4,0.8,0.6,1.2c0.6-1.4-0.7-2.6,0.2-4c0.7,0.9,1.3,1.8,1.8,2.6c0.1-0.1,0.3-0.2,0.4-0.2c-0.5-1-1-2-1.5-3.1
			c4.3-1.6,8.5-3.2,12.6-4.7c0.4,0.5,0.7,0.8,1.1,1.4c0.1-1.8,0-3.2,1-4.5c0.8,1.9,1.5,3.6,3.4,4.9c0.2-3.4-0.4-6.4-1.3-9.3
			c1.8,1.8,1.6,4.3,2.5,6.6c0.7-3.2,1.6-6.1,3.6-8.6c-0.6,3.3-1.5,6.5-0.7,9.9c0.2,0,0.3,0,0.5,0V480c3.4-1,6.6-2,9.8-2.8
			c5.4-1.4,10.9-2.7,16.4-4c1-0.2,1.9-0.5,2.9,0.4c1.6,1.5,3.4,2.8,5.1,4.1c5.7,4.1,10.8,8.8,14.9,14.6c1.5,2.1,2.8,4.4,3.6,6.9
			c1.5,4.9,0.1,8.7-4.4,11.1c-2.3,1.2-4.8,1.9-7.3,2.7c-3.7,1.1-7.4,1.8-11.1,2.9c-1.4,0.4-2.8,1.2-4,2.1c-2.1,1.6-2.2,3.7-0.2,5.4
			c1.3,1.1,2.8,2,4.3,2.7c3.4,1.7,7.1,2.5,10.8,3.2c8.9,1.5,17.9,2.8,26.9-0.9c-0.1,0.8-0.2,1.5-0.3,2.1c-1.3,6.7-2.6,13.4-4,20.2
			c-0.2,1.1-0.7,2.2-1.2,3.2c-1.5,2.8-3.1,5.7-3.8,8.9c-0.4,1.6-0.7,3.4-0.5,5.1c0.8,7.1,3.9,13.1,8.9,18.1c2.7,2.8,5.8,5.2,9.1,7.3
			c0.9,0.6,1.4,1.3,1.2,2.3c-0.4,2.3-0.9,4.7-1.4,7.2c0,0,0.3,0.2,0.7,0.5c1.4-1.7,1.7-3.7,2-5.6c0.7-5.7-0.1-11.3-1-17
			c-0.1-0.6-0.2-1.3-0.3-1.9c0.1-0.1,0.3-0.1,0.4-0.2c0.6,0.8,1.3,1.6,1.6,2.5c0.7,1.6,1.3,3.3,1.6,5.1c1.3,6.3,1.1,12.7,0.7,19.1
			c-0.1,1.9-0.4,3.8-0.6,6.1c0.4-0.6,0.6-0.8,0.8-1.1c4.1-9.4,7.5-19,8.3-29.3c0.2-3.3,1.7-6,4.6-7.8c0.3-0.2,0.7-0.2,1.3-0.4
			c-2,3.8-2.7,7.6-3.2,11.5c-0.7,6.2-0.5,12.3-0.2,18.5c0.1,3.1,0.5,6.1,0.8,9.3c0.6-0.1,1-0.2,1.4-0.3c-0.3-3.2-0.5-6.2-0.8-9.4
			c4.1,1.4,7.8,2.6,11.6,3.9c-0.1,0.5-0.1,0.7-0.2,1c-0.8,2.7-1.6,5.4-2.5,8c-0.3,0.9-0.4,1.5,0.9,1.5c1.3-2.7,2.2-5.6,2.9-8.5
			c1.6-6.3,2-12.7,0.7-19.1c5.6,8.3,9.6,17.2,9.4,27.3c1.3,0.5,1.5-0.1,1.5-1c0.1-3.2,0.2-6.4,0.5-9.7c0.2-2.6,0.6-5.1,0.8-7.7
			c0.3,1.3,0.3,2.6,0.3,3.9c0,2.5,0,5.1,0.1,7.6c0.1,1.5,0.4,2.9,1.5,4.3c2.3-2.4,3.8-5.2,5.3-8.2c0.2,0.3,0.4,0.4,0.4,0.6
			c1.2,5,2.6,10,1.4,15.2c-0.1,0.3,0.3,0.7,0.4,1c0.3-0.1,0.7-0.3,1-0.4c0.1-0.1,0.1-0.2,0.2-0.3c3.5-6.7,6.7-13.5,8.3-20.9
			c0.1-0.5,0.3-0.9,0.5-1.5c1.6,4.1,3,10.5,3.2,14.5c0.2,3.8,0.1,7.5-2.4,10.8c0.4,0.3,0.7,0.6,1,0.9c1.5-1.6,2.2-3.4,2.6-5.4
			c0.3-1.9,0.4-3.9,0.6-5.9c2.4,0.3,4.7,0.6,7.1,0.9c8.1,0.9,16.2,1.9,24.4,1.8c10.9,0,21.8-0.2,32.7-0.3c0.9,0,1.7,0,2.6,0
			c-0.2,3.3-0.4,6.4-0.6,9.4c0.8,0.3,1.3,0.5,1.5-0.3c0.1-0.4,0-0.8,0.1-1.2c0.7-6.1,1.3-12.3,2.1-18.4c0.2-1.9,0.8-3.8,1.3-5.7
			c0.2,0,0.3,0,0.5,0c0.6,9.6,3.4,18.6,7,27.9c2.6-6.3,3.7-12.4,3.4-18.8c0.7,1.1,1.1,2.2,1.5,3.4c1.7,5.8,2.2,11.7,2,17.7
			c0,0.6-0.1,1.2,0,1.8c0.1,0.9,0.6,0.9,1.4,0.5c0-2.9,0.1-5.8,0-8.6c-0.1-2.9-0.6-5.7-0.9-8.8c3.2-0.2,6.3-0.5,9.5-0.7
			c-0.3,3.3-1.5,6.4,0.1,9.4c1.1-0.1,1-0.6,0.9-1.4c-0.1-1.6-0.2-3.3,0-4.9c0.8-4.9,2.8-9.4,4.9-13.9c0.1-0.2,0.3-0.3,0.6-0.7
			c1,7.8,3.2,15,6.2,22.3c1.3-2,1.7-3.8,2-5.7c0.8-6.5,0.2-12.9-0.7-19.3c-1.1-7.7-2.5-15.4-3.8-23.1c-0.1-0.5-0.1-1.1-0.2-1.8
			c1.7,1.1,2.3,1.5,3.1,3.3c1.1,2.4,2.2,4.9,2.9,7.4c2.8,9.7,3.8,19.8,4.5,29.8c0.1,1.2,0.2,2.5,0.3,3.7c0,0.7,0.3,1.1,1.3,0.7
			c0.4-6.5,1.8-12.9,4.6-18.9c2.8-6.1,6.4-11.6,10.9-16.6c-2.2,8.8-2.7,17.7-2.6,26.7c0.6-0.1,1-0.1,1.3-0.2
			c0.1-0.8,0.1-1.5,0.2-2.1c5-1.4,9.9-2.7,15-4.1c-0.6,3.6-1.9,6.8-3.1,10.1c0.5,0.2,0.8,0.3,1.3,0.5c2.4-5.9,4.1-11.8,4.4-18.1
			c2.1,3.7,3.2,7.7,3.3,11.9c1.5,0.1,1.5,0.1,1.4-1.4c-0.4-7.4-0.3-14.8,0.2-22.2c0.2-2.7,0.7-5.4,1.2-8.1c0.1-0.7,0.2-1.6,1.1-2.1
			c0,0.5,0.1,0.8,0.1,1.2c0.3,6.2,0.4,12.3,0.8,18.5c0.2,3.1,0.7,6.1,1.2,9.2c0.2,1.1,0.4,2.3,1.3,3c1-0.4,0.8-0.9,0.6-1.7
			c-0.5-1.8-0.8-3.6-1.2-5.4c-0.3-1.2,0.1-2,1.1-2.8c1.2-0.9,2.3-1.9,3.3-3.1c4-4.6,7.1-9.7,9.2-15.5c3.8-10.6,3.7-21.4,1-32.2
			c-1.3-5.1-3.1-10.1-5.9-14.6c-0.9-1.4-1.7-2.9-2.1-4.4c-1-4.1-1.7-8.2-2.5-12.3c-0.2-1.2-0.3-2.4-0.5-3.8c2.9,0.2,5.5,0.3,8,0.5
			c8.1,0.6,16.3,1.3,24.4,1.9c1.9,0.1,3.5,0.3,4.1,2.4c0,0,0.1,0,0.2,0c0.4-1.1,0.3-1.5-1.3-4.6c-0.8-1.5-1.6-2.9-2.5-4.4
			c0.1-0.1,0.1-0.2,0.2-0.2c2,1.3,3.9,2.5,6.1,3.9c-0.1-4.2-0.2-8.2,0.5-12.1c0.6,4.1,0.4,8.3,2.5,12.4c1.9-4.1,2.4-8.2,3.2-12.3
			c1.1,5.3,0.7,10.5-0.7,15.7c-0.2,0.6-0.3,1.2-0.3,1.8c0,0.1,0.3,0.2,0.5,0.4c0.3-0.6,0.6-1.1,1-1.7c9.5,1,18.9,2.1,28.5,3.1
			c0,0.9,0,1.5,0,2.2c-0.1,3.6-0.2,7.3-0.3,10.9c0,0.5,0.2,0.9,0.3,1.4c0.2,0,0.4,0,0.6,0c-0.2-8.5,0.1-16.9,3.4-24.8
			c-0.7,6.5,0.3,12.8,2.5,19.4c1.8-4.9,3.1-9.5,4-14.2c0.9-4.7,1.5-9.4,2.3-14.2c0.2,0.7,0.4,1.3,0.5,2c0.7,5.1,1.5,10.2,2.1,15.3
			c0.3,2.7,0.4,5.5,0.6,8.2c0,0.5-0.1,1.3,0.9,1.5V521c10.9,1.3,21.7,2.7,32.3,4.3c-1.1,3.3-2.2,6.3-3.1,9.4c-0.8,3-1.3,6-0.8,9.1
			c0.1,0.3,0.3,0.6,0.5,0.8c0.2,0,0.3,0,0.5-0.1c-0.5-4.9,0.3-9.6,2.3-14.4c0.9,2.9,1.6,5.5,2.6,8c1.8,4.7,2.8,6.3,4,7.2
			c2.7-11.3,1.6-22.2-2.4-33.1c0.7,0.8,1.4,1.6,1.8,2.5c0.7,1.8,1.4,3.7,2,5.6c1.7,6.1,2.5,12.4,3.2,18.6c0.1,0.4,0.2,0.8,0.3,1.2
			c1-1.9,1.5-3.9,2.5-5.7c1-1.9,2.4-3.7,3.7-5.4c1.3-1.6,2.7-3.1,4.6-4.7c-1.3,6.6-0.4,14.4,2.1,16c-1.1-4-2.3-7.7-1.8-11.9
			c2.2,0.3,4,0.6,5.9,0.9c2.2,0.3,4.5,0.7,6.7,1C572.8,530.4,573.5,530.4,573.3,529z M101.1,483c-0.1,0-0.2,0-0.3,0.1
			c-0.1-0.3-0.2-0.6-0.3-0.9c0.1,0,0.2-0.1,0.4-0.1C101,482.4,101,482.7,101.1,483z M402.8,418.3c2.8-8.8,7.9-16.1,15.4-21.5
			c7-5,14.9-6.4,23.3-5.3c4.9,0.6,9.5,2.1,13.9,4.1c1.2,0.5,2.4,1.3,3.3,2.3c7,7,12.8,15,17.9,23.5c1.9,3.2,3.9,6.4,6.2,9.4
			c3.9,5.2,9.1,8.4,15.6,9.4c3.8,0.5,7.7,0.4,11.5-0.1c4.5-0.6,9.1-1.4,13.6-2c3.9-0.5,7.9-0.8,11.9-0.2c1.2,0.2,2.4,0.5,3.5,1
			c1.2,0.6,1.4,1.4,0.6,2.5c-0.6,0.8-1.4,1.6-2.2,2.2c-1.6,1.1-3.1,2.2-4.8,3.1c-10.3,5.5-21.1,9.8-32.5,12.4
			c-5.5,1.2-11,1.7-16.5,0.7c-2.7-0.5-5.3-1.4-7.7-2.8c-1.5-0.9-3.1-1.8-4.5-2.9c-7.5-6.3-14.7-12.8-20.4-20.8
			c-1.5-2.1-3-4.3-4.6-6.3c-1.1-1.4-2.3-2.7-3.7-3.8c-2.3-1.9-5-2.2-7.7-0.7c-1.4,0.8-2.8,1.8-4,2.9c-3.7,3.4-6.7,7.4-9.3,11.7
			c-2.8,4.5-3.4,9.3-1.7,14.4c0.8,2.6,1.5,5.3,2,8c0.7,4.8-0.1,9.4-1.4,14c-2.2,7.8-5.7,15.1-9.8,22.1c-1.4,2.5-4.1,3.8-6.9,4.4
			c-1.4,0.3-2.6-0.3-3.4-1.4c-0.9-1.3-1.9-2.8-2.4-4.3c-1.4-4.4-2.5-9-3.7-13.5c-1-3.7-1.4-7.4-1.3-10.2c0.1-8.8,1.2-16.5,2.7-24.1
			C397.7,436.9,399.9,427.5,402.8,418.3z M406,355.3c0.5-0.4,0.9-0.8,1.3-1c1.1-0.6,2.2-1.2,3.3-1.6c2.7-1.2,5.3-1.4,8.1,0.3
			c4,2.4,8.3,4.3,12.4,6.4c0.6,0.3,1.1,0.7,2,1.2C423.4,361.5,414.7,359,406,355.3z M206.3,205.1c3.5-1.3,6.9-2.7,10.4-3.9
			c1.1-0.4,2-1,2.8-1.9c0.9-1.1,1.9-2.2,3-3.1c4-3.4,8.5-4.2,13.4-2.5c3.8,1.3,7,3.5,9.8,6.3c2.3,2.2,4.3,4.6,6.5,6.8
			c2.9-0.7,5.9-1.4,8.9-2c3.3-0.6,6.6-0.6,9.8-0.1c5.4,0.9,9.8,3.4,12.9,8.1c4-0.7,7.8-0.1,11.4,1.5c3.3,1.5,6.2,3.5,9.1,6.1
			c-0.8,0.1-1.2,0.2-1.7,0.2c-13.4,0-26.7,0-40.1,0c-1.1,0-1.9-0.4-2.6-1.2c-3.9-4.5-8.5-7.9-14.4-9.3c-5.5-1.3-10.7-0.7-16,1.2
			c-5.4,1.9-10.3,4.9-14.8,8.3c-0.6,0.4-1.2,0.8-2,1.3c-1.5-5.7-3.7-10.8-7.8-15C205.4,205.6,205.9,205.3,206.3,205.1z M134.3,217.6
			c0.2-0.4,0.3-0.7,0.4-1.1c2.1-5.9,6.6-8.7,12.6-9.2c5.6-0.5,11.1,0.6,16.3,2.5c1.4,0.5,2.4,0.3,3.6-0.4c5.5-3.4,11.2-6.3,17.6-7.6
			c2.8-0.6,5.6-0.8,8.4-0.5c5.8,0.8,10.2,3.7,13.5,8.4c2.3,3.3,3.8,7,4.7,10.9c0.2,0.7,0.3,1.3,0.5,2.2c0.9-0.7,1.6-1.3,2.4-1.8
			c5.1-3.9,10.6-7.4,16.8-9.3c10.4-3.1,19.3-0.8,26.8,7c3.1,3.2,5.6,7,7.4,11.1c0.4,1,1,1.5,2.1,1.6c1.8,0.2,3.6,0.5,5.6,1.7
			c-0.8,0.1-1.2,0.2-1.6,0.1c-12.6-0.4-25.2-0.8-37.8-1.1c-15.4-0.4-30.7-0.4-46.1,0.3c-3.2,0.1-6.4,0.5-9.6,0.7c-1,0.1-2.1,0-3-0.3
			c-14.1-3.6-28.4-6.6-42.9-8.6c-5-0.7-10.1-1.2-15.1-1.7c-0.3,0-0.6-0.1-1.4-0.2C121.4,218,127.7,217.1,134.3,217.6z M187.4,338.5
			c-24.7-9.1-45.3-23.9-62.3-43.9c-7.7-9-14.4-18.7-20.6-28.7c-2.8-4.5-5.4-9-8.3-13.5c-1.6-2.6-3.4-5.2-5.3-7.6
			c-2.9-3.8-6.9-5.8-11.5-6.7c-3.6-0.7-6.7,0.7-8.6,3.8c-1.1,1.8-1.7,3.8-1.8,6.1c0.6,0,1,0.1,1.6,0.1c0.2-0.6,0.3-1.1,0.5-1.6
			c0.2-0.7,0.4-1.5,0.7-2.1c1.6-3.7,4.3-5.1,8.3-4.1c3.7,1,7.1,2.7,9.4,5.9c2.1,2.9,4.1,5.8,6,8.9c5.3,8.4,10.4,16.9,16,25.2
			c9.7,14.3,21.1,27,34.8,37.6c2.3,1.8,4.7,3.5,7.2,5.4c-0.6,0.3-1,0.5-1.5,0.7c-10.6,4.1-21.4,7.5-32.7,9.6
			c-5.6,1-11.1,1.5-16.8,1.1c-2.7-0.2-5.3-0.8-7.7-1.9c-3-1.4-5.2-3.5-6.4-6.6c-2.5-6.5-6.1-12.4-11.2-17.3
			c-3.4-3.2-4.6-7.4-5.1-11.8c-0.3-2.9-0.6-5.9-0.7-8.8c-0.8-12.4-2.9-24.6-5.7-36.7c-0.3-1.5-0.6-3-1.1-4.4
			c-1.5-4.6-0.1-8.6,2.6-12.4c1.7-2.5,4.2-4.1,6.8-5.5c4.3-2.2,8.8-3.3,13.5-4c9.1-1.4,18.2-1.2,27.3-0.6
			c20.4,1.5,40.4,5.5,60.2,10.6c0.9,0.2,1.9,0.3,2.8,0.3c19.3-1.8,38.6-1.3,58-1c11.6,0.2,23.2,0.7,34.7,1c4.8,0.2,9.6,0.5,14.4,0.6
			c2.9,0.1,5.9-0.1,8.8-0.2c14.1-0.7,28.2-0.4,42.3,1.2c19.2,2.2,37.9,6.7,55.7,14.4c7.8,3.4,15.2,7.2,22.1,12.2
			c0.5,0.4,1.3,0.6,1.9,0.6c13-1.3,25.5,1.2,38,4.4c14.3,3.6,28.2,8.5,41.7,14.4c4.6,2,9.2,2.7,14,2.4c5.5-0.2,11-0.6,16.4-0.8
			c6-0.2,11.9,0.1,17.7,1.8c13.2,3.7,22,16,21.3,29.7c-0.2,4.6-1.7,8.9-3.9,12.9c-3.2,5.7-7.5,10.4-12.4,14.7
			c-5.4,4.6-11.3,8.5-17.5,11.8c-1.1,0.6-2.2,1.3-3.2,2.2c-8.5,7.1-17.8,13-28.6,16.1c-19.8,5.7-38.1,2.1-54.9-9.5
			c-0.9-0.6-1.8-1.2-2.8-1.7c-13.3-7-26.6-13.9-40.4-19.8c-5.6-2.3-11.2-4.4-17.1-5.9c-9-2.4-18-2.3-27.1-0.3
			c-8.2,1.9-16.4,3.8-24.6,5.6c-10.7,2.3-21.6,3.9-32.5,5c-17,1.7-34,2.6-51.1,2.3C227.6,349,207.1,345.8,187.4,338.5z M199.5,405.3
			c4.7-3.2,9.4-6.4,14.2-9.5c3.4-2.2,7.3-3.1,11.3-3.3c7.2-0.5,14,1.1,20.7,3.5c4.5,1.6,8.8,3.4,13.2,5.2c1.1,0.5,2.2,1.1,3.2,1.8
			c1.7,1.3,1.8,2.8,0.2,4.1c-1.4,1.2-3.1,2.1-4.7,3.2c-1,0.7-2.1,1.2-3.1,2c-2.9,2.2-6.2,3.1-9.8,3.2c-4.7,0.2-9.3-0.9-13.6-2.7
			c-4.2-1.7-8.4-3.7-12.6-5.6c-0.9-0.4-1.8-0.8-2.6-1.2c-3.6-2-7.1-2-10.9-0.4c-2.1,0.9-4.2,1.5-6.4,2.2c-0.5,0.2-1.1,0.2-1.6,0.3
			c-0.1-0.1-0.2-0.3-0.3-0.4C197.7,406.9,198.5,405.9,199.5,405.3z M201.2,412.9c-1.6-0.4-3.1-1-4.4-2.6c3.8-0.5,7.1-2.1,10.5-3.3
			c2.2-0.8,4.4-0.7,6.6,0.3c3.1,1.5,6.3,3,9.5,4.5c0.2,0.1,0.3,0.2,0.6,0.5c-3.6,1.1-7.1,2.2-10.5,3.1c-0.7,0.2-1.5,0.2-2.2,0
			C207.8,414.7,204.5,413.8,201.2,412.9z M173,526.6c-2.4,1.2-5,1.9-7.7,2c-9,0.6-17.8-0.6-26.3-3.6c-1.7-0.6-3.4-1.5-4.9-2.5
			c-1.8-1.2-1.7-2.3,0.2-3.4c1.4-0.8,2.8-1.4,4.3-1.8c3-0.8,6-1.4,9-2.1c2.8-0.6,5.6-1.5,8.1-2.9c5.3-3,7.2-7.8,5.4-13.6
			c-1.1-3.4-2.9-6.3-5.1-9.1c-4.1-5.3-9-9.8-14.5-13.6c-7.9-5.4-12.4-12.9-13.8-22.2c-1.5-9.9,1.9-17.9,10.4-23.6
			c4.8-3.2,10.2-4.7,15.9-5.2c9.8-0.8,19.3,0.8,28.6,3.5c4.6,1.4,9.1,3.1,13.6,4.7c0.4,0.1,0.7,0.4,1.2,0.6
			c-4.7,12.2-8.1,24.6-10.4,37.5c-0.7-0.3-1.2-0.5-1.6-0.7c-3.3-2.1-6.6-4.1-9.9-6.3c-1.6-1.1-3-2.4-3.9-4.2c-0.3-0.5-0.7-1-1.1-1.4
			c-3.2-3.1-6.8-5.5-10.9-7.3c-0.6-0.2-1.2-0.4-1.8-0.5c-1.3-0.1-2.1,0.9-1.6,2.1c0.3,0.8,0.8,1.6,1.4,2.2c1.5,1.7,3.1,3.3,4.7,4.9
			c5.2,5,10,10.3,14.1,16.3c2.7,3.9,5.1,8,6.1,12.7c0.4,1.9,0.5,3.8-0.1,5.7c-2.9,9.4-4.9,19-7,28.5C175,525,174.3,525.9,173,526.6z
			 M175.4,466.9c3.5,2.1,7,4.3,10.5,6.4c0.2,0.1,0.3,0.3,0.5,0.4c-0.6,4.9-1.2,9.7-1.9,15.1c-2.6-8.7-7.7-15.5-13.3-22.2
			C172.7,466.4,174.1,466.1,175.4,466.9z M167.9,463.3c-2.2-2.5-4.7-4.8-7-7.1c-0.7-0.7-1.4-1.5-2.1-2.4c1.8,0.2,4.3,1.7,7.8,4.2
			c2.5,1.8,3.7,4.5,5.9,6.7C170.4,465.3,169.2,464.7,167.9,463.3z M189.7,601.3v-3.4C191.2,598.5,191.2,598.7,189.7,601.3z
			 M237,616.6c-0.2-1.5-0.3-3-0.5-4.8c1,0.2,1.8,0.3,2.7,0.5C238.8,613.9,238,615.3,237,616.6z M328.8,623.4
			c-1.1-2.4-1.7-4.8-2.5-7.4c1.4-0.1,2.6-0.2,3.8-0.2C330.5,617.6,330,620.5,328.8,623.4z M358.6,621.6c-1.4-2.8-2-5.4-2.8-8.1
			c1.3-0.2,2.3-0.3,3.4-0.4C359.4,615.9,359.3,618.5,358.6,621.6z M413.9,525.4c0.7,3.2,1.8,6.2,3.6,9.1c3.2,5,4.8,10.6,6,16.3
			c1.8,9.2,1.7,18.4-1.4,27.4c-2,5.8-5,10.9-9.1,15.5c-0.7,0.8-1.6,1.5-2.4,2.3c-0.2,0.2-0.4,0.2-0.9,0.4c-0.8-7.7-0.8-15.2-1-22.6
			c-1.5-0.5-2.5,0.1-3.1,1.2c-0.6,1.1-1.1,2.4-1.3,3.6c-0.5,3.9-1,7.9-1.3,11.8c-0.2,2.9-0.2,5.9-0.3,9.2c-1.8-3.3-3.3-6.2-4.9-9
			c-1.1,0.2-1.5,0.5-1,1.4c1.5,3,1.5,6.2,1,9.5c-0.1,0.9-0.4,1.3-1.3,1.6c-4.7,1.6-9.4,2.9-14.4,4c-0.1-0.4-0.2-0.7-0.2-1
			c0-6.3,0.6-12.6,2.1-18.7c0.2-0.8,0.5-1.6,0.7-2.4c0.8-2.8,2.3-5.1,4.6-6.9c1.3-1,2.5-2.1,4-3.3c-2.1,0.5-5.1,2-6.3,3.4
			c-3.2,3.7-6.5,7.4-9.5,11.3c-4.3,5.7-7.4,12-9.4,18.9c-0.2,0.5,0,1.3-1.2,1.4c-0.2-1.6-0.4-3.3-0.6-5c-0.8-6.7-1.8-13.3-3.8-19.8
			c-0.7-2.3-1.6-4.5-2.7-6.7c-0.6-1.2-1.5-2.3-2.4-3.3c-0.9-1-2.2-1.6-4-1.5c2.4,12.3,4.9,24.6,5.5,37c-1.6,0.7-1.7,0.8-3.8,0.6
			c-1.6-3.9-1.9-8.7-0.9-15.6c-0.5,0.6-0.8,1-1,1.4c-2.5,4.4-4.8,8.9-6.4,13.8c-0.4,1.2-1,1.7-2.3,1.8c-2.6,0.1-5.2,0.4-7.8,0.6
			c-0.5,0-0.9,0-1.1,0c-1.5-3.1-3-6-4.5-8.9c-0.4-0.8-1.2-1.5-1.9-2.3c-0.4,0.3-0.8,0.6-1.1,0.9c1.7,3.4,2.4,6.9,2.3,10.8
			c-1.7,0.1-3.2,0.1-4.9,0.2c-0.9-3.2-1.7-6.4-2-9.6c-0.2-2.4-0.3-4.9-0.1-7.4c0.2-2.7,1.5-4.8,4.3-5.6c0.2,0,0.3-0.2,0.5-0.4
			c-2.3-1-3.5-0.9-4.9,0.9c-1.1,1.5-2,3.3-2.7,5c-1.9,4.9-2.6,10.1-3.3,15.2c-0.1,0.7-0.2,1.3-0.3,2.1c-3.5,0.1-6.9,0.3-10.2,0.4
			c-9.5,0.1-18.9,0.3-28.4,0c-7.2-0.2-14.5-1.1-21.7-1.8c-1.9-0.2-3.8-0.5-5.7-0.7c-1-0.1-1.4-0.5-1.5-1.5c-0.6-4.9-2-9.6-3.6-14.3
			c-0.4-1-0.7-2.1-0.9-3.1c-0.6-2.3-2.3-3.7-4-5.1c0.5,1.1,0.9,2.2,1.4,3.3c1.4,2.6,1.6,5.3,1,8.2c-0.8,3.7-1.9,7.3-3.5,10.9
			c-1.4-0.2-2.7-0.4-4.1-0.7c-0.8-2.9-1.6-5.7-2.4-8.4c-1.2-0.3-1.5,0.1-1.5,1.1c0,2.3-1,4.2-2.3,6.1c-0.7-0.2-1.4-0.3-2.2-0.5
			c-0.4-5.6,0.5-11.2,1-16.9c-1.5-0.1-2.4,0.7-2.8,1.9c-0.7,2.1-1.2,4.2-1.6,6.3c-0.3,1.5-0.3,3-0.5,4.5c0,0.4-0.2,0.7-0.4,1.6
			c-0.4-1.1-0.6-1.7-0.8-2.3c-2.7-7.9-6.9-14.9-12.2-21.3c-0.6-0.7-1.1-1.4-2-0.1c4.7,6.7,5.2,14.2,3.9,22.4
			c-4.2-1.1-8.1-2.5-12.2-4.1c0-3-0.1-6,0-9c0.1-4.2,0.4-8.5,1.5-12.6c0.4-1.6,1.1-3.1,1.8-4.6c0.9-1.7,2.3-2.9,4.4-2.9
			c0.4,0,0.9,0,1.2-0.2c0.2-0.1,0.5-0.5,0.5-0.8c0-0.2-0.3-0.7-0.5-0.7c-0.5-0.1-1.1-0.2-1.6,0c-2.2,0.7-4.5,1.3-6.6,2.3
			c-3.5,1.7-5.5,4.7-5.9,8.6c-0.5,4.9-1.3,9.8-2.8,14.5c-0.2,0.5-0.4,1-0.6,1.6c-0.7-0.4-1.3-0.6-1.7-0.8c-0.5-3.6-0.8-7.1-1.5-10.5
			c-0.4-2-1.3-3.9-2.2-5.7c-0.9-1.8-2.5-2.8-4.8-3.1c1,5.1,1.9,10.1,2.1,15.3c-0.5-0.2-0.8-0.3-1.1-0.4c-3.1-2.1-6.1-4.5-8.6-7.3
			c-4.2-4.5-6.8-9.8-7.4-15.9c-0.2-1.6,0-3.3,0.6-4.8c1-2.9,2.5-5.6,3.7-8.4c0.4-0.9,0.8-1.9,1-2.9c3-14.1,5.9-28.3,9-42.4
			c0.8-3.7,1.9-7.4,2.9-11.1c0.2-0.7,0.5-1.4,1-2c0.2,2.3,0.4,4.7,0.6,7c0.9,8.3,2.9,16.3,6.6,23.8c4,7.9,9.6,14.2,17.7,18
			c3.3,1.6,6.8,2.5,10.4,3.1c0.6,0.1,1.2,0.1,1.9,0.1c0.1-0.6,0.1-1.1,0.2-1.8c-1.2-0.2-2.2-0.4-3.3-0.6c-9.7-1.8-17.1-7-22.5-15.2
			c-3.9-6-6.2-12.6-7.7-19.6c-2.1-10-2.5-20-0.9-30c0.5-3.3,1-6.6,1.5-10c0.2-1.5,1-2.4,2.7-3.1c-0.3,0.9-0.6,1.5-0.8,2.1
			c-0.2,1.1-0.5,2.1-0.5,3.2c0,1.7,0.9,2.8,2.5,3.4c1.6,0.6,3.1,0.5,4.3-0.8c0.8-0.9,1.4-1.9,1.9-2.9c0.9-2.1,1.7-4.2,2.5-6.3
			c0.3-0.8,0.6-1.5,0.9-2.4h4.4c-0.3,0.7-0.5,1.4-0.8,2c-1.8,4.8-3,9.7-2.9,14.8c0,1.5,0.4,3.1,0.9,4.6c0.7,1.9,2.2,2.9,4.3,2.8
			c0.2,0,0.4,0,0.6,0c5.7-0.2,8.4-2.7,8.4-8.4c0-4,0.4-7.8,2.2-11.4c0.3-0.6,0.6-1.2,1-1.9c9.1,2.8,16.8,7.9,24.8,13
			c-0.3,0.5-0.6,1-1,1.4c-2.1,2.5-3.4,5.4-4.2,8.6c-0.7,2.6-1.9,5.1-2.9,7.7c-0.5,1.3-1.1,2.5-1.5,3.8c-0.5,1.7,0.2,3,1.9,3.5
			c2.4,0.8,4.9,1.5,7.3,2c2.3,0.5,4.4-0.2,5.8-2.2c1.1-1.5,2.1-3.1,2.7-4.8c1.1-3.2,2-6.6,2.9-9.8c0.5-1.6,0.9-3.1,1.4-4.7
			c5.2,0.9,10.3,1.8,15.6,2.8c0,0.2,0.1,0.6,0.1,1c-0.1,2.8,0.4,5.5,1.5,8c1.2,2.9,1.9,6,2.1,9.2c0.1,0.8,0.2,1.6,0.4,2.4
			c0.5,2.1,1.9,3.3,4,3.5c1.1,0.1,2.2,0.1,3.3-0.1c2.8-0.4,4.5-2.1,5.1-4.9c0.5-2.1,0.2-4.2-0.3-6.3c-0.6-2.3-1.3-4.5-2-6.7
			c-0.7-2.2-1.2-4.3-0.9-6.8c7.6-0.9,15.1-2.7,22.5-5.3c1.1,2.2,1.5,4.6,1.7,6.9c0.2,2.4,0.2,4.8,0.4,7.2c0.3,2.9,1.2,5.6,3.1,7.9
			c0.8,1,1.9,2,3.1,2.6c1.5,0.9,3.1,0.8,4.7,0c1.6-0.8,3.2-1.6,4.8-2.4c2.8-1.4,3.4-3,1.9-5.8c-0.1-0.2-0.2-0.4-0.3-0.5
			c-1.6-1.7-1.7-3.7-1.6-5.9c0.1-5.3-0.3-10.5-2-15.6c0-0.1,0-0.3,0-0.6c6.4-3.1,13.3-3,20-3.3c0.8,1.8,1.6,3.3,2.2,4.8
			c0.3,0.8,0.5,1.7,0.5,2.6c-0.1,2.5-0.5,4.9-0.7,7.4c-0.2,2.3-0.4,4.7-0.2,7c0.2,3,2,4.3,5,4.2c0.7,0,1.5-0.1,2.2-0.2
			c3.8-0.8,5.7-2.9,5.9-6.8c0.1-1.9,0.1-3.8-0.1-5.7c-0.4-3.7-0.9-7.5-1.3-11.2c-0.1-0.5,0-1,0-1.5c0.4-0.1,0.8-0.2,1.1-0.2
			c6.9,0.5,13.8,1,20.7,1.5c3.1,0.2,5.2,2,6.7,4.5c1.9,3.1,2.9,6.5,3.3,10.1c0.5,3.8,0.8,7.6,1.1,11.6c0.4,0,1,0.1,1.5,0.1
			c0.1-0.4,0.2-0.6,0.2-0.8c0.1-6-0.5-11.9-2.4-17.6c-0.6-1.7-1.4-3.3-2.3-4.8c-2-3.3-4.9-5-8.8-5.3c-6.5-0.4-13-0.9-19.5-1.4
			c-0.5,0-1.1-0.1-1.7-0.2c-0.4-1.7,0-3.3,0.5-4.9c1-3,2.3-5.9,3.4-8.8c0.4-1,0.9-2,1.1-3.1c0.5-2.3-0.6-4-2.8-4.8
			c-1.4-0.5-2.9-0.9-4.3-1.3c-2.1-0.6-3.8,0.1-5,1.9c-0.8,1.2-1.5,2.5-1.9,3.9c-1.3,4.5-2.5,9.1-3.7,13.7c-0.3,1-0.3,2-0.5,3.2
			c-7.2,0.5-14.5,0.3-21.2,3.6c-4.3-3.7-6.1-8.3-6.2-13.7c0-1.1-0.1-2.2-0.3-3.3c-0.7-3-2.8-4.2-5.7-3.3c-2.5,0.7-4.4,2.2-5.6,4.5
			c-2,4-2.2,8.3-1.4,12.6c0.2,1.2,1,2.2,1.5,3.4c0.8,1.8,1.5,3.6,2.4,5.7c-7.3,2.5-14.4,4.4-22,5.2c0.1-3.1,0.8-5.9,1.7-8.6
			c0.7-2.1,1.1-4.2,1.2-6.4c0-1,0-2.1-0.2-3.1c-0.3-2-1.5-3.8-4.2-3.6c-0.7,0.1-1.4,0-2.1,0c-2.5-0.1-4.2,1.2-5.1,3.4
			c-0.5,1.3-0.7,2.8-0.9,4.2c-0.2,1.7-0.1,3.4-0.2,5.1c-0.2,3.3-1.3,6.3-2.9,9.1c-2.8,0.4-11.1-0.9-14.9-2.5
			c0.4-1.2,1.2-2.1,2.2-2.8c0.7-0.5,1.1-1.2,1.2-2c0.3-2.1,0.4-4.2-0.2-6.3c-0.5-2-1.8-3.2-3.8-3.5c-1-0.2-2-0.3-3.1-0.4
			c-3.4-0.3-5.3,1.2-5.9,4.6c-0.4,2.1-1,4-2.6,5.6c-0.6-0.3-1.2-0.6-1.8-0.9c-7.4-4.7-14.8-9.3-23.5-12.3c1.5-2.2,2.9-4.1,5.5-4.7
			c2-0.5,3.6-1.6,5-3.1c2.3-2.8,3.8-6,4.4-9.6c0.5-3-0.7-4.5-3.6-4.7c-2.4-0.1-4.8-0.1-7.2,0.1c-3.3,0.3-7,4.2-7.4,7.5
			c-0.1,0.8-0.4,1.6-0.8,2.3c-1.6,2.9-3.8,5.2-6.6,6.9c-0.5,0.3-1.1,0.4-1.4,0.9c-1.1,1.9-2.9,1.7-4.7,1.7c-0.5,0-1,0-1.7,0
			c0.7-2.1,1.4-4,2.7-5.6c3.9-4.6,4.7-10,4.5-15.6c-0.1-2.3-0.5-4.6-0.7-6.9c-0.1-1.1-0.6-1.6-1.6-1.8c-0.5-0.1-0.9-0.2-1.4-0.3
			c-2.2-0.4-3.8,0.5-4.5,2.6c-0.4,1.2-0.8,2.6-0.6,3.8c0.6,7.6-2.1,14.3-5.4,20.8c-0.4,0.9-1,1.7-1.3,2.6c-0.8,2.3-2.5,3.7-5,4.5
			c3.6-17.3,9.3-33.8,17.3-49.5c0.2,0.2,0.4,0.3,0.5,0.4c1.1,2.7,3.4,3.5,5.9,3.9c1.3,0.2,2.6,0.2,3.9,0.2c4.7-0.1,9.3,0.6,14.1,1.2
			c-0.1,0.8-0.2,1.6-0.3,2.3c-0.3,2.5-0.4,4.9,0.2,7.4c1,4.1,3.6,6.5,7.8,7.2c0.8,0.1,1.6,0.3,2.6,0.4c-0.4,1.1-0.7,2.1-1,3.1
			c-0.5,1.5-0.5,2.9,0.1,4.4c0.5,1.1,0.8,2.3,1.2,3.5c1.5,4.8,4.6,8,9.2,9.9c3.8,1.6,7.7,2.4,11.8,2.7c5,0.4,10,0.7,14.9-0.7
			c2-0.6,4.1-1.3,5.8-2.4c9.3-5.8,6.3-17.8-0.9-21.5c-2.6-1.3-3-2.2-2.3-5c0.2-0.7,0.4-1.4,0.6-2.2c-0.6-0.2-1-0.4-1.5-0.6
			c-0.2,0.1-0.4,0.2-0.4,0.3c-0.7,1.6-1.1,3.3-1,5c0.1,1.9,0.9,3.2,2.7,4c4.6,2,7.2,7,6.4,12c-0.5,2.9-2.2,5-4.6,6.5
			c-2.5,1.6-5.4,2.5-8.3,2.8c-6.7,0.6-13.3,0.4-19.8-1.6c-1.7-0.5-3.3-1.3-4.9-2.1c-2.5-1.4-4.3-3.4-5.3-6.1c-0.7-1.9-1.5-3.8-2-5.8
			c-0.2-0.8-0.1-1.8,0.3-2.6c0.9-2.2,1.8-4.3,2.9-6.3c3.7-6.7,8.1-12.9,12.5-19.1c0.4-0.6,0.8-1.1,1.3-1.8c-0.5-0.4-0.9-0.8-1.5-1.2
			c-1.8,2.5-3.6,4.9-5.2,7.3c-0.8,1.3-1.7,1.6-3.2,1.3c-4.2-0.8-8.4-1.1-12.6-2.1c-4.4-1-8.9-1.3-13.4-1.8c-2.3-0.2-4.6-0.1-7-0.2
			c-1.9-0.1-3.8-0.1-5.8-1.4c3.9-0.2,7.1-1.5,10.3-2.6c3.5-1.2,6.9-1.4,10.4,0c3.1,1.3,6.4,2,9.8,2.3c5.5,0.4,10.7-0.5,15-4.3
			c0.5-0.4,1.2-0.6,1.8-1c1.7-1.1,3.6-2,5.2-3.3c2.8-2.5,2.6-5.3-0.3-7.6c-0.8-0.6-1.6-1.1-2.5-1.5c-7.6-3.4-15.4-6.6-23.6-8.3
			c-6.3-1.3-12.6-1.7-18.9,0.2c-1.5,0.5-2.9,1.1-4.7,1.7c0.2-0.6,0.4-1,0.6-1.4c1.1-2.2,2.3-4.4,3.4-6.6c1.3-2.6,1.8-5.4,1.9-8.4
			c0.2-5.6-0.3-11.1-1-16.6c-0.5-3.9-1.1-7.9-1.7-11.9c0.6,0,1.1-0.1,1.6,0c14.2,2.4,28.5,3.1,42.8,2.6c8.6-0.3,17.1-0.6,25.7-1.1
			c18.9-1.2,37.6-3.9,56-8.4c5.5-1.3,11.1-2.7,16.6-3.8c8.8-1.8,17.5-1.3,26,1.2c9,2.6,17.6,6.4,26.1,10.4c0.1,0.1,0.2,0.2,0.5,0.4
			c-0.3,0.1-0.6,0.3-0.8,0.4c-8.8,3-13.5,9.4-15.4,18.2c-1.2,5.7-0.8,11.4,0.1,17.2c1.6,10.1,3.2,20.2,4.7,30.3c0.1,1,0,2.1-0.2,3
			c-2.9,10.5-5.5,21.1-7.3,31.8c-1.1,6.6-1.9,13.2-1.9,19.8c0,4.6,0.9,9.1,2.1,13.6c0.9,3.4,1.8,6.9,2.9,10.3
			c0.6,1.7,1.4,3.3,2.4,4.7c1.9,2.6,4.4,3.3,7.4,2.1c1.4-0.6,2.8-1.4,4.4-2.2c0.2,2.1,0.4,4,0.6,6
			C411.7,511.8,412.4,518.7,413.9,525.4z M203.7,441c0-1.8,0.2-3.7,0.4-5.5c0.1-1,0.7-1.8,1.9-1.8c1.3-0.1,1.9,0.3,2.1,1.6
			c0.3,2.2,0.4,4.4,0.7,7c-0.3,1.9-0.4,4.3-1,6.5c-0.4,1.6-1.1,3.3-2.1,4.6c-2.2,3-3.7,6.2-4.9,9.6c-0.9,2.6-1.8,5.2-2.8,7.7
			c-0.4,1.1-1.1,2.2-1.8,3.2c-0.7,1-1.6,1.1-2.5,0.7c-1-0.4-1.4-1.2-1.2-2.1c0.2-1.2,0.5-2.4,1.1-3.5c1.2-2.6,2.7-5.1,3.9-7.7
			c1.7-3.7,3.3-7.4,4.8-11.1C203.3,447.3,203.7,444.2,203.7,441z M209.2,464.3c0.7-1.4,1.6-2.4,3-3.2c3.2-1.8,5.6-4.4,7.3-7.6
			c0.5-1,0.9-2.2,1-3.3c0.1-1.1,0.6-1.9,1.3-2.7c2.1-2.3,4.7-3.2,7.7-3c1.2,0.1,2.5,0.1,3.7,0.3c1.3,0.2,1.8,0.7,1.6,1.9
			c-0.7,4.1-2.2,7.8-5.6,10.4c-0.7,0.5-1.6,0.9-2.4,1.1c-1.9,0.4-3.4,1.4-4.6,2.9c-4,4.8-6.5,10.2-6.6,16.6c0,1.4,0,2.9-0.2,4.3
			c-0.3,2.2-1.5,3.6-3.7,4.1c-0.4,0.1-0.8,0.2-1.2,0.3c-3.5,0.5-4.8-0.5-5.1-4.1c-0.3-2.9,0.1-5.7,0.7-8.6
			C206.7,470.4,207.7,467.3,209.2,464.3z M259.2,479.6c-1.7,1.5-2.6,3.7-3.2,5.9c-0.9,3-1.6,6.1-2.5,9.1c-0.8,2.4-1.6,4.8-2.7,7.1
			c-1.6,3.1-3.2,3.7-6.6,2.8c-1.6-0.5-3.3-0.9-4.9-1.3c-1.3-0.4-1.5-0.7-1-2.1c0.4-1.1,0.9-2.2,1.4-3.2c1.4-2.7,2.5-5.5,3-8.5
			c0.5-2.6,1.8-4.7,3.4-6.7c0.9-1.2,1.9-2.3,2.9-3.5c1.4-1.7,2.4-3.6,2.7-5.9c0.4-2.8,1.5-3.6,4.4-3.3c0.4,0,0.8,0.1,1.2,0.2
			c2.9,0.5,3.6,1.2,3.7,4.1c0,0.3,0,0.7,0,1.3C261.1,477,260.5,478.4,259.2,479.6z M279.4,470.5c0.1-0.9,0.3-1.9,0.7-2.8
			c0.6-1.4,1.6-2.2,3.2-2.1c0.5,0,1,0,1.4,0c2.4,0,2.8,0.3,3.1,2.8c0.2,2.3,0,4.6-0.8,6.9c-1.3,3.9-2.2,7.9-2.3,12
			c0,2.8,0.5,5.4,1.4,8c0.8,2.5,1.6,5.1,2.1,7.7c0.3,1.3,0.1,2.7-0.1,4.1c-0.3,1.7-1.5,2.5-3.1,2.9c-0.3,0.1-0.5,0.1-0.8,0.1
			c-3.5,0.3-4.4-0.4-4.8-3.9c-0.3-3.4-1-6.7-2.3-10c-0.8-2-1.1-4.2-1.6-6.4c0.5-1.8,0.6-3.6,1.4-5.1c1.8-3.5,2.3-7.3,2.5-11.1
			C279.4,472.6,279.3,471.6,279.4,470.5z M325.1,492.8c-0.3,2.3,0,4.3,1.7,6c0.2,0.2,0.4,0.6,0.5,0.9c0.8,1.6,0.6,2.1-1,2.9
			c-1.6,0.8-3.3,1.7-4.9,2.5c-1.2,0.6-2.5,0.5-3.5-0.3c-1-0.9-2-1.9-2.7-3.1c-1.5-2.4-2.1-5.1-2-7.9c0.2-6-1.4-11.6-3.6-17.1
			c-0.6-1.5-1.4-3-2-4.5c-2-4.6-1.4-9.1,0.9-13.4c0.9-1.7,2.5-2.6,4.5-3c1.4-0.3,2.1,0.1,2.5,1.4c0.3,0.8,0.4,1.7,0.4,2.6
			c0,5.5,1.5,10.4,5.4,14.4c1.8,1.8,2.5,4.3,2.9,6.7c0.5,3.3,0.8,6.6,1.2,10c-0.1,0-0.2,0-0.3,0
			C325.1,491.5,325.2,492.2,325.1,492.8z M356.9,477.7c0.4,3.9,0.8,7.8,1.1,11.7c0,0.4,0,0.8,0,1.2c0,4.3-2.1,6.2-6.9,6
			c-1.2,0-1.9-0.6-2.2-1.8c-0.2-0.9-0.3-1.7-0.4-2.6c0.3-2.7,0.7-5.4,1-8c0.2-1.6,0.3-3.3,0.2-4.9c0-0.9-0.2-2-0.7-2.7
			c-1.9-2.7-1.9-5.7-1.2-8.7c1.2-4.7,2.5-9.4,3.8-14.1c0.3-1,0.8-1.9,1.3-2.8c0.7-1.2,1.8-1.7,3.2-1.2c1.3,0.4,2.6,0.8,3.9,1.2
			c1.3,0.5,1.8,1.3,1.5,2.7c-0.2,0.9-0.6,1.7-1,2.5c-1.9,3.7-3.4,7.5-4,11.6C356.1,471.2,356.5,474.5,356.9,477.7z M238.1,424.7
			c1.5-1.3,3-1.1,4.6-0.4c-0.7,1.7-1.8,2.9-3.4,3.8c-1.7,1-4.2,0.7-5.6-0.6c-0.4-0.4-0.4-1.1-0.6-1.7c0.1-0.1,0.3-0.2,0.4-0.3
			C235.2,426,236.8,425.8,238.1,424.7z M233.6,422.9c1.1-0.7,1.9,0.2,2.7,0.3C235.4,424,234.6,423.9,233.6,422.9z M245.1,424.6
			c1.6,0.2,3.3,0.4,5.1,0.7c-0.2,0.5-0.3,0.9-0.5,1.2c-2,3.3-4,6.5-6,9.8c-0.5,0.8-1,1.1-2,1.1c-4.9,0-8.1-2.7-8.4-7.5
			C239,431.5,241.1,430.5,245.1,424.6z M495.1,524c-0.1,0-0.3,0-0.4,0c-0.3-1.3-0.6-2.7-1-4.3c0.9,0.1,1.6,0.1,2.6,0.2
			C495.8,521.4,495.4,522.7,495.1,524z M542.8,542.5c-2.3-2.4-6-13-4.3-17.1c1.6,0.2,3.2,0.5,4.8,0.7
			C544.2,530.2,544,539.4,542.8,542.5z M551.3,531.7c-0.8,1.3-1.6,2.7-2.6,4.4c-0.5-3.4-0.9-6.3-1.4-9.4c2.3,0.3,4.4,0.6,6.9,1
			C553.1,529.1,552.1,530.4,551.3,531.7z"/>
		<path d="M453.1,185c8.7-21.7,31.2-32.7,52.8-26.9c20,5.3,34.8,24.6,32.4,47.7c1.5,1.3,3.3,2.5,4.1,4.6c0.8,2,0.3,4-0.2,6.2
			c0.7,0,1.3,0,1.9,0c3.5-0.3,7-0.2,10.4,0.6c0.9,0.2,1.7,0.5,2.5,1c1.8,1,2.7,2.5,2.4,4.8c-0.8,0-1.6,0.1-2.4,0.1
			c-7.4,0-14.8,0.1-22.2,0c-1.8,0-2.7,0.6-3.8,2.1c-9.6,13.7-22.9,20.5-39.6,19.5c-14.4-0.9-25.6-7.7-33.8-19.6
			c-1-1.4-1.9-2-3.6-1.9c-25.7,0.1-51.4,0-77.1,0c-4.5,0-8.1-2-11.2-4.9c-2.2-2-2.1-4.4,0-6.5c1.2-1.2,2.7-2.2,4.2-3
			c4.4-2.4,9.3-3.7,14.1-5c2.4-0.6,5-0.7,7.1-1.9c2.1-1.2,3.5-3.4,5.2-5.1c4.4-4.3,9-8.2,14.3-11.4c3.8-2.3,7.9-4.2,12.4-4.8
			c2.6-0.4,5-0.1,7.5,0.5c1.9,0.5,3.9,0.8,5.8,1.2c5.3,1,10.6,1.9,16,2.8C452.6,185,452.8,185,453.1,185z M480.3,202.1
			c-2.5-5-4.4-7-9.5-9.6c-1.7-0.9-3.4-1.7-5.2-2.4c-9.6-3.8-19.6-5.6-29.7-7c-1.6-0.2-3.2-0.3-4.6-0.8c-3.1-1.1-6.3-1.2-9.5-0.6
			c-5.3,1.1-9.9,3.8-14.3,7c-5.3,3.8-10,8.1-14.3,13c-0.8,0.9-1.7,1.4-2.9,1.7c-2.3,0.5-4.7,1.1-7,1.7c-4.2,1.2-8.5,2.4-12.3,4.4
			c-1.6,0.9-3.2,1.9-4.5,3.2c-1.6,1.5-1.6,3.2,0,4.7c2.8,2.7,6.1,4.8,10.1,4.8c59.9,0,119.8,0,179.7,0c0.7,0,1.3,0,2,0
			c0.2-1.5-0.5-2.3-1.5-2.9c-0.9-0.5-2-1-3-1.2c-3.9-0.9-7.9-0.6-11.9-0.3c-0.4,0-0.9,0-1.5,0c0.3-0.7,0.6-1.3,0.8-1.8
			c1.3-3.4,0.6-6.2-2.4-8.3c-2.5-1.8-5.3-2.8-8.3-3.5c-6-1.5-12.2-1.8-18.4-2c-0.9,0-1.8-0.4-2.7-0.7c-1.6-0.5-3.2-1.2-4.9-1.5
			c-4.4-0.8-8.9-0.4-13.3,0.2C487.7,200.7,484.1,201.4,480.3,202.1z M454.3,185.4c0.8,0.2,1.4,0.4,2.1,0.6c5.1,1.4,10.1,3,14.8,5.5
			c4.1,2.2,7.8,4.9,9.7,9.5c0.8-0.1,1.5-0.3,2.2-0.4c6.5-1.4,13.1-2.3,19.8-1.9c2.4,0.2,4.8,0.6,6.9,1.8c1,0.6,1.9,0.7,2.9,0.7
			c5.6,0,11.2,0.4,16.7,1.7c2.6,0.6,5.1,1.4,7.6,2.2c2.6-17.6-8.5-40-31.9-46.1C481.5,152.9,460.7,167.4,454.3,185.4z M457.8,223.3
			c3.4,5.5,7.6,9.8,12.7,13.2c7.5,5,15.8,7.5,24.8,7.3c9.4-0.2,17.9-3.1,25.3-8.8c4.1-3.2,7.6-6.9,10.5-11.7
			C506.5,223.3,482.3,223.3,457.8,223.3z"/>
		<path d="M424.2,619c-0.2,0.3-0.4,0.5-0.5,0.7c-1.3,3.2-2.4,6.5-3,10c-0.2,1.5-0.3,3,0.3,4.5c0.2,0.6,0.2,0.6-0.6,1.5
			c-0.8-0.6-1.2-1.5-1.1-2.5c0.1-2,0.1-4,0.5-5.9c1-4.8,3-9.4,5.1-13.8c0.1-0.2,0.3-0.4,0.8-1.1c-0.1,5.4,0.6,10.2,3,14.5
			c1,1.8,2.3,3.6,3.5,5.3c0.2,0.3,0.5,0.5,1,1c0.1-0.5,0.1-0.8,0.1-1c-0.2-6.4-0.8-12.7-2.9-18.8c-0.6-1.8-1.4-3.6-2.2-5.3
			c-1.1-2.3-2.6-4.3-5.1-5.9c1.5-0.6,2.8-0.3,4.1,0c2.8,0.7,4.9,2.4,6.5,4.7c2.4,3.4,3.6,7.2,4.5,11.2c0.2,0.9,0.4,1.8,0.8,2.8
			c2.2-8,5.7-15.3,10.2-22.3c4.4-6.9,9.5-13.3,15.2-19.3c0.4,0.3,0.7,0.5,1.1,0.9c-0.4,0.6-0.8,1.1-1.2,1.6
			c-8.5,10.5-13.2,22.5-14.5,35.8c-0.5,4.7-0.6,9.3,0,14c0.1,0.8,0.3,1.7-1.4,1.5c-1.6-13.8,0.7-27,6.7-39.9
			c-0.4,0.3-0.6,0.4-0.7,0.5c-5.3,7.4-10,15.1-12.6,23.9c-0.9,3.1-1.3,6.4-1.9,9.6c-0.1,0.8,0,1.8-1.5,1.4c-0.3-2.2-0.5-4.5-0.9-6.8
			c-0.6-3.9-1.5-7.7-3.3-11.2c-0.9-1.7-2.1-3.3-3.4-4.8c-0.7-0.8-1.8-1.3-2.9-1.8c6.3,10,7,21.1,6.8,32.5c-2-1.2-3.6-3-4.8-4.9
			c-1.2-1.9-2.4-3.8-3.3-5.9C425.5,623.6,424.9,621.3,424.2,619z"/>
		<path d="M118.1,368.7c0.3-1,0.5-1.7,0.7-2.4c0.6-1.6,1.1-3.2,1.9-4.7c3.7-7.1,9.9-9.8,17.7-7.9c4.2,1,8,3,11.5,5.3
			c1.1,0.7,2.1,0.9,3.4,0.4c3.2-1.2,6.4-1.9,9.9-1.8c4.9,0.2,8.7,2.2,10.6,7c0.1,0.2,0.2,0.5,0.3,0.6c1.8,0.2,3.5,0.2,5.2,0.5
			c5,0.8,8.9,3.5,11.4,7.9c0.6,1,1.2,1.7,2.5,1.7c1,0,2,0.4,3,0.8c2.9,1.2,4,3.5,3.2,6.5c-0.1,0.5-0.3,0.9-0.5,1.4
			c-1.5,3.6-1.7,3.7-5.5,3.7c-39.7,0-79.4,0-119.1,0c-1,0-1.9,0-2.8,0c-1.7-4.6,0.7-9.9,5.4-11.1c2.3-0.6,3.5-1.7,4.5-3.8
			c1.3-2.8,3.1-5.3,5.4-7.5c5.2-5.1,11.4-6.6,18.4-4.4c3.7,1.2,7,3.1,10.1,5.5C116.1,367.1,117,367.8,118.1,368.7z M72.2,386.7
			c1,0,1.9,0,2.7,0c39.5,0,79,0,118.4,0c3.3,0,3.5-0.1,4.7-3.3c0.1-0.2,0.1-0.4,0.2-0.6c1-2.9,0-5-2.9-6c-1.4-0.5-2.9-0.7-4.5-1
			c-4.7-7.6-7.1-9-17.5-9.5c-0.1-0.3-0.2-0.6-0.3-0.9c-1.5-4.4-4.7-6.6-9.3-6.8c-3.6-0.2-7.1,0.5-10.5,1.8c-1.4,0.5-2.4,0.4-3.6-0.4
			c-3.8-2.5-7.8-4.6-12.3-5.6c-6.1-1.3-11.2,0.6-14.6,5.5c-1.8,2.6-2.9,5.4-3.6,8.4c-0.2,0.7-0.3,1.4-0.6,2.2
			c-1.2-1-2.2-1.8-3.2-2.6c-3.3-2.6-6.8-4.8-10.9-6c-6.4-1.9-12-0.6-16.9,4c-2.7,2.6-4.7,5.7-6.3,9.1c-0.3,0.6-0.6,1.2-0.8,1.8
			C73.9,378.1,71.5,380.8,72.2,386.7z"/>
		<path d="M513,395.1c0.2,3.8,1.1,7.6,0,11.4c-0.1,0.4-0.4,0.8-0.8,1.1c1.2-4.6,0.3-9.2-0.5-13.8c1.8,0,2.6,1.1,2.9,2.3
			c0.6,2,0.9,4.1,1.2,6.2c0.2,1.2,0,2.5,0.3,3.8c0.2-0.4,0.4-0.7,0.6-1.1c1.1-3.1,1.7-6.2,2-9.4c0.4-3.5,4-6,7.4-5.3
			c-0.1,0.2-0.2,0.4-0.4,0.4c-1.9,0.1-2.7,1.4-3.3,2.9c-0.9,2.6-1.1,5.4-1.1,8.1c0,3.1,0.2,6.2,0.4,9.2c0,0.4,0,0.8,0,1.3
			c-1.7-2.5-1.4-13.7,0.5-20.5c-2.1,0.9-2.7,2.6-2.9,4.6c-0.3,3.9-1.5,7.7-2.8,11.3c-0.4,1.1-0.9,2.2-1.5,3.5c0-3,0.1-5.8,0-8.5
			C515,400,514.8,397.3,513,395.1z"/>
		<path d="M120.8,481.9c-1.8,6-0.9,12.2-1.4,18.3c-0.7-2.2-0.9-4.5-2.4-6.7c-0.4,3.7-1,6.9-2.9,9.9c0-0.3,0-0.7,0.1-1
			c0.5-1.6,1-3.3,1.4-4.9c0.6-2.5,0.7-5-0.2-7.5c1.6,1.1,2,3,3.4,4.4c0-1.3-0.1-2.7,0-4c0.2-2.6,0.5-5.2,0.9-7.7
			c0.3-1.6,0.6-1.8,2.2-2.2c0.2,6.2,0.1,12.4,1.6,18.8c-1.4-1.6-1.5-2.4-1.9-8.7c-0.2-2.9-0.3-5.7-0.4-8.6
			C121.1,481.9,120.9,481.9,120.8,481.9z"/>
		<path d="M324.4,426.1c-0.3,1.4-0.5,2.8-1,4.1c-0.9,2.2-1.6,4.5-2.9,6.5c-3.2,5.2-8,7.1-13.9,6.2c-4.8-0.8-9.4-2.6-13.5-5.2
			c-0.8-0.5-1.6-1.1-2.3-1.7c-2.3-2-3.8-4.5-3.5-7.9c-0.6-0.2-1.3-0.4-1.9-0.6c-1.9-0.9-3.8-1.6-5.5-2.7c-2.3-1.5-3.9-3.6-4.6-6.3
			c-0.2-0.9-0.7-1.3-1.4-1.9c-1.6-1.3-3.3-2.5-4.5-4.1c-2.5-3.2-1.9-6.5,1.5-8.8c2.6-1.8,5.6-2.7,8.6-3.2c3.9-0.6,7.7-1,11.6-1.3
			c1.2-0.1,2.4-0.3,3.5-0.9c3.4-1.9,7.2-2.6,11-3c12.6-1.3,25,0,37.1,4c4,1.4,7.9,3.2,11.3,5.7c3.2,2.3,5.6,5.2,7.5,8.6
			c0.5,0.8,0.8,1.7,1.1,2.6c0.9,3.1-0.6,5.4-3.8,5.6c-1.6,0.1-3.3,0.1-4.9-0.2c-1.8-0.3-3.6-0.8-5.4-1.2c-0.8-0.2-1.6-0.4-2.5-0.6
			c-0.8,3.5-3.4,4.7-6.4,5.4c-4.3,1-8.7,1.1-13.1,1C326,426.1,325.3,426.1,324.4,426.1z M356.5,419.9c1-0.1,1.9-0.1,2.7-0.2
			c1.4-0.3,1.9-1,1.7-2.4c-0.2-0.9-0.5-1.9-0.9-2.7c-1.7-3.2-3.9-5.9-6.9-8.1c-2.9-2.1-6.1-3.7-9.4-5c-12.5-4.5-25.3-5.8-38.5-4.4
			c-3.1,0.3-6.3,0.8-9.1,2.5c-1.8,1.1-3.6,1.4-5.6,1.5c-0.7,0-1.4,0-2.1,0.1c-4.4,0.4-8.9,0.8-13.1,2.4c-1.4,0.5-2.9,1.3-4.1,2.3
			c-1.5,1.2-1.8,2.8-0.8,4.4c0.7,1.2,1.7,2.4,2.8,3.2c6,4.5,12.8,6.5,20.2,6.4c2.1,0,4.3-0.4,5.9-2c1.3-1.3,2.9-2.1,4.7-2.4
			c2.5-0.4,5-0.8,7.5-0.9c8.9-0.3,17.8,0.7,26.6,1.8c4.8,0.6,9.5,1.2,14.1,2.6C353.7,419.6,355.1,419.6,356.5,419.9z M277.5,418.8
			c0.9,2.1,2.1,3.6,3.8,4.5c1.8,1,3.9,1.7,5.8,2.5c0.9,0.4,1.8,0.2,2.8-0.1c2.1-0.8,4.3-1.5,6.4-2.2c4.2-1.2,8.4-2.2,12.7-1.8
			c2.5,0.2,5,0.6,7.5,1.1c6.4,1.2,12.8,1.9,19.2,0.9c2.1-0.3,4.1-0.9,6.1-1.6c1.1-0.4,2-1.2,1.8-2.8c-2.8-0.4-5.6-0.8-8.3-1.1
			c-8.3-1-16.6-1.8-25-1.5c-1.6,0.1-3.3,0.2-4.9,0.5c-1.7,0.3-3.4,0.7-4.7,1.9c-1.6,1.6-3.6,2.2-5.7,2.5c-3.5,0.5-6.8,0.1-10.2-0.7
			C282.6,420.4,280.3,419.6,277.5,418.8z M290,431.9c1.1,2,2.6,3.2,4.1,4.1c3.8,2.4,7.9,4,12.3,4.9c5.5,1.1,10-1.1,12.8-6
			c1.4-2.3,2.2-4.9,2.7-7.5c0.1-0.5,0.1-1.1,0.1-1.7c-3.6-0.6-7-1.4-10.6-1.6c-0.2,0.8-0.3,1.4-0.5,2c-1,3.6-3.3,6.2-6.9,7.3
			C299.5,434.8,294.7,434.8,290,431.9z M309.5,423.7c-1.2,0-2.3,0-3.3,0c-1.9-0.1-3.4,0.3-3.7,2.5c0,0.1,0,0.1-0.1,0.2
			c-1.3,2.5-3.5,3.2-6,1.7c-0.6-0.4-1.1-0.8-1.6-1.2c-1-0.8-1.8,0-2.7,0.2c-0.9,0.2-0.9,0.9-0.9,1.6c0,1.3,0.8,2.4,2.5,2.9
			c3.2,1,6.5,1.1,9.7,0C307.1,430.4,309,427.7,309.5,423.7z M300.9,424.4c-1.6,0.4-2.8,0.8-4.2,1.2
			C298.9,427.4,299.8,427.2,300.9,424.4z"/>
		<path d="M374.5,527.1c0.4,0.6,0.8,1,1.2,1.5c-0.7,0.5-1.2,1-1.8,1.4c-9.6,7-20.4,11.7-31.7,15.1c-10.3,3.1-20.9,5-31.6,5.8
			c-4.8,0.4-9.6,0.5-14.4,0.7c-0.7,0-1.5,0-2.3,0c0-0.8,0-1.3,0-1.9c0.3-0.1,0.6-0.1,0.8-0.2c5.7-0.3,11.5-0.3,17.2-0.9
			c16.6-1.6,32.7-5.2,47.8-12.6c4.8-2.3,9.4-5.1,13.7-8.3C373.6,527.7,373.9,527.5,374.5,527.1z"/>
	</g>
	<polygon points="553.6,380.6 570.4,381.1 583.8,380.9 594.3,381.2 608.4,382.3 613.2,382.3 612.8,385.2 606.9,383.6 599.9,382.9 
		592.8,382.9 582,382 570.4,382.1 557,381.8 	"/>
	<polygon points="543.4,381.4 550.1,380.4 557.2,380.7 557.8,381.6 551.8,382 543.9,382 	"/>
	<polygon points="42.6,509.3 38.8,511 20.6,519.5 4.4,525.7 -1.5,527.2 -1.5,530.6 16.3,523.8 32.5,516.3 40.6,511.8 	"/>
	<path d="M-24.9,532.4"/>
	<polygon points="570.8,529.8 612.7,540 613,536.9 572.8,529 	"/>
	<path d="M613,534.7"/>
</g>
</svg>
