<svg xmlns="http://www.w3.org/2000/svg" viewBox="0 0 611.79 792">
  <defs>
    <style>
      .\37 063448d-7d7b-417e-ad6e-a750ddbae403 {
        fill: #fff;
      }
    </style>
  </defs>
  <title>julia_copy copy</title>
  <g id="bad4d13e-7969-4ad9-b365-17fd0ea11653" data-name="Layer 1">
    <path class="7063448d-7d7b-417e-ad6e-a750ddbae403" d="M197.59,381.22c2.81-1.94,5.15-3.73,7.66-5.25,13-7.85,26.52-14.63,40.11-21.33q18-8.88,36.51-16.56a12.86,12.86,0,0,1,5.37-1c8.5.21,17,.28,25.5.5,8.7.22,17.4.48,26.1.83s17.25.72,25.87,1.24c7,.42,14.07,1.06,21.1,1.63a6.71,6.71,0,0,1,1.6.34c1.37.43,1.88,1,1.76,2.39a17.69,17.69,0,0,1-.87,4.82c-1.79,4.67-3.65,9.32-5.72,13.87a158.14,158.14,0,0,1-12.43,22.7,90.76,90.76,0,0,1-5.67,7.3,8.06,8.06,0,0,1-6.89,3c-5.34-.25-10.68-.45-16-.72-5.13-.27-10.26-.59-15.39-.91-5.54-.36-11.07-.75-16.61-1.12-4.65-.32-9.3-.62-13.94-1-4.3-.32-8.6-.71-12.9-1.06-4-.33-7.92-.63-11.88-1q-8.3-.74-16.57-1.5c-4.85-.45-9.69-.89-14.53-1.38-5.58-.56-11.17-1.17-16.75-1.78q-6.94-.75-13.88-1.52A46.26,46.26,0,0,1,197.59,381.22Z" transform="translate(-0.41 -0.41)"/>
    <path class="7063448d-7d7b-417e-ad6e-a750ddbae403" d="M482.29,348.05l2.62,1.21q14.73,6.84,29.47,13.67a35.22,35.22,0,0,0,11.32,3.54c1.91.18,3.83.13,5.75.23,9.65.52,19.28,1.24,28.67,3.72a52.88,52.88,0,0,1,12.37,4.95,14.66,14.66,0,0,1,8,11.95,114.43,114.43,0,0,1,.58,17.66c-.24,4.72-.33,9.45-.56,14.17-.26,5.34-.61,10.67-1.22,16-.23-1.84-.45-3.69-.7-5.53A65.64,65.64,0,0,0,574,412.21a28.34,28.34,0,0,0-3.44-6c-3.42-4.4-8-5.33-13-2.94a20,20,0,0,0-7.23,6.27,57,57,0,0,0-7.84,14.86,129.93,129.93,0,0,0-6.07,24.72c-1.14,7.17-2.14,14.36-3.13,21.56-.3,2.23-.42,4.5-.56,6.75-.12,1.91-.08,2.07-2,2.59q-7.43,2-14.9,3.9c-7.84,2-15.69,3.86-23.53,5.79l-2.58.63a11.81,11.81,0,0,1-.41-5.48c0-.35.87-.77,1.41-.91,3.71-1,7.43-1.88,11.16-2.79l23.94-5.86a5.16,5.16,0,0,0,.79-.24c.58-.22,1.63-.1,1.32-1.12s-1.17-.52-1.79-.38c-3,.7-6,1.48-9,2.21l-26.34,6.44c-.52.13-1.05.2-1.88.35-.18-1.76-.35-3.36-.5-5-.07-.86.47-1.21,1.21-1.4l4.77-1.24,10.94-2.82c2.13-.55,2.21-.58,2.2-2.75,0-5.62-.09-11.24-.13-16.87,0-1,.1-2.05.12-3.08a1.89,1.89,0,0,1,1.55-1.91c.72-.21,1.46-.36,2.2-.5l19.8-3.58c1.14-.21,2.29-.4,3.43-.65a1.87,1.87,0,0,0,1.13-.85,8.67,8.67,0,0,0-1.53,0Q521.08,444.46,508,447c-2,.41-2.07.43-2.06,2.54,0,5.9.06,11.79.14,17.69,0,3.73-.37,4.29-4.1,5.09-2.21.48-4.43.9-6.63,1.41s-4.37,1.09-6.75,1.69a10,10,0,0,1-.46-1.58c-.42-3.67-.91-7.34-1.17-11a13.33,13.33,0,0,1,.49-4.44c2.85-10.52,5.88-21,8.64-31.52,1.33-5.1,2.17-10.32,3.22-15.48a8.52,8.52,0,0,0,.09-1.43c0-.11-.13-.23-.24-.43-1.26,0-1.23.94-1.38,1.78-.64,3.5-1.08,7.06-2,10.5-2.19,8.56-4.58,17.07-6.9,25.6-.57,2.11-1.15,4.22-1.83,6.7-.2-10.8-3.16-20.77-4.95-30.93-.5-2.84-1.16-5.64-1.72-8.46-.13-.66-.15-1.34-.23-2.15.83-.25,1.53-.5,2.24-.69q37.08-10.06,74.16-20.13a74.39,74.39,0,0,0,13.82-5.23c.55-.28,1.07-.61,1.59-.94.09,0,.09-.23.2-.52a3.44,3.44,0,0,0-1.14.16c-7.86,4.08-16.42,6.07-24.88,8.37q-31.71,8.64-63.45,17.18c-2.94.8-3,.79-3.57-2.21q-2.06-10.59-4.05-21.19c-.28-1.54-.38-3.11-.57-4.79.88-.41,1.67-.79,2.47-1.15,6.38-2.87,12.69-5.89,18.4-10a20.38,20.38,0,0,0,3-2.48c1.51-1.59,1.54-2.94.05-4.52a16.77,16.77,0,0,0-3.32-2.73c-3.41-2.17-6.86-4.28-10.37-6.29a3.32,3.32,0,0,1-1.93-2.86C482.72,351.22,482.51,349.88,482.29,348.05Zm25.9,24a2.53,2.53,0,0,0,.07.68c2.95,6.18,5.88,12.36,8.87,18.52.58,1.19,1.18,1.26,2.27.3a27.46,27.46,0,0,0,7.2-9.13c2.38-5.27.17-10.11-5.37-11.84a17.87,17.87,0,0,0-12.24.91A4.42,4.42,0,0,0,508.19,372.05Z" transform="translate(-0.41 -0.41)"/>
    <path class="7063448d-7d7b-417e-ad6e-a750ddbae403" d="M385.74,436l39.91-9.8c.32,2.18.63,4.05.87,5.93,1.21,9.45,2.36,18.9,3.63,28.34a36.72,36.72,0,0,1-.88,14.46c-.94,3.57-1.71,7.19-2.47,10.81a32,32,0,0,0-.33,3.68c-.18,2-.24,2.09-2.23,2.61l-28.44,7.34c-2.92.75-5.84,1.5-8.76,2.23-.31.08-.64.1-.94.15C385.59,500.22,385.28,441.16,385.74,436Z" transform="translate(-0.41 -0.41)"/>
    <path class="7063448d-7d7b-417e-ad6e-a750ddbae403" d="M483.24,356.14c4.73,2.53,9.11,4.91,12.78,8.39a8.42,8.42,0,0,1,1.1,1.22,1.93,1.93,0,0,1-.06,2.8,10.83,10.83,0,0,1-2.07,2,62.38,62.38,0,0,1-6.34,4.17c-4,2.14-8.08,4.05-12.14,6.05-.54.26-1.13.43-1.94.73-.79-4.6-.77-9.1-1.25-13.8,1.12-.33,2.21-.67,3.3-.95,4.91-1.24,5.59-2,6.26-7C483,358.64,483.1,357.56,483.24,356.14Z" transform="translate(-0.41 -0.41)"/>
    <path class="7063448d-7d7b-417e-ad6e-a750ddbae403" d="M172.28,453.33c4.52-2.43,9-4.88,13.56-7.31,14.31-7.69,28.73-15.17,43.54-21.86,1.87-.85,3.76-1.67,5.68-2.4a25.27,25.27,0,0,1,11.47-1.7,67.23,67.23,0,0,1,12.93,2.2,15.82,15.82,0,0,1,3.9,1.78c1.41.91,1.42,2.07.23,3.25a8.94,8.94,0,0,1-1.63,1.25C249.75,436,237.08,442.46,223.5,447a101.73,101.73,0,0,1-19.22,4.28c-8.43,1.1-16.91,1.61-25.39,2.05-2.18.12-4.35.31-6.52.47Z" transform="translate(-0.41 -0.41)"/>
    <path class="7063448d-7d7b-417e-ad6e-a750ddbae403" d="M240.3,510.87c.48-1.05.77-1.72,1.1-2.38,2.72-5.45,5.4-10.91,8.18-16.34a60.6,60.6,0,0,1,3.33-5.65,11.6,11.6,0,0,1,6.45-4.84c6.54-2,13.1-3.92,19.65-5.86a5.38,5.38,0,0,1,1.09,0c-.42.72-.66,1.26-1,1.73q-9.19,13-18.38,26a12.55,12.55,0,0,1-7.89,5.47c-3.42.69-6.85,1.27-10.28,1.87A16.32,16.32,0,0,1,240.3,510.87Z" transform="translate(-0.41 -0.41)"/>
    <path class="7063448d-7d7b-417e-ad6e-a750ddbae403" d="M229.69,534.37c.69-1.28,1.16-2.11,1.59-3,2-3.84,4-7.66,5.85-11.54a4.13,4.13,0,0,1,3-2.52c3.34-.71,6.66-1.54,10-2.08,5.47-.87,11-1.54,16.45-2.29.53-.08,1.06-.12,1.79-.2a6.35,6.35,0,0,1,.11,1.68c-.61,2.59-1.12,5.22-2,7.74a9.26,9.26,0,0,1-7.12,6.45c-5.08,1.1-10.16,2.17-15.26,3.16C239.52,532.71,234.88,533.46,229.69,534.37Z" transform="translate(-0.41 -0.41)"/>
    <path class="7063448d-7d7b-417e-ad6e-a750ddbae403" d="M71,517l-31.8-11.76L41.38,494c.87.34,1.56.58,2.24.87,4.48,1.9,8.94,3.84,13.43,5.71,2,.81,4,1.51,6,2.21a4.88,4.88,0,0,1,3.16,3C67.66,509.41,69.3,513,71,517Z" transform="translate(-0.41 -0.41)"/>
    <path class="7063448d-7d7b-417e-ad6e-a750ddbae403" d="M509.82,372.34c4.41-1.52,8.42-1.64,12.33.19,3.13,1.47,4.3,4.19,3.38,7.72a18.06,18.06,0,0,1-1.66,4,18.37,18.37,0,0,1-5.41,6.07Z" transform="translate(-0.41 -0.41)"/>
    <g id="4c7af784-ed0d-4a70-afcb-c1cf1e15163b" data-name="bowtie">
      <path class="7063448d-7d7b-417e-ad6e-a750ddbae403" d="M437.84,303.3a14.56,14.56,0,0,1,1.7,1.43c.82.91,1.56,1.89,2.31,2.86,1.53,2,1,3.89-1.32,4.76-1.56.59-3.17,1-5.09,1.67,0-.91-.05-1.42,0-1.92.24-1.82.53-3.63.78-5.44A4.54,4.54,0,0,1,437.84,303.3Z" transform="translate(-0.41 -0.41)"/>
      <path class="7063448d-7d7b-417e-ad6e-a750ddbae403" d="M446.72,309.09c1.6-1.72,2.83-3.42,5.22-4.24,0,1.69-.08,3.09,0,4.47s.37,2.78.57,4.17c-1.79.63-2.83-.5-4-1C446.83,311.89,447.82,310.13,446.72,309.09Z" transform="translate(-0.41 -0.41)"/>
      <path class="7063448d-7d7b-417e-ad6e-a750ddbae403" d="M446.72,310.88a8.33,8.33,0,0,1-1.74,1.58c-.55.25-1.33-.69-1.34-1.44s.68-1.62,1.34-1.41A7.55,7.55,0,0,1,446.72,310.88Z" transform="translate(-0.41 -0.41)"/>
    </g>
    <path class="7063448d-7d7b-417e-ad6e-a750ddbae403" d="M188.26,534.64a8.12,8.12,0,0,0-2-4.27c-2.3-3.25-4.59-6.5-7-9.65-5.92-7.63-12-15.19-17.88-22.82a3.93,3.93,0,0,0-3.47-1.69c-10.08.1-20.16.07-30.23.16-6.17.06-12.34.17-18.5.4-7.13.26-14.26.54-21.38.89-.2.83-.28,1.67-.46,2.5a2,2,0,0,1,.31,1.2c.12,1.23.16,2.47.36,3.68a21.24,21.24,0,0,0,8.47,13.85c4.64,3.58,10,5.63,15.58,7.18a128.71,128.71,0,0,0,18,3.37c5.84.74,11.67,1.57,17.52,2.27q6.72.82,13.48,1.4,9.82.84,19.67,1.5C183.13,534.77,185.59,534.64,188.26,534.64Z" transform="translate(-0.41 -0.41)"/>
    <path class="7063448d-7d7b-417e-ad6e-a750ddbae403" d="M429.38,364.76a20,20,0,0,1-5.86-6.25,73.53,73.53,0,0,1-5.94-12.2h.22l-.71-1.85-.73-1.91.11,0-.18-.75-.72-.11-1.16.64-.73.11a18.32,18.32,0,0,0-11.14,5.66,32.64,32.64,0,0,0-3.43,4.35,254.71,254.71,0,0,0-22,42.71,20.55,20.55,0,0,0-1.13,4.15c-.35,2.14.5,3.13,2.69,3,2.53-.1,5.06-.32,7.58-.61,5.17-.6,10.34-1.17,15.48-2,7.24-1.11,14.45-2.44,21.68-3.61a1.93,1.93,0,0,0,1.82-1.84c1.07-6.51,3-12.8,4.69-19.16a48.14,48.14,0,0,0,1-7.7A2.87,2.87,0,0,0,429.38,364.76Z" transform="translate(-0.41 -0.41)"/>
    <path class="7063448d-7d7b-417e-ad6e-a750ddbae403" d="M424,411c-.18-4.66.2-9.35.33-14.08l-.83.13c-12.54,2.24-25.08,4.42-37.77,5.64-2.72.27-5.46.59-8.18.61s-3.77-1.42-3.16-4.18a9.43,9.43,0,0,1,.35-1.18c1-2.77,1.94-5.57,3.08-8.29a286.3,286.3,0,0,1,15.89-31.11,82.81,82.81,0,0,1,6-9.05c3.71-4.89,8.81-7.28,14.68-8.13l-.13.16,1.69.11v-1.06l-.43-.13-.66-1.84-.47-1-.17,0a14.12,14.12,0,0,1-1.25-3,2.47,2.47,0,0,0-2.64-2c-7.25-.36-14.5-.83-21.75-1.19-6.71-.33-13.42-.65-20.13-.83-8.09-.22-16.18-.42-24.27-.41-10.21,0-20.43.17-30.64.4a103.44,103.44,0,0,0-11.26.83,50.38,50.38,0,0,0-13.46,4.11,1.72,1.72,0,0,0,.75.16c11.65.26,23.3.45,34.95.79,10.55.32,21.1.71,31.64,1.24,9,.46,18,1.13,27.06,1.75a20.09,20.09,0,0,1,3.85.63c2.86.78,3.88,2.41,3.52,5.36a40.26,40.26,0,0,1-3.19,10.38,240.54,240.54,0,0,1-15.87,30.88,32.63,32.63,0,0,1-5.48,7.17,10.82,10.82,0,0,1-8.15,3.3c-5.54-.24-11.08-.46-16.62-.76-7.66-.41-15.32-.87-23-1.33-2.53-.15-5.06-.33-7.59-.51L296,393.43c-4.17-.32-8.33-.62-12.5-1q-8.81-.74-17.6-1.51c-3.68-.33-7.37-.64-11.05-1-5.05-.48-10.09-1-15.13-1.48q-6.75-.67-13.48-1.44c-5.31-.6-10.62-1.16-15.91-1.9-3.65-.5-7.3-1.14-10.89-2-2.11-.5-4.07-1.62-6.36-1a3.64,3.64,0,0,1-1-.1c-5.81-.31-11.62-.83-17.44-.88-11.51-.09-23,.21-34.5,1.21a103.06,103.06,0,0,0-10.37,1.46,59,59,0,0,0-16.63,6.42c-13.65,7.32-27.32,14.61-40.84,22.16a396.83,396.83,0,0,0-38.67,24.24A46.14,46.14,0,0,0,29.48,440a12.1,12.1,0,0,0-4,6.78,25.67,25.67,0,0,0,0,9A136.91,136.91,0,0,0,31.82,480c.27.75.52,1.52.84,2.45-1,.44-1.91.82-2.78,1.17-2.93,1.18-5.83,2.44-8.14,4.69-2,1.94-2.17,3.64-.39,5.77A62,62,0,0,0,26,499c8.35,7.89,18,13.88,28.28,18.88A50.8,50.8,0,0,0,69.86,523a8.14,8.14,0,0,1,4.67,2c3.68,3.45,8.15,5.49,12.8,7.23a217.43,217.43,0,0,0,25,7.51c12.84,3.12,25.77,5.83,38.83,7.9,8.18,1.29,16.38,2.52,24.58,3.63,5.77.78,11.56,1.47,17.36,1.91,4.71.37,9.45.49,14.17.4,8-.14,16-1.31,23.9-2.44,10.24-1.47,20.44-3.14,30.63-4.86,4.86-.82,9.67-1.93,14.49-3,2.63-.58,3.1-1.16,3.41-3.65.25-2.11.48-4.22.76-6.33,1.24-9.44,2.3-18.91,3.79-28.31A178,178,0,0,1,294,468.31c3.61-9.26,8.18-18,15-25.34,8.68-9.35,19.27-14.59,32.21-14.35a27.58,27.58,0,0,1,22.09,10.87c.22.28.41.56.62.83,1.42-.29,2.83-.61,4.24-.94.71-.24,1.22-.42,1.72-.55L381.5,436c.71-.18,1.4-.41,2.3-.68-.51-2.93-.91-5.7-1.49-8.44a122.79,122.79,0,0,0-5.81-18.62c-.25-.67-.42-1.37-.64-2.08,1.42-.44,1.64.48,1.93,1.2A123.32,123.32,0,0,1,384,426.77c.57,2.59,1,5.22,1.48,7.8,1.86.21,38.11-8.64,40-9.78C425,420.25,424.2,415.64,424,411Zm-254.49,30.9a152.63,152.63,0,0,1,17.66-9.22,420.51,420.51,0,0,1,56.49-20.08c18.56-5.3,37.27-10.07,56.21-13.85,5.84-1.17,11.74-2,17.62-3a14.45,14.45,0,0,1,2.09,0c-.09,1.28-.73,1.31-1.34,1.4-2.23.35-4.47.64-6.69,1.08-9.73,1.93-19.49,3.75-29.17,5.91a629.74,629.74,0,0,0-73.77,21.3c-13.39,4.77-26.39,10.38-38.56,17.81-.61.38-1.29,1.14-2.21.28C168,442.55,168.88,442.31,169.53,441.91ZM264,428.13a53.59,53.59,0,0,1-6.95,4.74,204.5,204.5,0,0,1-32.62,15A100.4,100.4,0,0,1,200,453.1c-7.78.66-15.57,1.12-23.35,1.68-2.39.17-4.78.39-7.17.55a8.68,8.68,0,0,1-1.34-.08l-.21-.56c.78-.49,1.53-1,2.34-1.48Q184.61,445.59,199,438c7.14-3.78,14.25-7.65,21.47-11.27,4.35-2.17,8.87-4,13.36-5.85,7.31-3,14.81-3.06,22.36-1.07a44,44,0,0,1,7.16,2.49C266.67,423.85,266.9,425.85,264,428.13ZM59.4,436.52c5.23,5,11.65,7.87,18.38,10.11a102.24,102.24,0,0,0,28.11,5.47c5.74.23,11.49.11,17.23.17a1.58,1.58,0,0,1,1.18.56,11.51,11.51,0,0,1-1.4.27,111.44,111.44,0,0,1-20.09-.37,112.58,112.58,0,0,1-29.33-6.65,46.39,46.39,0,0,1-13.92-7.77c-.58-.48-1.11-1-1.64-1.55a2.56,2.56,0,0,1-.31-.66A1.37,1.37,0,0,1,59.4,436.52Zm-32,14.58c.51.6,1,.92,1.1,1.33A26.2,26.2,0,0,0,36,464.17c.08.07.06.24.08.36C32.17,462.46,27.24,455.14,27.38,451.1Zm9.13,42.11A58.85,58.85,0,0,1,32.7,485c.7.11,1.15,0,1.36.23.65.6,3.23,7,3.37,8.33C37,493.37,36.61,493.37,36.51,493.21ZM70.62,518q-9.84-3.59-19.67-7.22c-3.92-1.44-7.85-2.86-11.76-4.32-1.86-.69-1.88-.74-1.53-2.7.59-3.23,1.18-6.46,1.8-9.69a18.37,18.37,0,0,1,.61-1.83c.94.34,1.65.57,2.32.86,7.25,3.08,14.48,6.2,21.75,9.24A6.6,6.6,0,0,1,68,506.08c1.43,3.48,3,6.9,4.51,10.36.24.55.39,1.13.73,2.13A22,22,0,0,1,70.62,518Zm85.07,16.08c-11.65-1.22-23.25-2.74-34.79-4.75a100.21,100.21,0,0,1-15.2-3.49c-7.66-2.62-13.58-7.29-17.22-14.65a26.15,26.15,0,0,1-2.5-8.65,7,7,0,0,1,0-1c0-.53,0-1.17.42-1.43.19-.78.27-1.58.43-2.37l-5.73.31a82.79,82.79,0,0,0-8.9,1.43c-.7.11-1.43.54-2.08-.16.18-.95.94-1,1.57-1.16a71.51,71.51,0,0,1,8.88-1.57c7.45-.46,14.92-.71,22.38-.9,13.16-.34,26.31-.57,39.47-.87,4-.08,7.94-.27,11.92-.33,1.36,0,2.72.24,4.09.27a6.87,6.87,0,0,1,5.1,2.71c.18.2.36.41.53.63q9.41,12.35,18.8,24.71c1.78,2.35,3.45,4.78,5.12,7.2a14.74,14.74,0,0,1,1.51,2.68c.82,2,.11,3.26-2.05,3.45a47.1,47.1,0,0,1-7.78.24C171.62,535.71,163.65,534.91,155.69,534.08Zm132.22-60.55c-2.41,4.61-5,9.16-7.23,13.84a63.37,63.37,0,0,0-6.19,24.13q-.66,11.07-1.26,22.16c-.12,2.26-.12,2.4-2.41,2.74-5.42.8-10.84,1.54-16.27,2.26-6,.8-11.94,1.59-17.91,2.33-5.3.65-10.61,1.24-15.91,1.82-6,.65-12,1.35-18,1.87s-11.89.86-17.83,1.18a42.81,42.81,0,0,1-5.54-.26,7.4,7.4,0,0,1-1.57-.5c.52-1.28,1.29-.93,1.92-.92,4,0,8.09.25,12.12,0,5.19-.27,10.37-.86,15.54-1.38,4.5-.45,9-1,13.47-1.5,5.17-.59,10.33-1.18,15.5-1.82,5.9-.74,11.81-1.52,17.71-2.29,3.53-.47,7-1,10.58-1.42,1.63-.21,3.27-.33,4.9-.52.53-.06,1.05-.2,1.68-.33.08-.66.19-1.26.23-1.86.41-6.84.8-13.68,1.23-20.51a68.71,68.71,0,0,1,6.83-26.5c2.27-4.6,4.78-9.09,7.21-13.61.39-.71.72-1.69,2.25-1.18C288.59,472.13,288.27,472.84,287.91,473.53ZM238.5,516.36c3.33-.75,6.66-1.55,10-2.12,5.12-.87,10.27-1.57,15.41-2.32,2-.29,4-.54,6.44-.86a19.48,19.48,0,0,1,0,2.24,39,39,0,0,1-2.27,9.55A10.89,10.89,0,0,1,260,530c-4.33,1-8.66,2-13,2.83C241.21,534,235.41,535,229.62,536a21.34,21.34,0,0,1-2.24.13,11.18,11.18,0,0,1,.52-1.8c2.8-5.41,5.64-10.8,8.42-16.23A3.11,3.11,0,0,1,238.5,516.36Zm.31-6.36q5.13-10.31,10.33-20.58c.27-.55.61-1.07.9-1.61a15.77,15.77,0,0,1,10.19-8c6.87-1.89,13.68-4,20.51-6,.84-.25,1.72-.69,2.42.6-.29.49-.6,1.09-1,1.63-6.51,9.17-13.07,18.3-19.5,27.52a15.72,15.72,0,0,1-10.67,7c-3.58.6-7.17,1.15-10.75,1.71a7,7,0,0,1-1,.05C238.23,512.34,237.89,511.83,238.81,510ZM288,462.12c-14.7,3.33-29.46,6.35-44.34,8.72-11.36,1.81-22.72,3.57-34.11,5.17-6.64.93-13.33,1.6-20,2.2-8.87.79-17.74,1.51-26.63,2.06-6.9.43-13.82.61-20.74.82-4.79.15-9.6.3-14.39.22-8.09-.13-16.18-.31-24.25-.71C89.25,479.89,75,478.48,61,475.29c-2.27-.52-4.52-1.12-6.78-1.7a2.29,2.29,0,0,1-1.3-.88c.77.18,1.55.35,2.32.55a130.94,130.94,0,0,0,17.58,3.1c5.51.64,11,1.32,16.53,1.9,3.54.38,7.09.66,10.64.92,14.45,1,28.91,1.13,43.37.81,7.54-.16,15.06-.65,22.58-1.1q9-.54,18-1.37c5.73-.53,11.44-1.2,17.16-1.88s11.42-1.37,17.11-2.17c7.66-1.08,15.34-2.08,22.95-3.46,13.27-2.42,26.49-5.08,39.72-7.69,3.36-.66,6.67-1.54,10-2.27.86-.19,1.82-.69,3,.64C291.71,461.22,289.87,461.7,288,462.12Zm10.5-12a154,154,0,0,1-26.66,7.53c-10.14,2-20.38,3.46-30.66,4.59-9.12,1-18.23,2-27.37,2.84-7.7.7-15.43,1.13-23.15,1.67-21.7,1.51-43.43,1.36-65.16,1.1-6.5-.07-13-.39-19.51-.78-12.32-.75-24.56-2.14-36.45-5.69a73.41,73.41,0,0,1-16.31-6.7,34.59,34.59,0,0,1-10.2-8.52,21,21,0,0,1-3.83-7.67c-.2-.77-.27-1.58-.4-2.37l.4-.17c.23.31.61.61.66.95,1.12,7,5.55,11.61,11.18,15.28,6.33,4.12,13.34,6.66,20.6,8.56a152.57,152.57,0,0,0,21,3.75,249.77,249.77,0,0,0,27.06,1.71c12.06.11,24.13.3,36.19.21,8.7-.06,17.4-.44,26.1-.81,7.11-.3,14.23-.69,21.34-1.23,8.73-.66,17.46-1.51,26.19-2.31,11.46-1.06,22.84-2.7,34.18-4.62,11.91-2,23.66-4.62,34.92-9.12.79-.31,1.67-.87,2.24.68C300.09,449.35,299.33,449.76,298.53,450.08Zm78.66-25c-.64,1.14-1.4.79-2.12.67-3.71-.6-7.41-1.33-11.15-1.78a103.34,103.34,0,0,0-17.85-.5,63.86,63.86,0,0,0-20.43,4.26A43.48,43.48,0,0,0,309,439.07c-.55.6-1.06,1.51-2.37.58.59-.69,1.07-1.32,1.61-1.9,6.34-6.74,14.2-10.88,23-13.24A79.76,79.76,0,0,1,360,422.38c5.1.51,10.17,1.36,15.24,2.09A13.44,13.44,0,0,1,377.19,425.05Z" transform="translate(-0.41 -0.41)"/>
    <g id="77782c53-30e7-4c73-aac6-4f738da2510a" data-name="leftSock">
      <path class="7063448d-7d7b-417e-ad6e-a750ddbae403" d="M431,527.47c2.08,1,4.26,2,6.85,1.53,2.09,5.78,6,10.32,9.32,15.24,1.6,2.38,3,4.92,4.32,7.44a10.55,10.55,0,0,1,1,3.12c.47,2.61-.38,3.43-3,3a12.66,12.66,0,0,1-2.15-.65,26.62,26.62,0,0,1-13.19-10.66c-.7-1.09-1.29-2.27-2.07-3.3A25.4,25.4,0,0,0,429,539.6c-2.09-1.94-2.5-3.68-1.16-6.2C428.8,531.48,429.84,529.57,431,527.47Z" transform="translate(-0.41 -0.41)"/>
      <path class="7063448d-7d7b-417e-ad6e-a750ddbae403" d="M429.94,521.72c2.54,1.59,4.68,3,7.55,2.15v3.26c-2,1-3.82.17-5.68-.67S430.53,523.73,429.94,521.72Z" transform="translate(-0.41 -0.41)"/>
    </g>
    <g id="aa628b64-3086-449c-9b4b-984cbf0a21f8" data-name="rightSock">
      <path class="7063448d-7d7b-417e-ad6e-a750ddbae403" d="M492.16,524.46c3.29,3.22,7.89,3.67,12.25,4.72,3.86.92,7.75,1.71,11.61,2.6a4.53,4.53,0,0,1,3.33,2,4.33,4.33,0,0,1-4.09,3c-5.06.27-10.11.53-15.16.9-2.59.19-5.15.7-7.74.93a44.67,44.67,0,0,1-6.33.23c-2.95-.16-4.57-1.81-4.56-4.75s.36-5.7.57-8.69a30.22,30.22,0,0,0,5.08.4A31,31,0,0,0,492.16,524.46Z" transform="translate(-0.41 -0.41)"/>
      <path class="7063448d-7d7b-417e-ad6e-a750ddbae403" d="M482.05,521.49a31.3,31.3,0,0,0,4.34.68,25.4,25.4,0,0,0,4.08-.62c.73.72.67,1.44-.28,2.09a6.17,6.17,0,0,1-4.07,1.12,16.32,16.32,0,0,1-2.42-.42C482,523.92,481.87,523.76,482.05,521.49Z" transform="translate(-0.41 -0.41)"/>
    </g>
    <g id="7e79d348-2775-4f6d-a994-33b585a46528" data-name="beltPant">
      <path class="7063448d-7d7b-417e-ad6e-a750ddbae403" d="M470.25,374l1.83-.13c.15,1.7.3,3.36.45,5.07-1.87.36-2.53-1.87-4.65-1.77a12.36,12.36,0,0,0,1.28,1.57A6,6,0,0,0,471,380a2.82,2.82,0,0,1,1.9,2.83c.63,7.82,2.46,15.42,4,23.07,2.31,11.49,4.7,23,7,34.45a66.1,66.1,0,0,1,1.48,16.54c-.29,5.3.49,10.53,1,15.78.52,5.67,1,11.33,1.48,17,.52,6.42,1,12.85,1.45,19.27l.6,8.41c.14,2-.64,3.23-2.66,3.33a22.4,22.4,0,0,1-5.06-.59c-.87-.15-1-1-1.15-1.77q-2.83-10.74-5.7-21.46c-1.37-5.09-2.73-10.19-4.15-15.27a26.62,26.62,0,0,1-1-7.52c0-2.81.06-5.63.27-8.43a32,32,0,0,0-1.1-11L454.74,400.9a9.42,9.42,0,0,0-.42-1.37c-.65-1.49-1.93-1.75-2.8-.39a7.6,7.6,0,0,0-1,3.45c-.24,3.21-.27,6.43-.39,9.65-.31,8.77-.6,17.54-.95,26.3a239.51,239.51,0,0,1-3.47,32.06c-2,11.2-4,22.39-5.78,33.62-.86,5.41-1.27,10.89-1.84,16.34-.21,2.1-.63,2.57-2.69,2.23s-3.68-1.77-5.33-3c-.29-.22-.35-.87-.38-1.33-.47-6.62-1-13.25-1.37-19.89A71,71,0,0,1,430.86,474c1.59-5.41,1.34-10.85.64-16.31-1.92-14.95-4-29.88-5.82-44.84a57.39,57.39,0,0,1,.66-16.59,90.35,90.35,0,0,1,3.37-14.6c.24-.69.53-1.38.86-2.25,3.11,1,6,1,8.65-1.13-.62-1.08-1.34-.52-2-.23a8.66,8.66,0,0,1-5.2.8c-.32-.06-.63-.2-1.2-.38.47-1.94.92-3.83,1.44-6,.82.22,1.52.38,2.21.59a78.24,78.24,0,0,0,19.36,3.5,46.11,46.11,0,0,0,13.64-1.38,18.65,18.65,0,0,0,2.76-1.21Z" transform="translate(-0.41 -0.41)"/>
      <path class="7063448d-7d7b-417e-ad6e-a750ddbae403" d="M453.34,375.62c-3.75-.63-7.46-1.19-11.13-1.91-2.41-.48-4.78-1.18-7.15-1.84-3-.85-2.49-.69-2.51-3.5,0-.4,0-.8.08-1.39a16.3,16.3,0,0,1,1.61.57,13.94,13.94,0,0,0,10,.73A3.24,3.24,0,0,0,445,368c2.85-1.63,5.57-.49,8.28.4a1.7,1.7,0,0,1,.86,1C454.47,370.38,454,374,453.34,375.62Z" transform="translate(-0.41 -0.41)"/>
      <path class="7063448d-7d7b-417e-ad6e-a750ddbae403" d="M470.27,374c-2.06.47-4.11,1-6.18,1.4a30.39,30.39,0,0,1-8.69-.11c.08-1.72.14-3.48.24-5.24,0-.88.59-1.06,1.4-1.06,3.08,0,6.15-.07,9.22-.24,1.69-.1,3.36-.46,5-.69,1.19,2.56.86,4.35-1,6Z" transform="translate(-0.41 -0.41)"/>
    </g>
    <g id="6242a9cf-60b5-4058-b8d4-ee50c08d7851" data-name="shirt">
      <path class="7063448d-7d7b-417e-ad6e-a750ddbae403" d="M456.53,367.7c-.77-2.7-.53-3.07,1.8-4.05,2.71-1.13,5.41-2.29,8-3.65a17.65,17.65,0,0,0,4-3c2.86-2.79,3.34-6.07,1.16-9.36a10,10,0,0,1-1.56-5.81,64.24,64.24,0,0,0-2.29-17.32c-.24-.82-.29-1.8-1.52-2-.77.79-.25,1.58-.05,2.32a68.22,68.22,0,0,1,2.13,16.52c0,.73-.06,1.47-.1,2.26a6,6,0,0,1-1.17.16,3.85,3.85,0,0,0-3.49,1.93c-.59.85-1.1,1.76-1.71,2.59a5.85,5.85,0,0,1-5.35,2.32c-.26-1.59-.5-3.21-.81-4.82-1.11-5.7-3.46-11-5.44-16.44-1.54-4.2-2.85-8.48-4.23-12.73a11,11,0,0,1-.43-2.22c-.1-1,.55-1.55,1.56-1.22a14.38,14.38,0,0,1,1.31.64,16,16,0,0,0,2.53,1c1.93.47,3-.53,2.66-2.46-.22-1.4-1-2.73-.57-4.25a2.48,2.48,0,0,1,.68,0c3.82,1.38,7.65,2.73,11.43,4.19a13.91,13.91,0,0,1,8.59,9.25,246.42,246.42,0,0,1,7.76,28,36.81,36.81,0,0,1,.23,10.89,4.92,4.92,0,0,1-3.66,4.58,60.26,60.26,0,0,1-20.1,2.82C457.46,367.87,457.05,367.77,456.53,367.7Z" transform="translate(-0.41 -0.41)"/>
      <path class="7063448d-7d7b-417e-ad6e-a750ddbae403" d="M465.16,359l-3.16-8c.78-1.16,1.68-2.6,2.69-4,1.77-2.42,4.17-2.23,5.39.54,1.87,4.26,1.28,7.4-2.37,9.89C466.88,358,466,358.44,465.16,359Z" transform="translate(-0.41 -0.41)"/>
      <path class="7063448d-7d7b-417e-ad6e-a750ddbae403" d="M458.32,352.32c2.06-.76,2.08-.77,3,.67a11.29,11.29,0,0,1,1.88,5.53c0,.76.07,1.55-1.23,1.7-.49-1.31-.93-2.71-1.53-4S459.08,353.7,458.32,352.32Z" transform="translate(-0.41 -0.41)"/>
      <path class="7063448d-7d7b-417e-ad6e-a750ddbae403" d="M439.63,303.34c1.23.94,3.27,1.14,3.25,3.73Z" transform="translate(-0.41 -0.41)"/>
      <path class="7063448d-7d7b-417e-ad6e-a750ddbae403" d="M448,306.3l-1.94,1.21C446.42,305.53,446.65,305.28,448,306.3Z" transform="translate(-0.41 -0.41)"/>
      <path class="7063448d-7d7b-417e-ad6e-a750ddbae403" d="M437.11,301.77l.81.14,0,.28-.82-.07Z" transform="translate(-0.41 -0.41)"/>
      <path class="7063448d-7d7b-417e-ad6e-a750ddbae403" d="M460.05,360a50.43,50.43,0,0,0-2-5.56c-.91-1.91-1.32-2-3.45-1.66-.27.05-.54.13-.8.18-4.29.92-8.57,1.86-12.86,2.73-2,.4-2.19.32-3.06-1.47-2.39-4.93-4.86-9.84-7.05-14.86-1.42-3.25-2.44-6.69-3.61-10.05a1.84,1.84,0,0,1,.25-2.19c1.13,3.38,2.05,6.5,3.22,9.53s2.53,6.08,3.91,9.06,2.88,5.87,4.36,8.87c1.23-.29,2.22-.54,3.21-.75,3.56-.72,7.1-1.48,10.67-2.1,2.05-.36,2.28-.51,2-2.64,0-.27-.09-.54-.12-.81-.73-5.41-2.58-10.5-4.51-15.56-2.25-5.89-4.63-11.73-5.78-18-.35-1.91-1.1-2.15-2.95-1.49a31.93,31.93,0,0,1-5.1,1.49c-1.77.31-2.54-.69-2.19-2.46.1-.46.25-.92.37-1.39a16.28,16.28,0,0,0,.17-6.06c-3.18,3.31-7.21,5.25-11.13,7.36q-2,1.08-3.86,2.36c-4.41,3-6.42,7.33-6.62,12.59a33.34,33.34,0,0,0,1.37,9.72c.08.3.15.6.22.9h0l-.07.51.24.37.92,2.6,1.25,3.25.82,1.28,0-.11.17.34c1.37,2.84,2.73,5.69,4.13,8.51a28,28,0,0,0,5.13,7.41c5.16,5.19,11.05,7.4,18.27,4.53,3.75-1.5,7.61-2.72,11.41-4.08.71-.25,1.41-.53,2.13-.78A1.16,1.16,0,0,0,460.05,360Z" transform="translate(-0.41 -0.41)"/>
      <path class="7063448d-7d7b-417e-ad6e-a750ddbae403" d="M454.15,365c.53,1,.61,1.59,0,2.33C453.31,366.58,453.42,366,454.15,365Z" transform="translate(-0.41 -0.41)"/>
      <path class="7063448d-7d7b-417e-ad6e-a750ddbae403" d="M450.74,366.16c.33,0,.66.08,1,.14a1.37,1.37,0,0,1,0,.35c-.34,0-.69,0-1,0Z" transform="translate(-0.41 -0.41)"/>
    </g>
    <g id="de4c0dfe-1d16-4a5e-9f26-22ace4fc8fbe" data-name="midCar">
      <path class="7063448d-7d7b-417e-ad6e-a750ddbae403" d="M444.6,486.6c.43-2.86.83-5.42,1.21-8,1.28-8.53,2.69-17.05,3.78-25.6.6-4.68.72-9.42,1-14.14.31-5.82.55-11.63.83-17.45.08-1.65.1-1.68,1.66-2.1,1.05-.29,2.12-.55,3.18-.81.39-.09.8-.15,1.43-.28.32,1,.69,1.91.95,2.86,2.49,9.19,5,18.38,7.43,27.58a107.53,107.53,0,0,1,2.49,10.58,47.9,47.9,0,0,1,.18,7.77c0,3.22-.16,6.43-.22,9.64a11.5,11.5,0,0,0,.2,1.84c.3,1.94.32,2-1.68,2.49q-10.51,2.75-21.06,5.45A11.87,11.87,0,0,1,444.6,486.6Z" transform="translate(-0.41 -0.41)"/>
      <path class="7063448d-7d7b-417e-ad6e-a750ddbae403" d="M472.61,494.7l-30.27,7.75a19.67,19.67,0,0,1,.83-6.25c.14-.5,1.12-.91,1.79-1.08,4.17-1.07,8.36-2.06,12.55-3.08l12-2.93c.38-.09.79-.11,1.47-.21Z" transform="translate(-0.41 -0.41)"/>
      <path class="7063448d-7d7b-417e-ad6e-a750ddbae403" d="M469.19,481.45c.46,2,.84,3.71,1.29,5.69-8.9,2.27-17.68,4.39-26.66,6.57a10.47,10.47,0,0,1,.62-5.38c.15-.49,1.18-.82,1.86-1,5-1.32,10.06-2.58,15.09-3.87Z" transform="translate(-0.41 -0.41)"/>
      <path class="7063448d-7d7b-417e-ad6e-a750ddbae403" d="M457.4,417.23l-5.65,1.4c-.37-2.26.32-16.64.89-18.55a6,6,0,0,1,.85,1.11,17.82,17.82,0,0,1,.63,2.16q1.5,6.16,3,12.34C457.21,416.08,457.26,416.48,457.4,417.23Z" transform="translate(-0.41 -0.41)"/>
    </g>
    <path class="7063448d-7d7b-417e-ad6e-a750ddbae403" d="M.41,792.41V.41h611.8v792ZM539.33,483.74c.78,2,2.06,3.7,4.33,3.86,4,.28,8.07.38,12.11.39a12.34,12.34,0,0,0,10.61-5.67,36.89,36.89,0,0,0,2.65-4.15c2.05-4,4.08-8.08,6-12.18a63.27,63.27,0,0,0,5.1-18.76c.71-5.78,1-11.61,1.42-17.42a357.42,357.42,0,0,0,1.13-37.6c0-2-.19-4-.43-5.94a13.61,13.61,0,0,0-5.43-9.79A45.71,45.71,0,0,0,570,372.3a52,52,0,0,0-14.58-4.14,203.14,203.14,0,0,0-23.47-2.57A38.32,38.32,0,0,1,525,365a57.51,57.51,0,0,1-8.58-2.75c-10.94-4.41-21.54-9.57-32.16-14.69a5.34,5.34,0,0,1-3.21-4.07A195.42,195.42,0,0,0,474.48,321a14.76,14.76,0,0,0-7.41-8.42,46.49,46.49,0,0,0-4.51-2c-2.36-.93-4.74-1.79-7.12-2.66-1.25-.45-2.11-1-2-2.63.06-1.36-.78-1.78-2.08-1.31-.69.25-1.35.58-2,.88-1.1-1-.65-2-.3-2.9s1.11-.63,1.77-.63c1.37,0,2.75.09,4.11,0,4.75-.38,7.7-3.58,7.33-7.92a8.48,8.48,0,0,0-.5-2.4,16.69,16.69,0,0,1-.54-9.89,31.31,31.31,0,0,0,.46-12.46,13.07,13.07,0,0,1-.13-1.32l.62-.42c3.26-2.09,3.7-5.56,1-8.36-.71-.74-1.5-1.4-2.27-2.08a6.72,6.72,0,0,1-2.56-5.16,6.71,6.71,0,0,0-2.68-5.54,5.58,5.58,0,0,1-.75-.71c-1.38-1.55-1.26-2.72.38-4,.41-.32.83-.63,1.38-1-1.36-.79-2.6-.28-3.78-.21a9.07,9.07,0,0,0-5.49,2,6,6,0,0,0-2.05,4.34,2,2,0,0,1-1.7,1.82c-.74.16-1.48.26-2.22.42-3.14.67-6.33,1.21-9.41,2.08a15.45,15.45,0,0,0-8.2,5.58c-1.93,2.53-1.88,4.95.18,7.27a2.85,2.85,0,0,1,.72,2.59,17,17,0,0,0,.9,9.49c.16.37.41.89.26,1.16-.6,1.12.06,2,.47,2.9a13,13,0,0,0,6.54,6.82,6.66,6.66,0,0,1,2.8,2.34c.63.9,1.23,1.82,1.93,2.67a4.06,4.06,0,0,1,.61,4,18.35,18.35,0,0,1-7,10.13c-2.61,1.88-5.43,3.46-8.14,5.2-1.78,1.14-3.63,2.22-5.29,3.53-4.73,3.75-6.61,8.75-6.11,14.71.06.79.13,1.59.22,2.55-1.25,0-2.26,0-3.27,0-3.7-.21-7.39-.51-11.08-.65-8.84-.34-17.68-.62-26.51-.91-7.67-.25-15.35-.54-23-.7-12.68-.27-25.37-.31-38,.33-1.5.08-3,.26-4.5.46a87.23,87.23,0,0,0-21.13,5.86c-14.53,5.94-28.87,12.33-42.89,19.41-10.27,5.19-20.41,10.64-30.57,16.06a79.56,79.56,0,0,0-12,7.58,7.55,7.55,0,0,1-5.28,1.91c-4.92-.28-9.85-.66-14.78-.68-8,0-16,.18-24,.35-4.52.09-9.05.22-13.56.49-2.8.17-5.59.56-8.37,1-5.83.85-11.19,3.09-16.44,5.68-12.72,6.29-25.35,12.76-37.7,19.75-15.33,8.68-30.59,17.48-45,27.72a62.13,62.13,0,0,0-6.39,5.16,13.31,13.31,0,0,0-4,9.4,33.57,33.57,0,0,0,.71,9c1.74,7.68,3.55,15.35,6.48,22.7a5.35,5.35,0,0,1,.19,1c-.84.35-1.66.65-2.43,1-2.33,1.15-4.68,2.26-6.95,3.53a8.65,8.65,0,0,0-2.26,2.06,3.41,3.41,0,0,0-.29,4.37,19.21,19.21,0,0,0,1.88,2.43A86.25,86.25,0,0,0,40,511.54c9,5.58,18.22,10.65,28.87,12.49a10.76,10.76,0,0,1,4.61,2.1,46.31,46.31,0,0,0,11.61,6.53A189.43,189.43,0,0,0,106,539.49c12.31,3.32,24.81,5.74,37.36,7.94,14.84,2.6,29.68,5.21,44.7,6.54,7.92.69,15.83,1.6,23.79.77,5.72-.59,11.45-1.11,17.14-1.94,6.77-1,13.5-2.27,20.24-3.45q11.64-2,23.26-4.12c2.14-.39,4.25-.94,6.54-1.45.23,1,.37,1.76.61,2.53.55,1.69,1.06,3.41,1.76,5a6.49,6.49,0,0,0,6.31,4.13c1.37,0,2.74,0,4.11-.07,3-.07,6-.31,9-.18a190.76,190.76,0,0,0,22.81-.05,94.69,94.69,0,0,0,15.79-2.57c10.2-2.55,17.91-8.23,22.82-17.66,5.95-11.42,9.75-23.37,9.72-36.38,0-9.53,0-19.06,0-28.59v-2a111.8,111.8,0,0,1,1.76,22.55,208.65,208.65,0,0,1-2.23,28.89,16.55,16.55,0,0,0,0,2c1-.17,1.73-.25,2.43-.43l20.31-5.16,30.27-7.71a21.72,21.72,0,0,1,2.18-.34c.12.67.21,1.06.26,1.46.66,5.79,1.3,11.57,2,17.36a6,6,0,0,1-.8,3.94c-.63,1.06-1.34,2.08-1.92,3.16-1.4,2.58-1.22,4.57,1,6.48a28.31,28.31,0,0,1,5.54,7.09,27.34,27.34,0,0,0,12.6,10.81,15.22,15.22,0,0,0,4.72,1.31c3.18.34,4.91-1.72,4.26-4.85a8.41,8.41,0,0,0-.71-2.14c-.95-1.82-1.89-3.65-3-5.38-3.08-4.78-6.25-9.51-9.38-14.26a13.16,13.16,0,0,1-2-9.24c.79-6,1.62-11.95,2.37-17.93a2.54,2.54,0,0,1,2.25-2.45c7.44-1.83,14.87-3.77,22.3-5.67l6.62-1.67a14,14,0,0,1,.69,1.63q3.17,11.07,6.3,22.15a24.55,24.55,0,0,1,.49,10,25.79,25.79,0,0,0-.29,5.11c.21,3.29,1.94,5,5.26,5.15a47.19,47.19,0,0,0,5.94-.22c3.28-.26,6.54-.68,9.82-.93,4.57-.34,9.17-.47,13.73-.94a19.6,19.6,0,0,0,5.68-1.61c1.6-.71,1.76-2.09.52-3.34a7.64,7.64,0,0,0-2.74-1.71,38.36,38.36,0,0,0-4.76-1.28c-5-1.14-10-2.2-15-3.36-4-.93-6.31-3.46-6.64-7.6q-1.05-12.9-2-25.82a9.51,9.51,0,0,1,.13-1.45c.64-.22,1.2-.46,1.79-.61l24.28-6.22c5.44-1.39,10.89-2.76,16.32-4.17,1.78-.45,1.79-.52,2-2.35l.45-4.55c.85,2.34,1.64,4.67,2.57,6.94a10.52,10.52,0,0,0,1.53,2.1Z" transform="translate(-0.41 -0.41)"/>
    <g id="bf30670b-feaa-4739-98be-f883b4f7b34c" data-name="rightWheel">
      <path class="7063448d-7d7b-417e-ad6e-a750ddbae403" d="M538.74,482.74c-.84-2.46-1.78-4.89-2.49-7.38-1.24-4.29-1.06-8.64-.45-13a203.94,203.94,0,0,1,8.73-38.2,78.36,78.36,0,0,1,4.09-9.63,33.85,33.85,0,0,1,3.74-5.64,16.06,16.06,0,0,1,6.27-4.87,8.11,8.11,0,0,1,10,2.22,23.09,23.09,0,0,1,3.87,6.74,66.07,66.07,0,0,1,3.68,14.3,145.78,145.78,0,0,1,1.82,19A32.76,32.76,0,0,1,576.31,458a34.48,34.48,0,0,1-2.19,5.34c.15-.95.29-1.9.44-2.84a132.42,132.42,0,0,0,1.28-29.3,69.06,69.06,0,0,0-1-9,18.28,18.28,0,0,0-3.68-7.95,13.57,13.57,0,0,0-5.68-4.27,7.18,7.18,0,0,0-7.88,1.18,34.29,34.29,0,0,0-4.27,4.42,49,49,0,0,0-9.72,21.53A64.71,64.71,0,0,0,545,469,26,26,0,0,0,552,480.74c.93.88,1.85,1.85,3.27,2l.51.26c1.19,1.19,2.71,1.11,4.2,1.06.8,0,1.59-.21,2.68-.36a8.79,8.79,0,0,1-5.72,2.87c-4.63.82-9.26.26-13.83-.49-1.34-.22-2.5-1.51-3.75-2.31C539.14,483.4,538.94,483.07,538.74,482.74Z" transform="translate(-0.41 -0.41)"/>
      <path class="7063448d-7d7b-417e-ad6e-a750ddbae403" d="M555.75,483l-.51-.26a1.69,1.69,0,0,0-.23-.34c-5.15-4-7.67-9.54-9-15.68-2.8-12.63-2.67-25.15,1.76-37.43a42.22,42.22,0,0,1,8.1-14.42,23.84,23.84,0,0,1,3.48-3.18c2.93-2.17,5.74-2,8.3.64a19.77,19.77,0,0,1,3,4.12,27.44,27.44,0,0,1,3.56,13.36c.08,6.91.25,13.83,0,20.74a62.46,62.46,0,0,1-4.52,21.81,18.07,18.07,0,0,1-8.34,10.27C559.6,483.7,557.64,483.31,555.75,483Z" transform="translate(-0.41 -0.41)"/>
    </g>
    <g id="e0b60a57-37b4-47e6-af1b-82b0b6b57113" data-name="leftWheel">
      <path class="7063448d-7d7b-417e-ad6e-a750ddbae403" d="M370.31,484.83q0,8.85,0,17.69a54,54,0,0,1-4.19,20c-1.65,4.13-3.54,8.18-5.53,12.16-4.67,9.39-12.29,15-22.48,17.32a110.73,110.73,0,0,1-30.22,2.33c-4.17-.2-8.35.07-12.53,0q-4.11,0-8.2-.35a4.47,4.47,0,0,1-3.22-2,19.12,19.12,0,0,1-3.17-9,9.23,9.23,0,0,1,.38-2.21c.69-5.09,1.48-10.17,2-15.28,1.76-17.37,4.7-34.49,10.35-51.06a101.08,101.08,0,0,1,12.21-25.28,49.86,49.86,0,0,1,13.35-13.54,35.79,35.79,0,0,1,23.88-5.7c9.26.89,16,5.53,20.9,13.21,2.76,4.36,5,9,5.73,14.19a66,66,0,0,1,.54,7.17c.21,6.78.35,13.57.51,20.35ZM296,498.23c.59,5.79.93,11.61,1.82,17.35a40.73,40.73,0,0,0,8.52,19.56c8.64,10.8,24.56,14.48,37.22,6.84A46,46,0,0,0,363,518.74c3.38-8.52,4.64-17.44,4.91-26.53a149.48,149.48,0,0,0-1.7-24.37,35.7,35.7,0,0,0-6.6-16.41c-4.47-6.18-10-11.05-17.2-13.86a17.64,17.64,0,0,0-11.67-.46,40,40,0,0,0-14.06,7.48C310,450,305.46,456.94,302.3,464.82,298,475.53,296.45,486.74,296,498.23Z" transform="translate(-0.41 -0.41)"/>
      <path class="7063448d-7d7b-417e-ad6e-a750ddbae403" d="M366.43,484.52c.08,11.41-.63,20.81-3.65,29.9-3.61,10.88-9.84,19.82-19.6,26.1A26.2,26.2,0,0,1,327.82,545,27.6,27.6,0,0,1,310,537.59a32.46,32.46,0,0,1-9.05-14.7,60.38,60.38,0,0,1-2.82-16.36c-.42-12.88.85-25.59,4.84-37.93a50.85,50.85,0,0,1,10.48-18.69,39.16,39.16,0,0,1,18.21-11.46,17.69,17.69,0,0,1,11.11.44,27.63,27.63,0,0,1,9.56,5.89c6.87,6.36,11.39,14,12.46,23.44C365.42,474.27,366,480.34,366.43,484.52Z" transform="translate(-0.41 -0.41)"/>
    </g>
    <g id="49e8972c-d8da-42c8-ab88-c088732819c0" data-name="hair">
      <path class="7063448d-7d7b-417e-ad6e-a750ddbae403" d="M452.9,240.9c-1.3,2.44-1.21,3.36.89,4.82s3.12,3.18,2.76,5.72a4.54,4.54,0,0,0,2.05,4.4,25.75,25.75,0,0,1,3.69,3.54,4.16,4.16,0,0,1,0,5.31c-.65.76-1.19.83-1.9.13a7,7,0,0,1-1-1.3,6.1,6.1,0,0,0-4.39-2.74,21.41,21.41,0,0,0-10.54.67c-2.4.79-4.78,1.67-7.2,2.41-2.69.82-5.4,1.4-8.26.62-4.28-1.16-5.67-4.66-3.21-8.37a11.5,11.5,0,0,1,4.46-3.84,33,33,0,0,1,9.61-2.82c1.08-.2,2.17-.29,3.26-.43,2.78-.35,3.41-.93,4.05-3.72S449.78,240.93,452.9,240.9Z" transform="translate(-0.41 -0.41)"/>
      <path class="7063448d-7d7b-417e-ad6e-a750ddbae403" d="M433.13,278.27c-1.8-.66-3.49-1.18-5.06-1.92a3.1,3.1,0,0,1-1.29-1.69,15.84,15.84,0,0,1-.22-9.48c1.63.13,3.23.23,4.82.44.28,0,.64.56.7.9A74.91,74.91,0,0,1,433.13,278.27Z" transform="translate(-0.41 -0.41)"/>
    </g>
    <g id="f31c3d9f-686e-4035-ae20-6d0635595e65" data-name="face">
      <path class="7063448d-7d7b-417e-ad6e-a750ddbae403" d="M427.53,278.61c2-.64,3.56-.35,4.88,1,.59.62,1.09,1.47,2.45,1a100.83,100.83,0,0,0-1.1-14.74c.2-.17.29-.31.4-.34,5-1.5,9.94-3,14.94-4.43A9.83,9.83,0,0,1,453,261a5.48,5.48,0,0,1,4.77,3.41,2.57,2.57,0,0,0,.64,1c1.57,1.36,1.6,3.23,1.86,5.09-.48.18-1.09.22-1.3.53-1.12,1.66-2.65,1.39-4.24,1.08a10.55,10.55,0,0,0-1.23-.1c1.08,2.06,4.06,2.29,6.73.52.05.59.12,1.09.12,1.6s-.06.93-.11,1.56c-.55-.11-1-.18-1.43-.28a5.24,5.24,0,0,0-4.86,1.59c-.73.66-.59,2.47.12,3.44a2.13,2.13,0,0,0,2.77.52,2.9,2.9,0,0,0,1.76-2.79c0-.59-.1-1.17-.16-1.91,1.66,1.56,1.5,2.31-1.07,5.53a8.84,8.84,0,0,0,1.05,0,6.18,6.18,0,0,0,.81-.31,2,2,0,0,1,.13.62,15.09,15.09,0,0,0,.51,8.1,15.63,15.63,0,0,1,.61,2.81,6.07,6.07,0,0,1-4.65,7.18c-4.3,1.1-8.32.43-11.7-2.6a37.15,37.15,0,0,1-3.82-4.28,24.48,24.48,0,0,1-2-3.07,14.12,14.12,0,0,0-5.9-5.81A9.94,9.94,0,0,1,427.53,278.61Zm18,13.77-1.21-.78c.07-.71.12-1.28.18-2l-2.4.94c.13,1,.26,1.91.39,2.88,2-1.11,2-1.08,3.6,2.15l1.42-1.49,2.48,1.43c.69-.47,1.27-1.18,1.92-1.25s1.34.51,2.17.86c-.17-1.15-.06-2.13,1.43-2l1.31,1.62,1.33-2.65-2.31-1.3c-1.42,1.53-1.37,1.9-3.46.8-.94,2-1.27,2-2.81.34-.89,1.22-1.68,1.54-2.27.9-.15-.55-.31-1.1-.46-1.65l-.45-.24Zm1.55-12.87a5.34,5.34,0,0,0-5.12-4.2,5.89,5.89,0,0,0-2.52.74,2.42,2.42,0,0,0-.77,3.84,5.65,5.65,0,0,0,3.72,2.34c.14,0,.32-.18.56-.33l-.83-1.11c2-.06,2.28-1.59,2.64-3.15Zm2.71,8.85-.15.5a4.14,4.14,0,0,0,4.11,1.44,5.92,5.92,0,0,0,4.79-3.21c-.15-.25-.19-.4-.29-.48a7.8,7.8,0,0,0-.95-.77,12.28,12.28,0,0,1-5.15-6.92,11.52,11.52,0,0,0-.77-1.89c-.28-.55-.73-.8-1.5-.22a16.92,16.92,0,0,0,6.76,10.33,3.53,3.53,0,0,1-3.2,1.95A24.57,24.57,0,0,1,449.79,288.36Zm-13.12-15.11a5.35,5.35,0,0,0,.74-.93c.95-2.65,3.09-2.83,5.36-1.94.88.35,1.74.78,2.64,1.1a3.76,3.76,0,0,0,1.23,0c-.2-.43-.26-.8-.44-.87a40.24,40.24,0,0,0-5.87-2.24c-1.94-.46-4.09,1.54-4.21,3.57C436.1,272.23,436.39,272.58,436.67,273.25Z" transform="translate(-0.41 -0.41)"/>
      <path class="7063448d-7d7b-417e-ad6e-a750ddbae403" d="M440,294.74a16.68,16.68,0,0,0,7.47,5.89c-.38,1.61-.1,3.16-1.76,4.1-.57.32-.71,1.41-1.23,2.58a4.26,4.26,0,0,0-2.45-4.12c-1.39-.85-2.67-1.86-4-2.82Z" transform="translate(-0.41 -0.41)"/>
    </g>
    <g id="7d1da279-d1c2-409a-87e1-33cd61b53c3b" data-name="eyes">
      <path class="7063448d-7d7b-417e-ad6e-a750ddbae403" d="M455.76,279.61c-.88-1.71-.87-1.75.3-2.74C457.34,278.15,457.32,278.5,455.76,279.61Z" transform="translate(-0.41 -0.41)"/>
      <path class="7063448d-7d7b-417e-ad6e-a750ddbae403" d="M442.85,278.17c0,.81-.39,1.16-1.12,1.16a1.65,1.65,0,0,1-1.71-1.39,1.73,1.73,0,0,1,1.73-1.39C442.77,276.66,442.66,277.55,442.85,278.17Z" transform="translate(-0.41 -0.41)"/>
    </g>
    <path class="7063448d-7d7b-417e-ad6e-a750ddbae403" d="M425.91,499.94c-.81.14-1.55.23-2.26.41l-42.9,10.51a18.51,18.51,0,0,1-2.21.48c-.64.07-1-.28-.9-1.22.55-.17,1.17-.4,1.81-.56L422.53,499c1.18-.29,2.35-.62,3.52-.94a14.11,14.11,0,0,0-.17-5.35c-.84.19-1.56.32-2.28.51q-18.32,4.68-36.62,9.38a25,25,0,0,1-2.73.38c-.06-1.25-.15-2.19-.15-3.13q0-24.17,0-48.34c0-3.29,0-6.58,0-9.87a13.08,13.08,0,0,0-.62-4.94c-.6.1-1.13.16-1.65.28l-11.59,2.77-.47.12-.23-.09h-1.13l-5,1.16.54,1,.69-.11.17.11.18-.06a47.6,47.6,0,0,1,5.78,12.28,102.6,102.6,0,0,1,4.44,26.69,213.24,213.24,0,0,1-1.8,37.54,12.89,12.89,0,0,0,0,1.66c.67-.13,1.06-.18,1.45-.28l38.22-9.74L425,506.86c.66-.17,1.49-.23,1.5-1.12C426.54,503.86,426.75,501.93,425.91,499.94Z" transform="translate(-0.41 -0.41)"/>
  </g>
  <g id="522e8a7f-4d19-4aea-8741-1d6984f288bd" data-name="black">
    <path d="M582.65,392.21c0-2-.19-4-.43-5.94a13.61,13.61,0,0,0-5.43-9.79A45.71,45.71,0,0,0,570,372.3a52,52,0,0,0-14.58-4.14,203.14,203.14,0,0,0-23.47-2.57A38.32,38.32,0,0,1,525,365a57.51,57.51,0,0,1-8.58-2.75c-10.94-4.41-21.54-9.57-32.16-14.69a5.34,5.34,0,0,1-3.21-4.07A195.42,195.42,0,0,0,474.48,321a14.76,14.76,0,0,0-7.41-8.42,46.49,46.49,0,0,0-4.51-2c-2.36-.93-4.74-1.79-7.13-2.66-1.24-.45-2.1-1-2-2.63.06-1.36-.78-1.78-2.08-1.31-.69.25-1.35.58-2,.88-1.1-1-.65-2-.3-2.9s1.11-.63,1.77-.63c1.37,0,2.75.09,4.11,0,4.75-.38,7.7-3.58,7.33-7.92a8.48,8.48,0,0,0-.5-2.4,16.69,16.69,0,0,1-.54-9.89,31.31,31.31,0,0,0,.46-12.46,13.07,13.07,0,0,1-.13-1.32l.62-.42c3.26-2.09,3.7-5.56,1-8.36-.71-.74-1.5-1.4-2.27-2.08a6.72,6.72,0,0,1-2.56-5.16,6.71,6.71,0,0,0-2.68-5.54,5.58,5.58,0,0,1-.75-.71c-1.38-1.55-1.26-2.72.38-4,.41-.32.83-.63,1.38-1-1.36-.79-2.6-.28-3.78-.21a9.07,9.07,0,0,0-5.49,2,6,6,0,0,0-2.05,4.34,2,2,0,0,1-1.7,1.82c-.74.16-1.48.26-2.22.42-3.14.67-6.33,1.21-9.41,2.08a15.45,15.45,0,0,0-8.2,5.58c-1.93,2.53-1.88,4.95.18,7.27a2.85,2.85,0,0,1,.72,2.59,17,17,0,0,0,.9,9.49c.16.37.41.89.27,1.16-.61,1.12.05,2,.46,2.9a13,13,0,0,0,6.54,6.82,6.66,6.66,0,0,1,2.8,2.34c.63.9,1.23,1.82,1.93,2.67a4.06,4.06,0,0,1,.61,4,18.35,18.35,0,0,1-7,10.13c-2.61,1.88-5.43,3.46-8.14,5.2-1.78,1.14-3.63,2.22-5.29,3.53-4.73,3.75-6.61,8.75-6.11,14.71.06.79.13,1.59.22,2.55-1.25,0-2.26,0-3.27,0-3.7-.21-7.39-.51-11.08-.65-8.84-.34-17.68-.62-26.51-.91-7.67-.25-15.35-.54-23-.7-12.68-.27-25.37-.31-38,.33-1.5.08-3,.26-4.5.46a87.23,87.23,0,0,0-21.13,5.86c-14.53,5.94-28.87,12.33-42.89,19.41-10.27,5.19-20.41,10.64-30.57,16.06a79.56,79.56,0,0,0-12,7.58,7.55,7.55,0,0,1-5.28,1.91c-4.92-.28-9.85-.66-14.78-.68-8,0-16,.18-24,.35-4.52.09-9.05.22-13.56.49-2.8.17-5.59.56-8.37,1-5.83.85-11.19,3.09-16.44,5.68-12.72,6.29-25.35,12.76-37.7,19.75-15.33,8.68-30.59,17.48-45,27.72a62.13,62.13,0,0,0-6.39,5.16,13.31,13.31,0,0,0-4,9.4,33.57,33.57,0,0,0,.71,9c1.74,7.68,3.55,15.35,6.48,22.7a5.35,5.35,0,0,1,.19,1c-.84.35-1.66.65-2.43,1-2.33,1.15-4.68,2.26-6.95,3.53a8.65,8.65,0,0,0-2.26,2.06,3.41,3.41,0,0,0-.29,4.37,19.21,19.21,0,0,0,1.88,2.43A86.25,86.25,0,0,0,40,511.54c9,5.58,18.22,10.64,28.87,12.49a10.76,10.76,0,0,1,4.61,2.1,46.31,46.31,0,0,0,11.61,6.53A189.43,189.43,0,0,0,106,539.49c12.31,3.32,24.81,5.74,37.36,7.94,14.84,2.6,29.68,5.21,44.7,6.54,7.92.69,15.83,1.6,23.79.77,5.72-.59,11.45-1.11,17.14-1.94,6.77-1,13.5-2.27,20.24-3.45q11.64-2,23.26-4.12c2.14-.39,4.25-.94,6.54-1.45.23,1,.37,1.76.61,2.53.55,1.69,1.06,3.41,1.76,5a6.49,6.49,0,0,0,6.31,4.13c1.37,0,2.74,0,4.11-.07,3-.07,6-.31,9-.18a190.76,190.76,0,0,0,22.81-.05,94.69,94.69,0,0,0,15.79-2.57c10.2-2.55,17.91-8.23,22.82-17.66,5.95-11.42,9.75-23.37,9.72-36.38,0-9.53,0-19.06,0-28.59v-2a111.8,111.8,0,0,1,1.76,22.55,208.65,208.65,0,0,1-2.23,28.89,16.55,16.55,0,0,0,0,2c1-.17,1.73-.25,2.43-.43l20.31-5.16,30.27-7.71a21.72,21.72,0,0,1,2.18-.34c.12.67.21,1.06.26,1.46.66,5.79,1.3,11.57,2,17.36a6,6,0,0,1-.8,3.94c-.63,1.06-1.34,2.08-1.92,3.16-1.4,2.58-1.22,4.57,1,6.48a28.31,28.31,0,0,1,5.54,7.09,27.34,27.34,0,0,0,12.6,10.81,15.22,15.22,0,0,0,4.72,1.31c3.18.34,4.91-1.72,4.26-4.85a8.41,8.41,0,0,0-.71-2.14c-.95-1.82-1.89-3.65-3-5.38-3.08-4.78-6.25-9.51-9.38-14.26a13.16,13.16,0,0,1-2-9.24c.79-6,1.62-11.95,2.37-17.93a2.54,2.54,0,0,1,2.25-2.45c7.44-1.83,14.87-3.77,22.3-5.67l6.62-1.67a14,14,0,0,1,.69,1.63q3.17,11.07,6.3,22.15a24.55,24.55,0,0,1,.49,10,25.79,25.79,0,0,0-.29,5.11c.21,3.29,1.94,5,5.26,5.15a47.19,47.19,0,0,0,5.94-.22c3.28-.26,6.54-.68,9.82-.93,4.57-.34,9.17-.47,13.73-.94a19.6,19.6,0,0,0,5.68-1.61c1.6-.71,1.76-2.09.52-3.34a7.64,7.64,0,0,0-2.74-1.71,38.36,38.36,0,0,0-4.76-1.28c-5-1.14-10-2.2-15-3.36-4-.93-6.31-3.46-6.64-7.6q-1.05-12.9-2-25.82a9.51,9.51,0,0,1,.13-1.45c.64-.22,1.2-.46,1.79-.61l24.28-6.22c5.44-1.39,10.89-2.76,16.32-4.17,1.78-.45,1.79-.52,2-2.35l.45-4.55c.85,2.34,1.64,4.67,2.57,6.94a10.52,10.52,0,0,0,1.53,2.1c-.84-2.46-1.78-4.89-2.49-7.38-1.24-4.29-1.06-8.64-.45-13a203.94,203.94,0,0,1,8.73-38.2,78.36,78.36,0,0,1,4.09-9.63,33.85,33.85,0,0,1,3.74-5.64,16.06,16.06,0,0,1,6.27-4.87,8.11,8.11,0,0,1,10,2.22,23.09,23.09,0,0,1,3.87,6.74,66.65,66.65,0,0,1,3.68,14.3,145.78,145.78,0,0,1,1.82,19A32.76,32.76,0,0,1,576.31,458a34.48,34.48,0,0,1-2.19,5.34c.15-.95.29-1.9.44-2.84a132.42,132.42,0,0,0,1.28-29.3,69.06,69.06,0,0,0-1-9,18.23,18.23,0,0,0-3.68-7.95,13.57,13.57,0,0,0-5.68-4.27,7.18,7.18,0,0,0-7.88,1.18,34.29,34.29,0,0,0-4.27,4.42,49,49,0,0,0-9.72,21.53A64.71,64.71,0,0,0,545,469,26,26,0,0,0,552,480.74c.93.88,1.85,1.85,3.27,2a1.69,1.69,0,0,0-.23-.34c-5.15-4-7.67-9.54-9-15.68-2.8-12.63-2.67-25.15,1.76-37.43a42.22,42.22,0,0,1,8.1-14.42,23.84,23.84,0,0,1,3.48-3.18c2.93-2.17,5.74-2,8.3.64a19.77,19.77,0,0,1,3,4.12,27.44,27.44,0,0,1,3.56,13.36c.08,6.91.25,13.83,0,20.74a62.46,62.46,0,0,1-4.52,21.81,18.07,18.07,0,0,1-8.34,10.27c-1.74,1.1-3.7.71-5.59.37,1.19,1.19,2.71,1.11,4.2,1.06.8,0,1.59-.21,2.68-.36a8.79,8.79,0,0,1-5.72,2.87c-4.63.82-9.26.26-13.83-.49-1.34-.22-2.5-1.51-3.75-2.31.78,2,2.06,3.7,4.33,3.86,4,.28,8.07.38,12.11.39a12.34,12.34,0,0,0,10.61-5.67,36.89,36.89,0,0,0,2.65-4.15c2.05-4,4.08-8.08,6-12.18a63.27,63.27,0,0,0,5.1-18.76c.71-5.78,1-11.61,1.42-17.42A357.42,357.42,0,0,0,582.65,392.21Zm-129.45-84a2.47,2.47,0,0,1,.67,0c3.72,1.38,7.46,2.72,11.16,4.18a13.78,13.78,0,0,1,8.39,9.22A253,253,0,0,1,481,349.57a37.64,37.64,0,0,1,.22,10.86,4.9,4.9,0,0,1-3.58,4.57A58,58,0,0,1,458,367.81c-.41,0-.81-.12-1.32-.19-.75-2.69-.52-3.06,1.76-4,2.64-1.13,5.28-2.28,7.81-3.64a17,17,0,0,0,3.9-3c2.79-2.78,3.26-6,1.13-9.34a10.21,10.21,0,0,1-1.53-5.79,65,65,0,0,0-2.23-17.27c-.23-.82-.28-1.8-1.49-2-.75.79-.24,1.58,0,2.31a69.35,69.35,0,0,1,2.08,16.48c0,.73-.06,1.47-.1,2.26a7.85,7.85,0,0,1-1.14.16,3.71,3.71,0,0,0-3.41,1.92c-.58.85-1.07,1.75-1.68,2.59a5.63,5.63,0,0,1-5.22,2.3c-.26-1.58-.49-3.19-.79-4.8-1.08-5.69-3.38-11-5.32-16.4-1.5-4.19-2.78-8.45-4.12-12.69a10.37,10.37,0,0,1-.42-2.22c-.11-1,.53-1.54,1.52-1.22.45.15.84.46,1.28.65a16.27,16.27,0,0,0,2.47,1c1.88.47,2.9-.53,2.6-2.45C453.54,311.06,452.82,309.72,453.2,308.22Zm29.68,51.49c.14-1.07.22-2.15.36-3.57,4.73,2.53,9.11,4.91,12.78,8.39a8.42,8.42,0,0,1,1.1,1.22,1.93,1.93,0,0,1-.06,2.8,10.83,10.83,0,0,1-2.07,2,62.38,62.38,0,0,1-6.34,4.17c-4,2.14-8.08,4.05-12.14,6.05-.54.26-1.13.43-1.94.73-.79-4.6-.77-9.1-1.25-13.8,1.12-.33,2.21-.67,3.3-.95C481.53,365.5,482.21,364.75,482.88,359.71ZM470.26,374c-2.06.47-4.11,1-6.17,1.4a30.39,30.39,0,0,1-8.69-.11c.08-1.72.14-3.48.24-5.24,0-.88.59-1.06,1.4-1.06,3.08,0,6.15-.07,9.22-.24,1.69-.1,3.36-.46,5-.69C472.45,370.59,472.13,372.38,470.26,374Zm-7.07-15.46c0,.76.07,1.55-1.23,1.7-.49-1.31-.93-2.71-1.53-4s-1.35-2.49-2.11-3.87c2.06-.76,2.08-.77,3,.67A11.29,11.29,0,0,1,463.19,358.52ZM462,350.91c.78-1.16,1.68-2.6,2.69-4,1.77-2.42,4.17-2.23,5.39.54,1.87,4.26,1.28,7.4-2.37,9.89-.83.57-1.72,1.06-2.55,1.57Zm-15.28-40a8.33,8.33,0,0,1-1.74,1.58c-.55.25-1.33-.69-1.34-1.44s.68-1.62,1.34-1.41A7.55,7.55,0,0,1,446.72,310.88Zm-.63-3.37c.33-2,.56-2.23,1.94-1.21Zm5.85-2.66c0,1.69-.08,3.09,0,4.47s.37,2.78.57,4.17c-1.79.63-2.83-.5-4-1-1.65-.63-.66-2.39-1.76-3.43C448.32,307.37,449.55,305.67,451.94,304.85Zm-26.18-48.74a11.5,11.5,0,0,1,4.46-3.84,33,33,0,0,1,9.61-2.82c1.08-.2,2.17-.29,3.26-.43,2.78-.35,3.41-.93,4.05-3.72s2.64-4.37,5.76-4.4c-1.3,2.44-1.21,3.36.89,4.82s3.12,3.18,2.76,5.72a4.54,4.54,0,0,0,2.05,4.4,25.75,25.75,0,0,1,3.69,3.54,4.16,4.16,0,0,1,0,5.31c-.65.76-1.19.83-1.9.13a7,7,0,0,1-1-1.3,6.1,6.1,0,0,0-4.39-2.74,21.41,21.41,0,0,0-10.54.67c-2.4.79-4.78,1.67-7.2,2.41-2.69.82-5.4,1.4-8.26.62C424.69,263.32,423.3,259.82,425.76,256.11Zm.8,9.07c1.63.13,3.23.23,4.82.44.28,0,.64.56.7.9a74.91,74.91,0,0,1,1.05,11.75c-1.8-.66-3.49-1.18-5.06-1.92a3.1,3.1,0,0,1-1.29-1.69A15.84,15.84,0,0,1,426.56,265.18Zm11.66,25.05a14.12,14.12,0,0,0-5.9-5.81,9.94,9.94,0,0,1-4.79-5.81c2-.64,3.56-.35,4.88,1,.59.62,1.09,1.47,2.45,1a100.83,100.83,0,0,0-1.1-14.74c.2-.17.29-.31.4-.34,5-1.5,9.94-3,14.94-4.43A9.83,9.83,0,0,1,453,261a5.48,5.48,0,0,1,4.77,3.41,2.57,2.57,0,0,0,.64,1c1.57,1.36,1.6,3.23,1.86,5.09-.48.18-1.09.22-1.3.53-1.12,1.66-2.65,1.39-4.24,1.08a10.55,10.55,0,0,0-1.23-.1c1.08,2.06,4.06,2.29,6.73.52.05.59.12,1.09.12,1.6s-.06.93-.11,1.56c-.55-.11-1-.18-1.43-.28a5.24,5.24,0,0,0-4.86,1.59c-.73.66-.59,2.47.12,3.44a2.13,2.13,0,0,0,2.77.52,2.9,2.9,0,0,0,1.76-2.79c0-.59-.1-1.17-.16-1.91,1.66,1.56,1.5,2.31-1.07,5.53a8.84,8.84,0,0,0,1.05,0,6.18,6.18,0,0,0,.81-.31,2,2,0,0,1,.13.62,15.09,15.09,0,0,0,.51,8.1,15.63,15.63,0,0,1,.61,2.81,6.07,6.07,0,0,1-4.65,7.18c-4.3,1.1-8.32.43-11.7-2.6a37.15,37.15,0,0,1-3.82-4.28A24.48,24.48,0,0,1,438.22,290.23Zm17.54-10.62c-.88-1.71-.87-1.75.3-2.74C457.34,278.15,457.32,278.5,455.76,279.61ZM440,294.74a16.68,16.68,0,0,0,7.47,5.89c-.38,1.61-.1,3.16-1.76,4.1-.57.32-.71,1.41-1.23,2.58a4.26,4.26,0,0,0-2.45-4.12c-1.39-.85-2.67-1.86-4-2.82Zm2.85,12.33-3.25-3.73C440.86,304.28,442.9,304.48,442.88,307.07Zm-5.77-5.3.81.14,0,.28-.82-.07Zm-1.66,10.33c.24-1.82.53-3.63.78-5.44a4.54,4.54,0,0,1,1.61-3.36,14.56,14.56,0,0,1,1.7,1.43c.82.91,1.56,1.89,2.31,2.86,1.53,2,1,3.89-1.32,4.76-1.56.59-3.17,1-5.09,1.67C435.44,313.11,435.39,312.6,435.45,312.1Zm-22.31,15c.2-5.26,2.21-9.57,6.62-12.59q1.88-1.27,3.86-2.36c3.92-2.11,7.95-4.05,11.13-7.36a16.28,16.28,0,0,1-.17,6.06c-.12.47-.27.93-.37,1.39-.35,1.77.42,2.77,2.19,2.46a31.93,31.93,0,0,0,5.1-1.49c1.85-.66,2.6-.42,2.95,1.49,1.15,6.25,3.53,12.09,5.78,18,1.93,5.06,3.78,10.15,4.51,15.56,0,.27.09.54.12.81.24,2.13,0,2.28-2,2.64-3.57.62-7.11,1.38-10.67,2.1-1,.21-2,.46-3.21.75-1.48-3-3-5.9-4.36-8.87s-2.74-6-3.91-9.06-2.09-6.15-3.22-9.53a1.84,1.84,0,0,0-.25,2.19c1.17,3.36,2.19,6.8,3.61,10.05,2.19,5,4.66,9.93,7.05,14.86.87,1.79,1,1.87,3.06,1.47,4.29-.87,8.57-1.81,12.86-2.73.26-.05.53-.13.8-.18,2.13-.32,2.54-.25,3.45,1.66a50.43,50.43,0,0,1,2,5.56,1.16,1.16,0,0,1-.86,1.59c-.72.25-1.42.53-2.13.78-3.8,1.36-7.66,2.58-11.41,4.08-7.22,2.87-13.11.66-18.27-4.53a28,28,0,0,1-5.13-7.41c-1.16-2.33-2.28-4.67-3.41-7h0l-2.17-5.82.24-.11-.32-.11-2.71-7.24A28.57,28.57,0,0,1,413.14,327.11Zm40.16,41.32a1.7,1.7,0,0,1,.86,1c.31,1-.18,4.6-.82,6.2-3.75-.63-7.46-1.19-11.13-1.91-2.41-.48-4.78-1.18-7.15-1.84-3-.85-2.49-.69-2.51-3.5,0-.4,0-.8.08-1.39a16.3,16.3,0,0,1,1.61.57,13.94,13.94,0,0,0,10,.73A3.24,3.24,0,0,0,445,368C447.87,366.4,450.59,367.54,453.3,368.43Zm-2.61-1.77.05-.5c.33,0,.66.08,1,.14a1.37,1.37,0,0,1,0,.35C451.38,366.67,451,366.66,450.69,366.66Zm3.49.64c-.87-.72-.76-1.34,0-2.33C454.68,366,454.76,366.56,454.18,367.3Zm-37.07-22.18a.13.13,0,0,1,0,.06c.13.33.27.65.4,1l.5,1.32h0a71.69,71.69,0,0,0,5.48,11,20,20,0,0,0,5.86,6.25,2.87,2.87,0,0,1,1.53,2.7,48.14,48.14,0,0,1-1,7.7c-1.66,6.36-3.62,12.65-4.69,19.16a1.93,1.93,0,0,1-1.82,1.84c-7.23,1.17-14.44,2.5-21.68,3.61-5.14.79-10.31,1.36-15.48,2-2.52.29-5.05.51-7.58.61-2.19.08-3-.91-2.69-3a20.55,20.55,0,0,1,1.13-4.15,254.71,254.71,0,0,1,22-42.71,32.64,32.64,0,0,1,3.43-4.35,18.32,18.32,0,0,1,11.14-5.66,12.59,12.59,0,0,0,2.22-.44ZM205.25,376c13-7.85,26.52-14.63,40.11-21.33q18-8.88,36.51-16.56a12.86,12.86,0,0,1,5.37-1c8.5.21,17,.28,25.5.5,8.7.22,17.4.48,26.1.83s17.25.72,25.87,1.24c7,.42,14.07,1.06,21.1,1.63a6.71,6.71,0,0,1,1.6.34c1.37.43,1.88,1,1.76,2.39a17.69,17.69,0,0,1-.87,4.82c-1.79,4.67-3.65,9.32-5.72,13.87a158.14,158.14,0,0,1-12.43,22.7,90.76,90.76,0,0,1-5.67,7.3,8.06,8.06,0,0,1-6.89,3c-5.34-.25-10.68-.45-16-.72-5.13-.27-10.26-.59-15.39-.91-5.54-.36-11.07-.75-16.61-1.12-4.65-.32-9.3-.62-13.94-1-4.3-.32-8.6-.71-12.9-1.06-4-.33-7.92-.63-11.88-1q-8.3-.74-16.57-1.5c-4.85-.45-9.69-.89-14.53-1.38-5.58-.56-11.17-1.17-16.75-1.78q-6.94-.75-13.88-1.52a46.26,46.26,0,0,1-11.54-2.54C200.4,379.28,202.74,377.49,205.25,376Zm74.43,163.65c-.31,2.49-.78,3.07-3.41,3.65-4.82,1-9.63,2.15-14.49,3-10.19,1.72-20.39,3.39-30.63,4.86-7.92,1.13-15.87,2.3-23.9,2.44-4.72.09-9.46,0-14.17-.4-5.8-.44-11.59-1.13-17.36-1.91-8.2-1.11-16.4-2.34-24.58-3.63-13.06-2.07-26-4.78-38.83-7.9a217.43,217.43,0,0,1-25-7.51c-4.65-1.74-9.12-3.78-12.8-7.23a8.14,8.14,0,0,0-4.67-2,50.8,50.8,0,0,1-15.57-5.07C44,512.91,34.36,506.92,26,499a62,62,0,0,1-4.66-4.93c-1.78-2.13-1.62-3.83.39-5.77,2.31-2.25,5.21-3.51,8.14-4.69.87-.35,1.73-.73,2.78-1.17-.32-.93-.57-1.7-.84-2.45a136.91,136.91,0,0,1-6.38-24.22,25.67,25.67,0,0,1,0-9,12.1,12.1,0,0,1,4-6.78,46.14,46.14,0,0,1,4.15-3.36A396.83,396.83,0,0,1,72.3,412.42c13.52-7.55,27.19-14.84,40.84-22.16a59,59,0,0,1,16.63-6.42,103.06,103.06,0,0,1,10.37-1.46c11.47-1,23-1.3,34.5-1.21,5.82.05,11.63.57,17.44.88a3.64,3.64,0,0,0,1,.1c2.29-.59,4.25.53,6.36,1,3.59.83,7.24,1.47,10.89,2,5.29.74,10.6,1.3,15.91,1.9q6.74.76,13.48,1.44c5,.52,10.08,1,15.13,1.48,3.68.35,7.37.66,11.05,1q8.81.77,17.6,1.51c4.17.34,8.33.64,12.5,1l14.75,1.1c2.53.18,5.06.36,7.59.51,7.66.46,15.32.92,23,1.33,5.54.3,11.08.52,16.62.76a10.82,10.82,0,0,0,8.15-3.3,32.63,32.63,0,0,0,5.48-7.17,240.54,240.54,0,0,0,15.87-30.88,40.26,40.26,0,0,0,3.19-10.38c.36-2.95-.66-4.58-3.52-5.36a20.09,20.09,0,0,0-3.85-.63c-9-.62-18-1.29-27.06-1.75-10.54-.53-21.09-.92-31.64-1.24-11.65-.34-23.3-.53-34.95-.79a1.72,1.72,0,0,1-.75-.16,50.38,50.38,0,0,1,13.46-4.11,103.44,103.44,0,0,1,11.26-.83c10.21-.23,20.43-.39,30.64-.4,8.09,0,16.18.19,24.27.41,6.71.18,13.42.5,20.13.83,7.25.36,14.5.83,21.75,1.19a2.47,2.47,0,0,1,2.64,2,12.88,12.88,0,0,0,.87,2.23l1.7,4.41c-6.36.68-11.88,3.07-15.83,8.28a82.81,82.81,0,0,0-6,9.05,286.3,286.3,0,0,0-15.89,31.11c-1.14,2.72-2.07,5.52-3.08,8.29a9.43,9.43,0,0,0-.35,1.18c-.61,2.76.36,4.2,3.16,4.18s5.46-.34,8.18-.61c12.69-1.22,25.23-3.4,37.77-5.64l.83-.13c-.13,4.73-.51,9.42-.33,14.08s.93,9.24,1.42,13.78c-1.9,1.14-38.15,10-40,9.78-.49-2.58-.91-5.21-1.48-7.8a123.32,123.32,0,0,0-6.16-19.38c-.29-.72-.51-1.64-1.93-1.2.22.71.39,1.41.64,2.08a122.79,122.79,0,0,1,5.81,18.62c.58,2.74,1,5.51,1.49,8.44-.9.27-1.59.5-2.3.68l-11.58,2.82c-.48.12-.95.29-1.61.52l-4.35,1c-.21-.28-.41-.56-.62-.83a27.58,27.58,0,0,0-22.09-10.87c-12.94-.24-23.53,5-32.21,14.35-6.82,7.35-11.39,16.08-15,25.34A178,178,0,0,0,284.23,505c-1.49,9.4-2.55,18.87-3.79,28.31C280.16,535.4,279.93,537.51,279.68,539.62Zm90.63-54.79q0,8.85,0,17.69a54,54,0,0,1-4.19,20c-1.65,4.13-3.54,8.18-5.53,12.16-4.67,9.39-12.29,15-22.48,17.31a110.34,110.34,0,0,1-30.22,2.34c-4.17-.2-8.35.07-12.53,0q-4.11,0-8.2-.35a4.47,4.47,0,0,1-3.22-2,19.12,19.12,0,0,1-3.17-9,9.23,9.23,0,0,1,.38-2.21c.69-5.09,1.48-10.17,2-15.28,1.76-17.37,4.7-34.49,10.35-51.06a101.08,101.08,0,0,1,12.21-25.28,49.86,49.86,0,0,1,13.35-13.54,35.79,35.79,0,0,1,23.88-5.7c9.26.89,16,5.53,20.9,13.21,2.76,4.36,5,9,5.73,14.19a66,66,0,0,1,.54,7.17c.22,6.78.35,13.57.51,20.35Zm56.21,20.91c0,.89-.84.95-1.5,1.12l-11.94,3.08-38.22,9.74c-.39.1-.78.15-1.45.28a12.89,12.89,0,0,1,0-1.66,213.24,213.24,0,0,0,1.8-37.54,102.6,102.6,0,0,0-4.44-26.69,47,47,0,0,0-6.13-12.81l4.48-1.34a5.73,5.73,0,0,0,1.08-.22l11.59-2.77c.52-.12,1.05-.18,1.65-.28a13.08,13.08,0,0,1,.62,4.94c.07,3.29,0,6.58,0,9.87q0,24.17,0,48.34c0,.94.09,1.88.15,3.13a25,25,0,0,0,2.73-.38q18.31-4.67,36.62-9.38c.72-.19,1.44-.32,2.28-.51a14.11,14.11,0,0,1,.17,5.35c-1.17.32-2.34.65-3.52.94l-43.08,10.61c-.64.16-1.26.39-1.81.56-.13.94.26,1.29.9,1.22a18.51,18.51,0,0,0,2.21-.48l42.9-10.51c.71-.18,1.45-.27,2.26-.41C426.75,501.93,426.54,503.86,426.52,505.74Zm.28-20a32,32,0,0,0-.33,3.68c-.18,2-.24,2.09-2.23,2.61l-28.44,7.34c-2.92.75-5.84,1.5-8.76,2.23-.32.08-.64.1-.94.15-.51-1.51-.82-60.57-.36-65.75l39.91-9.8c.32,2.18.63,4.05.87,5.93,1.21,9.45,2.36,18.9,3.63,28.34a36.72,36.72,0,0,1-.88,14.46C428.33,478.48,427.56,482.1,426.8,485.72Zm20.34,58.52c1.6,2.38,3,4.92,4.32,7.44a10.55,10.55,0,0,1,1,3.12c.47,2.61-.38,3.43-3,3a12.66,12.66,0,0,1-2.15-.65,26.62,26.62,0,0,1-13.19-10.66c-.7-1.09-1.29-2.27-2.07-3.3A25.4,25.4,0,0,0,429,539.6c-2.09-1.94-2.5-3.68-1.16-6.2,1-1.92,2-3.83,3.18-5.93,2.08,1,4.26,2,6.85,1.53C439.91,534.78,443.82,539.32,447.14,544.24Zm-17.2-22.52c2.54,1.59,4.68,3,7.55,2.15v3.26c-2,1-3.82.17-5.68-.67S430.53,523.73,429.94,521.72Zm12.4-19.27a19.67,19.67,0,0,1,.83-6.25c.14-.5,1.12-.91,1.79-1.08,4.17-1.07,8.36-2.06,12.55-3.08l12-2.93c.38-.09.79-.11,1.47-.21l1.67,5.8Zm10.72-83.12c1.05-.29,2.12-.55,3.18-.81.39-.09.8-.15,1.43-.28.32,1,.69,1.91.95,2.86,2.49,9.19,5,18.38,7.43,27.58a107.53,107.53,0,0,1,2.49,10.58,47.9,47.9,0,0,1,.18,7.77c0,3.22-.16,6.43-.22,9.64a11.5,11.5,0,0,0,.2,1.84c.3,1.94.32,2-1.68,2.49q-10.51,2.75-21.06,5.45a11.87,11.87,0,0,1-1.36.15c.43-2.86.83-5.42,1.21-8,1.28-8.53,2.69-17.05,3.78-25.6.6-4.68.72-9.42,1-14.14.31-5.82.55-11.63.83-17.45C451.48,419.78,451.5,419.75,453.06,419.33Zm-.42-19.25a6,6,0,0,1,.85,1.11,17.82,17.82,0,0,1,.63,2.16q1.5,6.16,3,12.34c.1.39.15.79.29,1.54l-5.65,1.4C451.38,416.37,452.07,402,452.64,400.08Zm-6.34,87.25c5-1.32,10.06-2.58,15.09-3.87l7.8-2c.46,2,.84,3.71,1.29,5.69-8.9,2.27-17.68,4.39-26.66,6.57a10.47,10.47,0,0,1,.62-5.38C444.59,487.84,445.62,487.51,446.3,487.33Zm45.86,37.13c3.29,3.22,7.89,3.67,12.25,4.72,3.86.92,7.75,1.71,11.61,2.6a4.53,4.53,0,0,1,3.33,2,4.33,4.33,0,0,1-4.09,3c-5.06.27-10.11.53-15.16.9-2.59.19-5.15.7-7.74.93a44.67,44.67,0,0,1-6.33.23c-2.95-.16-4.57-1.82-4.56-4.75s.36-5.7.57-8.69a30.22,30.22,0,0,0,5.08.4A31,31,0,0,0,492.16,524.46Zm-2-.82a6.17,6.17,0,0,1-4.07,1.12,16.32,16.32,0,0,1-2.42-.42c-1.75-.42-1.83-.58-1.65-2.85a31.3,31.3,0,0,0,4.34.68,25.4,25.4,0,0,0,4.08-.62C491.2,522.27,491.14,523,490.19,523.64Zm-.31-6.3c.14,2-.64,3.23-2.66,3.33a22.4,22.4,0,0,1-5.06-.59c-.87-.15-1-1-1.15-1.77q-2.83-10.74-5.7-21.46c-1.37-5.09-2.73-10.19-4.15-15.27a26.62,26.62,0,0,1-1-7.52c0-2.81.06-5.63.27-8.43a32,32,0,0,0-1.1-11L454.74,400.9a9.42,9.42,0,0,0-.42-1.37c-.65-1.49-1.93-1.75-2.8-.39a7.6,7.6,0,0,0-1,3.45c-.24,3.21-.27,6.43-.39,9.65-.31,8.77-.6,17.54-.95,26.3a239.51,239.51,0,0,1-3.47,32.06c-2,11.2-4,22.39-5.78,33.62-.86,5.41-1.27,10.89-1.84,16.34-.21,2.1-.63,2.57-2.69,2.23s-3.68-1.77-5.33-3c-.29-.22-.35-.87-.38-1.33-.47-6.62-1-13.25-1.37-19.89A71,71,0,0,1,430.86,474c1.59-5.41,1.34-10.85.64-16.31-1.92-14.95-4-29.88-5.82-44.84a57.39,57.39,0,0,1,.66-16.59,90.35,90.35,0,0,1,3.37-14.6c.24-.69.52-1.38.86-2.25,3.11,1,6,1,8.65-1.13-.62-1.08-1.34-.52-2-.23a8.66,8.66,0,0,1-5.2.8c-.32-.06-.63-.2-1.2-.38.47-1.94.92-3.83,1.44-6,.82.22,1.52.38,2.21.59a78.24,78.24,0,0,0,19.36,3.5,46.11,46.11,0,0,0,13.64-1.38,18.94,18.94,0,0,0,2.75-1.2h0l1.83-.13c.15,1.7.3,3.36.45,5.07-1.87.36-2.53-1.87-4.65-1.77a12.36,12.36,0,0,0,1.28,1.57A6,6,0,0,0,471,380a2.82,2.82,0,0,1,1.9,2.83c.63,7.82,2.46,15.42,4,23.07,2.31,11.49,4.7,23,7,34.45a66.1,66.1,0,0,1,1.48,16.54c-.29,5.3.49,10.53,1,15.78.52,5.67,1,11.33,1.48,17,.52,6.42,1,12.85,1.45,19.27ZM581.05,405c-.24,4.72-.33,9.45-.56,14.17-.26,5.34-.61,10.67-1.22,16-.23-1.84-.45-3.69-.7-5.53A65.64,65.64,0,0,0,574,412.21a28.34,28.34,0,0,0-3.44-6c-3.42-4.4-8-5.33-13-2.94a20,20,0,0,0-7.23,6.27,57,57,0,0,0-7.84,14.86,129.93,129.93,0,0,0-6.07,24.72c-1.14,7.17-2.14,14.36-3.13,21.56-.3,2.23-.42,4.5-.56,6.75-.12,1.91-.08,2.07-2,2.59q-7.43,2-14.9,3.9c-7.84,2-15.69,3.86-23.53,5.79l-2.58.63a11.81,11.81,0,0,1-.41-5.48c0-.35.87-.77,1.41-.91,3.71-1,7.43-1.88,11.16-2.79l23.94-5.86a5.16,5.16,0,0,0,.79-.24c.58-.22,1.63-.1,1.32-1.12s-1.17-.52-1.79-.38c-3,.7-6,1.48-9,2.21l-26.34,6.44c-.52.13-1.05.2-1.88.35-.18-1.76-.35-3.36-.5-5-.07-.86.47-1.21,1.21-1.4l4.77-1.24,10.94-2.82c2.13-.55,2.21-.58,2.2-2.75,0-5.62-.09-11.24-.13-16.87,0-1,.1-2.05.12-3.08a1.89,1.89,0,0,1,1.55-1.91c.72-.21,1.46-.36,2.2-.5l19.8-3.58c1.14-.21,2.29-.4,3.43-.65a1.87,1.87,0,0,0,1.13-.85,8.67,8.67,0,0,0-1.53,0Q521.08,444.46,508,447c-2,.41-2.07.43-2.06,2.54,0,5.9.06,11.79.14,17.69,0,3.73-.37,4.29-4.1,5.09-2.21.48-4.43.9-6.63,1.41s-4.37,1.09-6.75,1.69a10,10,0,0,1-.46-1.58c-.42-3.67-.91-7.34-1.17-11a13.33,13.33,0,0,1,.49-4.44c2.85-10.52,5.88-21,8.64-31.52,1.33-5.1,2.17-10.32,3.22-15.48a8.52,8.52,0,0,0,.09-1.43c0-.11-.13-.23-.24-.43-1.26,0-1.23.94-1.38,1.78-.64,3.5-1.08,7.06-2,10.5-2.19,8.56-4.58,17.07-6.9,25.6-.57,2.11-1.15,4.22-1.83,6.7-.2-10.8-3.16-20.77-4.95-30.93-.5-2.84-1.16-5.64-1.72-8.46-.13-.66-.15-1.34-.23-2.15.83-.25,1.53-.5,2.24-.69q37.08-10.06,74.16-20.13a74.39,74.39,0,0,0,13.82-5.23c.55-.28,1.07-.61,1.59-.94.09,0,.09-.23.2-.52a3.44,3.44,0,0,0-1.14.16c-7.86,4.08-16.42,6.07-24.88,8.37q-31.71,8.64-63.45,17.18c-2.94.8-3,.79-3.57-2.21q-2.06-10.59-4.05-21.19c-.28-1.54-.38-3.11-.57-4.79.88-.41,1.67-.79,2.47-1.15,6.38-2.87,12.69-5.89,18.4-10a20.38,20.38,0,0,0,3-2.48c1.51-1.59,1.54-2.94.05-4.52a16.77,16.77,0,0,0-3.32-2.73c-3.41-2.17-6.86-4.28-10.37-6.29a3.32,3.32,0,0,1-1.93-2.86c-.1-1.35-.31-2.69-.53-4.52l2.62,1.21q14.73,6.84,29.47,13.67a35.22,35.22,0,0,0,11.32,3.54c1.91.18,3.83.13,5.75.23,9.65.52,19.28,1.24,28.67,3.72a52.88,52.88,0,0,1,12.37,4.95,14.66,14.66,0,0,1,8,11.95A114.43,114.43,0,0,1,581.05,405Z" transform="translate(-0.41 -0.41)"/>
    <path d="M43.06,446.12a34.59,34.59,0,0,0,10.2,8.52,73.41,73.41,0,0,0,16.31,6.7C81.46,464.89,93.7,466.28,106,467c6.5.39,13,.71,19.51.78,21.73.26,43.46.41,65.16-1.1,7.72-.54,15.45-1,23.15-1.67,9.14-.82,18.25-1.84,27.37-2.84,10.28-1.13,20.52-2.58,30.66-4.59a154,154,0,0,0,26.66-7.53c.8-.32,1.56-.73,2.37-1.12-.57-1.55-1.45-1-2.24-.68-11.26,4.5-23,7.12-34.92,9.12C252.4,459.32,241,461,229.56,462c-8.73.8-17.46,1.65-26.19,2.31-7.11.54-14.23.93-21.34,1.23-8.7.37-17.4.75-26.1.81-12.06.09-24.13-.1-36.19-.21a249.77,249.77,0,0,1-27.06-1.71,152.57,152.57,0,0,1-21-3.75c-7.26-1.9-14.27-4.44-20.6-8.56-5.63-3.67-10.06-8.27-11.18-15.28,0-.34-.43-.64-.66-.95l-.4.17c.13.79.2,1.6.4,2.37A21,21,0,0,0,43.06,446.12Z" transform="translate(-0.41 -0.41)"/>
    <path d="M187.39,536.12c2.16-.19,2.87-1.47,2.05-3.45a14.74,14.74,0,0,0-1.51-2.68c-1.67-2.42-3.34-4.85-5.12-7.2q-9.36-12.39-18.8-24.71c-.17-.22-.35-.43-.53-.63a6.87,6.87,0,0,0-5.1-2.71c-1.37,0-2.73-.3-4.09-.27-4,.06-7.95.25-11.92.33-13.16.3-26.31.53-39.47.87-7.46.19-14.93.44-22.38.9a71.51,71.51,0,0,0-8.88,1.57c-.63.12-1.39.21-1.57,1.16.65.7,1.38.27,2.08.16a82.79,82.79,0,0,1,8.9-1.43l5.51-.3-.51,2.71a3.45,3.45,0,0,0-.12,1.08,7,7,0,0,0,0,1,26.15,26.15,0,0,0,2.5,8.65c3.64,7.36,9.56,12,17.22,14.65a100.21,100.21,0,0,0,15.2,3.49c11.54,2,23.14,3.53,34.79,4.75,8,.83,15.93,1.63,23.92,2.28A47.1,47.1,0,0,0,187.39,536.12Zm-39.85-4.41c-5.85-.7-11.68-1.53-17.52-2.27a128.71,128.71,0,0,1-18-3.37c-5.57-1.55-10.94-3.6-15.58-7.18A21.24,21.24,0,0,1,88,505c-.2-1.21-.24-2.45-.36-3.68l0-.36.25-3.34c7.1-.36,14.2-.63,21.31-.89,6.16-.23,12.33-.34,18.5-.4,10.07-.09,20.15-.06,30.23-.16a3.93,3.93,0,0,1,3.47,1.69c5.93,7.63,12,15.19,17.88,22.82,2.43,3.15,4.72,6.4,7,9.65a8.12,8.12,0,0,1,2,4.27c-2.67,0-5.13.13-7.57,0q-9.84-.65-19.67-1.5Q154.27,532.53,147.54,531.71Z" transform="translate(-0.41 -0.41)"/>
    <path d="M293.91,460.69c-1.15-1.33-2.11-.83-3-.64-3.35.73-6.66,1.61-10,2.27-13.23,2.61-26.45,5.27-39.72,7.69-7.61,1.38-15.29,2.38-22.95,3.46-5.69.8-11.4,1.5-17.11,2.17S189.71,477,184,477.52q-9,.83-18,1.37c-7.52.45-15,.94-22.58,1.1-14.46.32-28.92.23-43.37-.81-3.55-.26-7.1-.54-10.64-.92-5.52-.58-11-1.26-16.53-1.9a130.94,130.94,0,0,1-17.58-3.1c-.77-.2-1.55-.37-2.32-.55a2.29,2.29,0,0,0,1.3.88c2.26.58,4.51,1.18,6.78,1.7,14,3.19,28.24,4.6,42.55,5.31,8.07.4,16.16.58,24.25.71,4.79.08,9.6-.07,14.39-.22,6.92-.21,13.84-.39,20.74-.82,8.89-.55,17.76-1.27,26.63-2.06,6.68-.6,13.37-1.27,20-2.2,11.39-1.6,22.75-3.36,34.11-5.17,14.88-2.37,29.64-5.39,44.34-8.72C289.87,461.7,291.71,461.22,293.91,460.69Z" transform="translate(-0.41 -0.41)"/>
    <path d="M256.15,419.81c-7.55-2-15-2-22.36,1.07-4.49,1.86-9,3.68-13.36,5.85-7.22,3.62-14.33,7.49-21.47,11.27q-14.36,7.59-28.69,15.21c-.81.44-1.56,1-2.34,1.48l.21.56a8.68,8.68,0,0,0,1.34.08c2.39-.16,4.78-.38,7.17-.55,7.78-.56,15.57-1,23.35-1.68a100.4,100.4,0,0,0,24.44-5.19,204.5,204.5,0,0,0,32.62-15,53.59,53.59,0,0,0,6.95-4.74c2.89-2.28,2.66-4.28-.7-5.83A44,44,0,0,0,256.15,419.81Zm7.44,7.48a8.94,8.94,0,0,1-1.63,1.25C249.75,436,237.08,442.46,223.5,447a101.73,101.73,0,0,1-19.22,4.28c-8.43,1.1-16.91,1.61-25.39,2.05-2.18.12-4.35.31-6.52.47l-.09-.49c4.52-2.43,9-4.88,13.56-7.31,14.31-7.69,28.73-15.17,43.54-21.86,1.87-.85,3.76-1.67,5.68-2.4a25.27,25.27,0,0,1,11.47-1.7,67.23,67.23,0,0,1,12.93,2.2,15.82,15.82,0,0,1,3.9,1.78C264.77,425,264.78,426.11,263.59,427.29Z" transform="translate(-0.41 -0.41)"/>
    <path d="M289,471.3c-1.53-.51-1.86.47-2.25,1.18-2.43,4.52-4.94,9-7.21,13.61a68.71,68.71,0,0,0-6.83,26.5c-.43,6.83-.82,13.67-1.23,20.51,0,.6-.15,1.2-.23,1.86-.63.13-1.15.27-1.68.33-1.63.19-3.27.31-4.9.52-3.53.45-7.05,1-10.58,1.42-5.9.77-11.81,1.55-17.71,2.29-5.17.64-10.33,1.23-15.5,1.82-4.49.52-9,1-13.47,1.5-5.17.52-10.35,1.11-15.54,1.38-4,.21-8.08,0-12.12,0-.63,0-1.4-.36-1.92.92a7.4,7.4,0,0,0,1.57.5,42.81,42.81,0,0,0,5.54.26c5.94-.32,11.89-.67,17.83-1.18s12-1.22,18-1.87c5.3-.58,10.61-1.17,15.91-1.82,6-.74,11.94-1.53,17.91-2.33,5.43-.72,10.85-1.46,16.27-2.26,2.29-.34,2.29-.48,2.41-2.74q.6-11.08,1.26-22.16a63.37,63.37,0,0,1,6.19-24.13c2.27-4.68,4.82-9.23,7.23-13.84C288.27,472.84,288.59,472.13,289,471.3Z" transform="translate(-0.41 -0.41)"/>
    <path d="M170.07,443.27c12.17-7.43,25.17-13,38.56-17.81a629.74,629.74,0,0,1,73.77-21.3c9.68-2.16,19.44-4,29.17-5.91,2.22-.44,4.46-.73,6.69-1.08.61-.09,1.25-.12,1.34-1.4a14.45,14.45,0,0,0-2.09,0c-5.88,1-11.78,1.81-17.62,3-18.94,3.78-37.65,8.55-56.21,13.85a420.51,420.51,0,0,0-56.49,20.08,152.63,152.63,0,0,0-17.66,9.22c-.65.4-1.54.64-1.67,1.64C168.78,444.41,169.46,443.65,170.07,443.27Z" transform="translate(-0.41 -0.41)"/>
    <path d="M283.16,474.43c-.7-1.29-1.58-.85-2.42-.6-6.83,2-13.64,4.09-20.51,6a15.77,15.77,0,0,0-10.19,8c-.29.54-.63,1.06-.9,1.61Q244,499.71,238.81,510c-.92,1.83-.58,2.34,1.42,2.33a7,7,0,0,0,1-.05c3.58-.56,7.17-1.11,10.75-1.71a15.72,15.72,0,0,0,10.67-7c6.43-9.22,13-18.35,19.5-27.52C282.56,475.52,282.87,474.92,283.16,474.43Zm-4.05,3.1q-9.19,13-18.38,26a12.55,12.55,0,0,1-7.89,5.47c-3.42.69-6.85,1.28-10.28,1.87a16.32,16.32,0,0,1-2.26,0c.48-1.05.77-1.72,1.1-2.38,2.72-5.45,5.4-10.91,8.18-16.34a60.6,60.6,0,0,1,3.33-5.65,11.6,11.6,0,0,1,6.45-4.84c6.54-2,13.1-3.92,19.65-5.86a5.38,5.38,0,0,1,1.09,0C279.68,476.52,279.44,477.06,279.11,477.53Z" transform="translate(-0.41 -0.41)"/>
    <path d="M248.52,514.24c-3.36.57-6.69,1.37-10,2.12a3.11,3.11,0,0,0-2.18,1.69c-2.78,5.43-5.62,10.82-8.42,16.23a11.18,11.18,0,0,0-.52,1.8,21.34,21.34,0,0,0,2.24-.13c5.79-1,11.59-2,17.37-3.08,4.36-.83,8.69-1.84,13-2.83a10.89,10.89,0,0,0,8.07-7.19,39,39,0,0,0,2.27-9.55,19.48,19.48,0,0,0,0-2.24c-2.41.32-4.43.57-6.44.86C258.79,512.67,253.64,513.37,248.52,514.24Zm19.87-1.45a6.35,6.35,0,0,1,.11,1.68c-.61,2.59-1.12,5.22-2,7.74a9.26,9.26,0,0,1-7.12,6.45c-5.08,1.1-10.16,2.17-15.26,3.16-4.63.89-9.27,1.64-14.46,2.55.69-1.28,1.16-2.11,1.59-3,2-3.84,4-7.66,5.85-11.54a4.13,4.13,0,0,1,3-2.52c3.34-.71,6.66-1.54,10-2.08,5.47-.87,11-1.54,16.45-2.29C267.13,512.91,267.66,512.87,268.39,512.79Z" transform="translate(-0.41 -0.41)"/>
    <path d="M68,506.08a6.6,6.6,0,0,0-3.83-3.74c-7.27-3-14.5-6.16-21.75-9.24-.67-.29-1.38-.52-2.32-.86a18.37,18.37,0,0,0-.61,1.83c-.62,3.23-1.21,6.46-1.8,9.69-.35,2-.33,2,1.53,2.7,3.91,1.46,7.84,2.88,11.76,4.32q9.84,3.62,19.67,7.22a22,22,0,0,0,2.59.57c-.34-1-.49-1.58-.73-2.13C71,513,69.4,509.56,68,506.08Zm-28.73-.83c.71-3.76,1.41-7.42,2.14-11.26.87.34,1.56.58,2.24.87,4.48,1.9,8.94,3.84,13.43,5.71,2,.81,4,1.51,6,2.21a4.88,4.88,0,0,1,3.16,3C67.66,509.41,69.3,513,71,517Z" transform="translate(-0.41 -0.41)"/>
    <path d="M308.22,437.75c-.54.58-1,1.21-1.61,1.9,1.31.93,1.82,0,2.37-.58a43.48,43.48,0,0,1,16.66-11.37,63.86,63.86,0,0,1,20.43-4.26,103.34,103.34,0,0,1,17.85.5c3.74.45,7.44,1.18,11.15,1.78.72.12,1.48.47,2.12-.67a13.44,13.44,0,0,0-1.94-.58c-5.07-.73-10.14-1.58-15.24-2.09a79.76,79.76,0,0,0-28.74,2.13C322.42,426.87,314.56,431,308.22,437.75Z" transform="translate(-0.41 -0.41)"/>
    <path d="M59.56,438.31a46.39,46.39,0,0,0,13.92,7.77,112.58,112.58,0,0,0,29.33,6.65,111.44,111.44,0,0,0,20.09.37,11.51,11.51,0,0,0,1.4-.27,1.58,1.58,0,0,0-1.18-.56c-5.74-.06-11.49.06-17.23-.17a102.24,102.24,0,0,1-28.11-5.47c-6.73-2.24-13.15-5.12-18.38-10.11a1.37,1.37,0,0,0-1.79-.42,2.56,2.56,0,0,0,.31.66C58.45,437.29,59,437.83,59.56,438.31Z" transform="translate(-0.41 -0.41)"/>
    <path d="M36.11,464.53c0-.12,0-.29-.08-.36a26.2,26.2,0,0,1-7.55-11.74c-.13-.41-.59-.73-1.1-1.33C27.24,455.14,32.17,462.46,36.11,464.53Z" transform="translate(-0.41 -0.41)"/>
    <path d="M32.7,485a58.85,58.85,0,0,0,3.81,8.25c.1.16.46.16.92.31-.14-1.33-2.72-7.73-3.37-8.33C33.85,485,33.4,485.07,32.7,485Z" transform="translate(-0.41 -0.41)"/>
    <path d="M521.23,370.58a17.87,17.87,0,0,0-12.24.91,4.42,4.42,0,0,0-.8.56,2.53,2.53,0,0,0,.07.68c2.95,6.18,5.88,12.36,8.87,18.52.58,1.19,1.18,1.26,2.27.3a27.46,27.46,0,0,0,7.2-9.13C529,377.15,526.77,372.31,521.23,370.58Zm4.3,9.67a18.06,18.06,0,0,1-1.66,4,18.37,18.37,0,0,1-5.41,6.07c-2.85-5.9-5.68-11.79-8.64-17.94,4.41-1.52,8.42-1.64,12.33.19C525.28,374,526.45,376.72,525.53,380.25Z" transform="translate(-0.41 -0.41)"/>
    <path d="M359.57,451.43c-4.47-6.18-10-11.05-17.2-13.86a17.64,17.64,0,0,0-11.67-.46,40,40,0,0,0-14.06,7.48C310,450,305.46,456.94,302.3,464.82c-4.31,10.71-5.85,21.92-6.28,33.41.59,5.79.93,11.61,1.82,17.35a40.73,40.73,0,0,0,8.52,19.56c8.64,10.8,24.56,14.48,37.22,6.84A46,46,0,0,0,363,518.74c3.38-8.52,4.64-17.44,4.91-26.53a149.48,149.48,0,0,0-1.7-24.37A35.7,35.7,0,0,0,359.57,451.43Zm3.21,63c-3.61,10.88-9.84,19.82-19.6,26.1A26.2,26.2,0,0,1,327.82,545,27.6,27.6,0,0,1,310,537.59a32.46,32.46,0,0,1-9.05-14.7,60.38,60.38,0,0,1-2.82-16.36c-.42-12.88.85-25.59,4.84-37.93a50.85,50.85,0,0,1,10.48-18.69,39.16,39.16,0,0,1,18.21-11.46,17.69,17.69,0,0,1,11.11.44,27.63,27.63,0,0,1,9.56,5.89c6.87,6.36,11.39,14,12.46,23.44.68,6,1.26,12.12,1.69,16.3C366.51,495.93,365.8,505.33,362.78,514.42Z" transform="translate(-0.41 -0.41)"/>
    <path d="M446.39,291l-.86,1.36-1.21-.78c.07-.71.12-1.28.18-2l-2.4.94c.13,1,.26,1.91.39,2.88,2-1.11,2-1.08,3.6,2.15l1.42-1.49,2.48,1.43c.69-.47,1.27-1.18,1.92-1.25s1.34.51,2.17.86c-.17-1.15-.06-2.13,1.43-2l1.31,1.62,1.33-2.65-2.31-1.3c-1.42,1.53-1.37,1.9-3.46.8-.94,2-1.27,2-2.81.34-.89,1.22-1.68,1.54-2.27.9-.15-.55-.31-1.1-.46-1.65Z" transform="translate(-0.41 -0.41)"/>
    <path d="M443,281.9l-.83-1.11c2-.06,2.28-1.59,2.64-3.15l2.32,1.87a5.34,5.34,0,0,0-5.12-4.2,5.89,5.89,0,0,0-2.52.74,2.42,2.42,0,0,0-.77,3.84,5.65,5.65,0,0,0,3.72,2.34C442.53,282.25,442.71,282.05,443,281.9Zm-2.93-4a1.73,1.73,0,0,1,1.73-1.39c1,.11.91,1,1.1,1.62,0,.81-.39,1.16-1.12,1.16A1.65,1.65,0,0,1,440,277.94Z" transform="translate(-0.41 -0.41)"/>
    <path d="M453.75,290.3a5.92,5.92,0,0,0,4.79-3.21c-.15-.25-.19-.4-.29-.48a7.8,7.8,0,0,0-.95-.77,12.28,12.28,0,0,1-5.15-6.92,11.52,11.52,0,0,0-.77-1.89c-.28-.55-.73-.8-1.5-.22a16.92,16.92,0,0,0,6.76,10.33,3.53,3.53,0,0,1-3.2,1.95,24.57,24.57,0,0,1-3.65-.73l-.15.5A4.14,4.14,0,0,0,453.75,290.3Z" transform="translate(-0.41 -0.41)"/>
    <path d="M442.77,270.38c.88.35,1.74.78,2.64,1.1a3.76,3.76,0,0,0,1.23,0c-.2-.43-.26-.8-.44-.87a40.24,40.24,0,0,0-5.87-2.24c-1.94-.46-4.09,1.54-4.21,3.57,0,.33.27.68.55,1.35a5.35,5.35,0,0,0,.74-.93C438.36,269.67,440.5,269.49,442.77,270.38Z" transform="translate(-0.41 -0.41)"/>
  </g>
</svg>
