<?xml version="1.0" encoding="utf-8"?>
<!-- Generator: Adobe Illustrator 22.1.0, SVG Export Plug-In . SVG Version: 6.00 Build 0)  -->
<svg version="1.1" id="Layer_1" xmlns="http://www.w3.org/2000/svg" xmlns:xlink="http://www.w3.org/1999/xlink" x="0px" y="0px"
	 viewBox="0 0 612 792" style="enable-background:new 0 0 612 792;" xml:space="preserve">
<style type="text/css">
	.st0{fill:#FFFFFF;}
</style>
<path class="st0" d="M77.3,275c0-58.6,0-117.1,0-175.7c153.1,0,306.1,0,459.2,0c0,62.9,0,125.9,0,188.8c-0.6,0.4-1.1,0.8-1.7,1.1
	c-4.2,2.2-8.6,2-13,1.2c-1.1-0.2-2.3-0.4-3.4-0.6c-3.8-0.5-6.3,1.9-7,4.9c-0.3,1.3-0.7,2.7-1,4c-1.1,4.2-4.5,6.3-8.8,5.9
	c-1.9-0.2-3.7-0.8-5.6-1.1c-0.6-0.1-1.2-0.3-1.8-0.2c-4.8,0.4-9.4-0.5-14.1-1c-10.1-1.2-20.1-2.7-30.1-4.1
	c-4.1-0.6-8.3-1.1-12.4-1.7c-1.7-0.2-3.4-0.4-5.1-0.5c-4.2-0.2-8.3,0.5-12.3,1.7c-0.7,0.2-1.4,0.2-2.3,0.3c-0.1-1-0.2-1.7-0.1-2.5
	c0.2-2.9,0.4-5.7,0.8-8.6c0.8-5.4,1.7-10.8,2.7-16.2c0.6-3.3,1.2-6.6,2.1-9.8c1.2-4.4,2.5-8.7,3.9-13c1.4-4.7,2.1-9.5,2.1-14.4
	c0-4.1-0.4-8.2-1.4-12.2c-1.1-4.6-3.1-8.8-5.5-12.8c-3.1-5.1-7-9.3-12.2-12.2c-7-3.9-14.6-5.5-22.5-4.9c-3.1,0.2-6.2,0.9-9,2.5
	c-3.7,2.1-5.9,5.1-5.5,9.5c0.1,1.5,0.5,3,0.7,4.4c0.1,0.9,0.3,1.9,0.4,2.8c0,2.4-1.5,4.3-3.9,4.8c-0.9,0.2-1.9,0.3-2.9,0.2
	c-4.5-0.4-9-0.9-13.5-1.3c-3.9-0.4-7.7-1-11.6-1.2c-7-0.3-14-0.6-20.9,0.7c-4.1,0.7-8.2,1.4-12.3,2.1c-3.2,0.6-6.3,1.3-9.5,1.7
	c-7.3,0.8-12.6-2.4-15.7-9c-1.2-2.5-2.2-5-3.7-7.3c-3.7-5.7-9.2-9.1-15.5-11.3c-4.6-1.6-9.2-2.1-14.1-1.8c-4.3,0.3-8.3,1.5-12.2,3.4
	c-7.4,3.8-12.6,9.7-16.5,16.9c-1.8,3.3-3,6.9-3.5,10.7c-0.4,2.8-0.4,5.7-0.4,8.6c0.1,5.1,1,10.1,2.8,14.9c0.9,2.6,2.1,5,3.1,7.6
	c1.6,3.9,3.2,7.9,4.6,11.9c1.3,3.7,2.5,7.4,3.4,11.2c1.1,4.5,0.5,9-1.9,13.1c-1.1,1.9-2.2,3.8-3.3,5.7c-2.9,5.1-5.5,10.4-6.8,16.2
	c-0.8,3.7-1,7.6-1.4,11.4c-0.4,3.6-0.7,7.2-1.3,10.8c-0.5,3.2-1.5,6.4-2.2,9.6c-1.3,5.2-2.9,10.2-5,15.2c-0.9,2.1-1.8,4.3-2.2,6.6
	c-0.7,4.7,0.2,9.3,2.9,13.4c1.5,2.3,3.4,4.3,5.1,6.4c0.3,0.4,0.6,0.9,1,1.4c-0.1,0.2-0.2,0.3-0.2,0.5c-0.9,0-1.9,0-2.8,0
	c-44.6,0-89.3,0-133.9,0c-0.8,0-1.5,0-2.3,0c0-24,0-48,0-72c3.3,0,6.6,0,9.9-0.1c7.4-0.2,14.8-0.4,22.2-0.5
	c10.9-0.2,21.8-0.4,32.7-0.6c3.5-0.1,7-0.2,10.5-0.2c9-0.1,18-0.2,26.9-0.3c4.2-0.1,8.5-0.2,12.7-0.3c0.5,0,0.9-0.2,1.8-0.4
	c-1-0.6-1.5-0.9-2-1.1c-3.3-1.6-6.7-3.2-10-4.7c-6.3-2.8-12.6-5.6-19-8.2c-5.6-2.3-11.3-4.6-17-6.7c-6.9-2.6-13.9-5-20.9-7.3
	c-3.9-1.3-7.9-2.3-11.9-2.9c-3.2-0.5-6.6-0.3-9.8-0.3c-7.2,0.1-14.5,0.6-21.6-1.6C80.3,275.8,78.8,275.4,77.3,275z"/>
<path d="M77.3,383.7c0.8,0,1.5,0,2.3,0c44.6,0,89.3,0,133.9,0c0.9,0,1.9,0,2.8,0c0.1-0.2,0.2-0.3,0.2-0.5c-0.3-0.5-0.6-0.9-1-1.4
	c-1.7-2.1-3.6-4.1-5.1-6.4c-2.7-4-3.6-8.6-2.9-13.4c0.3-2.3,1.3-4.5,2.2-6.6c2-4.9,3.7-10,5-15.2c0.8-3.2,1.7-6.4,2.2-9.6
	c0.6-3.6,0.9-7.2,1.3-10.8c0.4-3.8,0.6-7.7,1.4-11.4c1.3-5.8,3.9-11.1,6.8-16.2c1.1-1.9,2.2-3.8,3.3-5.7c2.4-4.1,3-8.6,1.9-13.1
	c-0.9-3.8-2.1-7.5-3.4-11.2c-1.4-4-3-7.9-4.6-11.9c-1-2.5-2.1-5-3.1-7.6c-1.8-4.8-2.8-9.7-2.8-14.9c0-2.9,0-5.8,0.4-8.6
	c0.5-3.7,1.7-7.3,3.5-10.7c3.9-7.2,9.2-13.1,16.5-16.9c3.8-2,7.8-3.1,12.2-3.4c4.9-0.3,9.5,0.2,14.1,1.8c6.3,2.2,11.8,5.6,15.5,11.3
	c1.5,2.3,2.5,4.8,3.7,7.3c3.1,6.6,8.4,9.7,15.7,9c3.2-0.3,6.3-1.1,9.5-1.7c4.1-0.7,8.2-1.4,12.3-2.1c6.9-1.3,13.9-0.9,20.9-0.7
	c3.9,0.1,7.8,0.8,11.6,1.2c4.5,0.5,9,0.9,13.5,1.3c0.9,0.1,1.9,0,2.9-0.2c2.4-0.5,3.9-2.4,3.9-4.8c0-0.9-0.2-1.9-0.4-2.8
	c-0.2-1.5-0.6-3-0.7-4.4c-0.4-4.4,1.8-7.4,5.5-9.5c2.8-1.6,5.9-2.3,9-2.5c8-0.6,15.5,1,22.5,4.9c5.2,2.9,9.1,7.1,12.2,12.2
	c2.4,4,4.4,8.2,5.5,12.8c1,4,1.4,8.1,1.4,12.2c0,4.9-0.6,9.7-2.1,14.4c-1.3,4.3-2.7,8.6-3.9,13c-0.9,3.2-1.5,6.5-2.1,9.8
	c-1,5.4-1.9,10.8-2.7,16.2c-0.4,2.8-0.6,5.7-0.8,8.6c-0.1,0.7,0.1,1.5,0.1,2.5c0.9-0.1,1.6-0.1,2.3-0.3c4-1.2,8.1-2,12.3-1.7
	c1.7,0.1,3.4,0.2,5.1,0.5c4.1,0.5,8.3,1.1,12.4,1.7c10,1.4,20.1,2.9,30.1,4.1c4.7,0.6,9.4,1.5,14.1,1c0.6-0.1,1.2,0.1,1.8,0.2
	c1.9,0.4,3.7,0.9,5.6,1.1c4.4,0.5,7.8-1.6,8.8-5.9c0.3-1.3,0.7-2.7,1-4c0.7-3,3.2-5.5,7-4.9c1.2,0.2,2.3,0.4,3.4,0.6
	c4.5,0.8,8.9,1,13-1.2c0.6-0.3,1.2-0.7,1.7-1.1c0,7.3,0,14.5,0,21.8c-10.2,0.2-20.4,0.5-30.6,0.7c-4.6,0.1-9.2,0.1-13.8,0.2
	c-9.6,0.1-19.2,0.3-28.8,0.4c-8.1,0.1-16.2,0.2-24.2,0.3c-3.4,0-6.7,0-10.1,0c-3.2,0-6.3,0-9.5,0c-1.5,0-1.7,0.2-1.7,1.7
	c0,1.2,0.2,2.3,0.2,3.5c0.1,8.9-1.4,17.6-4.1,26c-1.7,5.3-3.4,10.7-4.9,16.1c-2,7.5-3.8,15.1-5.6,22.7c-0.1,0.6-0.2,1.2-0.3,2
	c1.1,0,1.9,0.1,2.8,0.1c43,0,86,0,128.9,0c0.5,0,1.1,0,1.6,0c0,6.7,0,13.4,0,20.2c-23.2,0-46.3,0-69.6,0c-0.1,1.3-0.1,2.4-0.1,3.5
	c0,37.4,0,74.7,0,112.1c0,2.3,0.2,4.4,1.2,6.6c1.1,2.2,0.9,2.2,3.4,2.3c0.1,0,0.3,0,0.4,0c20.8,0,41.5,0,62.3,0
	c0.8,0,1.6-0.1,2.5-0.1c0,55.1,0,110.3,0,165.4c-153.1,0-306.1,0-459.2,0c0-55.1,0-110.3,0-165.4c0.2,0,0.4,0.1,0.6,0.1
	c15.4,0,30.8,0,46.3,0c2,0,2.1-0.1,2.1-2.4c0-39.8,0-79.7,0-119.5c0-0.7-0.1-1.5-0.1-2.5c-16.4,0-32.6,0-48.8,0
	C77.3,397.1,77.3,390.4,77.3,383.7z M227.3,400.9c-0.7,0.1-1.4,0.1-1.9,0.2c-5.9,1.5-11.7,3.2-17,6.4c-5.6,3.4-10.2,7.7-13,13.6
	c-1.3,2.7-2.5,5.5-3.6,8.3c-2.8,7.1-6.6,13.7-11.2,19.7c-1.9,2.5-4.1,4.8-6.2,7.1c-7,8.2-12.8,17.2-18,26.6
	c-2.6,4.7-6.1,8.7-10.1,12.3c-2.7,2.5-5.6,4.9-8.3,7.4c-2.5,2.3-2.7,5-0.8,7.8c1.1,1.6,1.7,1.6,3.3,0.5c1.9-1.4,3.9-2.6,5.8-3.8
	c0.4-0.3,0.9-0.4,1.3-0.5c0.8-0.1,1.3,0.2,1.6,1c0.3,0.7-0.1,1.2-0.6,1.5c-0.4,0.2-0.8,0.5-1.2,0.7c-2.1,1.1-4.1,2.4-6,4.3
	c0.7,0.6,1.2,1.2,1.8,1.6c0.9,0.6,1.9,1.1,2.8,1.6c3.1,1.7,6.3,3.3,9.5,4.9c1.7,0.8,1.9,0.6,2.4-1.3c0.4-1.4,0.8-2.8,1.6-4
	c1.2-1.7,2.6-3.1,4.1-4.6c0.9-0.8,1.9-0.8,2.4-0.2c0.6,0.6,0.4,1.4-0.5,2.3c-0.6,0.6-1.3,1.2-1.9,1.8c-1.7,1.7-2.6,3.8-3.1,6.1
	c-0.3,1.4-0.1,1.8,1.3,2.3c2.6,1,5.2,1.9,7.8,2.6c1.8,0.5,3.6,0.9,5.4,1c1.5,0.1,3,0,4.5-0.3c2.4-0.6,3.3-2.3,2.8-4.7
	c-0.2-0.9-0.5-1.7-0.7-2.6c-0.4-2.1-1-4.3-1.2-6.5c-0.3-5,1.5-9.1,5.5-12.2c1.3-0.9,2.6-1.8,3.9-2.6c5.2-3.3,9-7.6,11.5-13.3
	c3.4-7.9,7.4-15.6,11.8-23c3.1-5.1,5.6-10.5,7.6-16.1c2.3-6.6,4-13.4,4.8-20.4c0.1-0.8,0.3-1.6,0.5-2.4c0.1-0.7,0.5-1.2,1.3-1.1
	c0.7,0.1,1.1,0.5,1.2,1.2c0.1,0.8,0.2,1.6,0.1,2.5c-0.3,4.6-0.5,9.2-1,13.7c-0.7,6.6-1.4,13.2-2.6,19.8c-1.4,8-3.2,16-5,23.9
	c-1.7,7-3.5,14-5.6,21c-2,6.8-4.3,13.4-6.6,20.1c-2.9,8.4-3.6,17-2.2,25.7c0.8,4.8,1.8,9.6,2.5,14.4c0.9,5.6,1.6,11.3,2.3,16.9
	c0.4,3.1,0.9,6.2,1.1,9.4c0.4,5.4,0.9,10.8-0.4,16.2c-1.3,5.3-4.5,9-9.4,11.2c-1.8,0.8-3.7,1.3-5.6,2.1c-1.9,0.8-2,1.5-0.8,3.1
	c0.4,0.5,0.8,1.1,1.4,1.5c2.9,2,5.9,3.9,8.9,5.9c1.1,0.7,2.1,0.7,3.2,0c4.1-2.3,7.5-5.2,10.3-9c0.3-0.4,0.6-0.8,0.9-1.2
	c0.6-0.7,1.2-1.1,2.1-0.6c0.7,0.4,0.8,1.2,0.3,2.2c-0.2,0.3-0.4,0.6-0.6,0.8c-2.6,3.7-5.9,6.7-9.6,9.1c-0.5,0.3-0.8,0.7-1.5,1.3
	c5.8,2.8,11.1,5.4,16.6,8.1c0.4-0.6,0.7-0.9,0.9-1.3c1.6-3.6,3.2-7.3,4.8-10.9c0.6-1.3,1.1-2.6,1.9-3.9c0.3-0.5,1-1,1.5-1.1
	c0.6-0.1,1.2,1.1,1,2c-0.1,0.5-0.3,1-0.5,1.5c-2,4.4-3.9,8.7-5.9,13.1c-0.8,1.7-0.7,1.9,0.9,2.6c4.3,1.8,8.6,3.6,12.8,5.4
	c1.9,0.8,1.9,0.8,2.6-1.2c1.1-3.3,2.3-6.6,3.5-9.9c0.6-1.6,1.4-2.1,2.4-1.6c0.8,0.4,0.8,1.2,0.3,2.7c-1.2,3.4-2.4,6.8-3.5,10.3
	c-0.4,1.3-0.3,1.6,0.9,2c5.1,1.9,10.4,3.5,15.9,4.1c0.8,0.1,1.6,0,2.4-0.2c3.5-0.7,5.2-3.3,6.5-6.3c1.5-3.5,2-7.2,2.4-11
	c0.5-5.2,0.7-10.4-0.2-15.6c-0.4-2.2-0.8-4.5-1-6.7c-0.1-1.3-0.1-2.7,0-4.1c0.1-1.4,0.1-1.6-1.3-2.2c-3.4-1.4-6-3.7-8.2-6.6
	c-4.5-5.9-7.3-12.6-9.8-19.5c-2.4-6.6-4.2-13.3-5.7-20.1c-1.9-8.5-3.5-17-3.9-25.8c-0.5-9.6,0.2-19.2,2.4-28.6
	c1-4.4,2.3-8.7,3.4-13.1c1.3-5.2,3.1-10.2,5.5-15c3.7-7.5,9-13.5,16.1-17.9c7.6-4.7,16-7.1,24.9-7.5c9.9-0.4,19.3,1.6,28.1,6.3
	c6.2,3.3,11.5,7.7,16,13c2.9,3.4,5.5,7.2,7.6,11.2c4.8,9.6,6.3,19.9,5.6,30.6c-0.2,3.5-0.6,7.1-1.3,10.6c-1.7,8.6-4.3,17-7.9,25
	c-2.5,5.7-5.3,11.2-8,16.9c-2.1,4.5-4.3,9-6.4,13.5c-1.3,2.9-2.4,5.8-3.8,8.6c-2,4.1-4.7,7.5-8.9,9.7c-0.4,0.2-0.6,0.6-1,1
	c0.7,0.6,1.2,1,1.6,1.5c1.3,1.4,1.6,3.6,0.6,5.3c-0.5,0.8-1.1,1.6-1.8,2.2c-2.3,2.2-4.6,4.3-6.8,6.5c-3,3-4.4,6.7-3.8,11
	c0.3,1.7,0.8,3.4,2,4.8c2.2,0,4.3,0.1,6.4,0c6.4-0.4,12.6-1.7,18.3-4.7c0.5-0.3,1.2-0.6,1.7-0.6c0.5,0,1.3,0.3,1.5,0.7
	c0.2,0.4-0.2,1.1-0.5,1.6c-0.2,0.4-0.8,0.5-1.2,0.8c-7.1,3.6-14.6,5.3-22.6,4.9c-0.6,0-1.3-0.2-1.6,0.6c0.1,0.2,0.1,0.4,0.2,0.5
	c3.2,3.3,6.5,6.6,9.8,9.9c0.8,0.8,1.9,1.1,3,0.9c0.7-0.1,1.4-0.2,2-0.3c7.1-0.6,12.9-3.8,17.5-9.1c0.4-0.4,0.7-0.9,1.1-1.2
	c0.6-0.4,1.4-0.6,1.9,0.1c0.3,0.4,0.3,1.1,0.1,1.7c-0.1,0.4-0.5,0.8-0.8,1.2c-4.4,5.1-9.8,8.6-16.6,9.8c-1,0.2-1.9,0.5-2.8,0.8
	c-0.1,0.2-0.2,0.4-0.2,0.6c0.3,0.2,0.6,0.3,0.9,0.5c6.2,4.2,12.8,7.4,20.1,9.1c1.5,0.3,2.7,0.2,3.9-1c3.9-3.8,7-8,9.5-12.8
	c0.3-0.6,0.6-1.2,0.9-1.8c0.3-0.6,0.9-1,1.5-0.6c0.4,0.3,0.9,0.9,0.9,1.4c0.1,0.6-0.3,1.2-0.5,1.7c-2.2,4.6-5,8.8-8.6,12.4
	c-0.3,0.3-0.5,0.8-0.8,1.5c1.3,0,2.2,0.1,3,0c2.7-0.4,5.4-0.9,8.1-1.4c4.3-0.9,8.3-2.8,11.9-5.3c4.5-3,7.9-7,10-11.9
	c2-4.5,2.5-9.4,2.9-14.2c0.3-3.9,0.6-7.8,0.7-11.7c0.2-6.6,0.4-13.1,1.1-19.7c0.2-1.4,0.1-2.9,0.2-4.3c0.4-5.7,1-11.3,1.3-17
	c0.2-2.9,0.1-5.8,0.2-8.6c0.3-6.9,0.6-13.8,0.9-20.7c0.1-3.4,0.3-6.7,0.5-10.1c0.4-5.9,0.8-11.9,1.3-17.8c0.6-6.8,1.1-13.5,2-20.2
	c0.7-5.4,1.6-10.7,2.6-16c0.7-3.7,1.5-7.4,3.1-10.8c0.5-1,1-2,1.6-2.8c1.6-2.1,3.8-3.2,6.5-0.8c1.3,1.1,2.4,2.5,3.3,3.9
	c1.3,2.1,2.4,4.3,3.3,6.6c3.8,9.5,5.9,19.4,4.8,29.7c-0.3,2.9-0.8,5.8-1.3,8.7c-0.5,3-0.2,5.9,1.3,8.5c2,3.5,5.2,5.6,8.5,7.5
	c0.9,0.5,1.7,0.1,1.7-1c0.1-1.4,0-2.7-0.2-4.1c-0.3-1.5-0.8-2.9-1.2-4.3c-0.2-0.8,0-1.5,0.8-1.9c0.8-0.4,1.3,0.1,1.7,0.7
	c0.3,0.4,0.5,1,0.7,1.5c1.1,2.9,1.2,5.9,1,8.9c0,0.7,0,1.3,0,2.1c5.1,1.9,10.3,2.8,15.6,2.3c0.6-0.1,1.2-0.1,1.8-0.3
	c0.9-0.2,1.2-0.7,0.8-1.5c-1-2-1.8-4-3-5.8c-1.3-1.9-2.9-3.5-4.3-5.2c-0.5-0.6-1-1.3-0.4-2c0.6-0.8,1.5-0.7,2.2-0.2
	c0.7,0.5,1.4,1.1,2,1.8c2.7,3,4.7,6.4,6.2,10.1c0.2,0.5,0.5,1,0.8,1.5c5.2-2.1,5.7-5.3,4.6-8.8c-0.2-0.5-0.4-1-0.6-1.5
	c-1.4-2.6-2.7-5.2-4.2-7.7c-6.6-10.6-13.1-21.2-18.3-32.5c-3.5-7.7-6.5-15.5-9.2-23.5c-1.8-5.4-3.5-10.8-5.3-16.2
	c-1.9-5.8-4.3-11.2-7.3-16.5c-3.4-6.1-7.5-11.8-12.4-16.8c-3-3.1-6.3-6-9.6-9c-1-0.9-1.3-0.8-2.1,0.3c-0.8,1.2-1.5,2.4-2.3,3.6
	c-3.8,5.6-8.9,10-14.3,14.1c-6,4.5-12,8.9-18.1,13.2c-7.3,5.2-15.1,9.5-24.1,11c-3.9,0.7-7.9,1-11.9,0.9c-4.9-0.1-9.8-0.7-14.7-1.2
	c-5.7-0.6-11.3-1.2-16.9-2.1c-8.8-1.3-17.5-3.3-26-5.9c-7.6-2.3-15-5.1-22.1-8.8c-3.1-1.6-6-3.5-8.6-5.9c-3.7-3.5-6.1-7.8-7.4-12.8
	C229.7,407.2,228.9,404.1,227.3,400.9z M218.9,337.1c-0.2,0.1-0.4,0.1-0.6,0.2c-0.1,0.4-0.2,0.8-0.3,1.1c-0.9,3.4-1.7,6.8-2.7,10.1
	c-1.2,3.5-2.6,6.9-4,10.3c-1.4,3.6-1.5,7.3-0.4,11.1c1,3.4,3,6.1,5.3,8.6c4.7,5.1,8.9,10.6,11.8,16.9c2,4.3,3.7,8.7,4.8,13.3
	c1.3,5.8,4.2,10.4,8.8,14.1c3.9,3.1,8.3,5.2,12.9,7.1c7.5,3.2,15.2,5.7,23.1,7.7c10.5,2.6,21.1,4.2,31.8,5.3
	c5.2,0.6,10.5,0.9,15.8,1.3c4.5,0.4,9,0,13.5-1c6.8-1.5,13.1-4.4,18.8-8.4c6.9-4.7,13.6-9.7,20.3-14.6c4-2.9,7.7-6.1,11.1-9.8
	c5.1-5.5,8.3-11.9,9.7-19.3c0.8-4.2,1.7-8.5,2.7-12.6c1.3-5.3,2.6-10.7,4-16c1.3-4.9,2.7-9.8,4.1-14.6c1.8-6.4,4.4-12.5,5.2-19.2
	c0.6-4.5,0.9-9,0.7-13.5c-0.3-4.2-0.6-8.5-0.7-12.7c-0.1-2.7,0.2-5.5,0.4-8.2c0.1-2.1,0.2-4.1,0.5-6.1c0.6-4.3,1.3-8.5,1.9-12.8
	c0.1-0.4-0.1-0.8-0.2-1.4c-0.8,0.3-1.4,0.5-2,0.7c-6.1,2.7-12.2,5.5-18.3,8.3c-11.6,5.3-23.2,10.4-34.7,15.8
	c-9.1,4.2-18.1,8.5-27,13c-9.4,4.7-19,9.1-28.6,13.4c-6.4,2.8-12.7,5.7-19.1,8.6c-4.4,2-8.4,4.6-11.7,8.2c-2.9,3.1-5.6,6.4-8.4,9.6
	c-0.2,0.3-0.4,0.6-0.8,1.3c1.3-0.2,2.2-0.3,3.2-0.4c2.6-0.1,5.2-0.6,7.8-0.3c7.4,0.7,14.7,1.6,22,2.6c9.6,1.3,19.1,1.4,28.7,0.5
	c5.7-0.5,10.1,1.3,12.7,6.7c0.8,1.6,1.4,3.4,1.8,5.2c0.8,4.3,0.9,8.6-0.1,12.8c-0.6,2.8-1.9,5.3-3.1,7.8
	c-4.5,9.5-10.7,17.6-19.5,23.7c-7.5,5.1-15.7,7.9-24.7,8.8c-4.9,0.5-9.7-0.1-14.4-1.7c-7.3-2.4-13.3-6.6-17.8-12.9
	c-2.5-3.4-3.5-7.4-3.8-11.5c-0.3-3.1-0.4-6.2-1.1-9.2c-1.2-5.1-2.7-10.2-4-15.3c-0.5-1.9-0.8-3.9-1-5.8c-0.1-1.1,0.3-2.3,0.5-3.6
	c-0.7,0-1.3-0.1-2,0c-5.4,0.6-10.7-0.3-15.6-2.7c-8-4-13.4-10.2-16.3-18.6C219.6,338.4,219.2,337.8,218.9,337.1z M221.9,312.9
	c0.7-0.8,1.1-1.3,1.4-1.8c1.7-2.8,4-5,6.4-7.2c3.5-3.1,7.6-5.4,12.1-6.6c5.5-1.5,11.1-1.7,16.7-0.7c4.4,0.8,8.6,2,13,3
	c6,1.4,11.5,3.9,16.7,7.2c6.8,4.3,14.3,5.3,22.1,3.6c5.3-1.1,10.2-3.3,14.8-5.9c7.6-4.4,15.2-8.9,22.8-13.5
	c8.1-4.9,16.5-9.2,25.1-13c5.8-2.5,11.6-4.7,17.6-6.8c5.2-1.8,10.4-3.3,15.7-4.8c3.9-1.1,7.8-2,11.8-2.9c1.3-0.3,2.1-0.9,2.4-2.4
	c0.7-3.3,1.7-6.5,2.7-9.7c1.7-5.6,3.4-11.1,3.5-17c0-7.9-1.6-15.4-5.4-22.3c-2.5-4.5-5.5-8.7-9.8-11.7c-8.3-5.6-17.4-7.7-27.4-5.7
	c-1.2,0.2-2.4,0.7-3.5,1.2c-4.3,2.1-5.6,4.9-4.7,9.5c0.3,1.3,0.6,2.7,0.8,4c0.7,4.7-2.1,8.4-7.2,8.9c-2.6,0.2-5.3,0.1-8-0.2
	c-6.9-0.7-13.9-1.8-20.8-2.4c-9.3-0.8-18.5,0.3-27.6,2c-4.4,0.9-8.8,1.9-13.3,2.5c-5.5,0.8-10.4-0.6-14.5-4.6
	c-2.3-2.2-3.7-4.8-4.9-7.7c-1.3-3.2-2.8-6.3-5.4-8.6c-5.2-4.7-11.3-7.4-18.2-8.3c-4.8-0.6-9.4-0.1-13.9,1.6c-5.3,2-9.7,5.3-13.4,9.5
	c-6,6.7-9,14.6-9.1,23.6c0,1.9,0.3,3.8,0.5,5.7c0.5,5.4,2.1,10.5,4.3,15.4c3.6,8.1,6.8,16.3,9,24.8c1,3.9,1.2,7.9-0.1,11.7
	c-0.8,2.4-1.9,4.7-3.1,6.9c-3.2,5.4-6.1,10.9-7.9,16.8C222.3,308.9,221.6,310.6,221.9,312.9z M355.3,512.8c-0.2-2.4-0.3-4.8-0.5-7.2
	c-0.5-4.9-1.7-9.7-3.6-14.3c-3.4-7.8-8.4-14.5-14.9-20.1c-8-6.8-17.3-10.7-27.7-11.9c-6.3-0.7-12.6-0.2-18.7,1.4
	c-8.7,2.2-16.1,6.5-22.1,13.2c-4.5,5-7.3,10.9-9.4,17.2c-1.4,4.3-2.5,8.8-3.8,13.2c-1.3,4.3-2.2,8.8-2.8,13.2
	c-1,7.1-1.4,14.3-1,21.5c0.5,7.9,1.7,15.7,3.4,23.3c1.4,6.1,3.2,12.2,5,18.2c1.8,5.9,4.1,11.6,7.2,16.9c2,3.4,4.2,6.6,7.4,9
	c3.2,2.5,6.6,3.1,10.3,0.8c1-0.6,2-1.1,3-1.7c4.7-2.8,9.8-4.6,15.3-4.9c3.7-0.2,7.5,0,11.3,0.1c4.2,0.1,7.6-1.4,10.4-4.4
	c3.4-3.6,5.2-8.2,6.9-12.7c1.8-4.5,3.9-8.9,6.1-13.2c6.3-11.9,11.9-24.1,15.2-37.3C354.1,526.4,355.2,519.7,355.3,512.8z
	 M276.2,354.8c-5.1-0.1-10.1,0.7-14.9,2.6c-2.2,0.8-4.1,2.1-5,4.5c-0.7,1.9-0.5,3.8,0,5.6c1,3.7,2.1,7.4,3.1,11
	c1.5,5.3,2.1,10.7,2.6,16.2c0.4,3.9,1.5,7.3,4,10.4c6.6,8.2,15.3,12.4,25.8,12.8c5.8,0.2,11.4-1.3,16.8-3.3c7-2.6,13-6.9,18.2-12.3
	c4.9-5.1,8.2-11.2,11.3-17.5c3-6,3.5-12.3,1.6-18.6c-1.7-5.7-4.9-8.6-11.1-8.1c-2.8,0.2-5.6,0.4-8.4,0.5c-3.6,0-7.3,0-10.9-0.2
	c-2.9-0.2-5.8-0.6-8.8-0.9c-3.9-0.4-7.8-0.9-11.6-1.3C284.6,355.7,280.4,355.2,276.2,354.8z M137.7,404.2c0,0.8-0.1,1.7-0.1,2.6
	c0,29.7,0,59.4,0,89c0,0.5,0,1,0,1.4c0.1,0.4,0.2,0.8,0.4,1.5c1.2-1,2.2-1.8,3.1-2.7c4.8-4.2,9.3-8.7,12.6-14.2
	c1.7-2.8,3.2-5.7,4.9-8.5c4.5-7.3,9.3-14.4,15.1-20.7c7.3-7.8,12.4-16.9,16.3-26.8c1.1-2.9,2.4-5.7,3.9-8.3c3-5.1,7.3-9,12.3-12.1
	c0.6-0.3,1.1-0.7,1.7-1.2C206.6,403.7,140,403.6,137.7,404.2z M403.7,403.9c0.2,0.5,0.2,0.7,0.3,0.8c0.6,0.6,1.2,1.3,1.9,1.9
	c4.2,3.8,7.9,8.1,11.3,12.7c6.5,8.8,11,18.6,14.4,28.9c1.6,4.7,2.9,9.6,4.5,14.3c1.5,4.5,3.3,8.8,5,13.2c3.5,9.2,8,17.9,12.8,26.4
	c0.2,0.3,0.5,0.5,0.7,0.8c0.2-0.2,0.2-0.2,0.3-0.2c0,0,0.1-0.1,0.1-0.2c0-0.1,0.1-0.3,0.1-0.4c0-0.2,0-0.4,0-0.6
	c0-32.1,0-64.2,0-96.3c0-0.3-0.1-0.5-0.1-0.8c0-0.1-0.1-0.1-0.1-0.2c0-0.1-0.1-0.1-0.2-0.3C437.9,403.9,420.9,403.9,403.7,403.9z
	 M224.2,447.4c-0.2,0-0.4,0-0.5-0.1c-0.1,0.2-0.2,0.5-0.3,0.7c-2,5.7-4.6,11.3-7.7,16.5c-4.6,7.6-8.5,15.4-12,23.5
	c-1.6,3.7-4,6.8-6.8,9.6c-2.3,2.4-5.2,4-7.9,5.8c-1.5,1-2.9,2.1-3.9,3.6c-2.2,3.4-2.3,7.1-1.3,10.9c0.4,1.5,1,3,1.2,4.6
	c0.2,1.7,0,3.5,0,5.5c0.5,0.1,1.1,0.2,1.7,0.2c1.6,0,3.3,0,4.9,0c3.5,0,7,0,10.5,0c2.1,0,2.4-0.2,3-2.3c0.2-0.7,0.4-1.4,0.6-2.2
	c1.6-4.9,3.3-9.7,4.8-14.6c1.9-6.1,3.7-12.3,5.4-18.5c1.2-4.2,2.2-8.5,3.2-12.7c0.8-3.7,1.6-7.5,2.3-11.3c1-5.9,2-11.7,3-17.6
	C224.3,448.5,224.2,447.9,224.2,447.4z M423.9,527.9c-0.4-1-0.6-1.6-0.8-2.1c-0.7-2-1.2-4-0.9-6c0.3-2.2,0.7-4.3,1-6.5
	c0.4-3.3,1-6.5,0.9-9.8c-0.2-9.2-2.4-18-6.5-26.3c-1-2.1-2.5-3.9-3.9-5.7c-1.1-1.4-2-1.3-2.9,0.1c-0.9,1.4-1.7,3-2.2,4.6
	c-2.1,6.1-3.1,12.3-3.9,18.6c-0.9,7.3-1.7,14.7-2.5,22.1c-0.3,3.2-0.5,6.4-0.7,9.6c-0.1,1.3,0.2,1.5,1.5,1.7c0.3,0,0.5,0,0.8,0
	c6,0,11.9,0,17.9,0C422.3,528.1,423,528,423.9,527.9z M137.7,528.2c7.7,0,15.1,0,22.5,0c0.2,0,0.5-0.2,1-0.4
	c-0.5-0.4-0.9-0.7-1.2-0.9c-7.2-2.7-13.9-6.3-20.3-10.5c-0.5-0.3-1-0.4-2-0.8C137.6,520,137.6,523.9,137.7,528.2z"/>
<path class="st0" d="M536.5,383.7c-0.5,0-1.1,0-1.6,0c-43,0-86,0-128.9,0c-0.9,0-1.7-0.1-2.8-0.1c0.1-0.8,0.2-1.4,0.3-2
	c1.8-7.6,3.6-15.2,5.6-22.7c1.4-5.4,3.1-10.8,4.9-16.1c2.8-8.5,4.3-17.1,4.1-26c0-1.2-0.2-2.3-0.2-3.5c0-1.5,0.2-1.7,1.7-1.7
	c3.2,0,6.3,0,9.5,0c3.4,0,6.7,0,10.1,0c8.1-0.1,16.2-0.2,24.2-0.3c9.6-0.1,19.2-0.3,28.8-0.4c4.6-0.1,9.2-0.1,13.8-0.2
	c10.2-0.2,20.4-0.5,30.6-0.7C536.5,334.6,536.5,359.1,536.5,383.7z"/>
<path class="st0" d="M536.5,528.1c-0.8,0-1.6,0.1-2.5,0.1c-20.8,0-41.5,0-62.3,0c-0.1,0-0.3,0-0.4,0c-2.5,0-2.4-0.1-3.4-2.3
	c-1-2.1-1.2-4.3-1.2-6.6c0-37.4,0-74.7,0-112.1c0-1.1,0.1-2.2,0.1-3.5c23.3,0,46.5,0,69.6,0C536.5,445.2,536.5,486.7,536.5,528.1z"
	/>
<path class="st0" d="M77.3,403.8c16.2,0,32.4,0,48.8,0c0.1,1,0.1,1.8,0.1,2.5c0,39.8,0,79.7,0,119.5c0,2.2-0.1,2.4-2.1,2.4
	c-15.4,0-30.8,0-46.3,0c-0.2,0-0.4,0-0.6-0.1C77.3,486.7,77.3,445.2,77.3,403.8z"/>
<path d="M77.3,275c1.5,0.4,2.9,0.7,4.4,1.2c7.1,2.2,14.3,1.7,21.6,1.6c3.3,0,6.6-0.2,9.8,0.3c4,0.6,8,1.7,11.9,2.9
	c7,2.3,14,4.7,20.9,7.3c5.7,2.1,11.3,4.4,17,6.7c6.4,2.7,12.7,5.4,19,8.2c3.4,1.5,6.7,3.1,10,4.7c0.5,0.3,1,0.6,2,1.1
	c-0.9,0.2-1.3,0.4-1.8,0.4c-4.2,0.1-8.5,0.2-12.7,0.3c-9,0.1-18,0.2-26.9,0.3c-3.5,0-7,0.1-10.5,0.2c-10.9,0.2-21.8,0.4-32.7,0.6
	c-7.4,0.2-14.8,0.4-22.2,0.5c-3.3,0.1-6.6,0.1-9.9,0.1C77.3,299.5,77.3,287.2,77.3,275z"/>
<path class="st0" d="M227.3,400.9c1.6,3.2,2.4,6.4,3.2,9.6c1.2,5,3.6,9.3,7.4,12.8c2.6,2.4,5.5,4.3,8.6,5.9
	c7.1,3.7,14.5,6.4,22.1,8.8c8.5,2.6,17.2,4.6,26,5.9c5.6,0.8,11.3,1.5,16.9,2.1c4.9,0.5,9.8,1.1,14.7,1.2c3.9,0.1,8-0.2,11.9-0.9
	c9-1.5,16.8-5.8,24.1-11c6.1-4.3,12.1-8.7,18.1-13.2c5.4-4,10.4-8.5,14.3-14.1c0.8-1.2,1.6-2.4,2.3-3.6c0.7-1.1,1.1-1.2,2.1-0.3
	c3.2,3,6.5,5.9,9.6,9c4.9,5,9,10.7,12.4,16.8c2.9,5.3,5.4,10.8,7.3,16.5c1.7,5.4,3.4,10.8,5.3,16.2c2.7,8,5.7,15.8,9.2,23.5
	c5.2,11.4,11.7,22,18.3,32.5c1.5,2.5,2.8,5.1,4.2,7.7c0.3,0.5,0.5,1,0.6,1.5c1.1,3.5,0.5,6.7-4.6,8.8c-0.3-0.5-0.6-1-0.8-1.5
	c-1.4-3.7-3.5-7.1-6.2-10.1c-0.6-0.7-1.2-1.3-2-1.8c-0.7-0.5-1.6-0.6-2.2,0.2c-0.6,0.7-0.1,1.4,0.4,2c1.5,1.7,3.1,3.3,4.3,5.2
	c1.2,1.8,2.1,3.8,3,5.8c0.4,0.8,0.1,1.3-0.8,1.5c-0.6,0.1-1.2,0.2-1.8,0.3c-5.3,0.5-10.5-0.4-15.6-2.3c0-0.7,0-1.4,0-2.1
	c0.2-3,0.1-6-1-8.9c-0.2-0.5-0.4-1.1-0.7-1.5c-0.4-0.6-1-1-1.7-0.7c-0.8,0.4-1,1.1-0.8,1.9c0.4,1.4,0.9,2.9,1.2,4.3
	c0.2,1.3,0.3,2.7,0.2,4.1c-0.1,1.1-0.8,1.5-1.7,1c-3.4-1.9-6.6-4-8.5-7.5c-1.5-2.7-1.9-5.5-1.3-8.5c0.5-2.9,1-5.8,1.3-8.7
	c1.1-10.3-1-20.2-4.8-29.7c-0.9-2.3-2-4.5-3.3-6.6c-0.9-1.4-2-2.8-3.3-3.9c-2.7-2.4-4.9-1.3-6.5,0.8c-0.7,0.9-1.2,1.9-1.6,2.8
	c-1.6,3.5-2.4,7.1-3.1,10.8c-1,5.3-1.9,10.7-2.6,16c-0.8,6.7-1.4,13.5-2,20.2c-0.5,5.9-0.9,11.9-1.3,17.8c-0.2,3.3-0.3,6.7-0.5,10.1
	c-0.3,6.9-0.6,13.8-0.9,20.7c-0.1,2.9,0,5.8-0.2,8.6c-0.4,5.7-0.9,11.3-1.3,17c-0.1,1.4-0.1,2.9-0.2,4.3c-0.7,6.5-0.9,13.1-1.1,19.7
	c-0.1,3.9-0.3,7.8-0.7,11.7c-0.4,4.8-1,9.7-2.9,14.2c-2.1,5-5.6,8.9-10,11.9c-3.7,2.5-7.6,4.4-11.9,5.3c-2.7,0.6-5.4,1-8.1,1.4
	c-0.9,0.1-1.8,0-3,0c0.4-0.7,0.5-1.2,0.8-1.5c3.7-3.6,6.4-7.8,8.6-12.4c0.3-0.5,0.6-1.2,0.5-1.7c-0.1-0.5-0.5-1.2-0.9-1.4
	c-0.6-0.4-1.2,0-1.5,0.6c-0.3,0.6-0.6,1.2-0.9,1.8c-2.5,4.8-5.6,9-9.5,12.8c-1.2,1.2-2.4,1.4-3.9,1c-7.3-1.7-13.9-4.9-20.1-9.1
	c-0.3-0.2-0.6-0.3-0.9-0.5c0.1-0.2,0.2-0.4,0.2-0.6c0.9-0.3,1.9-0.6,2.8-0.8c6.8-1.2,12.2-4.7,16.6-9.8c0.3-0.4,0.7-0.7,0.8-1.2
	c0.1-0.5,0.1-1.3-0.1-1.7c-0.4-0.6-1.3-0.5-1.9-0.1c-0.4,0.3-0.8,0.8-1.1,1.2c-4.6,5.4-10.4,8.6-17.5,9.1c-0.7,0.1-1.4,0.2-2,0.3
	c-1.1,0.1-2.2-0.1-3-0.9c-3.3-3.3-6.5-6.6-9.8-9.9c-0.1-0.1-0.1-0.4-0.2-0.5c0.4-0.8,1-0.6,1.6-0.6c8,0.4,15.5-1.3,22.6-4.9
	c0.4-0.2,1-0.4,1.2-0.8c0.3-0.4,0.7-1.2,0.5-1.6c-0.2-0.4-0.9-0.7-1.5-0.7c-0.6,0-1.2,0.3-1.7,0.6c-5.8,3-11.9,4.4-18.3,4.7
	c-2.1,0.1-4.2,0-6.4,0c-1.2-1.4-1.8-3.1-2-4.8c-0.6-4.3,0.7-8,3.8-11c2.2-2.2,4.6-4.3,6.8-6.5c0.7-0.7,1.3-1.4,1.8-2.2
	c1-1.7,0.7-3.9-0.6-5.3c-0.5-0.5-1-0.9-1.6-1.5c0.4-0.4,0.7-0.8,1-1c4.2-2.1,6.9-5.6,8.9-9.7c1.4-2.8,2.5-5.8,3.8-8.6
	c2.1-4.5,4.3-9,6.4-13.5c2.7-5.6,5.5-11.2,8-16.9c3.6-8,6.2-16.4,7.9-25c0.7-3.5,1.1-7,1.3-10.6c0.7-10.6-0.8-20.9-5.6-30.6
	c-2-4.1-4.6-7.8-7.6-11.2c-4.5-5.3-9.8-9.7-16-13c-8.8-4.7-18.2-6.7-28.1-6.3c-8.9,0.4-17.3,2.8-24.9,7.5
	c-7.1,4.4-12.5,10.4-16.1,17.9c-2.4,4.8-4.2,9.8-5.5,15c-1.1,4.4-2.4,8.7-3.4,13.1c-2.2,9.4-2.8,18.9-2.4,28.6
	c0.4,8.7,1.9,17.3,3.9,25.8c1.6,6.8,3.4,13.6,5.7,20.1c2.5,6.9,5.3,13.6,9.8,19.5c2.2,2.9,4.8,5.2,8.2,6.6c1.3,0.5,1.4,0.8,1.3,2.2
	c-0.1,1.4-0.2,2.7,0,4.1c0.2,2.2,0.6,4.5,1,6.7c0.9,5.2,0.7,10.4,0.2,15.6c-0.4,3.8-0.9,7.5-2.4,11c-1.3,3-3.1,5.5-6.5,6.3
	c-0.8,0.2-1.6,0.3-2.4,0.2c-5.5-0.7-10.7-2.2-15.9-4.1c-1.2-0.4-1.4-0.8-0.9-2c1.1-3.4,2.3-6.9,3.5-10.3c0.5-1.5,0.5-2.4-0.3-2.7
	c-0.9-0.5-1.8,0-2.4,1.6c-1.2,3.3-2.3,6.6-3.5,9.9c-0.7,2-0.7,2-2.6,1.2c-4.3-1.8-8.6-3.6-12.8-5.4c-1.6-0.7-1.7-0.9-0.9-2.6
	c2-4.4,3.9-8.7,5.9-13.1c0.2-0.5,0.4-1,0.5-1.5c0.1-0.9-0.4-2.1-1-2c-0.6,0.1-1.2,0.6-1.5,1.1c-0.7,1.2-1.3,2.6-1.9,3.9
	c-1.6,3.6-3.2,7.3-4.8,10.9c-0.2,0.4-0.5,0.8-0.9,1.3c-5.5-2.7-10.8-5.3-16.6-8.1c0.7-0.6,1.1-1,1.5-1.3c3.7-2.5,7-5.4,9.6-9.1
	c0.2-0.3,0.4-0.5,0.6-0.8c0.5-1,0.5-1.8-0.3-2.2c-0.9-0.5-1.6-0.1-2.1,0.6c-0.3,0.4-0.6,0.8-0.9,1.2c-2.8,3.7-6.2,6.7-10.3,9
	c-1.2,0.7-2.2,0.7-3.2,0c-3-1.9-6-3.9-8.9-5.9c-0.5-0.4-1-1-1.4-1.5c-1.2-1.6-1.1-2.3,0.8-3.1c1.8-0.8,3.7-1.3,5.6-2.1
	c4.9-2.2,8.1-5.9,9.4-11.2c1.3-5.4,0.8-10.8,0.4-16.2c-0.3-3.1-0.7-6.3-1.1-9.4c-0.7-5.6-1.5-11.3-2.3-16.9
	c-0.7-4.8-1.7-9.6-2.5-14.4c-1.4-8.7-0.7-17.3,2.2-25.7c2.3-6.7,4.6-13.3,6.6-20.1c2.1-6.9,3.9-13.9,5.6-21c1.9-7.9,3.6-15.9,5-23.9
	c1.2-6.5,1.8-13.2,2.6-19.8c0.5-4.6,0.7-9.1,1-13.7c0.1-0.8,0-1.6-0.1-2.5c-0.1-0.7-0.4-1.2-1.2-1.2c-0.7-0.1-1.1,0.4-1.3,1.1
	c-0.2,0.8-0.4,1.6-0.5,2.4c-0.8,7-2.5,13.7-4.8,20.4c-2,5.6-4.6,11-7.6,16.1c-4.4,7.4-8.4,15.1-11.8,23c-2.4,5.7-6.3,10-11.5,13.3
	c-1.3,0.8-2.7,1.7-3.9,2.6c-4,3-5.9,7.2-5.5,12.2c0.1,2.2,0.7,4.3,1.2,6.5c0.2,0.9,0.5,1.7,0.7,2.6c0.5,2.4-0.5,4.1-2.8,4.7
	c-1.4,0.4-3,0.5-4.5,0.3c-1.8-0.1-3.7-0.5-5.4-1c-2.6-0.8-5.2-1.7-7.8-2.6c-1.4-0.5-1.6-0.9-1.3-2.3c0.5-2.3,1.4-4.4,3.1-6.1
	c0.6-0.6,1.3-1.2,1.9-1.8c0.9-0.9,1-1.7,0.5-2.3c-0.5-0.6-1.5-0.6-2.4,0.2c-1.5,1.4-2.9,2.9-4.1,4.6c-0.8,1.1-1.3,2.6-1.6,4
	c-0.5,1.9-0.7,2.2-2.4,1.3c-3.2-1.6-6.3-3.3-9.5-4.9c-1-0.5-1.9-1-2.8-1.6c-0.6-0.4-1.2-1-1.8-1.6c1.9-1.9,3.9-3.2,6-4.3
	c0.4-0.2,0.8-0.5,1.2-0.7c0.6-0.4,0.9-0.8,0.6-1.5c-0.3-0.7-0.8-1.1-1.6-1c-0.5,0.1-0.9,0.2-1.3,0.5c-2,1.2-3.9,2.5-5.8,3.8
	c-1.6,1.2-2.2,1.2-3.3-0.5c-1.9-2.7-1.7-5.5,0.8-7.8c2.7-2.5,5.5-4.9,8.3-7.4c3.9-3.6,7.5-7.6,10.1-12.3c5.2-9.4,11-18.4,18-26.6
	c2-2.4,4.3-4.7,6.2-7.1c4.6-6.1,8.4-12.6,11.2-19.7c1.1-2.8,2.3-5.6,3.6-8.3c2.9-5.9,7.5-10.2,13-13.6c5.3-3.2,11.1-4.9,17-6.4
	C226,400.9,226.6,400.9,227.3,400.9z"/>
<path class="st0" d="M218.9,337.1c0.3,0.6,0.7,1.2,0.9,1.9c2.9,8.4,8.4,14.6,16.3,18.6c4.9,2.5,10.1,3.3,15.6,2.7c0.6-0.1,1.3,0,2,0
	c-0.2,1.3-0.6,2.4-0.5,3.6c0.2,2,0.5,3.9,1,5.8c1.3,5.1,2.8,10.1,4,15.3c0.7,3,0.9,6.1,1.1,9.2c0.3,4.2,1.4,8.1,3.8,11.5
	c4.5,6.3,10.5,10.5,17.8,12.9c4.7,1.5,9.5,2.1,14.4,1.7c8.9-0.9,17.2-3.6,24.7-8.8c8.8-6,15-14.1,19.5-23.7c1.2-2.5,2.5-5,3.1-7.8
	c1-4.3,0.9-8.6,0.1-12.8c-0.3-1.8-1-3.6-1.8-5.2c-2.6-5.4-7-7.2-12.7-6.7c-9.6,0.9-19.1,0.8-28.7-0.5c-7.3-1-14.7-1.9-22-2.6
	c-2.6-0.2-5.2,0.2-7.8,0.3c-0.9,0.1-1.8,0.2-3.2,0.4c0.4-0.7,0.6-1,0.8-1.3c2.8-3.2,5.5-6.4,8.4-9.6c3.3-3.6,7.3-6.1,11.7-8.2
	c6.3-2.9,12.7-5.8,19.1-8.6c9.6-4.3,19.2-8.6,28.6-13.4c8.9-4.5,17.9-8.8,27-13c11.5-5.4,23.1-10.6,34.7-15.8
	c6.1-2.8,12.2-5.5,18.3-8.3c0.6-0.3,1.2-0.5,2-0.7c0.1,0.6,0.3,1,0.2,1.4c-0.6,4.3-1.3,8.5-1.9,12.8c-0.3,2-0.4,4.1-0.5,6.1
	c-0.2,2.7-0.4,5.5-0.4,8.2c0.1,4.2,0.4,8.5,0.7,12.7c0.3,4.5-0.1,9-0.7,13.5c-0.9,6.6-3.4,12.8-5.2,19.2c-1.4,4.9-2.8,9.7-4.1,14.6
	c-1.4,5.3-2.7,10.6-4,16c-1,4.2-1.9,8.4-2.7,12.6c-1.4,7.4-4.6,13.8-9.7,19.3c-3.3,3.7-7.1,6.9-11.1,9.8
	c-6.7,4.9-13.5,9.9-20.3,14.6c-5.7,4-12,6.9-18.8,8.4c-4.4,1-8.9,1.3-13.5,1c-5.3-0.4-10.5-0.7-15.8-1.3
	c-10.7-1.1-21.3-2.7-31.8-5.3c-7.9-2-15.6-4.5-23.1-7.7c-4.5-1.9-9-4-12.9-7.1c-4.6-3.7-7.6-8.3-8.8-14.1c-1-4.6-2.8-9-4.8-13.3
	c-3-6.3-7.1-11.8-11.8-16.9c-2.3-2.5-4.4-5.2-5.3-8.6c-1.1-3.8-1-7.4,0.4-11.1c1.4-3.4,2.8-6.8,4-10.3c1.1-3.3,1.8-6.7,2.7-10.1
	c0.1-0.4,0.2-0.8,0.3-1.1C218.5,337.3,218.7,337.2,218.9,337.1z M351.8,355.9c6,0.2,10.3-1.3,14-4.1c4.3-3.2,6.2-7.9,6.3-13.1
	c0.1-4.9-2.8-8.9-8.3-9.1c-3.4-0.1-6.8-0.1-10.2,0.1c-2.3,0.1-4.7,0.4-6.9,0.8c-1.6,0.3-3.2,0.9-4.5,1.8c-6.8,4.4-6.1,14.9-0.6,19.7
	C344.8,354.9,348.7,355.8,351.8,355.9z M370.9,320c-1.9-0.6-3.8-1.4-5.7-1.8c-6.2-1.4-12.4-1.4-18.4,0.9c-2.5,0.9-4.8,2.2-7.1,3.5
	c-1,0.6-0.9,1.6,0,2.3c0.6,0.4,1.1,0.2,1.7-0.2c2.7-1.8,5.6-3.1,8.8-3.9c6.3-1.6,12.5-1,18.5,1.3C370.5,322.8,371,322.4,370.9,320z"
	/>
<path class="st0" d="M221.9,312.9c-0.3-2.3,0.4-3.9,0.9-5.6c1.9-6,4.7-11.5,7.9-16.8c1.3-2.1,2.3-4.5,3.1-6.9
	c1.3-3.9,1.2-7.8,0.1-11.7c-2.2-8.6-5.4-16.8-9-24.8c-2.2-4.9-3.8-10-4.3-15.4c-0.2-1.9-0.5-3.8-0.5-5.7c0-9,3.1-16.9,9.1-23.6
	c3.7-4.2,8.1-7.6,13.4-9.5c4.5-1.7,9.2-2.2,13.9-1.6c6.9,0.9,13,3.6,18.2,8.3c2.6,2.4,4.1,5.4,5.4,8.6c1.2,2.9,2.7,5.5,4.9,7.7
	c4.1,4,9,5.4,14.5,4.6c4.5-0.6,8.9-1.6,13.3-2.5c9.1-1.8,18.3-2.8,27.6-2c7,0.6,13.9,1.6,20.8,2.4c2.6,0.3,5.4,0.5,8,0.2
	c5.1-0.5,7.8-4.1,7.2-8.9c-0.2-1.4-0.6-2.7-0.8-4c-0.9-4.7,0.4-7.5,4.7-9.5c1.1-0.5,2.3-1,3.5-1.2c9.9-2,19.1,0.1,27.4,5.7
	c4.3,2.9,7.3,7.1,9.8,11.7c3.8,6.9,5.4,14.4,5.4,22.3c0,6-1.7,11.5-3.5,17c-1,3.2-1.9,6.4-2.7,9.7c-0.3,1.5-1.1,2.1-2.4,2.4
	c-3.9,0.9-7.9,1.8-11.8,2.9c-5.3,1.5-10.5,3-15.7,4.8c-5.9,2.1-11.8,4.3-17.6,6.8c-8.7,3.8-17,8.1-25.1,13
	c-7.6,4.5-15.1,9.1-22.8,13.5c-4.6,2.7-9.5,4.8-14.8,5.9c-7.8,1.7-15.3,0.7-22.1-3.6c-5.2-3.3-10.7-5.8-16.7-7.2
	c-4.3-1-8.6-2.2-13-3c-5.6-1-11.2-0.9-16.7,0.7c-4.5,1.3-8.6,3.5-12.1,6.6c-2.4,2.1-4.7,4.4-6.4,7.2
	C223,311.6,222.6,312,221.9,312.9z M244.9,201.3c-2.8,0-5.5,0.2-8.1,1.2c-2.9,1-4.7,3.3-4.6,6.3c0.1,2,0.5,4.1,1.1,6
	c1,3,2.2,5.9,3.4,8.8c1.6,3.6,3.3,7.2,4.9,10.8c1.4,3.1,4.7,4,7.2,3.4c1.8-0.4,3.6-0.9,5.3-1.6c3.7-1.5,7-3.7,10.1-6.2
	c3.8-2.9,7.5-6,11.2-9c0.8-0.7,1.2-1.5,0.8-2.5c-0.5-1.5-0.9-3-1.7-4.4c-2.1-3.7-5.3-6.3-9-8.2C259,202.6,252.1,201.5,244.9,201.3z
	 M394.5,236.8c5.8-0.1,11.5-1.2,17.2-1.8c1.1-0.1,1.9-0.7,2.4-1.7c2-3.9,2.3-8,1.6-12.2c-0.7-4-2.6-7.6-5.1-10.8
	c-3.1-3.9-6.4-7.5-11.3-9.1c-3.6-1.2-5.8-0.2-7.6,2.2c-1.1,1.4-2.1,3.1-2.8,4.8c-1.5,3.7-2.9,7.4-4.2,11.1c-1,3-1.9,6-2.8,9
	c-1,3.5,0.1,5,2.3,6.6c0.9,0.6,2,0.9,3,1.1C389.6,236.3,392,236.5,394.5,236.8z"/>
<path class="st0" d="M355.3,512.8c-0.1,6.9-1.2,13.6-2.8,20.3c-3.3,13.2-9,25.3-15.2,37.3c-2.3,4.3-4.4,8.7-6.1,13.2
	c-1.8,4.5-3.6,9.1-6.9,12.7c-2.8,3-6.3,4.5-10.4,4.4c-3.8-0.1-7.5-0.3-11.3-0.1c-5.5,0.3-10.6,2.2-15.3,4.9c-1,0.6-2,1.1-3,1.7
	c-3.6,2.3-7,1.6-10.3-0.8c-3.2-2.4-5.4-5.6-7.4-9c-3.1-5.3-5.4-11.1-7.2-16.9c-1.8-6-3.6-12-5-18.2c-1.8-7.7-3-15.4-3.4-23.3
	c-0.4-7.2,0-14.4,1-21.5c0.6-4.5,1.5-8.9,2.8-13.2c1.3-4.4,2.4-8.9,3.8-13.2c2.1-6.3,4.9-12.2,9.4-17.2c6-6.7,13.4-10.9,22.1-13.2
	c6.2-1.6,12.4-2.1,18.7-1.4c10.4,1.2,19.6,5.1,27.7,11.9c6.5,5.6,11.5,12.3,14.9,20.1c2,4.5,3.2,9.3,3.6,14.3
	C354.9,508,355.1,510.4,355.3,512.8z"/>
<path class="st0" d="M276.2,354.8c4.2,0.4,8.4,0.9,12.7,1.3c3.9,0.4,7.8,0.9,11.6,1.3c2.9,0.3,5.8,0.7,8.8,0.9
	c3.6,0.2,7.3,0.2,10.9,0.2c2.8,0,5.6-0.2,8.4-0.5c6.3-0.5,9.4,2.4,11.1,8.1c1.9,6.3,1.4,12.6-1.6,18.6c-3.1,6.3-6.4,12.4-11.3,17.5
	c-5.2,5.4-11.1,9.7-18.2,12.3c-5.4,2-11,3.5-16.8,3.3c-10.5-0.4-19.2-4.5-25.8-12.8c-2.4-3-3.6-6.5-4-10.4
	c-0.5-5.4-1.1-10.9-2.6-16.2c-1-3.7-2.1-7.3-3.1-11c-0.5-1.9-0.8-3.7,0-5.6c0.9-2.4,2.9-3.7,5-4.5
	C266.1,355.5,271,354.7,276.2,354.8z M276.4,405.6c2.7,0.3,4.8-0.9,6.3-3.4c1.5-2.5,1.5-5.3,0.9-7.9c-0.6-2.4-2.8-4.5-6.1-4.6
	c-3.3,0-6.1,0.9-8.5,3c-3.3,2.9-3.9,6.7-0.4,9.9C270.8,404.5,273.3,405.7,276.4,405.6z M307.2,391.4c-2.9-0.2-5.4,1.3-7.4,4
	c-1.8,2.4-2.1,7.1,0.9,9.5c5.1,4.2,12.8,2.4,14.2-4.4C315.6,396.9,313.5,391.4,307.2,391.4z"/>
<path class="st0" d="M137.7,404.2c2.3-0.5,68.9-0.4,70.5,0.1c-0.6,0.4-1.2,0.8-1.7,1.2c-5.1,3.1-9.4,6.9-12.3,12.1
	c-1.5,2.6-2.8,5.5-3.9,8.3c-3.9,9.9-9,19-16.3,26.8c-5.9,6.3-10.7,13.3-15.1,20.7c-1.7,2.8-3.3,5.7-4.9,8.5
	c-3.3,5.6-7.8,10-12.6,14.2c-1,0.8-2,1.7-3.1,2.7c-0.2-0.7-0.4-1.1-0.4-1.5c-0.1-0.5,0-1,0-1.4c0-29.7,0-59.4,0-89
	C137.6,405.8,137.7,405,137.7,404.2z"/>
<path class="st0" d="M403.7,403.9c17.2,0,34.2,0,51.1,0c0.1,0.2,0.2,0.2,0.2,0.3c0,0.1,0.1,0.1,0.1,0.2c0.1,0.3,0.1,0.5,0.1,0.8
	c0,32.1,0,64.2,0,96.3c0,0.2,0,0.4,0,0.6c0,0.1-0.1,0.3-0.1,0.4c0,0.1-0.1,0.1-0.1,0.2c0,0.1-0.1,0.1-0.3,0.2
	c-0.2-0.3-0.5-0.5-0.7-0.8c-4.9-8.5-9.3-17.2-12.8-26.4c-1.7-4.4-3.5-8.8-5-13.2c-1.6-4.7-3-9.5-4.5-14.3
	c-3.4-10.3-7.9-20.1-14.4-28.9c-3.4-4.6-7.1-8.9-11.3-12.7c-0.7-0.6-1.3-1.2-1.9-1.9C403.9,404.6,403.9,404.4,403.7,403.9z"/>
<path class="st0" d="M224.2,447.4c0,0.6,0.1,1.1,0,1.7c-1,5.9-1.9,11.8-3,17.6c-0.7,3.8-1.4,7.5-2.3,11.3c-1,4.3-2,8.5-3.2,12.7
	c-1.7,6.2-3.5,12.3-5.4,18.5c-1.5,4.9-3.2,9.7-4.8,14.6c-0.2,0.7-0.4,1.4-0.6,2.2c-0.6,2-0.9,2.3-3,2.3c-3.5,0-7,0-10.5,0
	c-1.6,0-3.3,0-4.9,0c-0.6,0-1.2-0.1-1.7-0.2c0-2,0.2-3.7,0-5.5c-0.2-1.5-0.8-3-1.2-4.6c-1-3.8-0.8-7.4,1.3-10.9
	c1-1.5,2.4-2.6,3.9-3.6c2.7-1.8,5.6-3.4,7.9-5.8c2.8-2.8,5.2-5.9,6.8-9.6c3.5-8.1,7.5-16,12-23.5c3.1-5.2,5.7-10.7,7.7-16.5
	c0.1-0.2,0.2-0.5,0.3-0.7C223.8,447.3,224,447.3,224.2,447.4z"/>
<path class="st0" d="M423.9,527.9c-1,0.1-1.6,0.3-2.3,0.3c-6,0-11.9,0-17.9,0c-0.3,0-0.5,0-0.8,0c-1.3-0.1-1.5-0.3-1.5-1.7
	c0.2-3.2,0.4-6.4,0.7-9.6c0.8-7.4,1.5-14.7,2.5-22.1c0.8-6.3,1.9-12.6,3.9-18.6c0.5-1.6,1.3-3.2,2.2-4.6c1-1.5,1.8-1.5,2.9-0.1
	c1.5,1.8,2.9,3.7,3.9,5.7c4.1,8.3,6.2,17.1,6.5,26.3c0.1,3.3-0.5,6.5-0.9,9.8c-0.3,2.2-0.7,4.3-1,6.5c-0.3,2.1,0.2,4.1,0.9,6
	C423.4,526.3,423.6,526.9,423.9,527.9z"/>
<path class="st0" d="M137.7,528.2c-0.1-4.3-0.1-8.2,0-12.6c0.9,0.3,1.5,0.5,2,0.8c6.4,4.2,13.1,7.8,20.3,10.5
	c0.4,0.1,0.7,0.5,1.2,0.9c-0.5,0.2-0.8,0.4-1,0.4C152.8,528.2,145.4,528.2,137.7,528.2z"/>
<path d="M351.8,355.9c-3,0-6.9-1-10.2-3.9c-5.5-4.8-6.2-15.3,0.6-19.7c1.3-0.9,3-1.5,4.5-1.8c2.3-0.5,4.6-0.7,6.9-0.8
	c3.4-0.1,6.8-0.2,10.2-0.1c5.5,0.2,8.4,4.3,8.3,9.1c-0.1,5.1-2,9.8-6.3,13.1C362,354.6,357.7,356,351.8,355.9z M369.5,339.4
	c0-4.6-2.3-7-6.2-7.4c-5.3-0.5-10.5-0.1-15.7,1c-2.3,0.5-4.4,1.4-5.9,3.4c-3.3,4.6-1.7,12.2,3.5,14.8c6.5,3.3,12.8,2.7,18.8-1.4
	C367.7,347.2,369,343.2,369.5,339.4z"/>
<path d="M370.9,320c0.1,2.3-0.4,2.8-2.3,2.1c-6.1-2.2-12.2-2.8-18.5-1.3c-3.1,0.8-6.1,2.1-8.8,3.9c-0.6,0.4-1.1,0.7-1.7,0.2
	c-1-0.7-1.1-1.7,0-2.3c2.3-1.3,4.7-2.6,7.1-3.5c6-2.2,12.2-2.2,18.4-0.9C367.1,318.7,369,319.4,370.9,320z"/>
<path d="M244.9,201.3c7.2,0.1,14.2,1.3,20.6,4.6c3.7,1.9,6.9,4.5,9,8.2c0.8,1.4,1.2,2.9,1.7,4.4c0.4,1,0,1.9-0.8,2.5
	c-3.7,3-7.4,6.1-11.2,9c-3.1,2.4-6.5,4.6-10.1,6.2c-1.7,0.7-3.5,1.2-5.3,1.6c-2.5,0.5-5.8-0.3-7.2-3.4c-1.6-3.6-3.3-7.2-4.9-10.8
	c-1.2-2.9-2.4-5.8-3.4-8.8c-0.6-1.9-1-4-1.1-6c-0.2-3,1.7-5.3,4.6-6.3C239.4,201.6,242.1,201.3,244.9,201.3z"/>
<path d="M394.5,236.8c-2.4-0.3-4.9-0.5-7.3-0.9c-1.1-0.2-2.2-0.5-3-1.1c-2.2-1.5-3.3-3.1-2.3-6.6c0.8-3,1.7-6,2.8-9
	c1.3-3.7,2.7-7.5,4.2-11.1c0.7-1.7,1.6-3.3,2.8-4.8c1.9-2.4,4.1-3.4,7.6-2.2c4.9,1.7,8.2,5.3,11.3,9.1c2.6,3.2,4.4,6.8,5.1,10.8
	c0.8,4.2,0.5,8.3-1.6,12.2c-0.5,1-1.3,1.6-2.4,1.7C405.9,235.6,400.3,236.7,394.5,236.8z"/>
<path d="M276.4,405.6c-3.2,0.1-5.7-1-7.8-3c-3.5-3.2-2.9-7,0.4-9.9c2.4-2.1,5.2-3,8.5-3c3.3,0,5.5,2.2,6.1,4.6
	c0.7,2.7,0.6,5.4-0.9,7.9C281.3,404.6,279.1,405.8,276.4,405.6z"/>
<path d="M307.2,391.4c6.3-0.1,8.5,5.4,7.7,9c-1.4,6.9-9.1,8.6-14.2,4.4c-3-2.5-2.7-7.1-0.9-9.5C301.8,392.7,304.3,391.3,307.2,391.4
	z"/>
<path class="st0" d="M369.5,339.4c-0.5,3.8-1.8,7.8-5.6,10.4c-6,4.1-12.3,4.7-18.8,1.4c-5.2-2.6-6.8-10.2-3.5-14.8
	c1.5-2,3.6-3,5.9-3.4c5.2-1,10.5-1.5,15.7-1C367.1,332.4,369.5,334.8,369.5,339.4z M354.9,333.3c-2.5-0.3-4.8,0.7-7,1.6
	c-4.3,1.7-5.7,8.5-1.6,12c6.1,5.1,13.7,3,17.8-0.9c2.4-2.4,2.5-5.5,0.4-8.1C362,334.9,358.8,333.2,354.9,333.3z"/>
<path d="M354.9,333.3c3.9-0.1,7.1,1.6,9.6,4.6c2.2,2.6,2.1,5.7-0.4,8.1c-4.1,3.9-11.7,6-17.8,0.9c-4.2-3.5-2.7-10.3,1.6-12
	C350.2,333.9,352.4,333,354.9,333.3z"/>
</svg>
