<svg id="daff1507-e09b-46f9-be52-f9c7cbcac2d3" data-name="Layer 1" xmlns="http://www.w3.org/2000/svg" viewBox="0 0 611.79 792">
  <defs>
    <style>
      .\30 0077f2c-9c24-414e-82f5-2c0c1f957498 {
        fill: #fff;
      }
    </style>
  </defs>
  <title>DIGM223_RizzutoSmith_Elijah</title>
  <path class="00077f2c-9c24-414e-82f5-2c0c1f957498" d="M612.21,174.45v618H537.74a6.25,6.25,0,0,0-.24-1q-5.61-12.57-11.24-25.13c-.73-1.61-1.48-3.2-2.28-4.93-.54.36-.94.6-1.31.88A245.3,245.3,0,0,1,500,777.84a23.34,23.34,0,0,1-6.93,3.11c-2.54-10.39-2.7-20.94-3.65-31.72-7.48,4.74-14.53,9.74-22.26,14.66,1.86-14.13,3.65-27.77,5.44-41.42-8.15,6.14-15.72,12.68-23.89,19.28V473.05a102.68,102.68,0,0,0-1.3-15.76,108.47,108.47,0,0,0-12.59-36.51,113,113,0,0,0-27.07-32.47,164.46,164.46,0,0,0-84.07-35.89,167.57,167.57,0,0,0-25-1.31c-2.17.07-4.35,0-6.65,0-.09-.31-.22-.68-.3-1.07q-2.79-13.07-5.55-26.14l-5.79-27.34c-1.06-5-2.12-10.05-3.14-15.08a3.39,3.39,0,0,0-1.79-2.57c-1.62-.88-3.16-1.91-4.74-2.88-4.95-3.05-9.89-6.13-14.88-9.13a3.83,3.83,0,0,1-2-2.88c-.08-.54-.26-1.06-.38-1.6q-1.81-8-3.63-16a11.68,11.68,0,0,0-.54-1.48l-17.33,7.57-9.87-7.33c2.74-11.2,5.5-22.51,8.26-33.83l-.37-.2-38.59,25.49-10.51-9-1.49.37c-11.44,3.06-22.92,6-34.31,9.23-8.09,2.32-16,5.07-24.06,7.65q-14.57,4.71-29.1,9.46l-30.47,9.92c-8.52,2.78-17,5.59-25.58,8.32a50.93,50.93,0,0,1-6.75,1.71c-4.53.76-9.08,1.33-13.63,2l-15,2.23V.41H495a2.65,2.65,0,0,1-.58.49,102,102,0,0,0-20.31,12.75,100.05,100.05,0,0,0-30.54,41.59,98.94,98.94,0,0,0-6.86,39.42,96,96,0,0,0,4.69,27.67c.68,2.06,1.36,4.12,2.07,6.25a15.21,15.21,0,0,1-6.48,1.56c-2.65-4.56-5.29-9.07-8.14-14-.85,3-1.55,5.56-2.16,7.75l-6,1L416,118.39l-3.09,16c-1.07.19-2,.42-2.95.5a21.93,21.93,0,0,1-23.64-16.78c-1-4-2-8-2.95-12-.17-.69-.39-1.36-.59-2a30,30,0,0,0-2.26,4.75c-3.77,8.92-10.29,14.73-19.7,17.11-3.71,1-7.5,1.61-11.25,2.41-.79.17-1.58.37-2.37.56a1.6,1.6,0,0,0,1,.65c4.06,1,8.11,2,12.18,2.94a9.13,9.13,0,0,1,6,4.3c1.06,1.76,2.17,3.5,3.27,5.23.42.67.88,1.32,1.37,2.06,1.3-.91,2.39-1.75,3.55-2.45a17.42,17.42,0,0,1,3.47-1.76c6.73-2.18,15.64,3.53,16.94,10.82,0,.2.06.41.08.61l.75,6.12.86,7c.58-.8.91-1.21,1.2-1.65,1.63-2.46,3.19-5,4.88-7.37a10.94,10.94,0,0,1,16.54-2,45.22,45.22,0,0,1,4.54,4.74c1.95,2.29,3.78,4.69,5.63,7l2.23-.39c1-2.87,1.88-5.69,2.94-8.43a47.4,47.4,0,0,1,2.81-6.15,10.85,10.85,0,0,1,13.07-5.05,5.05,5.05,0,0,1,2.71,2c2.26,3.18,4.64,6.27,7,9.39.61.8,1.26,1.55,2.18,2.67h-5.22c3.31,2.09,6.64,3.84,9.94,5.64,4,2.2,7.37,4.92,8.27,9.8a33.1,33.1,0,0,0,1.43,4.5c.16.5.39,1,.63,1.55,1.48-.54,2.81-1.07,4.17-1.52a15.39,15.39,0,0,1,3-.75,3.61,3.61,0,0,1,1.94.33c3.12,1.55,6.21,3.17,9.31,4.78a3,3,0,0,1,1,.69c2.38,3.16,4,6.57,3.38,10.67-.49,3.39-1,6.79-1.42,10.18a9.68,9.68,0,0,0-.15,3.14c.72-.65,1.23-1.09,1.74-1.54,2.23-2,4.41-4.13,6.72-6.06A11.65,11.65,0,0,1,524.41,203a49.87,49.87,0,0,1,3.53,6.25c1.42,2.88,2.67,5.84,3.95,8.69l2.25.1c1.48-2.23,2.93-4.55,4.51-6.78a66.55,66.55,0,0,1,4.77-6.16c5.31-5.85,13.42-5.55,18.41.59,1.87,2.28,3.67,4.62,5.51,6.92.32.4.69.76,1.23,1.34.08-.84.16-1.37.18-1.9.11-3.7.2-7.4.31-11.1.19-6.11,5.36-12.65,11.27-14.27a12.7,12.7,0,0,1,1.61-.31,12.29,12.29,0,0,1,7.9,1.64c1.33.79,2.69,1.5,4.14,2.3,1.49-2.91,2.87-5.58,4.23-8.26a8.85,8.85,0,0,1,5-4.59C606.22,176.38,609.22,175.44,612.21,174.45Zm-197.79,26-.4.12c0,.32-.08.65-.1,1-.54,7.11-1,14.22-1.6,21.32a27.94,27.94,0,0,1-22,25.13,19.92,19.92,0,0,1-7.54.45c-1.32-3.53-2.59-7-3.91-10.46s-2.47-7-4.12-10.74c-1.85,4-3.51,7.56-5.18,11.14l-2.44-.78-.86,1.49-1.07-1.46-2.37.72-5.2-11.25c-2.77,7.41-5.4,14.43-8,21.42-.53,0-.87.07-1.21.08a28.08,28.08,0,0,1-28.34-26.19c-.41-6.36-.89-12.71-1.35-19.07-.06-.91-.2-1.82-.36-3.2-.61.92-.95,1.4-1.26,1.91-1.34,2.23-2.65,4.48-4,6.7a36,36,0,0,1-10.37,11,37,37,0,0,1-20.24,6.56c-6.23.21-12.46.45-18.7.68a18.05,18.05,0,0,0-1.85.32c1.13.51,1.8.83,2.48,1.12q9,3.91,18.1,7.82a10.61,10.61,0,0,1,5.9,6c1.28,3.17,2.6,6.33,3.91,9.5.26.62.54,1.23.87,2,.67-.26,1.25-.45,1.79-.7,1.61-.75,3.2-1.56,4.83-2.28a14.23,14.23,0,0,1,17.22,4.2c.69.85,1.33,1.75,2,2.6a14.89,14.89,0,0,1,3.42,10.69q-.35,5.34-.63,10.68c-.13,2.56-.22,5.12-.33,7.68l.53.31a17,17,0,0,1,1.2-1.59c3.17-3.42,6.3-6.88,9.55-10.22a13.61,13.61,0,0,1,20.9,1.09,73.68,73.68,0,0,1,4.89,7.34c1.63,2.69,3.06,5.51,4.58,8.27.33.59.69,1.16,1.06,1.8l2-.82,2.12.79c2.21-4,4.24-8,6.53-11.79a61.75,61.75,0,0,1,4.95-6.8,10.76,10.76,0,0,1,5.08-3.37,13.57,13.57,0,0,1,14.89,3.61c3.37,3.41,6.56,7,9.85,10.5a16.08,16.08,0,0,0,1.29,1.08c0-1,0-1.79,0-2.53-.28-5.41-.58-10.82-.87-16.22,0-.69,0-1.37,0-2.06-.24-5.25,6.81-14.11,11.61-15.65a15,15,0,0,1,11.2.49c2.1,1,4.19,2,6.38,3,.36-.78.67-1.38.92-2,1.26-3,2.55-6.06,3.74-9.12a11.16,11.16,0,0,1,6.42-6.54c6-2.52,11.95-5.15,17.92-7.73.67-.29,1.32-.61,2-.92a4.51,4.51,0,0,0-2-.49l-18.29-.65a37.34,37.34,0,0,1-15.46-3.77,36.3,36.3,0,0,1-15.23-14C417.63,205.8,416,203.09,414.42,200.4Z" transform="translate(-0.41 -0.41)"/>
  <path class="00077f2c-9c24-414e-82f5-2c0c1f957498" d="M.41,310.63v-23c1.56-.2,3.13-.36,4.69-.59q13.53-2,27-4a18,18,0,0,0,2.79-.67q12-3.87,24-7.78l23.85-7.69q14.94-4.85,29.87-9.73c6.58-2.14,13.14-4.31,19.72-6.45,4.68-1.53,9.33-3.2,14.07-4.52,10.23-2.84,20.51-5.48,30.75-8.25a2.3,2.3,0,0,1,2.41.56c1.42,1.29,2.9,2.51,4.35,3.76l6.62,5.66c8.51-5.44,16.73-11.13,25.15-16.5l.31.28c-3.41,13.91-6.82,27.83-10.33,42.17l37.32-16.35c.92,4,1.91,7.72,2.58,11.49a5.5,5.5,0,0,0,2.94,4.06c6.46,3.87,12.84,7.88,19.27,11.81a2.5,2.5,0,0,1,1.22,1.77c1.74,8.31,3.53,16.62,5.29,24.93q3.61,17.08,7.2,34.18c.45,2.12.85,4.24,1.3,6.5-29.19,3.67-55.55,13.88-79.23,31.39L219.31,397,195,403.34l-4.13-7.59-4,2.09,3.45,6.72-15.38,4.05c-.81-4.68-1.57-9.13-2.33-13.58s-1.43-8.85-2.34-13.33l-4.4.83c1.54,9.12,3,18.08,4.59,27.24l-13,3.46-1.89-10.76-4.44.76c.62,3.85,1.2,7.42,1.82,11.19l-17.39,4.64c-2.79-7.26-5.49-14.25-8.21-21.33-1.27.45-2.3.8-3.32,1.18a5.83,5.83,0,0,0-.86.57c2.61,6.87,5.22,13.74,7.91,20.79l-22.14,6L102.19,411l-4.13,1.87,6.4,14.68-16.8,4.63c-1.55-9-3-17.67-4.57-26.54l-4.43.82c1.45,9.16,3.11,18,4.52,27l-17.88,5c-2-3.79-4-7.43-6-11.17-.8.41-1.4.71-2,1l-2,1.1,5.43,10.3L53.45,442c.43,1.47.81,2.76,1.24,4.26L63,444l5.76,10.59,3.94-2.18c-1.76-3.33-3.4-6.44-5.14-9.76,5.63-1.56,10.94-3.24,16.46-4.54,1.27,7.36,2.48,14.42,3.72,21.62l4.45-.8c-1.26-7.52-2.49-14.78-3.73-22.18l17.89-4.93c2.26,5.12,4.44,10,6.67,15.07L117.1,445l-6.27-14.44,21.92-5.95,6.8,17.62,4.23-1.64-6.55-17.18L153.74,419c.67,3.73,1.3,7.28,2,11l4.38-.89c-.63-3.92-1.22-7.6-1.82-11.3l12.94-3.42c.76,4.24,1.48,8.31,2.23,12.55l4.42-.84c-.72-4.34-1.42-8.5-2.15-12.89l16.87-4.44,7.71,14.34,4-2.19c-2.4-4.53-4.7-8.86-7.07-13.35l26.49-7c.63,3.7,1.22,7.23,1.85,11l-11.23-.44c-.48,8.59-1,17-1.44,25.61l-35.61-4c2.23,5.34,4.32,10.35,6.51,15.58-1,.22-1.63.39-2.29.5L159,452.61l-33.82,5.77c-10.27,1.75-20.55,3.41-30.79,5.25-5.92,1.06-11.88,1.86-17.74,3.28-5.52,1.33-11.19,2-16.79,3L42.05,473c-2.55.44-5.11.84-7.79,1.28-.19-.81-.38-1.52-.51-2.25Q30.86,455.75,28,439.46c-1.6-9-3.24-17.93-4.83-26.9q-3.91-22.06-7.77-44.13-2-11.24-4-22.46a81.43,81.43,0,0,0-2-10.27C6.85,327.73,4,319.88,1.24,312A7.4,7.4,0,0,0,.41,310.63Zm182.43-17.48c-.64.42-1,.69-1.43.93a24.56,24.56,0,0,0-7.61,7.37,44.7,44.7,0,0,0-7.54,20.62,34.13,34.13,0,0,0,2.3,17.53,33.74,33.74,0,0,0,38.9,19.77,42.11,42.11,0,0,0,17.79-9.46c4.2-3.6,7.79-7.73,9.88-12.94,2.48-6.21,2.08-12.1-2.61-17.23-2-2.22-4.25-4.26-6.39-6.37-.65-.64-1.32-1.27-2-1.9l.22-.28,15.8,6.83,1.78-4.18-60.26-26.31c-.65,1.49-1.2,2.78-1.79,4.13ZM33.47,355.94c.41,1.48.65,2.48,1,3.45a32.3,32.3,0,0,0,1.16,3.07c4.72,10.53,12.73,17.19,23.94,19.69a33,33,0,0,0,24.18-3.85,34,34,0,0,0,16.42-33.6,39.9,39.9,0,0,0-7-16.94c-3.86-5.58-8.48-10.41-14.58-13.57-4.49-2.31-9.15-3.25-14-1.28-.05,0-.18-.15-.36-.31,3.08-4.37,6.17-8.76,9.33-13.23l-3.74-2.6L25.58,359.06l3.72,2.61Zm5.6,21.19a5.87,5.87,0,0,0,.42.69c.45.51.92,1,1.4,1.5a38.78,38.78,0,0,0,15.4,9.51c10,3.26,19.87,3,29.29-1.89,8.27-4.3,13.59-11.27,16.7-20a2,2,0,0,0,0-.67l-1.73-.49c-.25.56-.45,1-.63,1.43A36.24,36.24,0,0,1,94.23,377a30.77,30.77,0,0,1-22.29,11.57,36.17,36.17,0,0,1-25.09-7.12c-2.18-1.62-4.16-3.51-6.28-5.33a3.19,3.19,0,0,0-.44.23C39.8,376.54,39.49,376.8,39.07,377.13Zm194.67-34c-.26.22-.33.25-.36.31-.13.24-.24.49-.36.74-5.74,12.33-15.32,19.74-28.72,22-9.43,1.57-17.72-1.34-25-7.32-2-1.64-3.73-3.57-5.67-5.44l-1.58,1.09a29.21,29.21,0,0,0,5.23,5.61c7.55,6.46,16.25,9.6,26.18,8.39,12.58-1.54,22.27-7.85,29.07-18.55a23.74,23.74,0,0,0,3-6.14Z" transform="translate(-0.41 -0.41)"/>
  <path class="00077f2c-9c24-414e-82f5-2c0c1f957498" d="M56.78,792.41H.41V338.61A4.71,4.71,0,0,1,1.16,340q1.27,6.76,2.45,13.55Q7.45,375.27,11.27,397c2.22,12.55,4.5,25.08,6.73,37.63q3.59,20.24,7.14,40.48l1.71,9.61c17.66-3,35.07-6.15,52.67-9.09,10.2,60,20.35,119.63,30.53,179.52L135.18,651l3.06,17.68,16.86-2.81c-.08,3.5,2.17,6.31,1.41,9.86-26.18,4.49-52.41,8.88-78.72,13.42l6.77,39.76,6.72,39.65-.34.21L68.86,746.25c-.26.79-.46,1.29-.59,1.81Q65,760.8,61.68,773.53Z" transform="translate(-0.41 -0.41)"/>
  <path d="M56.78,792.41l4.9-18.88q3.3-12.74,6.59-25.47c.13-.52.33-1,.59-1.81l22.08,22.48.34-.21-6.72-39.65-6.77-39.76c26.31-4.54,52.54-8.93,78.72-13.42.76-3.55-1.49-6.36-1.41-9.86l-16.86,2.81L135.18,651l-25.13,4.21C99.87,595.28,89.72,535.6,79.52,475.65c-17.6,2.94-35,6.09-52.67,9.09l-1.71-9.61Q21.57,454.88,18,434.65c-2.23-12.55-4.51-25.08-6.73-37.63Q7.41,375.27,3.61,353.5,2.42,346.72,1.16,340a4.71,4.71,0,0,0-.75-1.34v-28A7.4,7.4,0,0,1,1.24,312C4,319.88,6.85,327.73,9.37,335.7a81.43,81.43,0,0,1,2,10.27q2,11.22,4,22.46,3.89,22.07,7.77,44.13c1.59,9,3.23,17.93,4.83,26.9q2.91,16.29,5.78,32.58c.13.73.32,1.44.51,2.25,2.68-.44,5.24-.84,7.79-1.28l17.81-3.11c5.6-1,11.27-1.66,16.79-3,5.86-1.42,11.82-2.22,17.74-3.28,10.24-1.84,20.52-3.5,30.79-5.25L159,452.61l22.47-3.87c.66-.11,1.31-.28,2.29-.5-2.19-5.23-4.28-10.24-6.51-15.58l35.61,4c.49-8.63,1-17,1.44-25.61l11.23.44c-.63-3.74-1.22-7.27-1.85-11l-26.49,7c2.37,4.49,4.67,8.82,7.07,13.35l-4,2.19-7.71-14.34-16.87,4.44c.73,4.39,1.43,8.55,2.15,12.89l-4.42.84c-.75-4.24-1.47-8.31-2.23-12.55l-12.94,3.42c.6,3.7,1.19,7.38,1.82,11.3l-4.38.89c-.67-3.7-1.3-7.25-2-11l-16.51,4.41,6.55,17.18-4.23,1.64-6.8-17.62-21.92,5.95L117.1,445,113,446.84c-2.23-5-4.41-9.95-6.67-15.07L88.43,436.7c1.24,7.4,2.47,14.66,3.73,22.18l-4.45.8c-1.24-7.2-2.45-14.26-3.72-21.62-5.52,1.3-10.83,3-16.46,4.54,1.74,3.32,3.38,6.43,5.14,9.76l-3.94,2.18L63,444l-8.28,2.26c-.43-1.5-.81-2.79-1.24-4.26l7.27-2.24-5.43-10.3,2-1.1c.59-.32,1.19-.62,2-1,2,3.74,4,7.38,6,11.17l17.88-5c-1.41-9-3.07-17.83-4.52-27l4.43-.82c1.53,8.87,3,17.56,4.57,26.54l16.8-4.63-6.4-14.68,4.13-1.87,6.77,15.3,22.14-6c-2.69-7-5.3-13.92-7.91-20.79a5.83,5.83,0,0,1,.86-.57c1-.38,2-.73,3.32-1.18,2.72,7.08,5.42,14.07,8.21,21.33L153,414.42c-.62-3.77-1.2-7.34-1.82-11.19l4.44-.76,1.89,10.76,13-3.46c-1.54-9.16-3.05-18.12-4.59-27.24l4.4-.83c.91,4.48,1.58,8.91,2.34,13.33s1.52,8.9,2.33,13.58l15.38-4.05-3.45-6.72,4-2.09,4.13,7.59L219.31,397l-15.69-13.36c23.68-17.51,50-27.72,79.23-31.39-.45-2.26-.85-4.38-1.3-6.5q-3.58-17.09-7.2-34.18c-1.76-8.31-3.55-16.62-5.29-24.93a2.5,2.5,0,0,0-1.22-1.77c-6.43-3.93-12.81-7.94-19.27-11.81a5.5,5.5,0,0,1-2.94-4.06c-.67-3.77-1.66-7.48-2.58-11.49l-37.32,16.35c3.51-14.34,6.92-28.26,10.33-42.17l-.31-.28c-8.42,5.37-16.64,11.06-25.15,16.5L184,242.22c-1.45-1.25-2.93-2.47-4.35-3.76a2.3,2.3,0,0,0-2.41-.56c-10.24,2.77-20.52,5.41-30.75,8.25-4.74,1.32-9.39,3-14.07,4.52-6.58,2.14-13.14,4.31-19.72,6.45Q97.76,262,82.81,266.85L59,274.54q-12,3.88-24,7.78a18,18,0,0,1-2.79.67q-13.51,2-27,4c-1.56.23-3.13.39-4.69.59v-9l15-2.23c4.55-.66,9.1-1.23,13.63-2a50.93,50.93,0,0,0,6.75-1.71c8.54-2.73,17.06-5.54,25.58-8.32l30.47-9.92q14.53-4.73,29.1-9.46c8-2.58,16-5.33,24.06-7.65,11.39-3.25,22.87-6.17,34.31-9.23l1.49-.37,10.51,9,38.59-25.49.37.2c-2.76,11.32-5.52,22.63-8.26,33.83l9.87,7.33,17.33-7.57a11.68,11.68,0,0,1,.54,1.48q1.83,8,3.63,16c.12.54.3,1.06.38,1.6a3.83,3.83,0,0,0,2,2.88c5,3,9.93,6.08,14.88,9.13,1.58,1,3.12,2,4.74,2.88a3.39,3.39,0,0,1,1.79,2.57c1,5,2.08,10.06,3.14,15.08l5.79,27.34q2.76,13.08,5.55,26.14c.08.39.21.76.3,1.07,2.3,0,4.48.06,6.65,0a167.57,167.57,0,0,1,25,1.31,161.65,161.65,0,0,1,27.11,5.67,164.24,164.24,0,0,1,57,30.22,113,113,0,0,1,27.07,32.47,108.47,108.47,0,0,1,12.59,36.51,102.68,102.68,0,0,1,1.3,15.76v268.7c8.17-6.6,15.74-13.14,23.89-19.28-1.79,13.65-3.58,27.29-5.44,41.42,7.73-4.92,14.78-9.92,22.26-14.66.95,10.78,1.11,21.33,3.65,31.72a23.34,23.34,0,0,0,6.93-3.11,245.3,245.3,0,0,0,22.67-15.58c.37-.28.77-.52,1.31-.88.8,1.73,1.55,3.32,2.28,4.93q5.63,12.56,11.24,25.13a6.25,6.25,0,0,1,.24,1Zm387.29-4.17c0-.94,0-1.68,0-2.42q0-21.18.06-42.37,0-135.26-.05-270.51a105.37,105.37,0,0,0-1.28-15.35,100.07,100.07,0,0,0-9.49-29.84,107,107,0,0,0-24.2-32.15,151.58,151.58,0,0,0-38.19-25,159.87,159.87,0,0,0-46-13.45,164.53,164.53,0,0,0-74.65,7.07,157.76,157.76,0,0,0-35.42,17.12c-1.23.81-2.43,1.68-3.78,2.61l19.48,16.53c6.43,5.45,12.91,10.84,19.18,16.53-10.42-.06-20.71-.95-31.13-1.2-.5,8.78-1,17.28-1.48,25.93l-32.63-3.67,4.36,10.51c-.39.54-.68,1-1,1.43q-8.31,10.07-16.61,20.12c-2.9,3.51-2.89,3.51-7.33,4.65-.9.23-1.78.54-2.7.82v78.77c0,7.06,0,14.13,0,21.19a4.25,4.25,0,0,0,1,3c3.06,3.69,6,7.5,9.06,11.16a3.19,3.19,0,0,1,.66,3.35c-.71,2.5-1.32,5-1.94,7.56-2.42,9.84-4.85,19.69-7.22,29.54-.62,2.59-1.48,5.22-1.49,7.83q-.14,74.06-.06,148.11c0,.67.06,1.34.09,2.11H315.8q13.76-23.87,27.42-47.54c2,8.63,3.21,17.26,4.91,26.17,5.1-4.37,9.85-8.49,14.66-12.54s9.42-8.21,14.66-12.35v23.72c0,1.92,0,3.84,0,5.76s-.09,3.77.11,5.94l37.56-24,7.12,34.89ZM88.34,473.77c9.71,57.11,19.39,114,29.09,171.05l39.09-6.72a28.4,28.4,0,0,1,.37-3.25c1.07-4.46,2.21-8.91,3.3-13.36,2.27-9.18,4.51-18.36,6.8-27.53a3.23,3.23,0,0,0-.74-3.18c-2.86-3.41-5.55-7-8.43-10.36a4.76,4.76,0,0,1-1.16-3.34q0-51.42,0-102.84V472.1a29,29,0,0,1,4.37-1.28,10.93,10.93,0,0,0,8-5.1c1.51-2.17,3.31-4.13,5.29-6.57Zm57,282.52c.81-1.68,2.12-2.68,1.78-4.63-1.71-9.71-3.31-19.44-5-29.16q-2.82-16.62-5.66-33.21a6.66,6.66,0,0,0-.37-1l-15.35,2.64c.35,2,.66,3.83,1,5.64,1.44,8.44,2.87,16.88,4.34,25.31a7.27,7.27,0,0,0,.79,2.31q8.55,15.09,17.17,30.15C144.42,754.91,144.82,755.45,145.38,756.29ZM102.71,694c.09.87.13,1.47.23,2.07q1.69,10.13,3.42,20.24,2,11.75,4,23.48c.84,4.92,1.71,9.84,2.52,14.77a3.73,3.73,0,0,0,2.51,3.06c.54-2,1-3.82,1.54-5.66,2.36-8.65,4.74-17.29,7.08-25.94a5.31,5.31,0,0,0,.11-2.21q-2.58-15.59-5.25-31.18a9.59,9.59,0,0,0-.45-1.3ZM149,749.39c.35-.11.53-.11.59-.19,2.25-3.67,4.53-7.34,6.72-11.05a4.16,4.16,0,0,0,.33-2c0-2.94,0-5.89,0-8.83a35.29,35.29,0,0,0-.17-4.72c-.48-3.38-1.12-6.75-1.69-10.12q-2-11.55-3.92-23.09c-.19-1.12-.43-2.22-.68-3.5l-11.64,2C142.08,708.55,145.55,729,149,749.39Zm-39,3.44.31-.18-9.91-58.26-12.11,2.07c.09.74.13,1.21.21,1.67.77,4.59,1.53,9.19,2.31,13.78,1.43,8.51,2.88,17,4.29,25.53a5,5,0,0,0,1.6,3c4,3.73,8,7.5,12,11.25C109.1,752.07,109.54,752.44,110,752.83Zm34.1-103.41,1.54,8.81,7.86-1.3c-.54-3.08-1-5.88-1.55-8.81ZM230.27,411.8h6.56l-7.21-6.12-.35.19C229.59,407.76,229.91,409.65,230.27,411.8Z" transform="translate(-0.41 -0.41)"/>
  <path class="00077f2c-9c24-414e-82f5-2c0c1f957498" d="M612.21,57.6v68.71c-.36.71-.72,1.42-1.07,2.13a83.79,83.79,0,0,1-24,29.07c-.95.73-2,1.38-3,2.07-2.83-3.11-4.16-6.89-6.23-10.25-.9,4.57-1.73,9.07-2.27,13.6a3.62,3.62,0,0,1-2.39,3.17,82.77,82.77,0,0,1-17.19,6.1,50.54,50.54,0,0,1-10.24,1.63c-.59-2-1.18-3.87-1.85-6.09-.44.63-.72,1-1,1.38-.78,1.36-1.56,2.73-2.31,4.12-.35.63-.72,1.15-1.54,1.14h-5.9l-3-7.9-3.54,7.34c-2.09-.37-4-.69-6-1.06a80.32,80.32,0,0,1-18.5-6,2.36,2.36,0,0,1-1.61-1.92,58.71,58.71,0,0,1-.78-6.29c-.1-4.66,0-9.33,0-14a18.4,18.4,0,0,0-.2-2c-3.86,5.9-7.89,10.95-14,13.77-9.58-7.16-19.05-19.72-22.46-28.05a4.7,4.7,0,0,1,.43-.63,11.1,11.1,0,0,1,10.82-3.49c1.78.37,3.52.88,5.38,1.35.66-3,1.3-5.68,1.9-8.42a7.65,7.65,0,0,1,2.8-4.89c3.17-2.25,6.45-4.34,9.8-6.58.53,1.26,1,2.31,1.48,3.48,1-.39,1.84-.76,2.72-1.08a7.26,7.26,0,0,1,8.46,2.44,9.16,9.16,0,0,1,2.34,7.59c-.15.94-.22,1.91-.3,2.86s-.15,2.12-.25,3.67c.72-.64,1.07-.93,1.39-1.24,1-1,2-2,3.09-3a6.91,6.91,0,0,1,10.6,1,28.13,28.13,0,0,1,2,3.32c.69,1.26,1.28,2.58,1.94,3.86.86,1.68,1.47,1.69,2.5,0,.8-1.28,1.53-2.6,2.37-3.85a29.57,29.57,0,0,1,2.36-3.11,6.55,6.55,0,0,1,6.12-2.19,7,7,0,0,1,4.53,2.58c1.17,1.38,2.36,2.75,3.54,4.13a23.61,23.61,0,0,0,.34-6,9.43,9.43,0,0,1,3-7.57,7.22,7.22,0,0,1,8.81-1.65c.8.38,1.57.8,2.5,1.28a33.8,33.8,0,0,0,1.62-3.43,7.58,7.58,0,0,1,5.33-5c1.92-.59,3.78-1.43,5.66-2.16a5.2,5.2,0,0,0-2.25-.64c-1.57-.14-3.14-.25-4.71-.38A17.54,17.54,0,0,1,555.11,91c-.36-.62-.7-1.26-1.05-1.88a5,5,0,0,0-.65,2.08c-.28,2.25-.46,4.5-.83,6.73-1,5.85-4.37,9.62-10,11.3a8.7,8.7,0,0,1-5.17.24c-1-2.93-2-5.9-3.07-9.21l-2.17,4.09h-3.91c-.57-1.34-1.16-2.7-1.89-4.42-1.41,3.22-2.67,6.14-3.9,9a13.42,13.42,0,0,1-13.91-11.4c-.41-3-.31-6-.46-9,0-.42-.12-.84-.23-1.62-.8,1.16-1.35,2-2,2.83a17.39,17.39,0,0,1-13.4,7.39c-2.25.15-4.52,0-6.78,0h-1.51a3.81,3.81,0,0,0,1.55,1.23c1.72.84,3.45,1.66,5.17,2.51a4.68,4.68,0,0,1,2.72,2.89c-3.35.44-6.59.93-9.84,1.26-9.92,1-18.16-2.31-24.82-9.68-.82-.92-1.59-1.89-2.41-2.81a15.87,15.87,0,0,0-1.2-1.08c.3,6,1.34,11.67,1.41,17.72-.34-.43-.46-.52-.49-.63A81.88,81.88,0,0,1,467.35,48q19.27-29.79,54-37a79,79,0,0,1,26-.91,80.71,80.71,0,0,1,29.15,9.39,83,83,0,0,1,26.42,22.77A87.38,87.38,0,0,1,612.21,57.6Z" transform="translate(-0.41 -0.41)"/>
  <path d="M612.21,57.6a87.38,87.38,0,0,0-9.27-15.42,83,83,0,0,0-26.42-22.77A80.71,80.71,0,0,0,547.37,10a79,79,0,0,0-26,.91q-34.78,7.17-54,37A81.88,81.88,0,0,0,456.3,108.5c0,.11.15.2.49.63-.07-6-1.11-11.69-1.41-17.72a15.87,15.87,0,0,1,1.2,1.08c.82.92,1.59,1.89,2.41,2.81,6.66,7.37,14.9,10.71,24.82,9.68,3.25-.33,6.49-.82,9.84-1.26a4.68,4.68,0,0,0-2.72-2.89c-1.72-.85-3.45-1.67-5.17-2.51a3.81,3.81,0,0,1-1.55-1.23h1.51c2.26,0,4.53.13,6.78,0a17.39,17.39,0,0,0,13.4-7.39c.6-.82,1.15-1.67,2-2.83.11.78.21,1.2.23,1.62.15,3,.05,6.06.46,9a13.42,13.42,0,0,0,13.91,11.4c1.23-2.82,2.49-5.74,3.9-9,.73,1.72,1.32,3.08,1.89,4.42h3.91l2.17-4.09c1.11,3.31,2.1,6.28,3.07,9.21a8.7,8.7,0,0,0,5.17-.24c5.65-1.68,9.06-5.45,10-11.3.37-2.23.55-4.48.83-6.73a5,5,0,0,1,.65-2.08c.35.62.69,1.26,1.05,1.88a17.54,17.54,0,0,0,14.49,9.47c1.57.13,3.14.24,4.71.38a5.2,5.2,0,0,1,2.25.64c-1.88.73-3.74,1.57-5.66,2.16a7.58,7.58,0,0,0-5.33,5,33.8,33.8,0,0,1-1.62,3.43c-.93-.48-1.7-.9-2.5-1.28a7.22,7.22,0,0,0-8.81,1.65,9.43,9.43,0,0,0-3,7.57,23.61,23.61,0,0,1-.34,6c-1.18-1.38-2.37-2.75-3.54-4.13a7,7,0,0,0-4.53-2.58,6.55,6.55,0,0,0-6.12,2.19,29.57,29.57,0,0,0-2.36,3.11c-.84,1.25-1.57,2.57-2.37,3.85-1,1.66-1.64,1.65-2.5,0-.66-1.28-1.25-2.6-1.94-3.86a28.13,28.13,0,0,0-2-3.32,6.91,6.91,0,0,0-10.6-1c-1.06,1-2.06,2-3.09,3-.32.31-.67.6-1.39,1.24.1-1.55.16-2.61.25-3.67s.15-1.92.3-2.86a9.16,9.16,0,0,0-2.34-7.59,7.26,7.26,0,0,0-8.46-2.44c-.88.32-1.75.69-2.72,1.08-.5-1.17-1-2.22-1.48-3.48-3.35,2.24-6.63,4.33-9.8,6.58a7.65,7.65,0,0,0-2.8,4.89c-.6,2.74-1.24,5.47-1.9,8.42-1.86-.47-3.6-1-5.38-1.35a11.1,11.1,0,0,0-10.82,3.49,4.7,4.7,0,0,0-.43.63c3.41,8.33,12.88,20.89,22.46,28.05,6.12-2.82,10.15-7.87,14-13.77a18.4,18.4,0,0,1,.2,2c0,4.66-.12,9.33,0,14a58.71,58.71,0,0,0,.78,6.29,2.36,2.36,0,0,0,1.61,1.92,80.32,80.32,0,0,0,18.5,6c1.94.37,3.89.69,6,1.06l3.54-7.34,3,7.9h5.9c.82,0,1.19-.51,1.54-1.14.75-1.39,1.53-2.76,2.31-4.12.23-.39.51-.75,1-1.38.67,2.22,1.26,4.14,1.85,6.09a50.54,50.54,0,0,0,10.24-1.63,82.77,82.77,0,0,0,17.19-6.1,3.62,3.62,0,0,0,2.39-3.17c.54-4.53,1.37-9,2.27-13.6,2.07,3.36,3.4,7.14,6.23,10.25,1-.69,2-1.34,3-2.07a83.79,83.79,0,0,0,24-29.07c.35-.71.71-1.42,1.07-2.13v32.5L600.93,170c3.71.94,7.54,1,11.28,1.62v2.88c-3,1-6,1.93-9,3a8.85,8.85,0,0,0-5,4.59c-1.36,2.68-2.74,5.35-4.23,8.26-1.45-.8-2.81-1.51-4.14-2.3a12.29,12.29,0,0,0-7.9-1.64,12.7,12.7,0,0,0-1.61.31c-5.91,1.62-11.08,8.16-11.27,14.27-.11,3.7-.2,7.4-.31,11.1,0,.53-.1,1.06-.18,1.9-.54-.58-.91-.94-1.23-1.34-1.84-2.3-3.64-4.64-5.51-6.92-5-6.14-13.1-6.44-18.41-.59a66.55,66.55,0,0,0-4.77,6.16c-1.58,2.23-3,4.55-4.51,6.78l-2.25-.1c-1.28-2.85-2.53-5.81-3.95-8.69a49.87,49.87,0,0,0-3.53-6.25,11.65,11.65,0,0,0-17.31-2.31c-2.31,1.93-4.49,4-6.72,6.06-.51.45-1,.89-1.74,1.54a9.68,9.68,0,0,1,.15-3.14c.45-3.39.93-6.79,1.42-10.18.58-4.1-1-7.51-3.38-10.67a3,3,0,0,0-1-.69c-3.1-1.61-6.19-3.23-9.31-4.78a3.61,3.61,0,0,0-1.94-.33,15.39,15.39,0,0,0-3,.75c-1.36.45-2.69,1-4.17,1.52-.24-.57-.47-1.05-.63-1.55a33.1,33.1,0,0,1-1.43-4.5c-.9-4.88-4.27-7.6-8.27-9.8-3.3-1.8-6.63-3.55-9.94-5.64h5.22c-.92-1.12-1.57-1.87-2.18-2.67-2.35-3.12-4.73-6.21-7-9.39a5.05,5.05,0,0,0-2.71-2,10.85,10.85,0,0,0-13.07,5.05,47.4,47.4,0,0,0-2.81,6.15c-1.06,2.74-1.95,5.56-2.94,8.43l-2.23.39c-1.85-2.31-3.68-4.71-5.63-7a45.22,45.22,0,0,0-4.54-4.74,10.94,10.94,0,0,0-16.54,2c-1.69,2.41-3.25,4.91-4.88,7.37-.29.44-.62.85-1.2,1.65l-.86-7-.75-6.12c0-.2,0-.41-.08-.61-1.3-7.29-10.21-13-16.94-10.82a17.42,17.42,0,0,0-3.47,1.76c-1.16.7-2.25,1.54-3.55,2.45-.49-.74-.95-1.39-1.37-2.06-1.1-1.73-2.21-3.47-3.27-5.23a9.13,9.13,0,0,0-6-4.3c-4.07-.95-8.12-1.95-12.18-2.94a1.6,1.6,0,0,1-1-.65c.79-.19,1.58-.39,2.37-.56,3.75-.8,7.54-1.46,11.25-2.41,9.41-2.38,15.93-8.19,19.7-17.11a30,30,0,0,1,2.26-4.75c.2.68.42,1.35.59,2,1,4,1.94,8,2.95,12A21.93,21.93,0,0,0,410,134.91c.94-.08,1.88-.31,2.95-.5l3.09-16,4.61,6.56,6-1c.61-2.19,1.31-4.74,2.16-7.75,2.85,4.9,5.49,9.41,8.14,14a15.21,15.21,0,0,0,6.48-1.56c-.71-2.13-1.39-4.19-2.07-6.25a96,96,0,0,1-4.69-27.67,98.94,98.94,0,0,1,6.86-39.42,100.05,100.05,0,0,1,30.54-41.59A102,102,0,0,1,494.37.9,2.65,2.65,0,0,0,495,.41h83.93C582,2,585.1,3.54,588.1,5.29A98.42,98.42,0,0,1,612.21,25.1ZM478.73,177.83c1.14-.39,2.09-.74,3.06-1,5.27-1.62,10.19-.8,14.15,3,4.86,4.67,7.71,10.29,6.2,17.37-.35,1.63-.43,3.31-.64,5a17.87,17.87,0,0,0,3.51-2.66c6.94-6.17,16.51-4.87,21.72,2.83,2.24,3.33,3.69,7,5.36,10.63.33.71.68,1.41,1.15,2.37,1.68-2.52,3.06-4.81,4.65-6.95a55.19,55.19,0,0,1,4.87-5.82,12.68,12.68,0,0,1,9-3.85A14,14,0,0,1,563.34,204c1,1.18,1.94,2.39,2.91,3.59a47.27,47.27,0,0,0,.65-7.26,14.07,14.07,0,0,1,3.41-8.84c.79-1,1.63-1.85,2.48-2.75a14.37,14.37,0,0,1,17.85-2.83l2.42,1.3c1-1.9,1.93-3.64,2.76-5.43a12.1,12.1,0,0,1,8-6.89c1.29-.38,2.54-.88,3.81-1.32a10.47,10.47,0,0,0-2.87-.68,32.25,32.25,0,0,1-24.8-15.29,13.41,13.41,0,0,0-1-1.19c-.46,2.94-.83,5.58-1.3,8.21-2,10.88-8.22,18-18.84,21.13a23.56,23.56,0,0,1-11.86.26c-1.17-4.11-2.34-8.16-3.62-12.66l-2.81,4.84c-1.54-.63-2.83-1.5-4.19-1.62s-2.76.55-4.26.9c-.64-1.66-1.25-3.22-2-5.18l-5.72,12.05c-1.55-.12-3-.19-4.4-.35a25.33,25.33,0,0,1-22.14-22.76c-.25-3.06-.1-6.16-.13-9.24v-2c-8.43,9.27-18.75,13-31,11.84a19.83,19.83,0,0,0,3.36,2,12.22,12.22,0,0,1,6.88,8.23C477.39,174,478.08,175.84,478.73,177.83Zm-20-30c-.13-.8-.17-1.26-.27-1.7-.44-2.08-1-4.13-1.33-6.23-.68-4.18,1-7.77,3-11.26a13.71,13.71,0,0,1,15.49-6.51c.78.2,1.57.36,2.52.57.45-2,.93-3.83,1.28-5.7a11.37,11.37,0,0,1,5.61-8c.91-.53,1.77-1.16,2.65-1.74l-.1-.48c-11.16,2-20.93-.65-29.43-8.89.26,2.91.42,5.28.68,7.65a24.16,24.16,0,0,1-18.12,26.33,12,12,0,0,1-5.08.55c-2-3.38-3.93-6.73-6.09-10.43-.56,1.87-1,3.35-1.49,4.93-1.43-.21-2.82-.75-4.08-.52s-2.52,1.21-3.82,1.88l-2.92-4c-.21.73-.38,1.18-.46,1.64-.56,2.89-1.19,5.77-1.62,8.68-.19,1.34-.8,1.8-2,2.08a24.22,24.22,0,0,1-28.84-17.32c-.61-2.25-1.12-4.52-1.7-6.78a12.24,12.24,0,0,0-.57-1.43c-5.23,10.54-13.7,16.24-24.95,18.17a39.43,39.43,0,0,0,4.19,1.2,10.74,10.74,0,0,1,6.69,4.77c.92,1.44,1.81,2.91,2.74,4.35.28.43.64.82,1,1.27.92-.61,1.7-1.17,2.52-1.66,4.18-2.49,8.65-3,12.94-.77,5.69,3,9.92,7.31,10.32,14.28.1,1.67.42,3.33.64,5a11.32,11.32,0,0,0,2.29-2.82,13.47,13.47,0,0,1,20.93-2.68,96,96,0,0,1,7.27,8.37c.44.54.91,1.06,1.53,1.77.46-1.33.79-2.3,1.14-3.26a62.4,62.4,0,0,1,3.78-9.31c4.3-7.75,13.19-9.76,20.3-4.5Zm70.36-19.49c.72-1.17,1.19-2,1.72-2.77a47.93,47.93,0,0,1,3.06-4.36c3.55-4.17,9-4.17,12.7-.08l1.91,2.1c0-1.41.06-2.28,0-3.15-.32-3.58,1.2-6.36,3.66-8.78a8.37,8.37,0,0,1,9.31-1.76c.62.26,1.23.56,1.89.86,1-1.82,1.66-3.81,3-5.2s3.2-2.15,5.1-3.35a19.88,19.88,0,0,1-16.93-9.42c-.28,2.18-.5,3.84-.7,5.51a14.71,14.71,0,0,1-17.25,12.63c-.75-2.22-1.53-4.51-2.41-7.13l-1.73,2.79a5,5,0,0,0-4.73-.3L526.29,103c-1.13,2.57-2.11,4.81-3.06,6.95a14.61,14.61,0,0,1-15.45-10.5,25.75,25.75,0,0,1-.63-4.66c-.13-1.32-.15-2.64-.25-4.45-4.76,6-10.64,8.25-17.69,8.1,2.28,1.37,4.83,2.25,5.71,5l2.8-.19c-.9.73-1.51,1.21-2.19,1.77.32.85.61,1.64.93,2.5.82-.29,1.39-.51,2-.7a7.77,7.77,0,0,1,7.61,1.1c2.94,2.36,4.93,5.33,4.56,9.37-.12,1.27-.22,2.54-.33,3.79.2,0,.3.09.33.06l2.14-1.9a8.06,8.06,0,0,1,12,1.16,31.86,31.86,0,0,1,2.28,3.65C527.67,125.3,528.26,126.61,529.11,128.31Z" transform="translate(-0.41 -0.41)"/>
  <path class="00077f2c-9c24-414e-82f5-2c0c1f957498" d="M612.21,25.1A98.42,98.42,0,0,0,588.1,5.29C585.1,3.54,582,2,578.88.41h33.33Z" transform="translate(-0.41 -0.41)"/>
  <path class="00077f2c-9c24-414e-82f5-2c0c1f957498" d="M612.21,171.57c-3.74-.67-7.57-.68-11.28-1.62l11.28-11.14Z" transform="translate(-0.41 -0.41)"/>
  <path d="M414.42,200.4c1.61,2.69,3.21,5.4,4.83,8.08a36.3,36.3,0,0,0,15.23,14,37.34,37.34,0,0,0,15.46,3.77l18.29.65a4.51,4.51,0,0,1,2,.49c-.66.31-1.31.63-2,.92-6,2.58-11.92,5.21-17.92,7.73a11.16,11.16,0,0,0-6.42,6.54c-1.19,3.06-2.48,6.08-3.74,9.12-.25.63-.56,1.23-.92,2-2.19-1-4.28-2-6.38-3a15,15,0,0,0-11.2-.49c-4.8,1.54-11.85,10.4-11.61,15.65,0,.69,0,1.37,0,2.06.29,5.4.59,10.81.87,16.22,0,.74,0,1.49,0,2.53a16.08,16.08,0,0,1-1.29-1.08c-3.29-3.5-6.48-7.09-9.85-10.5a13.57,13.57,0,0,0-14.89-3.61,10.76,10.76,0,0,0-5.08,3.37,61.75,61.75,0,0,0-4.95,6.8c-2.29,3.81-4.32,7.77-6.53,11.79l-2.12-.79-2,.82c-.37-.64-.73-1.21-1.06-1.8-1.52-2.76-2.95-5.58-4.58-8.27a73.68,73.68,0,0,0-4.89-7.34,13.61,13.61,0,0,0-20.9-1.09c-3.25,3.34-6.38,6.8-9.55,10.22a17,17,0,0,0-1.2,1.59l-.53-.31c.11-2.56.2-5.12.33-7.68q.28-5.34.63-10.68a14.89,14.89,0,0,0-3.42-10.69c-.69-.85-1.33-1.75-2-2.6a14.23,14.23,0,0,0-17.22-4.2c-1.63.72-3.22,1.53-4.83,2.28-.54.25-1.12.44-1.79.7-.33-.73-.61-1.34-.87-2-1.31-3.17-2.63-6.33-3.91-9.5a10.61,10.61,0,0,0-5.9-6q-9.06-3.88-18.1-7.82c-.68-.29-1.35-.61-2.48-1.12a18.05,18.05,0,0,1,1.85-.32c6.24-.23,12.47-.47,18.7-.68a37,37,0,0,0,20.24-6.56,36,36,0,0,0,10.37-11c1.35-2.22,2.66-4.47,4-6.7.31-.51.65-1,1.26-1.91.16,1.38.3,2.29.36,3.2.46,6.36.94,12.71,1.35,19.07a28.08,28.08,0,0,0,28.34,26.19c.34,0,.68,0,1.21-.08,2.62-7,5.25-14,8-21.42l5.2,11.25,2.37-.72,1.07,1.46.86-1.49,2.44.78c1.67-3.58,3.33-7.15,5.18-11.14,1.65,3.75,2.8,7.28,4.12,10.74s2.59,6.93,3.91,10.46a19.92,19.92,0,0,0,7.54-.45,27.94,27.94,0,0,0,22-25.13c.58-7.1,1.06-14.21,1.6-21.32,0-.32.06-.65.1-1Zm3.16,13.82c-.17,2.14-.32,3.75-.42,5.37a40.61,40.61,0,0,1-2.58,13.25A32.85,32.85,0,0,1,381,253a1.93,1.93,0,0,1-1.9-1.49c-1.27-3.55-2.6-7.07-3.93-10.6-.2-.52-.48-1-.85-1.78l-2.42,5a24.07,24.07,0,0,1-3-1.14,5.17,5.17,0,0,0-5.24,0,23.19,23.19,0,0,1-3.08,1.16L358.08,239c-1.84,4.88-3.52,9.36-5.25,14-1.71.06-3.35.17-5,.16a32.27,32.27,0,0,1-31.47-25.49c-.77-3.67-.84-7.48-1.24-11.22-.06-.55-.14-1.1-.27-2.05-8.48,10.62-19.23,15.93-32.35,16.67a2.12,2.12,0,0,0,.86.63,16,16,0,0,1,9.89,10.31c.66,1.87,1.5,3.67,2.3,5.63l2.93-1.24a18.73,18.73,0,0,1,21.79,5.34c1.06,1.26,2.06,2.57,3,3.89a18.57,18.57,0,0,1,3.73,11.73c-.05,1.92-.22,3.83-.31,5.75a11.82,11.82,0,0,0,.17,1.62c.9-.95,1.56-1.63,2.19-2.34a18.42,18.42,0,0,1,28.54,1.3,100.38,100.38,0,0,1,7.41,12.07c.36.63.74,1.25,1.24,2.09,1.31-2.37,2.52-4.43,3.61-6.56a45.25,45.25,0,0,1,5.62-8.33,17.53,17.53,0,0,1,14.18-6.7,18.27,18.27,0,0,1,13.39,5.8,14.2,14.2,0,0,0,2.45,2.38c.11-.31.2-.43.19-.55a30,30,0,0,0-.1-3.29,21.23,21.23,0,0,1,5.72-17.78c.14-.15.25-.33.38-.49a18.76,18.76,0,0,1,23.09-5.59c.66.3,1.34.56,2.12.88.93-2.24,1.85-4.3,2.64-6.41a15.37,15.37,0,0,1,9-9.29,15.45,15.45,0,0,0,1.46-.75,47.77,47.77,0,0,1-17.91-4.7A42.88,42.88,0,0,1,417.58,214.22Z" transform="translate(-0.41 -0.41)"/>
  <path d="M182.84,293.15l-3-1.49c.59-1.35,1.14-2.64,1.79-4.13l60.26,26.31L240.16,318l-15.8-6.83-.22.28c.67.63,1.34,1.26,2,1.9,2.14,2.11,4.36,4.15,6.39,6.37,4.69,5.13,5.09,11,2.61,17.23-2.09,5.21-5.68,9.34-9.88,12.94a42.11,42.11,0,0,1-17.79,9.46,33.74,33.74,0,0,1-38.9-19.77,34.13,34.13,0,0,1-2.3-17.53,44.7,44.7,0,0,1,7.54-20.62,24.56,24.56,0,0,1,7.61-7.37C181.81,293.84,182.2,293.57,182.84,293.15Zm38.7,22-.47.34a24.5,24.5,0,0,1,2.34,16.35,23.21,23.21,0,0,1-8.9,14.1,22.76,22.76,0,0,1-26.89.2,23.83,23.83,0,0,1-8.93-26.45,22.31,22.31,0,0,1,9.84-13,23.75,23.75,0,0,1,15.88-3.36,6.91,6.91,0,0,0-1.68-1.21q-5.28-2.52-10.58-5a8,8,0,0,0-6-.18,16.09,16.09,0,0,0-7.7,5.9,37.61,37.61,0,0,0-7.19,16.63,32,32,0,0,0,.89,16.64,29.24,29.24,0,0,0,32.77,19.1,37,37,0,0,0,16.44-8,30.62,30.62,0,0,0,9.51-11.91c1.66-4,1.95-8-.94-11.46C227.35,320.76,224.35,318,221.54,315.16Zm-20.63,18.92a6.77,6.77,0,1,0-6.79-6.72A6.68,6.68,0,0,0,200.91,334.08Z" transform="translate(-0.41 -0.41)"/>
  <path d="M33.47,355.94l-4.17,5.73-3.72-2.61,44.19-62.29,3.74,2.6c-3.16,4.47-6.25,8.86-9.33,13.23.18.16.31.33.36.31,4.9-2,9.56-1,14,1.28,6.1,3.16,10.72,8,14.58,13.57a39.9,39.9,0,0,1,7,16.94,34,34,0,0,1-16.42,33.6,33,33,0,0,1-24.18,3.85c-11.21-2.5-19.22-9.16-23.94-19.69a32.3,32.3,0,0,1-1.16-3.07C34.12,358.42,33.88,357.42,33.47,355.94Zm62.41-6.77a28.41,28.41,0,0,0-2.09-10.61,42.5,42.5,0,0,0-8.28-13.13,29,29,0,0,0-11.58-8.26c-4.46-1.59-8-.8-11.11,2.77-4.16,4.73-8.3,9.48-12.28,14.35a145.12,145.12,0,0,0-10.79,15c-2,3.19-1.93,6.21-.72,9.53a29.26,29.26,0,0,0,56.85-9.63Z" transform="translate(-0.41 -0.41)"/>
  <path d="M39.07,377.13c.42-.33.73-.59,1.06-.83a3.19,3.19,0,0,1,.44-.23c2.12,1.82,4.1,3.71,6.28,5.33a36.17,36.17,0,0,0,25.09,7.12A30.77,30.77,0,0,0,94.23,377a36.24,36.24,0,0,0,5.65-9.72c.18-.44.38-.87.63-1.43l1.73.49a2,2,0,0,1,0,.67c-3.11,8.71-8.43,15.68-16.7,20-9.42,4.89-19.28,5.15-29.29,1.89a38.78,38.78,0,0,1-15.4-9.51c-.48-.48-1-1-1.4-1.5A5.87,5.87,0,0,1,39.07,377.13Z" transform="translate(-0.41 -0.41)"/>
  <path d="M233.74,343.15l1.76.65a23.74,23.74,0,0,1-3,6.14c-6.8,10.7-16.49,17-29.07,18.55-9.93,1.21-18.63-1.93-26.18-8.39a29.21,29.21,0,0,1-5.23-5.61l1.58-1.09c1.94,1.87,3.68,3.8,5.67,5.44,7.27,6,15.56,8.89,25,7.32,13.4-2.22,23-9.63,28.72-22,.12-.25.23-.5.36-.74C233.41,343.4,233.48,343.37,233.74,343.15Z" transform="translate(-0.41 -0.41)"/>
  <path class="00077f2c-9c24-414e-82f5-2c0c1f957498" d="M444.07,788.24H422.24l-7.12-34.89-37.56,24c-.2-2.17-.09-4.06-.11-5.94s0-3.84,0-5.76V742c-5.24,4.14-9.87,8.34-14.66,12.35s-9.56,8.17-14.66,12.54c-1.7-8.91-2.91-17.54-4.91-26.17q-13.7,23.72-27.42,47.54H161.31c0-.77-.09-1.44-.09-2.11q0-74.05.06-148.11c0-2.61.87-5.24,1.49-7.83,2.37-9.85,4.8-19.7,7.22-29.54.62-2.53,1.23-5.06,1.94-7.56a3.19,3.19,0,0,0-.66-3.35c-3.1-3.66-6-7.47-9.06-11.16a4.25,4.25,0,0,1-1-3c0-7.06,0-14.13,0-21.19V475.61c.92-.28,1.8-.59,2.7-.82,4.44-1.14,4.43-1.14,7.33-4.65q8.3-10.06,16.61-20.12c.34-.42.63-.89,1-1.43l-4.36-10.51,32.63,3.67c.49-8.65,1-17.15,1.48-25.93,10.42.25,20.71,1.14,31.13,1.2-6.27-5.69-12.75-11.08-19.18-16.53L211.1,384c1.35-.93,2.55-1.8,3.78-2.61a157.76,157.76,0,0,1,35.42-17.12A164.53,164.53,0,0,1,325,357.16a159.87,159.87,0,0,1,46,13.45,151.58,151.58,0,0,1,38.19,25,107,107,0,0,1,24.2,32.15,100.07,100.07,0,0,1,9.49,29.84,105.37,105.37,0,0,1,1.28,15.35q.12,135.26.05,270.51,0,21.18-.06,42.37C444.06,786.56,444.07,787.3,444.07,788.24ZM245.26,515.55l1.24-.93a31.64,31.64,0,0,0,10.29-11.51,12.58,12.58,0,0,0-4-16.41,20.89,20.89,0,0,0-7.7-3.27,73.53,73.53,0,0,0-15.51-1.62c-8.84-.07-17.68,0-26.52-.05h-7.14c.37,2.22.7,4.21,1,6.27l10.33,1.1c.53,18.59.41,36.92,0,55.47l-10.17,1.09-1.35,6.5a347.49,347.49,0,0,1,39.13,0c-.43-2.29-.82-4.35-1.23-6.48l-5-.52-4.74-.53c-.62-2.93-.82-21.43-.28-23.23,1.38-.09,2.82-.09,4.23-.29a2.58,2.58,0,0,1,2.48,1c6.14,6.53,12.25,13.11,18.58,19.46,3.85,3.87,8.06,7.39,12.15,11a6.56,6.56,0,0,0,6.42,1.7,59.8,59.8,0,0,1,6.58-1C262.58,541.86,254,528.81,245.26,515.55ZM363.35,545.7l-1.2,6.47a400.1,400.1,0,0,1,41.56,0c-.57-2.32-1.09-4.41-1.59-6.45-4.17-.69-8.24-.48-12.09-1.42-.75-7.62-.64-52.43.14-55.42,3.47.17,6.93.48,10.09,2.15a10.22,10.22,0,0,1,5.3,6.27,15.67,15.67,0,0,1-.58,10.48c-1.94,4.74-5.77,7.32-10.44,8.88-1.16.39-2.35.68-3.59,1a61.48,61.48,0,0,0-.77,6.5,6,6,0,0,0,.83.05,43.24,43.24,0,0,0,21.69-8.05c5.52-4.08,9-9.49,9.68-16.5a13,13,0,0,0-3.52-10.57,18.41,18.41,0,0,0-6.4-4.38,39.61,39.61,0,0,0-14.63-2.9c-9.94-.24-19.88-.25-29.81-.33-1.82,0-3.65.1-5.72.16.33,2.22.63,4.2.92,6.14,1.94.18,3.57.32,5.2.5s3.37.41,5.25.65c.48,18.56.42,36.95,0,55.53Zm-41.21-1.12c-.41-18.65-.5-37,0-55.49l10.11-1.44c.53-2.15,1-4.23,1.58-6.39a367.5,367.5,0,0,1-39.69.05c.39,1.68.73,3.26,1.13,4.82s.45,1.62,2.2,1.82c2.7.3,5.4.66,8.31,1,.49,18.56.47,36.95,0,55.53l-10.28,1.2c-.39,2.12-.78,4.18-1.2,6.45a358.85,358.85,0,0,1,39.63,0c-.62-2.37-1.17-4.46-1.71-6.5Z" transform="translate(-0.41 -0.41)"/>
  <path class="00077f2c-9c24-414e-82f5-2c0c1f957498" d="M230.27,411.8c-.36-2.15-.68-4-1-5.93l.35-.19,7.21,6.12Z" transform="translate(-0.41 -0.41)"/>
  <path class="00077f2c-9c24-414e-82f5-2c0c1f957498" d="M478.73,177.83c-.65-2-1.34-3.83-1.85-5.73a12.22,12.22,0,0,0-6.88-8.23,19.83,19.83,0,0,1-3.36-2c12.27,1.13,22.59-2.57,31-11.84v2c0,3.08-.12,6.18.13,9.24A25.33,25.33,0,0,0,519.93,184c1.41.16,2.85.23,4.4.35l5.72-12.05c.75,2,1.36,3.52,2,5.18,1.5-.35,2.91-1,4.26-.9s2.65,1,4.19,1.62l2.81-4.84c1.28,4.5,2.45,8.55,3.62,12.66a23.56,23.56,0,0,0,11.86-.26c10.62-3.14,16.87-10.25,18.84-21.13.47-2.63.84-5.27,1.3-8.21a13.41,13.41,0,0,1,1,1.19,32.25,32.25,0,0,0,24.8,15.29,10.47,10.47,0,0,1,2.87.68c-1.27.44-2.52.94-3.81,1.32a12.1,12.1,0,0,0-8,6.89c-.83,1.79-1.79,3.53-2.76,5.43l-2.42-1.3a14.37,14.37,0,0,0-17.85,2.83c-.85.9-1.69,1.8-2.48,2.75a14.07,14.07,0,0,0-3.41,8.84,47.27,47.27,0,0,1-.65,7.26c-1-1.2-1.92-2.41-2.91-3.59a14,14,0,0,0-11.54-5.27,12.68,12.68,0,0,0-9,3.85,55.19,55.19,0,0,0-4.87,5.82c-1.59,2.14-3,4.43-4.65,6.95-.47-1-.82-1.66-1.15-2.37-1.67-3.6-3.12-7.3-5.36-10.63-5.21-7.7-14.78-9-21.72-2.83a17.87,17.87,0,0,1-3.51,2.66c.21-1.66.29-3.34.64-5,1.51-7.08-1.34-12.7-6.2-17.37-4-3.81-8.88-4.63-14.15-3C480.82,177.09,479.87,177.44,478.73,177.83Z" transform="translate(-0.41 -0.41)"/>
  <path class="00077f2c-9c24-414e-82f5-2c0c1f957498" d="M458.75,147.8l-3.37-2.52c-7.11-5.26-16-3.25-20.3,4.5a62.4,62.4,0,0,0-3.78,9.31c-.35,1-.68,1.93-1.14,3.26-.62-.71-1.09-1.23-1.53-1.77a96,96,0,0,0-7.27-8.37,13.47,13.47,0,0,0-20.93,2.68,11.32,11.32,0,0,1-2.29,2.82c-.22-1.66-.54-3.32-.64-5-.4-7-4.63-11.28-10.32-14.28-4.29-2.26-8.76-1.72-12.94.77-.82.49-1.6,1-2.52,1.66-.35-.45-.71-.84-1-1.27-.93-1.44-1.82-2.91-2.74-4.35a10.74,10.74,0,0,0-6.69-4.77,39.43,39.43,0,0,1-4.19-1.2c11.25-1.93,19.72-7.63,24.95-18.17a12.24,12.24,0,0,1,.57,1.43c.58,2.26,1.09,4.53,1.7,6.78a24.22,24.22,0,0,0,28.84,17.32c1.24-.28,1.85-.74,2-2.08.43-2.91,1.06-5.79,1.62-8.68.08-.46.25-.91.46-1.64l2.92,4c1.3-.67,2.49-1.64,3.82-1.88s2.65.31,4.08.52c.48-1.58.93-3.06,1.49-4.93,2.16,3.7,4.11,7,6.09,10.43a12,12,0,0,0,5.08-.55,24.16,24.16,0,0,0,18.12-26.33c-.26-2.37-.42-4.74-.68-7.65,8.5,8.24,18.27,10.91,29.43,8.89l.1.48c-.88.58-1.74,1.21-2.65,1.74a11.37,11.37,0,0,0-5.61,8c-.35,1.87-.83,3.71-1.28,5.7-.95-.21-1.74-.37-2.52-.57a13.71,13.71,0,0,0-15.49,6.51c-2.05,3.49-3.72,7.08-3,11.26.35,2.1.89,4.15,1.33,6.23C458.58,146.54,458.62,147,458.75,147.8Z" transform="translate(-0.41 -0.41)"/>
  <path class="00077f2c-9c24-414e-82f5-2c0c1f957498" d="M529.11,128.31c-.85-1.7-1.44-3-2.13-4.25a31.86,31.86,0,0,0-2.28-3.65,8.06,8.06,0,0,0-12-1.16l-2.14,1.9s-.13,0-.33-.06c.11-1.25.21-2.52.33-3.79.37-4-1.62-7-4.56-9.37a7.77,7.77,0,0,0-7.61-1.1c-.57.19-1.14.41-2,.7-.32-.86-.61-1.65-.93-2.5.68-.56,1.29-1,2.19-1.77l-2.8.19c-.88-2.72-3.43-3.6-5.71-5,7.05.15,12.93-2.14,17.69-8.1.1,1.81.12,3.13.25,4.45a25.75,25.75,0,0,0,.63,4.66A14.61,14.61,0,0,0,523.23,110c.95-2.14,1.93-4.38,3.06-6.95l1.38,2.86a5,5,0,0,1,4.73.3l1.73-2.79c.88,2.62,1.66,4.91,2.41,7.13a14.71,14.71,0,0,0,17.25-12.63c.2-1.67.42-3.33.7-5.51a19.88,19.88,0,0,0,16.93,9.42c-1.9,1.2-3.83,2-5.1,3.35s-2,3.38-3,5.2c-.66-.3-1.27-.6-1.89-.86a8.37,8.37,0,0,0-9.31,1.76c-2.46,2.42-4,5.2-3.66,8.78.07.87,0,1.74,0,3.15l-1.91-2.1c-3.66-4.09-9.15-4.09-12.7.08a47.93,47.93,0,0,0-3.06,4.36C530.3,126.32,529.83,127.14,529.11,128.31Z" transform="translate(-0.41 -0.41)"/>
  <path class="00077f2c-9c24-414e-82f5-2c0c1f957498" d="M417.58,214.22a42.88,42.88,0,0,0,14.58,12.16,47.77,47.77,0,0,0,17.91,4.7,15.45,15.45,0,0,1-1.46.75,15.37,15.37,0,0,0-9,9.29c-.79,2.11-1.71,4.17-2.64,6.41-.78-.32-1.46-.58-2.12-.88a18.76,18.76,0,0,0-23.09,5.59c-.13.16-.24.34-.38.49a21.23,21.23,0,0,0-5.72,17.78,30,30,0,0,1,.1,3.29c0,.12-.08.24-.19.55a14.2,14.2,0,0,1-2.45-2.38,18.27,18.27,0,0,0-13.39-5.8,17.53,17.53,0,0,0-14.18,6.7,45.25,45.25,0,0,0-5.62,8.33c-1.09,2.13-2.3,4.19-3.61,6.56-.5-.84-.88-1.46-1.24-2.09a100.38,100.38,0,0,0-7.41-12.07,18.42,18.42,0,0,0-28.54-1.3c-.63.71-1.29,1.39-2.19,2.34a11.82,11.82,0,0,1-.17-1.62c.09-1.92.26-3.83.31-5.75a18.57,18.57,0,0,0-3.73-11.73c-1-1.32-2-2.63-3-3.89a18.73,18.73,0,0,0-21.79-5.34l-2.93,1.24c-.8-2-1.64-3.76-2.3-5.63a16,16,0,0,0-9.89-10.31,2.12,2.12,0,0,1-.86-.63c13.12-.74,23.87-6,32.35-16.67.13.95.21,1.5.27,2.05.4,3.74.47,7.55,1.24,11.22a32.27,32.27,0,0,0,31.47,25.49c1.63,0,3.27-.1,5-.16,1.73-4.6,3.41-9.08,5.25-14l2.51,5.15a23.19,23.19,0,0,0,3.08-1.16,5.17,5.17,0,0,1,5.24,0,24.07,24.07,0,0,0,3,1.14l2.42-5c.37.76.65,1.26.85,1.78,1.33,3.53,2.66,7.05,3.93,10.6A1.93,1.93,0,0,0,381,253a32.85,32.85,0,0,0,33.56-20.17,40.61,40.61,0,0,0,2.58-13.25C417.26,218,417.41,216.36,417.58,214.22Z" transform="translate(-0.41 -0.41)"/>
  <path class="00077f2c-9c24-414e-82f5-2c0c1f957498" d="M221.54,315.16c2.81,2.88,5.81,5.6,8.38,8.68,2.89,3.46,2.6,7.5.94,11.46a30.62,30.62,0,0,1-9.51,11.91,37,37,0,0,1-16.44,8,29.24,29.24,0,0,1-32.77-19.1,32,32,0,0,1-.89-16.64,37.61,37.61,0,0,1,7.19-16.63,16.09,16.09,0,0,1,7.7-5.9,8,8,0,0,1,6,.18q5.29,2.46,10.58,5a6.91,6.91,0,0,1,1.68,1.21,23.75,23.75,0,0,0-15.88,3.36,22.31,22.31,0,0,0-9.84,13,23.83,23.83,0,0,0,8.93,26.45,22.76,22.76,0,0,0,26.89-.2,23.21,23.21,0,0,0,8.9-14.1,24.5,24.5,0,0,0-2.34-16.35Z" transform="translate(-0.41 -0.41)"/>
  <path class="00077f2c-9c24-414e-82f5-2c0c1f957498" d="M200.91,334.08a6.66,6.66,0,0,1-6.79-6.72,6.76,6.76,0,1,1,6.79,6.72Zm2.12-6.73a2.21,2.21,0,0,0-2.19-2.24,2.28,2.28,0,0,0-2.15,2.28,2.21,2.21,0,0,0,2.1,2.12A2.17,2.17,0,0,0,203,327.35Z" transform="translate(-0.41 -0.41)"/>
  <path class="00077f2c-9c24-414e-82f5-2c0c1f957498" d="M95.88,349.17A29.26,29.26,0,0,1,39,358.8c-1.21-3.32-1.29-6.34.72-9.53a145.12,145.12,0,0,1,10.79-15c4-4.87,8.12-9.62,12.28-14.35,3.13-3.57,6.65-4.36,11.11-2.77a29,29,0,0,1,11.58,8.26,42.5,42.5,0,0,1,8.28,13.13A28.41,28.41,0,0,1,95.88,349.17Zm-22.52,0a6.72,6.72,0,1,0-13.44,0,6.72,6.72,0,1,0,13.44,0Z" transform="translate(-0.41 -0.41)"/>
  <path d="M245.26,515.55c8.71,13.26,17.32,26.31,28.8,37.72a59.8,59.8,0,0,0-6.58,1,6.56,6.56,0,0,1-6.42-1.7c-4.09-3.63-8.3-7.15-12.15-11-6.33-6.35-12.44-12.93-18.58-19.46a2.58,2.58,0,0,0-2.48-1c-1.41.2-2.85.2-4.23.29-.54,1.8-.34,20.3.28,23.23l4.74.53,5,.52c.41,2.13.8,4.19,1.23,6.48a347.49,347.49,0,0,0-39.13,0l1.35-6.5,10.17-1.09c.42-18.55.54-36.88,0-55.47L197,488c-.34-2.06-.67-4-1-6.27h7.14c8.84,0,17.68,0,26.52.05a73.53,73.53,0,0,1,15.51,1.62,20.89,20.89,0,0,1,7.7,3.27,12.58,12.58,0,0,1,4,16.41,31.64,31.64,0,0,1-10.29,11.51ZM218.89,547V486.29h-6c-.33,0-.66.05-1.06.09.7,20.21.55,40.32,0,60.56Zm4.29-33.06a22.91,22.91,0,0,0,12.24-3.05,12.25,12.25,0,0,0,5.44-6.24c2.07-5.49.78-9.66-4.3-12.62a23.1,23.1,0,0,0-9.17-2.8c-1.19-.13-2.39-.18-3.87-.29C223.41,497.35,223.3,505.53,223.18,513.89Zm38.57,33a316.23,316.23,0,0,1-22.58-32.81l-6.66,3.22C235,521.32,257.69,544.45,261.75,546.93Zm-19.81-35.25c4.35-1.81,9.53-7.25,11.08-11.4s.36-7.75-3.37-10.14-8.05-2.76-12.4-3.18c4.51,2.47,8.19,5.61,8.91,11C246.86,503.15,245.22,507.67,241.94,511.68Z" transform="translate(-0.41 -0.41)"/>
  <path d="M363.35,545.7l10.29-1.22c.45-18.58.51-37,0-55.53-1.88-.24-3.56-.46-5.25-.65s-3.26-.32-5.2-.5c-.29-1.94-.59-3.92-.92-6.14,2.07-.06,3.9-.17,5.72-.16,9.93.08,19.87.09,29.81.33a39.61,39.61,0,0,1,14.63,2.9,18.41,18.41,0,0,1,6.4,4.38,13,13,0,0,1,3.52,10.57c-.66,7-4.16,12.42-9.68,16.5A43.24,43.24,0,0,1,391,524.23a6,6,0,0,1-.83-.05,61.48,61.48,0,0,1,.77-6.5c1.24-.36,2.43-.65,3.59-1,4.67-1.56,8.5-4.14,10.44-8.88a15.67,15.67,0,0,0,.58-10.48,10.22,10.22,0,0,0-5.3-6.27c-3.16-1.67-6.62-2-10.09-2.15-.78,3-.89,47.8-.14,55.42,3.85.94,7.92.73,12.09,1.42.5,2,1,4.13,1.59,6.45a400.1,400.1,0,0,0-41.56,0Zm22,1.37c-.46-20.5-.56-40.68,0-60.92h-7.23c.62,20.34.47,40.51,0,60.76.62.06,1.08.15,1.55.15C381.53,547.08,383.37,547.07,385.4,547.07Zm17.83-60c10,8.39,9.11,17.7,3.14,27.79.88-.52,1.54-.86,2.15-1.28,5.12-3.53,8.8-8,9.28-14.49a8.48,8.48,0,0,0-2.69-7.23C411.86,488.81,407.85,487.62,403.23,487.05Z" transform="translate(-0.41 -0.41)"/>
  <path d="M322.14,544.58l10,1.09c.54,2,1.09,4.13,1.71,6.5a358.85,358.85,0,0,0-39.63,0c.42-2.27.81-4.33,1.2-6.45l10.28-1.2c.5-18.58.52-37,0-55.53-2.91-.37-5.61-.73-8.31-1-1.75-.2-1.78-.15-2.2-1.82s-.74-3.14-1.13-4.82a367.5,367.5,0,0,0,39.69-.05c-.53,2.16-1.05,4.24-1.58,6.39l-10.11,1.44C321.64,507.59,321.73,525.93,322.14,544.58ZM310.23,486.4c.6,20.28.5,40.37,0,60.52h7.39c-.5-20.24-.58-40.34,0-60.52Z" transform="translate(-0.41 -0.41)"/>
  <path d="M203,327.35a2.17,2.17,0,0,1-2.24,2.16,2.21,2.21,0,0,1-2.1-2.12,2.28,2.28,0,0,1,2.15-2.28A2.21,2.21,0,0,1,203,327.35Z" transform="translate(-0.41 -0.41)"/>
  <path d="M73.36,349.13a6.72,6.72,0,1,1-13.44,0,6.72,6.72,0,1,1,13.44,0Zm-4.57.05a2.16,2.16,0,1,0-4.31,0,2.1,2.1,0,0,0,2.06,2.12A2.12,2.12,0,0,0,68.79,349.18Z" transform="translate(-0.41 -0.41)"/>
  <path class="00077f2c-9c24-414e-82f5-2c0c1f957498" d="M223.18,513.89c.12-8.36.23-16.54.34-25,1.48.11,2.68.16,3.87.29a23.1,23.1,0,0,1,9.17,2.8c5.08,3,6.37,7.13,4.3,12.62a12.25,12.25,0,0,1-5.44,6.24A22.91,22.91,0,0,1,223.18,513.89Z" transform="translate(-0.41 -0.41)"/>
  <g>
    <path class="00077f2c-9c24-414e-82f5-2c0c1f957498" d="M212.85,486.3c-.33,0-.66.05-1.06.09.7,20.21.55,40.32,0,60.56h7.08V486.29Z" transform="translate(-0.41 -0.41)"/>
    <path class="00077f2c-9c24-414e-82f5-2c0c1f957498" d="M232.51,517.34c2.47,4,25.18,27.11,29.24,29.59a316.23,316.23,0,0,1-22.58-32.81Z" transform="translate(-0.41 -0.41)"/>
    <path class="00077f2c-9c24-414e-82f5-2c0c1f957498" d="M246.16,498c.7,5.17-.94,9.69-4.22,13.7,4.35-1.81,9.53-7.25,11.08-11.4s.36-7.75-3.37-10.14-8.05-2.76-12.4-3.18C241.76,489.43,245.44,492.57,246.16,498Z" transform="translate(-0.41 -0.41)"/>
    <path class="00077f2c-9c24-414e-82f5-2c0c1f957498" d="M385.36,486.15h-7.23c.62,20.34.47,40.51,0,60.76.62.06,1.08.15,1.55.15,1.83,0,3.67,0,5.7,0C384.94,526.57,384.84,506.39,385.36,486.15Z" transform="translate(-0.41 -0.41)"/>
    <path class="00077f2c-9c24-414e-82f5-2c0c1f957498" d="M415.11,491.84c-3.25-3-7.26-4.22-11.88-4.79,10,8.39,9.11,17.7,3.14,27.79.88-.52,1.54-.86,2.15-1.28,5.12-3.53,8.8-8,9.28-14.49A8.48,8.48,0,0,0,415.11,491.84Z" transform="translate(-0.41 -0.41)"/>
    <path class="00077f2c-9c24-414e-82f5-2c0c1f957498" d="M317.61,486.4h-7.38c.6,20.28.5,40.37,0,60.52h7.39C317.14,526.68,317.06,506.58,317.61,486.4Z" transform="translate(-0.41 -0.41)"/>
  </g>
  <path class="00077f2c-9c24-414e-82f5-2c0c1f957498" d="M68.79,349.18a2.12,2.12,0,0,1-2.25,2.13,2.1,2.1,0,0,1-2.06-2.12,2.16,2.16,0,1,1,4.31,0Z" transform="translate(-0.41 -0.41)"/>
  <g>
    <path class="00077f2c-9c24-414e-82f5-2c0c1f957498" d="M88.34,473.77c9.71,57.11,19.39,114,29.09,171.05l39.09-6.72a28.4,28.4,0,0,1,.37-3.25c1.07-4.46,2.21-8.91,3.3-13.36,2.27-9.18,4.51-18.36,6.8-27.53a3.23,3.23,0,0,0-.74-3.18c-2.86-3.41-5.55-7-8.43-10.36a4.76,4.76,0,0,1-1.16-3.34q0-51.42,0-102.84V472.1a29,29,0,0,1,4.37-1.28,10.93,10.93,0,0,0,8-5.1c1.51-2.17,3.31-4.13,5.29-6.57Z" transform="translate(-0.41 -0.41)"/>
    <path class="00077f2c-9c24-414e-82f5-2c0c1f957498" d="M144.08,649.42c.52,3,1,5.85,1.54,8.81l7.86-1.3c-.54-3.08-1-5.88-1.55-8.81Z" transform="translate(-0.41 -0.41)"/>
  </g>
  <g>
    <path class="00077f2c-9c24-414e-82f5-2c0c1f957498" d="M142.2,722.5q-2.82-16.62-5.66-33.21a6.66,6.66,0,0,0-.37-1l-15.35,2.64c.35,2,.66,3.83,1,5.64,1.44,8.44,2.87,16.88,4.34,25.31a7.27,7.27,0,0,0,.79,2.31q8.55,15.09,17.17,30.15c.33.57.73,1.11,1.29,1.95.81-1.68,2.12-2.68,1.78-4.63C145.45,742,143.85,732.22,142.2,722.5Z" transform="translate(-0.41 -0.41)"/>
    <path class="00077f2c-9c24-414e-82f5-2c0c1f957498" d="M118.87,692.62a9.59,9.59,0,0,0-.45-1.3L102.71,694c.09.87.13,1.47.23,2.07q1.69,10.13,3.42,20.24,2,11.75,4,23.48c.84,4.92,1.71,9.84,2.52,14.77a3.73,3.73,0,0,0,2.51,3.06c.54-2,1-3.82,1.54-5.66,2.36-8.65,4.74-17.29,7.08-25.94a5.31,5.31,0,0,0,.11-2.21Q121.54,708.21,118.87,692.62Z" transform="translate(-0.41 -0.41)"/>
    <path class="00077f2c-9c24-414e-82f5-2c0c1f957498" d="M156.5,722.62c-.48-3.38-1.12-6.75-1.69-10.12q-2-11.55-3.92-23.09c-.19-1.12-.43-2.22-.68-3.5l-11.64,2c3.51,20.64,7,41,10.45,61.48.35-.11.53-.11.59-.19,2.25-3.67,4.53-7.34,6.72-11.05a4.16,4.16,0,0,0,.33-2c0-2.94,0-5.89,0-8.83A35.29,35.29,0,0,0,156.5,722.62Z" transform="translate(-0.41 -0.41)"/>
    <path class="00077f2c-9c24-414e-82f5-2c0c1f957498" d="M88.27,696.46c.09.74.13,1.21.21,1.67.77,4.59,1.53,9.19,2.31,13.78,1.43,8.51,2.88,17,4.29,25.53a5,5,0,0,0,1.6,3c4,3.73,8,7.5,12,11.25.43.4.87.77,1.31,1.16l.31-.18-9.91-58.26Z" transform="translate(-0.41 -0.41)"/>
  </g>
</svg>
