<?xml version="1.0" encoding="utf-8"?>
<!-- Generator: Adobe Illustrator 22.1.0, SVG Export Plug-In . SVG Version: 6.00 Build 0)  -->
<svg version="1.1" xmlns="http://www.w3.org/2000/svg" xmlns:xlink="http://www.w3.org/1999/xlink" x="0px" y="0px"
	 viewBox="0 0 612 792" style="enable-background:new 0 0 612 792;" xml:space="preserve">
<style type="text/css">
	.st0{fill:#FFFFFF;}
	.st1{fill:#CCFFD9;}
</style>
<g id="Layer_1">
	<path id="background" class="st0" d="M0.4,792.4c0-264,0-528,0-792c203.9,0,407.9,0,611.8,0c0,264,0,528,0,792
		C408.3,792.4,204.3,792.4,0.4,792.4z M539.3,483.7c0.8,2,2.1,3.7,4.3,3.9c4,0.3,8.1,0.4,12.1,0.4c4.5,0,8-2,10.6-5.7
		c0.9-1.3,1.9-2.7,2.6-4.2c2.1-4,4.1-8.1,6-12.2c2.7-6,4.3-12.3,5.1-18.8c0.7-5.8,1-11.6,1.4-17.4c1-12.5,1.5-25,1.1-37.6
		c-0.1-2-0.2-4-0.4-5.9c-0.5-4-2.2-7.4-5.4-9.8c-2.1-1.6-4.4-3-6.8-4.2c-4.6-2.2-9.6-3.3-14.6-4.1c-7.8-1.2-15.6-2.2-23.5-2.6
		c-2.3-0.1-4.7-0.1-6.9-0.6c-2.9-0.7-5.8-1.6-8.6-2.8c-10.9-4.4-21.5-9.6-32.2-14.7c-1.9-0.9-2.8-2.1-3.2-4.1
		c-1.7-7.6-3.9-15.1-6.5-22.5c-1.4-3.8-3.9-6.6-7.4-8.4c-1.5-0.8-3-1.4-4.5-2c-2.4-0.9-4.7-1.8-7.1-2.7c-1.2-0.5-2.1-1-2-2.6
		c0.1-1.4-0.8-1.8-2.1-1.3c-0.7,0.2-1.4,0.6-2,0.9c-1.1-1-0.6-2-0.3-2.9c0.3-0.9,1.1-0.6,1.8-0.6c1.4,0,2.7,0.1,4.1,0
		c4.7-0.4,7.7-3.6,7.3-7.9c-0.1-0.8-0.2-1.7-0.5-2.4c-1.3-3.2-1.2-6.5-0.5-9.9c0.9-4.1,1.3-8.3,0.5-12.5c-0.1-0.5-0.1-0.9-0.1-1.3
		c0.3-0.2,0.4-0.3,0.6-0.4c3.3-2.1,3.7-5.6,1-8.4c-0.7-0.7-1.5-1.4-2.3-2.1c-1.6-1.4-2.5-3-2.6-5.2c0-2.2-0.8-4.1-2.7-5.5
		c-0.3-0.2-0.5-0.4-0.7-0.7c-1.4-1.6-1.3-2.7,0.4-4c0.4-0.3,0.8-0.6,1.4-1c-1.4-0.8-2.6-0.3-3.8-0.2c-2,0.1-3.9,0.7-5.5,2
		c-1.3,1.1-1.9,2.6-2,4.3c-0.1,1-0.7,1.6-1.7,1.8c-0.7,0.2-1.5,0.3-2.2,0.4c-3.1,0.7-6.3,1.2-9.4,2.1c-3.3,0.9-6.1,2.8-8.2,5.6
		c-1.9,2.5-1.9,4.9,0.2,7.3c0.7,0.8,0.9,1.5,0.7,2.6c-0.5,3.2-0.4,6.4,0.9,9.5c0.2,0.4,0.4,0.9,0.3,1.2c-0.6,1.1,0.1,2,0.5,2.9
		c1.4,3,3.5,5.4,6.5,6.8c1.2,0.5,2.1,1.3,2.8,2.3c0.6,0.9,1.2,1.8,1.9,2.7c1,1.2,1,2.6,0.6,4c-1.2,4.2-3.5,7.6-7,10.1
		c-2.6,1.9-5.4,3.5-8.1,5.2c-1.8,1.1-3.6,2.2-5.3,3.5c-4.7,3.7-6.6,8.7-6.1,14.7c0.1,0.8,0.1,1.6,0.2,2.5c-1.2,0-2.3,0-3.3,0
		c-3.7-0.2-7.4-0.5-11.1-0.6c-8.8-0.3-17.7-0.6-26.5-0.9c-7.7-0.2-15.3-0.5-23-0.7c-12.7-0.3-25.4-0.3-38,0.3
		c-1.5,0.1-3,0.3-4.5,0.5c-7.3,1-14.3,3.1-21.1,5.9c-14.5,5.9-28.9,12.3-42.9,19.4c-10.3,5.2-20.4,10.6-30.6,16.1
		c-4.2,2.2-8.2,4.6-12,7.6c-1.5,1.2-3.2,2-5.3,1.9c-4.9-0.3-9.9-0.7-14.8-0.7c-8,0-16,0.2-24.1,0.3c-4.5,0.1-9,0.2-13.6,0.5
		c-2.8,0.2-5.6,0.6-8.4,1c-5.8,0.9-11.2,3.1-16.4,5.7c-12.7,6.3-25.4,12.8-37.7,19.7c-15.3,8.7-30.6,17.5-45,27.7
		c-2.2,1.6-4.4,3.3-6.4,5.2c-2.7,2.5-3.9,5.8-4,9.4c-0.1,3,0,6,0.7,9c1.7,7.7,3.5,15.4,6.5,22.7c0.1,0.2,0.1,0.5,0.2,1
		c-0.8,0.3-1.7,0.6-2.4,1c-2.3,1.1-4.7,2.3-6.9,3.5c-0.9,0.5-1.6,1.3-2.3,2.1c-1.1,1.3-1.3,2.9-0.3,4.4c0.6,0.9,1.2,1.7,1.9,2.4
		c5.6,6.3,12.2,11.4,19.4,15.8c9,5.6,18.2,10.6,28.9,12.5c1.6,0.3,3.3,1.1,4.6,2.1c3.6,2.8,7.4,4.9,11.6,6.5
		c6.8,2.7,13.8,4.9,20.9,6.8c12.3,3.3,24.8,5.7,37.4,7.9c14.8,2.6,29.7,5.2,44.7,6.5c7.9,0.7,15.8,1.6,23.8,0.8
		c5.7-0.6,11.5-1.1,17.1-1.9c6.8-1,13.5-2.3,20.2-3.5c7.8-1.4,15.5-2.7,23.3-4.1c2.1-0.4,4.3-0.9,6.5-1.4c0.2,1,0.4,1.8,0.6,2.5
		c0.5,1.7,1.1,3.4,1.8,5c1.2,2.7,3.4,4.1,6.3,4.1c1.4,0,2.7,0,4.1-0.1c3-0.1,6-0.3,9-0.2c7.6,0.3,15.2,0.5,22.8-0.1
		c5.3-0.4,10.6-1.3,15.8-2.6c10.2-2.6,17.9-8.2,22.8-17.7c5.9-11.4,9.8-23.4,9.7-36.4c0-9.5,0-19.1,0-28.6c0-0.7,0-1.3,0-2
		c1.5,7.5,1.8,15,1.8,22.6c-0.1,9.7-0.8,19.3-2.2,28.9c-0.1,0.6,0,1.2,0,2c1-0.2,1.7-0.3,2.4-0.4c6.8-1.7,13.5-3.4,20.3-5.2
		c10.1-2.6,20.2-5.2,30.3-7.7c0.7-0.2,1.4-0.2,2.2-0.3c0.1,0.7,0.2,1.1,0.3,1.5c0.7,5.8,1.3,11.6,2,17.4c0.2,1.4-0.1,2.7-0.8,3.9
		c-0.6,1.1-1.3,2.1-1.9,3.2c-1.4,2.6-1.2,4.6,1,6.5c2.3,2,4,4.5,5.5,7.1c3,5,7.4,8.4,12.6,10.8c1.5,0.7,3.1,1.1,4.7,1.3
		c3.2,0.3,4.9-1.7,4.3-4.9c-0.2-0.7-0.4-1.5-0.7-2.1c-0.9-1.8-1.9-3.7-3-5.4c-3.1-4.8-6.3-9.5-9.4-14.3c-1.9-2.8-2.4-5.9-2-9.2
		c0.8-6,1.6-12,2.4-17.9c0.2-1.4,0.8-2.1,2.3-2.4c7.4-1.8,14.9-3.8,22.3-5.7c2.2-0.6,4.4-1.1,6.6-1.7c0.3,0.6,0.5,1.1,0.7,1.6
		c2.1,7.4,4.2,14.8,6.3,22.1c0.9,3.3,0.9,6.6,0.5,10c-0.2,1.7-0.4,3.4-0.3,5.1c0.2,3.3,1.9,5,5.3,5.1c2,0.1,4-0.1,5.9-0.2
		c3.3-0.3,6.5-0.7,9.8-0.9c4.6-0.3,9.2-0.5,13.7-0.9c1.9-0.2,3.9-0.8,5.7-1.6c1.6-0.7,1.8-2.1,0.5-3.3c-0.7-0.7-1.7-1.3-2.7-1.7
		c-1.5-0.6-3.2-0.9-4.8-1.3c-5-1.1-10-2.2-15-3.4c-4-0.9-6.3-3.5-6.6-7.6c-0.7-8.6-1.4-17.2-2-25.8c0-0.5,0.1-0.9,0.1-1.5
		c0.6-0.2,1.2-0.5,1.8-0.6c8.1-2.1,16.2-4.2,24.3-6.2c5.4-1.4,10.9-2.8,16.3-4.2c1.8-0.5,1.8-0.5,2-2.4c0.1-1.5,0.3-3,0.4-4.5
		c0.9,2.3,1.6,4.7,2.6,6.9c0.3,0.8,1,1.4,1.5,2.1C538.9,483.1,539.1,483.4,539.3,483.7z"/>
	<g id="bowtie">
		<path class="st0" d="M437.8,303.3c0.6,0.5,1.2,0.9,1.7,1.4c0.8,0.9,1.6,1.9,2.3,2.9c1.5,2,1,3.9-1.3,4.8c-1.6,0.6-3.2,1-5.1,1.7
			c0-0.9-0.1-1.4,0-1.9c0.2-1.8,0.5-3.6,0.8-5.4C436.4,305.4,436.6,304.3,437.8,303.3z"/>
		<path class="st0" d="M446.7,309.1c1.6-1.7,2.8-3.4,5.2-4.2c0,1.7-0.1,3.1,0,4.5c0.1,1.4,0.4,2.8,0.6,4.2c-1.8,0.6-2.8-0.5-4.1-1
			C446.8,311.9,447.8,310.1,446.7,309.1z"/>
		<path class="st0" d="M446.7,310.9c-0.7,0.7-1.2,1.3-1.7,1.6c-0.6,0.2-1.3-0.7-1.3-1.4c0-0.8,0.7-1.6,1.3-1.4
			C445.5,309.8,446,310.3,446.7,310.9z"/>
	</g>
	<g id="carLight">
		<path class="st0" d="M172.3,453.3c4.5-2.4,9-4.9,13.6-7.3c14.3-7.7,28.7-15.2,43.5-21.9c1.9-0.8,3.8-1.7,5.7-2.4
			c3.7-1.4,7.5-2.1,11.5-1.7c4.4,0.4,8.7,0.9,12.9,2.2c1.4,0.4,2.7,1,3.9,1.8c1.4,0.9,1.4,2.1,0.2,3.2c-0.5,0.5-1,0.9-1.6,1.3
			c-12.2,7.4-24.9,13.9-38.5,18.5c-6.3,2.1-12.7,3.4-19.2,4.3c-8.4,1.1-16.9,1.6-25.4,2.1c-2.2,0.1-4.3,0.3-6.5,0.5
			C172.3,453.7,172.3,453.5,172.3,453.3z"/>
		<path class="st0" d="M240.3,510.9c0.5-1,0.8-1.7,1.1-2.4c2.7-5.5,5.4-10.9,8.2-16.3c1-1.9,2.1-3.8,3.3-5.7c1.6-2.4,3.7-4,6.4-4.8
			c6.5-2,13.1-3.9,19.7-5.9c0.2-0.1,0.5,0,1.1,0c-0.4,0.7-0.7,1.3-1,1.7c-6.1,8.7-12.3,17.3-18.4,26c-2,2.8-4.5,4.8-7.9,5.5
			c-3.4,0.7-6.8,1.3-10.3,1.9C242,511,241.4,510.9,240.3,510.9z"/>
		<path class="st0" d="M229.7,534.4c0.7-1.3,1.2-2.1,1.6-3c2-3.8,4-7.7,5.9-11.5c0.7-1.4,1.6-2.2,3-2.5c3.3-0.7,6.7-1.5,10-2.1
			c5.5-0.9,11-1.5,16.5-2.3c0.5-0.1,1.1-0.1,1.8-0.2c0.1,0.7,0.2,1.2,0.1,1.7c-0.6,2.6-1.1,5.2-2,7.7c-1.1,3.4-3.6,5.7-7.1,6.4
			c-5.1,1.1-10.2,2.2-15.3,3.2C239.5,532.7,234.9,533.5,229.7,534.4z"/>
		<path class="st0" d="M71,517c-10.9-4-21.3-7.9-31.8-11.8c0.7-3.8,1.4-7.4,2.1-11.3c0.9,0.3,1.6,0.6,2.2,0.9
			c4.5,1.9,8.9,3.8,13.4,5.7c2,0.8,4,1.5,6,2.2c1.5,0.5,2.5,1.4,3.2,3C67.7,509.4,69.3,513,71,517z"/>
		<path class="st0" d="M188.3,534.6c-0.1-1.9-1.1-3.1-2-4.3c-2.3-3.2-4.6-6.5-7-9.6c-5.9-7.6-11.9-15.2-17.9-22.8
			c-0.9-1.2-1.9-1.7-3.5-1.7c-10.1,0.1-20.2,0.1-30.2,0.2c-6.2,0.1-12.3,0.2-18.5,0.4c-7.1,0.3-14.3,0.5-21.4,0.9
			c-0.2,0.8-0.3,1.7-0.5,2.5c0.3,0.3,0.3,0.8,0.3,1.2c0.1,1.2,0.2,2.5,0.4,3.7c0.9,5.8,3.9,10.3,8.5,13.9c4.6,3.6,10,5.6,15.6,7.2
			c5.9,1.6,11.9,2.6,17.9,3.4c5.8,0.7,11.7,1.6,17.5,2.3c4.5,0.5,9,1,13.5,1.4c6.6,0.6,13.1,1.1,19.7,1.5
			C183.1,534.8,185.6,534.6,188.3,534.6z"/>
	</g>
	<g id="carWindow">
		<path class="st0" d="M197.6,381.2c2.8-1.9,5.2-3.7,7.7-5.2c13-7.9,26.5-14.6,40.1-21.3c12-5.9,24.1-11.5,36.5-16.6
			c1.7-0.7,3.5-1.1,5.4-1c8.5,0.2,17,0.3,25.5,0.5c8.7,0.2,17.4,0.5,26.1,0.8c8.6,0.3,17.3,0.7,25.9,1.2c7,0.4,14.1,1.1,21.1,1.6
			c0.5,0,1.1,0.2,1.6,0.3c1.4,0.4,1.9,1,1.8,2.4c-0.1,1.6-0.3,3.3-0.9,4.8c-1.8,4.7-3.6,9.3-5.7,13.9c-3.6,7.9-7.6,15.5-12.4,22.7
			c-1.7,2.6-3.7,4.9-5.7,7.3c-1.8,2.1-4.1,3.2-6.9,3c-5.3-0.2-10.7-0.4-16-0.7c-5.1-0.3-10.3-0.6-15.4-0.9
			c-5.5-0.4-11.1-0.7-16.6-1.1c-4.6-0.3-9.3-0.6-13.9-1c-4.3-0.3-8.6-0.7-12.9-1.1c-4-0.3-7.9-0.6-11.9-1c-5.5-0.5-11-1-16.6-1.5
			c-4.8-0.4-9.7-0.9-14.5-1.4c-5.6-0.6-11.2-1.2-16.8-1.8c-4.6-0.5-9.3-1-13.9-1.5C205.4,383.3,201.7,382.7,197.6,381.2z"/>
		<path class="st0" d="M483.2,356.1c4.7,2.5,9.1,4.9,12.8,8.4c0.4,0.4,0.8,0.8,1.1,1.2c0.8,1.1,0.8,1.8-0.1,2.8
			c-0.6,0.7-1.3,1.5-2.1,2c-2.1,1.5-4.1,3-6.3,4.2c-4,2.1-8.1,4.1-12.1,6c-0.5,0.3-1.1,0.4-1.9,0.7c-0.8-4.6-0.8-9.1-1.2-13.8
			c1.1-0.3,2.2-0.7,3.3-1c4.9-1.2,5.6-2,6.3-7C483,358.6,483.1,357.6,483.2,356.1z"/>
		<path class="st0" d="M429.4,364.8c-2.4-1.6-4.3-3.8-5.9-6.3c-2.4-3.9-4.3-8-5.9-12.2h0.2l-0.7-1.8l-0.7-1.9l0.1,0l-0.2-0.7
			l-0.7-0.1l-1.2,0.6c-0.2,0-0.5,0.1-0.7,0.1c-4.3,0.7-8.2,2.4-11.1,5.7c-1.2,1.4-2.4,2.8-3.4,4.4c-8.6,13.6-16.1,27.8-22,42.7
			c-0.5,1.3-0.9,2.7-1.1,4.1c-0.4,2.1,0.5,3.1,2.7,3c2.5-0.1,5.1-0.3,7.6-0.6c5.2-0.6,10.3-1.2,15.5-2c7.2-1.1,14.4-2.4,21.7-3.6
			c1.2-0.2,1.6-0.8,1.8-1.8c1.1-6.5,3-12.8,4.7-19.2c0.6-2.5,0.8-5.1,1-7.7C431,366.3,430.4,365.4,429.4,364.8z"/>
	</g>
	<g id="leftSock">
		<path class="st0" d="M431,527.5c2.1,1,4.3,2,6.8,1.5c2.1,5.8,6,10.3,9.3,15.2c1.6,2.4,3,4.9,4.3,7.4c0.5,0.9,0.8,2,1,3.1
			c0.5,2.6-0.4,3.4-3,3c-0.7-0.1-1.5-0.4-2.2-0.7c-5.6-2.1-10-5.7-13.2-10.7c-0.7-1.1-1.3-2.3-2.1-3.3c-0.9-1.2-1.9-2.5-3.1-3.6
			c-2.1-1.9-2.5-3.7-1.2-6.2C428.8,531.5,429.8,529.6,431,527.5z"/>
		<path class="st0" d="M429.9,521.7c2.5,1.6,4.7,3,7.5,2.1c0,1.1,0,2.1,0,3.3c-2,1-3.8,0.2-5.7-0.7
			C429.8,525.6,430.5,523.7,429.9,521.7z"/>
	</g>
	<g id="rightSock">
		<path class="st0" d="M492.2,524.5c3.3,3.2,7.9,3.7,12.3,4.7c3.9,0.9,7.7,1.7,11.6,2.6c1.3,0.3,2.5,0.7,3.3,2c-0.7,1.8-2,2.9-4.1,3
			c-5.1,0.3-10.1,0.5-15.2,0.9c-2.6,0.2-5.1,0.7-7.7,0.9c-2.1,0.2-4.2,0.3-6.3,0.2c-2.9-0.2-4.6-1.8-4.6-4.7c0-2.9,0.4-5.7,0.6-8.7
			c1.9,0.2,3.5,0.5,5.1,0.4C488.7,525.7,490.2,525,492.2,524.5z"/>
		<path class="st0" d="M482.1,521.5c1.5,0.3,2.9,0.7,4.3,0.7c1.3,0,2.7-0.4,4.1-0.6c0.7,0.7,0.7,1.4-0.3,2.1
			c-1.2,0.8-2.6,1.3-4.1,1.1c-0.8-0.1-1.6-0.2-2.4-0.4C482,523.9,481.9,523.8,482.1,521.5z"/>
	</g>
	<g id="beltPant">
		<path class="st0" d="M470.2,374c0.5,0,1.1-0.1,1.8-0.1c0.2,1.7,0.3,3.4,0.5,5.1c-1.9,0.4-2.5-1.9-4.7-1.8c0.6,0.7,0.9,1.2,1.3,1.6
			c0.6,0.5,1.2,1,1.9,1.2c1.4,0.5,1.8,1.5,1.9,2.8c0.6,7.8,2.5,15.4,4,23.1c2.3,11.5,4.7,23,7,34.4c1.1,5.5,1.8,11,1.5,16.5
			c-0.3,5.3,0.5,10.5,1,15.8c0.5,5.7,1,11.3,1.5,17c0.5,6.4,1,12.8,1.4,19.3c0.2,2.8,0.4,5.6,0.6,8.4c0.1,2-0.6,3.2-2.7,3.3
			c-1.7,0.1-3.4-0.3-5.1-0.6c-0.9-0.2-1-1-1.2-1.8c-1.9-7.2-3.8-14.3-5.7-21.5c-1.4-5.1-2.7-10.2-4.1-15.3c-0.7-2.5-1-5-1-7.5
			c0-2.8,0.1-5.6,0.3-8.4c0.3-3.7-0.1-7.4-1.1-11c-4.9-17.9-9.8-35.8-14.6-53.7c-0.1-0.5-0.2-0.9-0.4-1.4c-0.7-1.5-1.9-1.8-2.8-0.4
			c-0.6,1-1,2.3-1,3.5c-0.2,3.2-0.3,6.4-0.4,9.7c-0.3,8.8-0.6,17.5-1,26.3c-0.4,10.8-1.6,21.4-3.5,32.1c-2,11.2-4,22.4-5.8,33.6
			c-0.9,5.4-1.3,10.9-1.8,16.3c-0.2,2.1-0.6,2.6-2.7,2.2c-2.1-0.3-3.7-1.8-5.3-3c-0.3-0.2-0.3-0.9-0.4-1.3c-0.5-6.6-1-13.3-1.4-19.9
			c-0.5-8.3,0.2-16.6,2.6-24.6c1.6-5.4,1.3-10.9,0.6-16.3c-1.9-14.9-4-29.9-5.8-44.8c-0.7-5.5-0.3-11.1,0.7-16.6
			c0.8-4.9,1.7-9.9,3.4-14.6c0.2-0.7,0.5-1.4,0.9-2.3c3.1,1,6,1,8.6-1.1c-0.6-1.1-1.3-0.5-2-0.2c-1.7,0.8-3.4,1.1-5.2,0.8
			c-0.3-0.1-0.6-0.2-1.2-0.4c0.5-1.9,0.9-3.8,1.4-6c0.8,0.2,1.5,0.4,2.2,0.6c6.3,1.9,12.8,3.2,19.4,3.5c4.6,0.2,9.2-0.2,13.6-1.4
			C468.5,374.9,469.3,374.4,470.2,374L470.2,374z"/>
		<path class="st0" d="M453.3,375.6c-3.7-0.6-7.5-1.2-11.1-1.9c-2.4-0.5-4.8-1.2-7.2-1.8c-3-0.8-2.5-0.7-2.5-3.5
			c0-0.4,0-0.8,0.1-1.4c0.6,0.2,1.1,0.3,1.6,0.6c3.2,1.6,6.6,1.7,10,0.7c0.3-0.1,0.5-0.1,0.8-0.3c2.8-1.6,5.6-0.5,8.3,0.4
			c0.4,0.1,0.7,0.6,0.9,1C454.5,370.4,454,374,453.3,375.6z"/>
		<path class="st0" d="M470.3,374c-2.1,0.5-4.1,1-6.2,1.4c-2,0.4-6.9,0.3-8.7-0.1c0.1-1.7,0.1-3.5,0.2-5.2c0-0.9,0.6-1.1,1.4-1.1
			c3.1,0,6.1-0.1,9.2-0.2c1.7-0.1,3.4-0.5,5-0.7C472.5,370.6,472.1,372.4,470.3,374C470.2,374,470.3,374,470.3,374z"/>
	</g>
	<g id="shirt">
		<path class="st0" d="M456.5,367.7c-0.8-2.7-0.5-3.1,1.8-4c2.7-1.1,5.4-2.3,8-3.7c1.5-0.8,2.8-1.8,4-3c2.9-2.8,3.3-6.1,1.2-9.4
			c-1.2-1.9-1.5-3.7-1.6-5.8c-0.1-5.9-0.6-11.7-2.3-17.3c-0.2-0.8-0.3-1.8-1.5-2c-0.8,0.8-0.2,1.6,0,2.3c1.5,5.4,2,10.9,2.1,16.5
			c0,0.7-0.1,1.5-0.1,2.3c-0.5,0.1-0.8,0.2-1.2,0.2c-1.6-0.1-2.7,0.7-3.5,1.9c-0.6,0.9-1.1,1.8-1.7,2.6c-1.2,1.7-3.2,2.5-5.3,2.3
			c-0.3-1.6-0.5-3.2-0.8-4.8c-1.1-5.7-3.5-11-5.4-16.4c-1.5-4.2-2.8-8.5-4.2-12.7c-0.2-0.7-0.4-1.5-0.4-2.2c-0.1-1,0.6-1.5,1.6-1.2
			c0.5,0.1,0.9,0.5,1.3,0.6c0.8,0.4,1.7,0.8,2.5,1c1.9,0.5,3-0.5,2.7-2.5c-0.2-1.4-1-2.7-0.6-4.2c0.3,0,0.5-0.1,0.7,0
			c3.8,1.4,7.6,2.7,11.4,4.2c4.4,1.7,7.2,4.8,8.6,9.3c3,9.2,5.9,18.5,7.8,28c0.7,3.6,0.6,7.3,0.2,10.9c-0.2,2.2-1.4,3.9-3.7,4.6
			c-6.6,1.9-13.2,3.2-20.1,2.8C457.5,367.9,457.1,367.8,456.5,367.7z"/>
		<path class="st0" d="M465.2,359c-1.1-2.8-2.1-5.3-3.2-8c0.8-1.2,1.7-2.6,2.7-4c1.8-2.4,4.2-2.2,5.4,0.5c1.9,4.3,1.3,7.4-2.4,9.9
			C466.9,357.9,466,358.4,465.2,359z"/>
		<path class="st0" d="M458.3,352.3c2.1-0.8,2.1-0.8,3,0.7c1.1,1.7,1.8,3.5,1.9,5.5c0,0.8,0.1,1.5-1.2,1.7c-0.5-1.3-0.9-2.7-1.5-4
			C459.8,354.9,459.1,353.7,458.3,352.3z"/>
		<path class="st0" d="M439.6,303.3c1.2,0.9,3.3,1.1,3.3,3.7C441.6,305.7,440.6,304.5,439.6,303.3z"/>
		<path class="st0" d="M448,306.3c-0.8,0.5-1.5,1-1.9,1.2C446.4,305.5,446.7,305.3,448,306.3z"/>
		<path class="st0" d="M437.1,301.8c0.3,0,0.5,0.1,0.8,0.1c0,0.1,0,0.2,0,0.3c-0.3,0-0.5,0-0.8-0.1
			C437.1,302,437.1,301.9,437.1,301.8z"/>
		<path class="st0" d="M460,360c-0.6-1.9-1.2-3.8-2-5.6c-0.9-1.9-1.3-2-3.5-1.7c-0.3,0-0.5,0.1-0.8,0.2c-4.3,0.9-8.6,1.9-12.9,2.7
			c-2,0.4-2.2,0.3-3.1-1.5c-2.4-4.9-4.9-9.8-7-14.9c-1.4-3.3-2.4-6.7-3.6-10.1c-0.2-0.6-0.6-1.2,0.2-2.2c1.1,3.4,2.1,6.5,3.2,9.5
			c1.2,3.1,2.5,6.1,3.9,9.1c1.4,3,2.9,5.9,4.4,8.9c1.2-0.3,2.2-0.5,3.2-0.8c3.6-0.7,7.1-1.5,10.7-2.1c2.1-0.4,2.3-0.5,2-2.6
			c0-0.3-0.1-0.5-0.1-0.8c-0.7-5.4-2.6-10.5-4.5-15.6c-2.2-5.9-4.6-11.7-5.8-18c-0.4-1.9-1.1-2.2-2.9-1.5c-1.7,0.6-3.4,1.2-5.1,1.5
			c-1.8,0.3-2.5-0.7-2.2-2.5c0.1-0.5,0.2-0.9,0.4-1.4c0.4-1.6,0.5-4.9,0.2-6.1c-3.2,3.3-7.2,5.3-11.1,7.4c-1.3,0.7-2.6,1.5-3.9,2.4
			c-4.4,3-6.4,7.3-6.6,12.6c-0.1,3.3,0.5,6.5,1.4,9.7c0.1,0.3,0.1,0.6,0.2,0.9c0,0,0,0,0,0l-0.1,0.5l0.2,0.4l0.9,2.6l1.2,3.3
			l0.8,1.3l0-0.1c0.1,0.1,0.1,0.2,0.2,0.3c1.4,2.8,2.7,5.7,4.1,8.5c1.3,2.7,3,5.3,5.1,7.4c5.2,5.2,11,7.4,18.3,4.5
			c3.8-1.5,7.6-2.7,11.4-4.1c0.7-0.3,1.4-0.5,2.1-0.8C460,361.3,460.3,360.7,460,360z"/>
		<path class="st0" d="M454.2,365c0.5,1,0.6,1.6,0,2.3C453.3,366.6,453.4,366,454.2,365z"/>
		<path class="st0" d="M450.7,366.2c0.3,0,0.7,0.1,1,0.1c0,0,0,0.3,0,0.3c-0.3,0-0.7,0-1,0C450.7,366.5,450.7,366.3,450.7,366.2z"/>
	</g>
	<g id="rightWheel">
		<path class="st0" d="M538.7,482.7c-0.8-2.5-1.8-4.9-2.5-7.4c-1.2-4.3-1.1-8.6-0.4-13c1.8-13,4.5-25.8,8.7-38.2
			c1.1-3.3,2.5-6.5,4.1-9.6c1-2,2.4-3.9,3.7-5.6c1.7-2.1,3.8-3.8,6.3-4.9c3.8-1.7,7.3-0.9,10,2.2c1.7,2,2.9,4.3,3.9,6.7
			c1.9,4.6,2.9,9.4,3.7,14.3c1,6.3,1.6,12.6,1.8,19c0.1,4-0.4,7.9-1.7,11.7c-0.6,1.8-1.3,3.6-2.2,5.3c0.1-0.9,0.3-1.9,0.4-2.8
			c1.6-9.7,1.8-19.5,1.3-29.3c-0.2-3-0.5-6-1-9c-0.5-2.9-1.8-5.6-3.7-8c-1.5-1.9-3.4-3.3-5.7-4.3c-2.9-1.2-5.6-0.8-7.9,1.2
			c-1.6,1.3-3,2.8-4.3,4.4c-5.1,6.3-8.1,13.6-9.7,21.5c-2.2,10.7-1.7,21.4,1.5,31.9c1.3,4.5,3.5,8.5,6.9,11.7c0.9,0.9,1.9,1.9,3.3,2
			c0.2,0.1,0.3,0.2,0.5,0.3c1.2,1.2,2.7,1.1,4.2,1.1c0.8,0,1.6-0.2,2.7-0.4c-1.6,1.9-3.7,2.5-5.7,2.9c-4.6,0.8-9.3,0.3-13.8-0.5
			c-1.3-0.2-2.5-1.5-3.7-2.3C539.1,483.4,538.9,483.1,538.7,482.7z"/>
		<path class="st0" d="M555.7,483c-0.2-0.1-0.3-0.2-0.5-0.3c-0.1-0.1-0.1-0.3-0.2-0.3c-5.1-4-7.7-9.5-9-15.7
			c-2.8-12.6-2.7-25.1,1.8-37.4c1.9-5.2,4.3-10.2,8.1-14.4c1.1-1.2,2.2-2.2,3.5-3.2c2.9-2.2,5.7-2,8.3,0.6c1.2,1.2,2.2,2.6,3,4.1
			c2.3,4.1,3.5,8.6,3.6,13.4c0.1,6.9,0.3,13.8,0,20.7c-0.3,7.5-1.6,14.8-4.5,21.8c-1.1,2.5-2.2,5-4.2,7c-1.2,1.3-2.7,2.3-4.2,3.2
			C559.6,483.7,557.6,483.3,555.7,483z"/>
	</g>
	<g id="leftWheel">
		<path class="st0" d="M370.3,484.8c0,5.9,0,11.8,0,17.7c0,7-1.6,13.6-4.2,20c-1.6,4.1-3.5,8.2-5.5,12.2c-4.7,9.4-12.3,15-22.5,17.3
			c-10,2.3-20,2.8-30.2,2.3c-4.2-0.2-8.4,0.1-12.5,0c-2.7,0-5.5-0.1-8.2-0.4c-1.3-0.1-2.4-0.9-3.2-2c-2-2.7-2.7-5.8-3.2-9
			c-0.1-0.7,0.3-1.5,0.4-2.2c0.7-5.1,1.5-10.2,2-15.3c1.8-17.4,4.7-34.5,10.4-51.1c3-8.9,6.8-17.5,12.2-25.3
			c3.7-5.3,7.9-10,13.3-13.5c7.3-4.8,15.2-6.5,23.9-5.7c9.3,0.9,16,5.5,20.9,13.2c2.8,4.4,5,9,5.7,14.2c0.3,2.4,0.5,4.8,0.5,7.2
			c0.2,6.8,0.3,13.6,0.5,20.4C370.5,484.8,370.4,484.8,370.3,484.8z M296,498.2c0.6,5.8,0.9,11.6,1.8,17.3
			c1.1,7.2,3.9,13.8,8.5,19.6c8.6,10.8,24.6,14.5,37.2,6.8c9.2-5.5,15.5-13.4,19.4-23.2c3.4-8.5,4.6-17.4,4.9-26.5
			c0.2-8.2-0.6-16.3-1.7-24.4c-0.8-6-3-11.5-6.6-16.4c-4.5-6.2-10-11.1-17.2-13.9c-3.9-1.5-7.7-1.6-11.7-0.5
			c-5.2,1.5-9.9,4.1-14.1,7.5c-6.7,5.4-11.2,12.4-14.3,20.2C298,475.5,296.4,486.7,296,498.2z"/>
		<path class="st0" d="M366.4,484.5c0.1,11.4-0.6,20.8-3.6,29.9c-3.6,10.9-9.8,19.8-19.6,26.1c-4.7,3-9.8,4.6-15.4,4.4
			c-6.8-0.3-12.8-2.8-17.9-7.4c-4.5-4-7.2-9.1-9.1-14.7c-1.7-5.3-2.6-10.8-2.8-16.4c-0.4-12.9,0.8-25.6,4.8-37.9
			c2.2-6.9,5.6-13.3,10.5-18.7c5-5.5,11.1-9.3,18.2-11.5c3.7-1.1,7.5-0.8,11.1,0.4c3.6,1.3,6.8,3.3,9.6,5.9
			c6.9,6.4,11.4,14,12.5,23.4C365.4,474.3,366,480.3,366.4,484.5z"/>
	</g>
	<g id="hair">
		<path class="st0" d="M452.9,240.9c-1.3,2.4-1.2,3.4,0.9,4.8c2.1,1.4,3.1,3.2,2.8,5.7c-0.3,1.9,0.6,3.2,2,4.4
			c1.3,1.1,2.6,2.2,3.7,3.5c1.3,1.6,1.2,3.9,0,5.3c-0.6,0.8-1.2,0.8-1.9,0.1c-0.4-0.4-0.7-0.8-1-1.3c-1-1.6-2.6-2.4-4.4-2.7
			c-3.6-0.6-7.1-0.5-10.5,0.7c-2.4,0.8-4.8,1.7-7.2,2.4c-2.7,0.8-5.4,1.4-8.3,0.6c-4.3-1.2-5.7-4.7-3.2-8.4c1.1-1.7,2.7-2.9,4.5-3.8
			c3-1.6,6.3-2.2,9.6-2.8c1.1-0.2,2.2-0.3,3.3-0.4c2.8-0.4,3.4-0.9,4.1-3.7C447.8,242.5,449.8,240.9,452.9,240.9z"/>
		<path class="st0" d="M433.1,278.3c-1.8-0.7-3.5-1.2-5.1-1.9c-0.6-0.3-1.1-1-1.3-1.7c-1.1-3-1-6.2-0.2-9.5c1.6,0.1,3.2,0.2,4.8,0.4
			c0.3,0,0.6,0.6,0.7,0.9C432.7,270.4,433.1,274.3,433.1,278.3z"/>
	</g>
	<g id="face">
		<path class="st0" d="M427.5,278.6c2-0.6,3.6-0.3,4.9,1c0.6,0.6,1.1,1.5,2.5,1c0.1-4.9-0.5-9.9-1.1-14.7c0.2-0.2,0.3-0.3,0.4-0.3
			c5-1.5,9.9-3,14.9-4.4c1.2-0.3,2.6-0.4,3.9-0.2c2.1,0.3,3.9,1.2,4.8,3.4c0.1,0.4,0.3,0.8,0.6,1c1.6,1.4,1.6,3.2,1.9,5.1
			c-0.5,0.2-1.1,0.2-1.3,0.5c-1.1,1.7-2.7,1.4-4.2,1.1c-0.4-0.1-0.8-0.1-1.2-0.1c1.1,2.1,4.1,2.3,6.7,0.5c0,0.6,0.1,1.1,0.1,1.6
			c0,0.5-0.1,0.9-0.1,1.6c-0.6-0.1-1-0.2-1.4-0.3c-1.9-0.4-3.5,0.4-4.9,1.6c-0.7,0.7-0.6,2.5,0.1,3.4c0.6,0.8,1.7,1,2.8,0.5
			c1.1-0.6,1.8-1.5,1.8-2.8c0-0.6-0.1-1.2-0.2-1.9c1.7,1.6,1.5,2.3-1.1,5.5c0.4,0,0.7,0,1,0c0.3,0,0.5-0.2,0.8-0.3
			c0.1,0.3,0.2,0.5,0.1,0.6c-0.5,2.7-0.4,5.4,0.5,8.1c0.3,0.9,0.5,1.9,0.6,2.8c0.5,3.5-1.2,6.3-4.6,7.2c-4.3,1.1-8.3,0.4-11.7-2.6
			c-1.4-1.3-2.6-2.8-3.8-4.3c-0.8-1-1.4-2-2.1-3.1c-1.4-2.5-3.3-4.5-5.9-5.8C430,283.3,428.5,281.3,427.5,278.6z M445.5,292.4
			c-0.5-0.3-0.9-0.6-1.2-0.8c0.1-0.7,0.1-1.3,0.2-1.9c-1,0.4-1.8,0.7-2.4,0.9c0.1,1,0.3,1.9,0.4,2.9c2-1.1,2-1.1,3.6,2.1
			c0.4-0.4,0.8-0.9,1.4-1.5c0.9,0.5,1.8,1,2.5,1.4c0.7-0.5,1.3-1.2,1.9-1.3c0.6-0.1,1.3,0.5,2.2,0.9c-0.2-1.2-0.1-2.1,1.4-2
			c0.4,0.5,0.9,1.1,1.3,1.6c0.5-1,0.9-1.8,1.3-2.7c-0.7-0.4-1.5-0.9-2.3-1.3c-1.4,1.5-1.4,1.9-3.5,0.8c-0.9,2-1.3,2-2.8,0.3
			c-0.9,1.2-1.7,1.5-2.3,0.9c-0.2-0.5-0.3-1.1-0.5-1.6c-0.2-0.1-0.3-0.2-0.5-0.2C446.1,291.4,445.9,291.8,445.5,292.4z M447.1,279.5
			c-0.5-2.4-3-4.3-5.1-4.2c-0.9,0.1-1.8,0.3-2.5,0.7c-1.5,0.9-1.8,2.4-0.8,3.8c0.9,1.2,2.1,2.1,3.7,2.3c0.1,0,0.3-0.2,0.6-0.3
			c-0.3-0.4-0.5-0.7-0.8-1.1c2-0.1,2.3-1.6,2.6-3.1C445.7,278.4,446.4,278.9,447.1,279.5z M449.8,288.4c0,0.2-0.1,0.3-0.1,0.5
			c1,1.3,2.5,1.7,4.1,1.4c2.1-0.3,3.8-1.3,4.8-3.2c-0.1-0.2-0.2-0.4-0.3-0.5c-0.3-0.3-0.6-0.5-1-0.8c-2.6-1.7-4.2-4-5.2-6.9
			c-0.2-0.6-0.5-1.3-0.8-1.9c-0.3-0.5-0.7-0.8-1.5-0.2c0.9,4.3,3.2,7.7,6.8,10.3c-0.9,1.3-1.9,2-3.2,1.9
			C452.2,289,451,288.6,449.8,288.4z M436.7,273.2c0.4-0.5,0.7-0.7,0.7-0.9c0.9-2.6,3.1-2.8,5.4-1.9c0.9,0.4,1.7,0.8,2.6,1.1
			c0.3,0.1,0.7,0,1.2,0c-0.2-0.4-0.3-0.8-0.4-0.9c-1.9-0.8-3.8-1.8-5.9-2.2c-1.9-0.5-4.1,1.5-4.2,3.6
			C436.1,272.2,436.4,272.6,436.7,273.2z"/>
		<path class="st0" d="M440,294.7c2.2,2.8,4.5,4.8,7.5,5.9c-0.4,1.6-0.1,3.2-1.8,4.1c-0.6,0.3-0.7,1.4-1.2,2.6
			c0.1-2.2-1-3.2-2.5-4.1c-1.4-0.9-2.7-1.9-4-2.8C438.7,298.5,439.3,296.8,440,294.7z"/>
	</g>
	<g id="eyes">
		<path class="st0" d="M455.8,279.6c-0.9-1.7-0.9-1.8,0.3-2.7C457.3,278.1,457.3,278.5,455.8,279.6z"/>
		<path class="st0" d="M442.8,278.2c0,0.8-0.4,1.2-1.1,1.2c-0.9,0-1.7-0.7-1.7-1.4c0-0.7,1-1.5,1.7-1.4
			C442.8,276.7,442.7,277.6,442.8,278.2z"/>
	</g>
	<g id="car">
		<path class="st0" d="M385.7,436c13.2-3.2,26.4-6.5,39.9-9.8c0.3,2.2,0.6,4.1,0.9,5.9c1.2,9.4,2.4,18.9,3.6,28.3
			c0.7,4.9,0.4,9.7-0.9,14.5c-0.9,3.6-1.7,7.2-2.5,10.8c-0.3,1.2-0.2,2.5-0.3,3.7c-0.2,2-0.2,2.1-2.2,2.6c-9.5,2.5-19,4.9-28.4,7.3
			c-2.9,0.8-5.8,1.5-8.8,2.2c-0.3,0.1-0.6,0.1-0.9,0.1C385.6,500.2,385.3,441.2,385.7,436z"/>
		<g id="midCar">
			<path class="st0" d="M444.6,486.6c0.4-2.9,0.8-5.4,1.2-8c1.3-8.5,2.7-17,3.8-25.6c0.6-4.7,0.7-9.4,1-14.1
				c0.3-5.8,0.6-11.6,0.8-17.4c0.1-1.7,0.1-1.7,1.7-2.1c1.1-0.3,2.1-0.5,3.2-0.8c0.4-0.1,0.8-0.2,1.4-0.3c0.3,1,0.7,1.9,0.9,2.9
				c2.5,9.2,5,18.4,7.4,27.6c0.9,3.5,1.9,7,2.5,10.6c0.4,2.5,0.2,5.2,0.2,7.8c0,3.2-0.2,6.4-0.2,9.6c0,0.6,0.1,1.2,0.2,1.8
				c0.3,1.9,0.3,2-1.7,2.5c-7,1.8-14,3.6-21.1,5.4C445.6,486.5,445.3,486.5,444.6,486.6z"/>
			<path class="st0" d="M472.6,494.7c-10.2,2.6-20.1,5.1-30.3,7.7c-0.1-2.3,0.3-4.3,0.8-6.2c0.1-0.5,1.1-0.9,1.8-1.1
				c4.2-1.1,8.4-2.1,12.6-3.1c4-1,8-2,12-2.9c0.4-0.1,0.8-0.1,1.5-0.2C471.5,490.7,472,492.5,472.6,494.7z"/>
			<path class="st0" d="M469.2,481.4c0.5,2,0.8,3.7,1.3,5.7c-8.9,2.3-17.7,4.4-26.7,6.6c-0.4-2,0.1-3.7,0.6-5.4
				c0.2-0.5,1.2-0.8,1.9-1c5-1.3,10.1-2.6,15.1-3.9C463.9,482.8,466.4,482.2,469.2,481.4z"/>
			<path class="st0" d="M457.4,417.2c-2,0.5-3.8,0.9-5.7,1.4c-0.4-2.3,0.3-16.6,0.9-18.5c0.3,0.4,0.7,0.7,0.9,1.1
				c0.3,0.7,0.5,1.4,0.6,2.2c1,4.1,2,8.2,3,12.3C457.2,416.1,457.3,416.5,457.4,417.2z"/>
		</g>
		<path class="st0" d="M425.9,499.9c-0.8,0.1-1.5,0.2-2.3,0.4c-14.3,3.5-28.6,7-42.9,10.5c-0.7,0.2-1.5,0.4-2.2,0.5
			c-0.6,0.1-1-0.3-0.9-1.2c0.5-0.2,1.2-0.4,1.8-0.6c14.4-3.5,28.7-7.1,43.1-10.6c1.2-0.3,2.3-0.6,3.5-0.9c0.2-1.9,0.4-3.6-0.2-5.3
			c-0.8,0.2-1.6,0.3-2.3,0.5c-12.2,3.1-24.4,6.3-36.6,9.4c-0.8,0.2-1.7,0.2-2.7,0.4c-0.1-1.2-0.1-2.2-0.1-3.1c0-16.1,0-32.2,0-48.3
			c0-3.3,0-6.6,0-9.9c0-1.6,0.1-3.3-0.6-4.9c-0.6,0.1-1.1,0.2-1.6,0.3c-3.9,0.9-7.7,1.8-11.6,2.8c-0.2,0-0.3,0.1-0.5,0.1l-0.2-0.1
			h-1.1l-5,1.2l0.5,1l0.7-0.1l0.2,0.1l0.2-0.1c2.5,3.8,4.4,7.9,5.8,12.3c2.8,8.7,4,17.6,4.4,26.7c0.6,12.6-0.2,25.1-1.8,37.5
			c-0.1,0.5,0,1,0,1.7c0.7-0.1,1.1-0.2,1.4-0.3c12.7-3.2,25.5-6.5,38.2-9.7c4-1,8-2,11.9-3.1c0.7-0.2,1.5-0.2,1.5-1.1
			C426.5,503.9,426.7,501.9,425.9,499.9z"/>
		<path class="st0" d="M424,411c-0.2-4.7,0.2-9.3,0.3-14.1c-0.3,0-0.6,0.1-0.8,0.1c-12.5,2.2-25.1,4.4-37.8,5.6
			c-2.7,0.3-5.5,0.6-8.2,0.6c-2.8,0-3.8-1.4-3.2-4.2c0.1-0.4,0.2-0.8,0.3-1.2c1-2.8,1.9-5.6,3.1-8.3c4.5-10.8,10.1-21,15.9-31.1
			c1.8-3.1,3.8-6.2,6-9c3.7-4.9,8.8-7.3,14.7-8.1l-0.1,0.2l1.7,0.1v-1.1l-0.4-0.1l-0.7-1.8l-0.5-1l-0.2,0c-0.5-1-1-1.9-1.2-3
			c-0.4-1.4-1.2-2-2.6-2c-7.3-0.4-14.5-0.8-21.8-1.2c-6.7-0.3-13.4-0.6-20.1-0.8c-8.1-0.2-16.2-0.4-24.3-0.4
			c-10.2,0-20.4,0.2-30.6,0.4c-3.8,0.1-7.5,0.3-11.3,0.8c-4.7,0.6-9.1,2.2-13.5,4.1c0.3,0.1,0.5,0.2,0.8,0.2
			c11.7,0.3,23.3,0.4,35,0.8c10.5,0.3,21.1,0.7,31.6,1.2c9,0.5,18,1.1,27.1,1.7c1.3,0.1,2.6,0.3,3.8,0.6c2.9,0.8,3.9,2.4,3.5,5.4
			c-0.5,3.6-1.8,7-3.2,10.4c-4.4,10.7-9.9,20.9-15.9,30.9c-1.5,2.6-3.3,5.1-5.5,7.2c-2.3,2.2-4.9,3.4-8.1,3.3
			c-5.5-0.2-11.1-0.5-16.6-0.8c-7.7-0.4-15.3-0.9-23-1.3c-2.5-0.2-5.1-0.3-7.6-0.5c-4.9-0.4-9.8-0.7-14.8-1.1
			c-4.2-0.3-8.3-0.6-12.5-1c-5.9-0.5-11.7-1-17.6-1.5c-3.7-0.3-7.4-0.6-11.1-1c-5-0.5-10.1-1-15.1-1.5c-4.5-0.5-9-0.9-13.5-1.4
			c-5.3-0.6-10.6-1.2-15.9-1.9c-3.7-0.5-7.3-1.1-10.9-2c-2.1-0.5-4.1-1.6-6.4-1c-0.3,0.1-0.7-0.1-1-0.1c-5.8-0.3-11.6-0.8-17.4-0.9
			c-11.5-0.1-23,0.2-34.5,1.2c-3.5,0.3-6.9,0.8-10.4,1.5c-5.9,1.1-11.4,3.6-16.6,6.4c-13.7,7.3-27.3,14.6-40.8,22.2
			C59,419.8,46,427.7,33.6,436.7c-1.4,1-2.8,2.2-4.2,3.4c-2,1.8-3.5,4-4,6.8c-0.6,3-0.5,6,0,9c1.3,8.3,3.6,16.3,6.4,24.2
			c0.3,0.8,0.5,1.5,0.8,2.5c-1,0.4-1.9,0.8-2.8,1.2c-2.9,1.2-5.8,2.4-8.1,4.7c-2,1.9-2.2,3.6-0.4,5.8c1.5,1.7,3,3.4,4.7,4.9
			c8.4,7.9,18,13.9,28.3,18.9c4.9,2.4,10.1,4.4,15.6,5.1c1.7,0.2,3.4,0.8,4.7,2c3.7,3.5,8.2,5.5,12.8,7.2c8.2,3,16.5,5.5,25,7.5
			c12.8,3.1,25.8,5.8,38.8,7.9c8.2,1.3,16.4,2.5,24.6,3.6c5.8,0.8,11.6,1.5,17.4,1.9c4.7,0.4,9.5,0.5,14.2,0.4
			c8-0.1,16-1.3,23.9-2.4c10.2-1.5,20.4-3.1,30.6-4.9c4.9-0.8,9.7-1.9,14.5-3c2.6-0.6,3.1-1.2,3.4-3.6c0.3-2.1,0.5-4.2,0.8-6.3
			c1.2-9.4,2.3-18.9,3.8-28.3c2-12.5,5.2-24.8,9.8-36.7c3.6-9.3,8.2-18,15-25.3c8.7-9.4,19.3-14.6,32.2-14.4
			c9,0.2,16.5,3.7,22.1,10.9c0.2,0.3,0.4,0.6,0.6,0.8c1.4-0.3,2.8-0.6,4.2-0.9c0.7-0.2,1.2-0.4,1.7-0.6c3.9-1,7.7-1.9,11.6-2.8
			c0.7-0.2,1.4-0.4,2.3-0.7c-0.5-2.9-0.9-5.7-1.5-8.4c-1.4-6.4-3.5-12.5-5.8-18.6c-0.3-0.7-0.4-1.4-0.6-2.1c1.4-0.4,1.6,0.5,1.9,1.2
			c2.5,6.3,4.7,12.7,6.2,19.4c0.6,2.6,1,5.2,1.5,7.8c1.9,0.2,38.1-8.6,40-9.8C424.9,420.3,424.2,415.6,424,411z M169.5,441.9
			c5.7-3.5,11.6-6.5,17.7-9.2c18.3-8.2,37.2-14.6,56.5-20.1c18.6-5.3,37.3-10.1,56.2-13.9c5.8-1.2,11.7-2,17.6-3
			c0.6-0.1,1.3,0,2.1,0c-0.1,1.3-0.7,1.3-1.3,1.4c-2.2,0.4-4.5,0.6-6.7,1.1c-9.7,1.9-19.5,3.7-29.2,5.9c-25,5.6-49.6,12.7-73.8,21.3
			c-13.4,4.8-26.4,10.4-38.6,17.8c-0.6,0.4-1.3,1.1-2.2,0.3C168,442.5,168.9,442.3,169.5,441.9z M264,428.1
			c-2.2,1.7-4.5,3.4-6.9,4.7c-10.5,5.8-21.2,11.1-32.6,15c-7.9,2.7-16.1,4.5-24.4,5.2c-7.8,0.7-15.6,1.1-23.4,1.7
			c-2.4,0.2-4.8,0.4-7.2,0.6c-0.4,0-0.9-0.1-1.3-0.1c-0.1-0.2-0.1-0.4-0.2-0.6c0.8-0.5,1.5-1,2.3-1.5c9.6-5.1,19.1-10.2,28.7-15.2
			c7.1-3.8,14.2-7.7,21.5-11.3c4.3-2.2,8.9-4,13.4-5.9c7.3-3,14.8-3.1,22.4-1.1c2.4,0.6,4.9,1.4,7.2,2.5
			C266.7,423.8,266.9,425.9,264,428.1z M59.4,436.5c5.2,5,11.7,7.9,18.4,10.1c9.1,3,18.5,5.1,28.1,5.5c5.7,0.2,11.5,0.1,17.2,0.2
			c0.4,0,0.8,0.1,1.2,0.6c-0.5,0.1-0.9,0.2-1.4,0.3c-6.7,0.6-13.4,0.2-20.1-0.4c-10.1-0.9-19.9-3.1-29.3-6.6
			c-5-1.9-9.8-4.3-13.9-7.8c-0.6-0.5-1.1-1-1.6-1.6c-0.1-0.1-0.2-0.3-0.3-0.7C58.5,435.7,59,436.1,59.4,436.5z M27.4,451.1
			c0.5,0.6,1,0.9,1.1,1.3c1.4,4.6,4,8.5,7.6,11.7c0.1,0.1,0.1,0.2,0.1,0.4C32.2,462.5,27.2,455.1,27.4,451.1z M36.5,493.2
			c-1.5-2.5-2.6-5.2-3.8-8.3c0.7,0.1,1.1,0,1.4,0.2c0.6,0.6,3.2,7,3.4,8.3C37,493.4,36.6,493.4,36.5,493.2z M70.6,518
			c-6.6-2.4-13.1-4.8-19.7-7.2c-3.9-1.4-7.9-2.9-11.8-4.3c-1.9-0.7-1.9-0.7-1.5-2.7c0.6-3.2,1.2-6.5,1.8-9.7c0.1-0.5,0.3-1,0.6-1.8
			c0.9,0.3,1.6,0.6,2.3,0.9c7.2,3.1,14.5,6.2,21.7,9.2c1.8,0.8,3.1,1.9,3.8,3.7c1.4,3.5,3,6.9,4.5,10.4c0.2,0.5,0.4,1.1,0.7,2.1
			C72.1,518.3,71.3,518.3,70.6,518z M155.7,534.1c-11.6-1.2-23.2-2.7-34.8-4.7c-5.1-0.9-10.3-1.8-15.2-3.5
			c-7.7-2.6-13.6-7.3-17.2-14.6c-1.4-2.7-2.1-5.6-2.5-8.6c0-0.3-0.1-0.7-0.1-1c0-0.5,0-1.2,0.4-1.4c0.2-0.8,0.3-1.6,0.4-2.4
			c-1.9,0.1-3.8,0.2-5.7,0.3c-3,0.2-5.9,0.9-8.9,1.4c-0.7,0.1-1.4,0.5-2.1-0.2c0.2-1,0.9-1,1.6-1.2c3-0.6,5.9-1.4,8.9-1.6
			c7.5-0.5,14.9-0.7,22.4-0.9c13.2-0.3,26.3-0.6,39.5-0.9c4-0.1,7.9-0.3,11.9-0.3c1.4,0,2.7,0.2,4.1,0.3c2.2,0.1,3.7,1.2,5.1,2.7
			c0.2,0.2,0.4,0.4,0.5,0.6c6.3,8.2,12.6,16.5,18.8,24.7c1.8,2.3,3.4,4.8,5.1,7.2c0.6,0.8,1.1,1.7,1.5,2.7c0.8,2,0.1,3.3-2,3.4
			c-2.6,0.2-5.2,0.4-7.8,0.2C171.6,535.7,163.7,534.9,155.7,534.1z M287.9,473.5c-2.4,4.6-5,9.2-7.2,13.8
			c-3.7,7.6-5.7,15.7-6.2,24.1c-0.4,7.4-0.9,14.8-1.3,22.2c-0.1,2.3-0.1,2.4-2.4,2.7c-5.4,0.8-10.8,1.5-16.3,2.3
			c-6,0.8-11.9,1.6-17.9,2.3c-5.3,0.7-10.6,1.2-15.9,1.8c-6,0.7-12,1.4-18,1.9c-5.9,0.5-11.9,0.9-17.8,1.2c-1.8,0.1-3.7-0.1-5.5-0.3
			c-0.5,0-1-0.3-1.6-0.5c0.5-1.3,1.3-0.9,1.9-0.9c4,0,8.1,0.3,12.1,0c5.2-0.3,10.4-0.9,15.5-1.4c4.5-0.5,9-1,13.5-1.5
			c5.2-0.6,10.3-1.2,15.5-1.8c5.9-0.7,11.8-1.5,17.7-2.3c3.5-0.5,7.1-1,10.6-1.4c1.6-0.2,3.3-0.3,4.9-0.5c0.5-0.1,1-0.2,1.7-0.3
			c0.1-0.7,0.2-1.3,0.2-1.9c0.4-6.8,0.8-13.7,1.2-20.5c0.6-9.3,2.7-18.2,6.8-26.5c2.3-4.6,4.8-9.1,7.2-13.6c0.4-0.7,0.7-1.7,2.2-1.2
			C288.6,472.1,288.3,472.8,287.9,473.5z M238.5,516.4c3.3-0.8,6.7-1.6,10-2.1c5.1-0.9,10.3-1.6,15.4-2.3c2-0.3,4-0.5,6.4-0.9
			c0,1,0.1,1.6,0,2.2c-0.4,3.3-1.1,6.5-2.3,9.6c-1.5,3.8-4.1,6.3-8.1,7.2c-4.3,1-8.7,2-13,2.8c-5.8,1.1-11.6,2.1-17.4,3.1
			c-0.6,0.1-1.3,0.1-2.2,0.1c0.2-0.8,0.3-1.4,0.5-1.8c2.8-5.4,5.6-10.8,8.4-16.2C236.8,517.1,237.6,516.6,238.5,516.4z M238.8,510
			c3.4-6.9,6.9-13.7,10.3-20.6c0.3-0.6,0.6-1.1,0.9-1.6c2.2-4.2,5.6-6.7,10.2-8c6.9-1.9,13.7-4,20.5-6c0.8-0.2,1.7-0.7,2.4,0.6
			c-0.3,0.5-0.6,1.1-1,1.6c-6.5,9.2-13.1,18.3-19.5,27.5c-2.7,3.8-6.1,6.2-10.7,7c-3.6,0.6-7.2,1.1-10.7,1.7c-0.3,0.1-0.7,0.1-1,0.1
			C238.2,512.3,237.9,511.8,238.8,510z M288,462.1c-14.7,3.3-29.5,6.4-44.3,8.7c-11.4,1.8-22.7,3.6-34.1,5.2
			c-6.6,0.9-13.3,1.6-20,2.2c-8.9,0.8-17.7,1.5-26.6,2.1c-6.9,0.4-13.8,0.6-20.7,0.8c-4.8,0.1-9.6,0.3-14.4,0.2
			c-8.1-0.1-16.2-0.3-24.3-0.7c-14.3-0.7-28.5-2.1-42.6-5.3c-2.3-0.5-4.5-1.1-6.8-1.7c-0.5-0.1-0.9-0.4-1.3-0.9
			c0.8,0.2,1.6,0.3,2.3,0.5c5.8,1.5,11.7,2.4,17.6,3.1c5.5,0.6,11,1.3,16.5,1.9c3.5,0.4,7.1,0.7,10.6,0.9c14.4,1,28.9,1.1,43.4,0.8
			c7.5-0.2,15.1-0.7,22.6-1.1c6-0.4,12-0.8,18-1.4c5.7-0.5,11.4-1.2,17.2-1.9c5.7-0.7,11.4-1.4,17.1-2.2c7.7-1.1,15.3-2.1,22.9-3.5
			c13.3-2.4,26.5-5.1,39.7-7.7c3.4-0.7,6.7-1.5,10-2.3c0.9-0.2,1.8-0.7,3,0.6C291.7,461.2,289.9,461.7,288,462.1z M298.5,450.1
			c-8.6,3.4-17.6,5.7-26.7,7.5c-10.1,2-20.4,3.5-30.7,4.6c-9.1,1-18.2,2-27.4,2.8c-7.7,0.7-15.4,1.1-23.2,1.7
			c-21.7,1.5-43.4,1.4-65.2,1.1c-6.5-0.1-13-0.4-19.5-0.8c-12.3-0.8-24.6-2.1-36.5-5.7c-5.7-1.7-11.2-3.7-16.3-6.7
			c-3.9-2.3-7.4-4.9-10.2-8.5c-1.8-2.3-3.1-4.8-3.8-7.7c-0.2-0.8-0.3-1.6-0.4-2.4c0.1-0.1,0.3-0.1,0.4-0.2c0.2,0.3,0.6,0.6,0.7,1
			c1.1,7,5.5,11.6,11.2,15.3c6.3,4.1,13.3,6.7,20.6,8.6c6.9,1.8,13.9,2.9,21,3.8c9,1.1,18,1.6,27.1,1.7c12.1,0.1,24.1,0.3,36.2,0.2
			c8.7-0.1,17.4-0.4,26.1-0.8c7.1-0.3,14.2-0.7,21.3-1.2c8.7-0.7,17.5-1.5,26.2-2.3c11.5-1.1,22.8-2.7,34.2-4.6
			c11.9-2,23.7-4.6,34.9-9.1c0.8-0.3,1.7-0.9,2.2,0.7C300.1,449.3,299.3,449.8,298.5,450.1z M377.2,425c-0.6,1.1-1.4,0.8-2.1,0.7
			c-3.7-0.6-7.4-1.3-11.1-1.8c-5.9-0.7-11.9-0.8-17.9-0.5c-7,0.4-13.9,1.7-20.4,4.3c-6.4,2.5-12,6.2-16.7,11.4
			c-0.5,0.6-1.1,1.5-2.4,0.6c0.6-0.7,1.1-1.3,1.6-1.9c6.3-6.7,14.2-10.9,23-13.2c9.4-2.5,19.1-3.1,28.7-2.1
			c5.1,0.5,10.2,1.4,15.2,2.1C375.9,424.6,376.5,424.8,377.2,425z"/>
		<path class="st0" d="M482.3,348.1c1.2,0.5,1.9,0.9,2.6,1.2c9.8,4.6,19.6,9.1,29.5,13.7c3.6,1.7,7.3,3.2,11.3,3.5
			c1.9,0.2,3.8,0.1,5.7,0.2c9.7,0.5,19.3,1.2,28.7,3.7c4.3,1.1,8.5,2.8,12.4,5c4.7,2.6,7.4,6.6,8,12c0.6,5.9,0.9,11.7,0.6,17.7
			c-0.2,4.7-0.3,9.5-0.6,14.2c-0.3,5.3-0.6,10.7-1.2,16c-0.2-1.8-0.5-3.7-0.7-5.5c-0.8-6-2.1-11.9-4.5-17.5c-0.9-2.1-2-4.2-3.4-6
			c-3.4-4.4-8-5.3-13-2.9c-3,1.4-5.3,3.7-7.2,6.3c-3.4,4.5-5.9,9.6-7.8,14.9c-3,8-4.7,16.3-6.1,24.7c-1.1,7.2-2.1,14.4-3.1,21.6
			c-0.3,2.2-0.4,4.5-0.6,6.8c-0.1,1.9-0.1,2.1-2,2.6c-4.9,1.4-9.9,2.7-14.9,3.9c-7.8,2-15.7,3.9-23.5,5.8c-0.8,0.2-1.6,0.4-2.6,0.6
			c-0.7-1.8-0.6-3.7-0.4-5.5c0-0.4,0.9-0.8,1.4-0.9c3.7-1,7.4-1.9,11.2-2.8c8-2,16-3.9,23.9-5.9c0.3-0.1,0.5-0.1,0.8-0.2
			c0.6-0.2,1.6-0.1,1.3-1.1c-0.3-0.9-1.2-0.5-1.8-0.4c-3,0.7-6,1.5-9,2.2c-8.8,2.2-17.6,4.3-26.3,6.4c-0.5,0.1-1,0.2-1.9,0.3
			c-0.2-1.8-0.4-3.4-0.5-5c-0.1-0.9,0.5-1.2,1.2-1.4c1.6-0.4,3.2-0.8,4.8-1.2c3.6-0.9,7.3-1.9,10.9-2.8c2.1-0.5,2.2-0.6,2.2-2.8
			c0-5.6-0.1-11.2-0.1-16.9c0-1,0.1-2.1,0.1-3.1c0-1.1,0.6-1.6,1.5-1.9c0.7-0.2,1.5-0.4,2.2-0.5c6.6-1.2,13.2-2.4,19.8-3.6
			c1.1-0.2,2.3-0.4,3.4-0.7c0.4-0.1,0.8-0.3,1.1-0.8c-0.5,0-1-0.1-1.5,0c-8.7,1.7-17.5,3.4-26.2,5.1c-2,0.4-2.1,0.4-2.1,2.5
			c0,5.9,0.1,11.8,0.1,17.7c0,3.7-0.4,4.3-4.1,5.1c-2.2,0.5-4.4,0.9-6.6,1.4c-2.2,0.5-4.4,1.1-6.8,1.7c-0.2-0.6-0.4-1.1-0.5-1.6
			c-0.4-3.7-0.9-7.3-1.2-11c-0.1-1.5,0.1-3,0.5-4.4c2.8-10.5,5.9-21,8.6-31.5c1.3-5.1,2.2-10.3,3.2-15.5c0.1-0.5,0.1-0.9,0.1-1.4
			c0-0.1-0.1-0.2-0.2-0.4c-1.3,0-1.2,0.9-1.4,1.8c-0.6,3.5-1.1,7.1-2,10.5c-2.2,8.6-4.6,17.1-6.9,25.6c-0.6,2.1-1.2,4.2-1.8,6.7
			c-0.2-10.8-3.2-20.8-5-30.9c-0.5-2.8-1.2-5.6-1.7-8.5c-0.1-0.7-0.1-1.3-0.2-2.1c0.8-0.3,1.5-0.5,2.2-0.7
			c24.7-6.7,49.4-13.4,74.2-20.1c4.8-1.3,9.4-3,13.8-5.2c0.5-0.3,1.1-0.6,1.6-0.9c0.1-0.1,0.1-0.2,0.2-0.5c-0.4,0.1-0.8,0-1.1,0.2
			c-7.9,4.1-16.4,6.1-24.9,8.4c-21.1,5.8-42.3,11.5-63.5,17.2c-2.9,0.8-3,0.8-3.6-2.2c-1.4-7.1-2.7-14.1-4-21.2
			c-0.3-1.5-0.4-3.1-0.6-4.8c0.9-0.4,1.7-0.8,2.5-1.2c6.4-2.9,12.7-5.9,18.4-10c1.1-0.8,2.1-1.5,3-2.5c1.5-1.6,1.5-2.9,0.1-4.5
			c-1-1-2.1-2-3.3-2.7c-3.4-2.2-6.9-4.3-10.4-6.3c-1.2-0.7-1.8-1.5-1.9-2.9C482.7,351.2,482.5,349.9,482.3,348.1z M508.2,372.1
			c0,0.3,0,0.5,0.1,0.7c2.9,6.2,5.9,12.4,8.9,18.5c0.6,1.2,1.2,1.3,2.3,0.3c2.9-2.6,5.6-5.5,7.2-9.1c2.4-5.3,0.2-10.1-5.4-11.8
			c-4.2-1.3-8.3-0.7-12.2,0.9C508.7,371.6,508.4,371.9,508.2,372.1z"/>
		<path class="st0" d="M509.8,372.3c4.4-1.5,8.4-1.6,12.3,0.2c3.1,1.5,4.3,4.2,3.4,7.7c-0.4,1.4-1,2.7-1.7,4
			c-1.3,2.4-3.6,4.9-5.4,6.1C515.6,384.4,512.8,378.5,509.8,372.3z"/>
	</g>
</g>
<g>
	<g id="outlines">
		<path d="M582.6,392.2c-0.1-2-0.2-4-0.4-5.9c-0.5-4-2.2-7.4-5.4-9.8c-2.1-1.6-4.4-3-6.8-4.2c-4.6-2.2-9.6-3.3-14.6-4.1
			c-7.8-1.2-15.6-2.2-23.5-2.6c-2.3-0.1-4.7-0.1-6.9-0.6c-2.9-0.7-5.8-1.6-8.6-2.8c-10.9-4.4-21.5-9.6-32.2-14.7
			c-1.9-0.9-2.8-2.1-3.2-4.1c-1.7-7.6-3.9-15.1-6.5-22.5c-1.4-3.8-3.9-6.6-7.4-8.4c-1.5-0.8-3-1.4-4.5-2c-2.4-0.9-4.7-1.8-7.1-2.7
			c-1.2-0.5-2.1-1-2-2.6c0.1-1.4-0.8-1.8-2.1-1.3c-0.7,0.2-1.4,0.6-2,0.9c-1.1-1-0.6-2-0.3-2.9c0.3-0.9,1.1-0.6,1.8-0.6
			c1.4,0,2.7,0.1,4.1,0c4.7-0.4,7.7-3.6,7.3-7.9c-0.1-0.8-0.2-1.7-0.5-2.4c-1.3-3.2-1.2-6.5-0.5-9.9c0.9-4.1,1.3-8.3,0.5-12.5
			c-0.1-0.5-0.1-0.9-0.1-1.3c0.3-0.2,0.4-0.3,0.6-0.4c3.3-2.1,3.7-5.6,1-8.4c-0.7-0.7-1.5-1.4-2.3-2.1c-1.6-1.4-2.5-3-2.6-5.2
			c0-2.2-0.8-4.1-2.7-5.5c-0.3-0.2-0.5-0.4-0.7-0.7c-1.4-1.6-1.3-2.7,0.4-4c0.4-0.3,0.8-0.6,1.4-1c-1.4-0.8-2.6-0.3-3.8-0.2
			c-2,0.1-3.9,0.7-5.5,2c-1.3,1.1-1.9,2.6-2,4.3c-0.1,1-0.7,1.6-1.7,1.8c-0.7,0.2-1.5,0.3-2.2,0.4c-3.1,0.7-6.3,1.2-9.4,2.1
			c-3.3,0.9-6.1,2.8-8.2,5.6c-1.9,2.5-1.9,4.9,0.2,7.3c0.7,0.8,0.9,1.5,0.7,2.6c-0.5,3.2-0.4,6.4,0.9,9.5c0.2,0.4,0.4,0.9,0.3,1.2
			c-0.6,1.1,0.1,2,0.5,2.9c1.4,3,3.5,5.4,6.5,6.8c1.2,0.5,2.1,1.3,2.8,2.3c0.6,0.9,1.2,1.8,1.9,2.7c1,1.2,1,2.6,0.6,4
			c-1.2,4.2-3.5,7.6-7,10.1c-2.6,1.9-5.4,3.5-8.1,5.2c-1.8,1.1-3.6,2.2-5.3,3.5c-4.7,3.7-6.6,8.7-6.1,14.7c0.1,0.8,0.1,1.6,0.2,2.5
			c-1.2,0-2.3,0-3.3,0c-3.7-0.2-7.4-0.5-11.1-0.6c-8.8-0.3-17.7-0.6-26.5-0.9c-7.7-0.2-15.3-0.5-23-0.7c-12.7-0.3-25.4-0.3-38,0.3
			c-1.5,0.1-3,0.3-4.5,0.5c-7.3,1-14.3,3.1-21.1,5.9c-14.5,5.9-28.9,12.3-42.9,19.4c-10.3,5.2-20.4,10.6-30.6,16.1
			c-4.2,2.2-8.2,4.6-12,7.6c-1.5,1.2-3.2,2-5.3,1.9c-4.9-0.3-9.9-0.7-14.8-0.7c-8,0-16,0.2-24.1,0.3c-4.5,0.1-9,0.2-13.6,0.5
			c-2.8,0.2-5.6,0.6-8.4,1c-5.8,0.9-11.2,3.1-16.4,5.7c-12.7,6.3-25.4,12.8-37.7,19.7c-15.3,8.7-30.6,17.5-45,27.7
			c-2.2,1.6-4.4,3.3-6.4,5.2c-2.7,2.5-3.9,5.8-4,9.4c-0.1,3,0,6,0.7,9c1.7,7.7,3.5,15.4,6.5,22.7c0.1,0.2,0.1,0.5,0.2,1
			c-0.8,0.3-1.7,0.6-2.4,1c-2.3,1.1-4.7,2.3-6.9,3.5c-0.9,0.5-1.6,1.3-2.3,2.1c-1.1,1.3-1.3,2.9-0.3,4.4c0.6,0.9,1.2,1.7,1.9,2.4
			c5.6,6.3,12.2,11.4,19.4,15.8c9,5.6,18.2,10.6,28.9,12.5c1.6,0.3,3.3,1.1,4.6,2.1c3.6,2.8,7.4,4.9,11.6,6.5
			c6.8,2.7,13.8,4.9,20.9,6.8c12.3,3.3,24.8,5.7,37.4,7.9c14.8,2.6,29.7,5.2,44.7,6.5c7.9,0.7,15.8,1.6,23.8,0.8
			c5.7-0.6,11.5-1.1,17.1-1.9c6.8-1,13.5-2.3,20.2-3.5c7.8-1.4,15.5-2.7,23.3-4.1c2.1-0.4,4.3-0.9,6.5-1.4c0.2,1,0.4,1.8,0.6,2.5
			c0.5,1.7,1.1,3.4,1.8,5c1.2,2.7,3.4,4.1,6.3,4.1c1.4,0,2.7,0,4.1-0.1c3-0.1,6-0.3,9-0.2c7.6,0.3,15.2,0.5,22.8-0.1
			c5.3-0.4,10.6-1.3,15.8-2.6c10.2-2.6,17.9-8.2,22.8-17.7c5.9-11.4,9.8-23.4,9.7-36.4c0-9.5,0-19.1,0-28.6c0-0.7,0-1.3,0-2
			c1.5,7.5,1.8,15,1.8,22.6c-0.1,9.7-0.8,19.3-2.2,28.9c-0.1,0.6,0,1.2,0,2c1-0.2,1.7-0.3,2.4-0.4c6.8-1.7,13.5-3.4,20.3-5.2
			c10.1-2.6,20.2-5.2,30.3-7.7c0.7-0.2,1.4-0.2,2.2-0.3c0.1,0.7,0.2,1.1,0.3,1.5c0.7,5.8,1.3,11.6,2,17.4c0.2,1.4-0.1,2.7-0.8,3.9
			c-0.6,1.1-1.3,2.1-1.9,3.2c-1.4,2.6-1.2,4.6,1,6.5c2.3,2,4,4.5,5.5,7.1c3,5,7.4,8.4,12.6,10.8c1.5,0.7,3.1,1.1,4.7,1.3
			c3.2,0.3,4.9-1.7,4.3-4.9c-0.2-0.7-0.4-1.5-0.7-2.1c-0.9-1.8-1.9-3.7-3-5.4c-3.1-4.8-6.3-9.5-9.4-14.3c-1.9-2.8-2.4-5.9-2-9.2
			c0.8-6,1.6-12,2.4-17.9c0.2-1.4,0.8-2.1,2.3-2.4c7.4-1.8,14.9-3.8,22.3-5.7c2.2-0.6,4.4-1.1,6.6-1.7c0.3,0.6,0.5,1.1,0.7,1.6
			c2.1,7.4,4.2,14.8,6.3,22.1c0.9,3.3,0.9,6.6,0.5,10c-0.2,1.7-0.4,3.4-0.3,5.1c0.2,3.3,1.9,5,5.3,5.1c2,0.1,4-0.1,5.9-0.2
			c3.3-0.3,6.5-0.7,9.8-0.9c4.6-0.3,9.2-0.5,13.7-0.9c1.9-0.2,3.9-0.8,5.7-1.6c1.6-0.7,1.8-2.1,0.5-3.3c-0.7-0.7-1.7-1.3-2.7-1.7
			c-1.5-0.6-3.2-0.9-4.8-1.3c-5-1.1-10-2.2-15-3.4c-4-0.9-6.3-3.5-6.6-7.6c-0.7-8.6-1.4-17.2-2-25.8c0-0.5,0.1-0.9,0.1-1.5
			c0.6-0.2,1.2-0.5,1.8-0.6c8.1-2.1,16.2-4.2,24.3-6.2c5.4-1.4,10.9-2.8,16.3-4.2c1.8-0.5,1.8-0.5,2-2.4c0.1-1.5,0.3-3,0.4-4.5
			c0.9,2.3,1.6,4.7,2.6,6.9c0.3,0.8,1,1.4,1.5,2.1c-0.8-2.5-1.8-4.9-2.5-7.4c-1.2-4.3-1.1-8.6-0.4-13c1.8-13,4.5-25.8,8.7-38.2
			c1.1-3.3,2.5-6.5,4.1-9.6c1-2,2.4-3.9,3.7-5.6c1.7-2.1,3.8-3.8,6.3-4.9c3.8-1.7,7.3-0.9,10,2.2c1.7,2,2.9,4.3,3.9,6.7
			c1.9,4.6,2.9,9.4,3.7,14.3c1,6.3,1.6,12.6,1.8,19c0.1,4-0.4,7.9-1.7,11.7c-0.6,1.8-1.3,3.6-2.2,5.3c0.1-0.9,0.3-1.9,0.4-2.8
			c1.6-9.7,1.8-19.5,1.3-29.3c-0.2-3-0.5-6-1-9c-0.5-2.9-1.8-5.6-3.7-8c-1.5-1.9-3.4-3.3-5.7-4.3c-2.9-1.2-5.6-0.8-7.9,1.2
			c-1.6,1.3-3,2.8-4.3,4.4c-5.1,6.3-8.1,13.6-9.7,21.5c-2.2,10.7-1.7,21.4,1.5,31.9c1.3,4.5,3.5,8.5,6.9,11.7c0.9,0.9,1.9,1.9,3.3,2
			c-0.1-0.1-0.1-0.3-0.2-0.3c-5.1-4-7.7-9.5-9-15.7c-2.8-12.6-2.7-25.1,1.8-37.4c1.9-5.2,4.3-10.2,8.1-14.4c1.1-1.2,2.2-2.2,3.5-3.2
			c2.9-2.2,5.7-2,8.3,0.6c1.2,1.2,2.2,2.6,3,4.1c2.3,4.1,3.5,8.6,3.6,13.4c0.1,6.9,0.3,13.8,0,20.7c-0.3,7.5-1.6,14.8-4.5,21.8
			c-1.1,2.5-2.2,5-4.2,7c-1.2,1.3-2.7,2.3-4.2,3.2c-1.7,1.1-3.7,0.7-5.6,0.4c1.2,1.2,2.7,1.1,4.2,1.1c0.8,0,1.6-0.2,2.7-0.4
			c-1.6,1.9-3.7,2.5-5.7,2.9c-4.6,0.8-9.3,0.3-13.8-0.5c-1.3-0.2-2.5-1.5-3.7-2.3c0.8,2,2.1,3.7,4.3,3.9c4,0.3,8.1,0.4,12.1,0.4
			c4.5,0,8-2,10.6-5.7c0.9-1.3,1.9-2.7,2.6-4.2c2.1-4,4.1-8.1,6-12.2c2.7-6,4.3-12.3,5.1-18.8c0.7-5.8,1-11.6,1.4-17.4
			C582.5,417.3,583,404.8,582.6,392.2z M453.2,308.2c0.3,0,0.5-0.1,0.7,0c3.7,1.4,7.5,2.7,11.2,4.2c4.3,1.7,7,4.8,8.4,9.2
			c2.9,9.2,5.7,18.4,7.6,27.9c0.7,3.6,0.6,7.2,0.2,10.9c-0.2,2.2-1.4,3.9-3.6,4.6c-6.4,1.9-12.9,3.2-19.6,2.8c-0.4,0-0.8-0.1-1.3-0.2
			c-0.8-2.7-0.5-3.1,1.8-4c2.6-1.1,5.3-2.3,7.8-3.6c1.4-0.8,2.7-1.8,3.9-3c2.8-2.8,3.3-6.1,1.1-9.3c-1.2-1.8-1.5-3.7-1.5-5.8
			c-0.1-5.8-0.6-11.6-2.2-17.3c-0.2-0.8-0.3-1.8-1.5-2c-0.8,0.8-0.2,1.6,0,2.3c1.4,5.4,2,10.9,2.1,16.5c0,0.7-0.1,1.5-0.1,2.3
			c-0.5,0.1-0.8,0.2-1.1,0.2c-1.5-0.1-2.6,0.7-3.4,1.9c-0.6,0.9-1.1,1.8-1.7,2.6c-1.2,1.7-3.1,2.5-5.2,2.3c-0.3-1.6-0.5-3.2-0.8-4.8
			c-1.1-5.7-3.4-11-5.3-16.4c-1.5-4.2-2.8-8.5-4.1-12.7c-0.2-0.7-0.3-1.5-0.4-2.2c-0.1-1,0.5-1.5,1.5-1.2c0.4,0.1,0.8,0.5,1.3,0.6
			c0.8,0.4,1.6,0.8,2.5,1c1.9,0.5,2.9-0.5,2.6-2.5C453.5,311.1,452.8,309.7,453.2,308.2z M482.9,359.7c0.1-1.1,0.2-2.2,0.4-3.6
			c4.7,2.5,9.1,4.9,12.8,8.4c0.4,0.4,0.8,0.8,1.1,1.2c0.8,1.1,0.8,1.8-0.1,2.8c-0.6,0.7-1.3,1.5-2.1,2c-2.1,1.5-4.1,3-6.3,4.2
			c-4,2.1-8.1,4.1-12.1,6c-0.5,0.3-1.1,0.4-1.9,0.7c-0.8-4.6-0.8-9.1-1.2-13.8c1.1-0.3,2.2-0.7,3.3-1
			C481.5,365.5,482.2,364.8,482.9,359.7z M470.3,374c-2.1,0.5-4.1,1-6.2,1.4c-2,0.4-6.9,0.3-8.7-0.1c0.1-1.7,0.1-3.5,0.2-5.2
			c0-0.9,0.6-1.1,1.4-1.1c3.1,0,6.1-0.1,9.2-0.2c1.7-0.1,3.4-0.5,5-0.7C472.5,370.6,472.1,372.4,470.3,374z M463.2,358.5
			c0,0.8,0.1,1.5-1.2,1.7c-0.5-1.3-0.9-2.7-1.5-4c-0.6-1.3-1.3-2.5-2.1-3.9c2.1-0.8,2.1-0.8,3,0.7
			C462.4,354.7,463.1,356.5,463.2,358.5z M462,350.9c0.8-1.2,1.7-2.6,2.7-4c1.8-2.4,4.2-2.2,5.4,0.5c1.9,4.3,1.3,7.4-2.4,9.9
			c-0.8,0.6-1.7,1.1-2.5,1.6C464.1,356.1,463.1,353.6,462,350.9z M446.7,310.9c-0.7,0.7-1.2,1.3-1.7,1.6c-0.6,0.2-1.3-0.7-1.3-1.4
			c0-0.8,0.7-1.6,1.3-1.4C445.5,309.8,446,310.3,446.7,310.9z M446.1,307.5c0.3-2,0.6-2.2,1.9-1.2
			C447.2,306.8,446.5,307.2,446.1,307.5z M451.9,304.9c0,1.7-0.1,3.1,0,4.5c0.1,1.4,0.4,2.8,0.6,4.2c-1.8,0.6-2.8-0.5-4.1-1
			c-1.6-0.6-0.7-2.4-1.8-3.4C448.3,307.4,449.5,305.7,451.9,304.9z M425.8,256.1c1.1-1.7,2.7-2.9,4.5-3.8c3-1.6,6.3-2.2,9.6-2.8
			c1.1-0.2,2.2-0.3,3.3-0.4c2.8-0.4,3.4-0.9,4.1-3.7c0.6-2.8,2.6-4.4,5.8-4.4c-1.3,2.4-1.2,3.4,0.9,4.8c2.1,1.4,3.1,3.2,2.8,5.7
			c-0.3,1.9,0.6,3.2,2,4.4c1.3,1.1,2.6,2.2,3.7,3.5c1.3,1.6,1.2,3.9,0,5.3c-0.6,0.8-1.2,0.8-1.9,0.1c-0.4-0.4-0.7-0.8-1-1.3
			c-1-1.6-2.6-2.4-4.4-2.7c-3.6-0.6-7.1-0.5-10.5,0.7c-2.4,0.8-4.8,1.7-7.2,2.4c-2.7,0.8-5.4,1.4-8.3,0.6
			C424.7,263.3,423.3,259.8,425.8,256.1z M426.6,265.2c1.6,0.1,3.2,0.2,4.8,0.4c0.3,0,0.6,0.6,0.7,0.9c0.6,3.9,1,7.8,1.1,11.8
			c-1.8-0.7-3.5-1.2-5.1-1.9c-0.6-0.3-1.1-1-1.3-1.7C425.7,271.6,425.7,268.5,426.6,265.2z M438.2,290.2c-1.4-2.5-3.3-4.5-5.9-5.8
			c-2.3-1.2-3.8-3.1-4.8-5.8c2-0.6,3.6-0.3,4.9,1c0.6,0.6,1.1,1.5,2.5,1c0.1-4.9-0.5-9.9-1.1-14.7c0.2-0.2,0.3-0.3,0.4-0.3
			c5-1.5,9.9-3,14.9-4.4c1.2-0.3,2.6-0.4,3.9-0.2c2.1,0.3,3.9,1.2,4.8,3.4c0.1,0.4,0.3,0.8,0.6,1c1.6,1.4,1.6,3.2,1.9,5.1
			c-0.5,0.2-1.1,0.2-1.3,0.5c-1.1,1.7-2.7,1.4-4.2,1.1c-0.4-0.1-0.8-0.1-1.2-0.1c1.1,2.1,4.1,2.3,6.7,0.5c0,0.6,0.1,1.1,0.1,1.6
			c0,0.5-0.1,0.9-0.1,1.6c-0.6-0.1-1-0.2-1.4-0.3c-1.9-0.4-3.5,0.4-4.9,1.6c-0.7,0.7-0.6,2.5,0.1,3.4c0.6,0.8,1.7,1,2.8,0.5
			c1.1-0.6,1.8-1.5,1.8-2.8c0-0.6-0.1-1.2-0.2-1.9c1.7,1.6,1.5,2.3-1.1,5.5c0.4,0,0.7,0,1,0c0.3,0,0.5-0.2,0.8-0.3
			c0.1,0.3,0.2,0.5,0.1,0.6c-0.5,2.7-0.4,5.4,0.5,8.1c0.3,0.9,0.5,1.9,0.6,2.8c0.5,3.5-1.2,6.3-4.6,7.2c-4.3,1.1-8.3,0.4-11.7-2.6
			c-1.4-1.3-2.6-2.8-3.8-4.3C439.5,292.3,438.8,291.3,438.2,290.2z M455.8,279.6c-0.9-1.7-0.9-1.8,0.3-2.7
			C457.3,278.1,457.3,278.5,455.8,279.6z M440,294.7c2.2,2.8,4.5,4.8,7.5,5.9c-0.4,1.6-0.1,3.2-1.8,4.1c-0.6,0.3-0.7,1.4-1.2,2.6
			c0.1-2.2-1-3.2-2.5-4.1c-1.4-0.9-2.7-1.9-4-2.8C438.7,298.5,439.3,296.8,440,294.7z M442.9,307.1c-1.2-1.4-2.2-2.6-3.3-3.7
			C440.9,304.3,442.9,304.5,442.9,307.1z M437.1,301.8c0.3,0,0.5,0.1,0.8,0.1c0,0.1,0,0.2,0,0.3c-0.3,0-0.5,0-0.8-0.1
			C437.1,302,437.1,301.9,437.1,301.8z M435.5,312.1c0.2-1.8,0.5-3.6,0.8-5.4c0.2-1.2,0.4-2.4,1.6-3.4c0.6,0.5,1.2,0.9,1.7,1.4
			c0.8,0.9,1.6,1.9,2.3,2.9c1.5,2,1,3.9-1.3,4.8c-1.6,0.6-3.2,1-5.1,1.7C435.4,313.1,435.4,312.6,435.5,312.1z M413.1,327.1
			c0.2-5.3,2.2-9.6,6.6-12.6c1.2-0.9,2.5-1.6,3.9-2.4c3.9-2.1,7.9-4.1,11.1-7.4c0.4,1.1,0.2,4.5-0.2,6.1c-0.1,0.5-0.3,0.9-0.4,1.4
			c-0.4,1.8,0.4,2.8,2.2,2.5c1.7-0.3,3.4-0.9,5.1-1.5c1.9-0.7,2.6-0.4,2.9,1.5c1.2,6.2,3.5,12.1,5.8,18c1.9,5.1,3.8,10.2,4.5,15.6
			c0,0.3,0.1,0.5,0.1,0.8c0.2,2.1,0,2.3-2,2.6c-3.6,0.6-7.1,1.4-10.7,2.1c-1,0.2-2,0.5-3.2,0.8c-1.5-3-3-5.9-4.4-8.9
			c-1.4-3-2.7-6-3.9-9.1c-1.2-3-2.1-6.1-3.2-9.5c-0.8,1-0.4,1.6-0.2,2.2c1.2,3.4,2.2,6.8,3.6,10.1c2.2,5,4.7,9.9,7,14.9
			c0.9,1.8,1,1.9,3.1,1.5c4.3-0.9,8.6-1.8,12.9-2.7c0.3-0.1,0.5-0.1,0.8-0.2c2.1-0.3,2.5-0.3,3.5,1.7c0.8,1.8,1.4,3.7,2,5.6
			c0.3,0.8-0.1,1.3-0.9,1.6c-0.7,0.2-1.4,0.5-2.1,0.8c-3.8,1.4-7.7,2.6-11.4,4.1c-7.2,2.9-13.1,0.7-18.3-4.5
			c-2.1-2.2-3.8-4.7-5.1-7.4c-1.2-2.3-2.3-4.7-3.4-7h0l-2.2-5.8c0.1,0,0.2-0.1,0.2-0.1c-0.1,0-0.2-0.1-0.3-0.1l-2.7-7.2
			C413.4,331.9,413.1,329.5,413.1,327.1z M453.3,368.4c0.4,0.1,0.7,0.6,0.9,1c0.3,1-0.2,4.6-0.8,6.2c-3.7-0.6-7.5-1.2-11.1-1.9
			c-2.4-0.5-4.8-1.2-7.2-1.8c-3-0.8-2.5-0.7-2.5-3.5c0-0.4,0-0.8,0.1-1.4c0.6,0.2,1.1,0.3,1.6,0.6c3.2,1.6,6.6,1.7,10,0.7
			c0.3-0.1,0.5-0.1,0.8-0.3C447.9,366.4,450.6,367.5,453.3,368.4z M450.7,366.7c0-0.2,0-0.3,0-0.5c0.3,0,0.7,0.1,1,0.1
			c0,0,0,0.3,0,0.3C451.4,366.7,451,366.7,450.7,366.7z M454.2,367.3c-0.9-0.7-0.8-1.3,0-2.3C454.7,365.9,454.8,366.6,454.2,367.3z
			M417.1,345.1C417.1,345.1,417.1,345.2,417.1,345.1c0.1,0.4,0.3,0.7,0.4,1l0.5,1.3h0c1.5,3.8,3.3,7.5,5.5,11
			c1.5,2.5,3.4,4.6,5.9,6.3c1,0.7,1.6,1.5,1.5,2.7c-0.2,2.6-0.3,5.2-1,7.7c-1.7,6.4-3.6,12.7-4.7,19.2c-0.2,1.1-0.6,1.7-1.8,1.8
			c-7.2,1.2-14.4,2.5-21.7,3.6c-5.1,0.8-10.3,1.4-15.5,2c-2.5,0.3-5,0.5-7.6,0.6c-2.2,0.1-3-0.9-2.7-3c0.2-1.4,0.6-2.8,1.1-4.1
			c5.9-15,13.4-29.1,22-42.7c1-1.6,2.2-3,3.4-4.4c3-3.3,6.8-5,11.1-5.7c0.7-0.1,1.4-0.2,2.2-0.4L417.1,345.1z M205.2,376
			c13-7.9,26.5-14.6,40.1-21.3c12-5.9,24.1-11.5,36.5-16.6c1.7-0.7,3.5-1.1,5.4-1c8.5,0.2,17,0.3,25.5,0.5c8.7,0.2,17.4,0.5,26.1,0.8
			c8.6,0.3,17.3,0.7,25.9,1.2c7,0.4,14.1,1.1,21.1,1.6c0.5,0,1.1,0.2,1.6,0.3c1.4,0.4,1.9,1,1.8,2.4c-0.1,1.6-0.3,3.3-0.9,4.8
			c-1.8,4.7-3.6,9.3-5.7,13.9c-3.6,7.9-7.6,15.5-12.4,22.7c-1.7,2.6-3.7,4.9-5.7,7.3c-1.8,2.1-4.1,3.2-6.9,3
			c-5.3-0.2-10.7-0.4-16-0.7c-5.1-0.3-10.3-0.6-15.4-0.9c-5.5-0.4-11.1-0.7-16.6-1.1c-4.6-0.3-9.3-0.6-13.9-1
			c-4.3-0.3-8.6-0.7-12.9-1.1c-4-0.3-7.9-0.6-11.9-1c-5.5-0.5-11-1-16.6-1.5c-4.8-0.4-9.7-0.9-14.5-1.4c-5.6-0.6-11.2-1.2-16.8-1.8
			c-4.6-0.5-9.3-1-13.9-1.5c-3.7-0.4-7.4-1-11.5-2.5C200.4,379.3,202.7,377.5,205.2,376z M279.7,539.6c-0.3,2.5-0.8,3.1-3.4,3.6
			c-4.8,1-9.6,2.2-14.5,3c-10.2,1.7-20.4,3.4-30.6,4.9c-7.9,1.1-15.9,2.3-23.9,2.4c-4.7,0.1-9.5,0-14.2-0.4
			c-5.8-0.4-11.6-1.1-17.4-1.9c-8.2-1.1-16.4-2.3-24.6-3.6c-13.1-2.1-26-4.8-38.8-7.9c-8.5-2.1-16.8-4.5-25-7.5
			c-4.6-1.7-9.1-3.8-12.8-7.2c-1.3-1.2-3-1.8-4.7-2c-5.5-0.7-10.6-2.7-15.6-5.1c-10.3-5-19.9-11-28.3-18.9c-1.6-1.6-3.2-3.2-4.7-4.9
			c-1.8-2.1-1.6-3.8,0.4-5.8c2.3-2.2,5.2-3.5,8.1-4.7c0.9-0.4,1.7-0.7,2.8-1.2c-0.3-0.9-0.6-1.7-0.8-2.5c-2.8-7.9-5-15.9-6.4-24.2
			c-0.5-3-0.5-6,0-9c0.5-2.8,2-4.9,4-6.8c1.3-1.2,2.7-2.3,4.2-3.4c12.4-8.9,25.4-16.8,38.7-24.2c13.5-7.6,27.2-14.8,40.8-22.2
			c5.3-2.8,10.7-5.3,16.6-6.4c3.4-0.7,6.9-1.1,10.4-1.5c11.5-1,23-1.3,34.5-1.2c5.8,0,11.6,0.6,17.4,0.9c0.3,0,0.7,0.2,1,0.1
			c2.3-0.6,4.2,0.5,6.4,1c3.6,0.8,7.2,1.5,10.9,2c5.3,0.7,10.6,1.3,15.9,1.9c4.5,0.5,9,1,13.5,1.4c5,0.5,10.1,1,15.1,1.5
			c3.7,0.3,7.4,0.7,11.1,1c5.9,0.5,11.7,1,17.6,1.5c4.2,0.3,8.3,0.6,12.5,1c4.9,0.4,9.8,0.7,14.8,1.1c2.5,0.2,5.1,0.4,7.6,0.5
			c7.7,0.5,15.3,0.9,23,1.3c5.5,0.3,11.1,0.5,16.6,0.8c3.2,0.1,5.9-1.1,8.1-3.3c2.2-2.1,3.9-4.6,5.5-7.2c5.9-10,11.4-20.1,15.9-30.9
			c1.4-3.4,2.7-6.7,3.2-10.4c0.4-2.9-0.7-4.6-3.5-5.4c-1.2-0.3-2.6-0.5-3.8-0.6c-9-0.6-18-1.3-27.1-1.7c-10.5-0.5-21.1-0.9-31.6-1.2
			c-11.6-0.3-23.3-0.5-35-0.8c-0.2,0-0.5,0-0.8-0.2c4.3-1.9,8.8-3.5,13.5-4.1c3.7-0.5,7.5-0.7,11.3-0.8c10.2-0.2,20.4-0.4,30.6-0.4
			c8.1,0,16.2,0.2,24.3,0.4c6.7,0.2,13.4,0.5,20.1,0.8c7.3,0.4,14.5,0.8,21.8,1.2c1.4,0.1,2.2,0.6,2.6,2c0.2,0.8,0.5,1.5,0.9,2.2
			l1.7,4.4c-6.4,0.7-11.9,3.1-15.8,8.3c-2.2,2.9-4.2,5.9-6,9c-5.8,10.1-11.4,20.4-15.9,31.1c-1.1,2.7-2.1,5.5-3.1,8.3
			c-0.1,0.4-0.3,0.8-0.3,1.2c-0.6,2.8,0.4,4.2,3.2,4.2c2.7,0,5.5-0.3,8.2-0.6c12.7-1.2,25.2-3.4,37.8-5.6c0.3,0,0.5-0.1,0.8-0.1
			c-0.1,4.7-0.5,9.4-0.3,14.1c0.2,4.6,0.9,9.2,1.4,13.8c-1.9,1.1-38.1,10-40,9.8c-0.5-2.6-0.9-5.2-1.5-7.8
			c-1.4-6.6-3.7-13.1-6.2-19.4c-0.3-0.7-0.5-1.6-1.9-1.2c0.2,0.7,0.4,1.4,0.6,2.1c2.3,6.1,4.5,12.2,5.8,18.6c0.6,2.7,1,5.5,1.5,8.4
			c-0.9,0.3-1.6,0.5-2.3,0.7c-3.9,0.9-7.7,1.9-11.6,2.8c-0.5,0.1-1,0.3-1.6,0.5l-4.4,1c-0.2-0.3-0.4-0.6-0.6-0.8
			c-5.6-7.1-13.1-10.7-22.1-10.9c-12.9-0.2-23.5,5-32.2,14.4c-6.8,7.3-11.4,16.1-15,25.3c-4.6,11.9-7.8,24.1-9.8,36.7
			c-1.5,9.4-2.6,18.9-3.8,28.3C280.2,535.4,279.9,537.5,279.7,539.6z M370.3,484.8c0,5.9,0,11.8,0,17.7c0,7-1.6,13.6-4.2,20
			c-1.6,4.1-3.5,8.2-5.5,12.2c-4.7,9.4-12.3,15-22.5,17.3c-10,2.3-20,2.8-30.2,2.3c-4.2-0.2-8.4,0.1-12.5,0c-2.7,0-5.5-0.1-8.2-0.4
			c-1.3-0.1-2.4-0.9-3.2-2c-2-2.7-2.7-5.8-3.2-9c-0.1-0.7,0.3-1.5,0.4-2.2c0.7-5.1,1.5-10.2,2-15.3c1.8-17.4,4.7-34.5,10.4-51.1
			c3-8.9,6.8-17.5,12.2-25.3c3.7-5.3,7.9-10,13.3-13.5c7.3-4.8,15.2-6.5,23.9-5.7c9.3,0.9,16,5.5,20.9,13.2c2.8,4.4,5,9,5.7,14.2
			c0.3,2.4,0.5,4.8,0.5,7.2c0.2,6.8,0.3,13.6,0.5,20.4C370.5,484.8,370.4,484.8,370.3,484.8z M426.5,505.7c0,0.9-0.8,1-1.5,1.1
			c-4,1-8,2.1-11.9,3.1c-12.7,3.3-25.5,6.5-38.2,9.7c-0.4,0.1-0.8,0.2-1.4,0.3c0-0.7-0.1-1.2,0-1.7c1.6-12.5,2.4-25,1.8-37.5
			c-0.4-9.1-1.7-18-4.4-26.7c-1.5-4.6-3.4-8.9-6.1-12.8l4.5-1.3c0.4,0,0.7-0.1,1.1-0.2c3.9-0.9,7.7-1.8,11.6-2.8
			c0.5-0.1,1-0.2,1.6-0.3c0.7,1.7,0.6,3.3,0.6,4.9c0.1,3.3,0,6.6,0,9.9c0,16.1,0,32.2,0,48.3c0,0.9,0.1,1.9,0.1,3.1
			c1-0.1,1.9-0.2,2.7-0.4c12.2-3.1,24.4-6.3,36.6-9.4c0.7-0.2,1.4-0.3,2.3-0.5c0.5,1.8,0.3,3.5,0.2,5.3c-1.2,0.3-2.3,0.7-3.5,0.9
			c-14.4,3.5-28.7,7.1-43.1,10.6c-0.6,0.2-1.3,0.4-1.8,0.6c-0.1,0.9,0.3,1.3,0.9,1.2c0.7-0.1,1.5-0.3,2.2-0.5
			c14.3-3.5,28.6-7,42.9-10.5c0.7-0.2,1.4-0.3,2.3-0.4C426.7,501.9,426.5,503.9,426.5,505.7z M426.8,485.7c-0.3,1.2-0.2,2.5-0.3,3.7
			c-0.2,2-0.2,2.1-2.2,2.6c-9.5,2.5-19,4.9-28.4,7.3c-2.9,0.8-5.8,1.5-8.8,2.2c-0.3,0.1-0.6,0.1-0.9,0.1c-0.5-1.5-0.8-60.6-0.4-65.8
			c13.2-3.2,26.4-6.5,39.9-9.8c0.3,2.2,0.6,4.1,0.9,5.9c1.2,9.4,2.4,18.9,3.6,28.3c0.7,4.9,0.4,9.7-0.9,14.5
			C428.3,478.5,427.6,482.1,426.8,485.7z M447.1,544.2c1.6,2.4,3,4.9,4.3,7.4c0.5,0.9,0.8,2,1,3.1c0.5,2.6-0.4,3.4-3,3
			c-0.7-0.1-1.5-0.4-2.2-0.7c-5.6-2.1-10-5.7-13.2-10.7c-0.7-1.1-1.3-2.3-2.1-3.3c-0.9-1.2-1.9-2.5-3.1-3.6c-2.1-1.9-2.5-3.7-1.2-6.2
			c1-1.9,2.1-3.8,3.2-5.9c2.1,1,4.3,2,6.8,1.5C439.9,534.8,443.8,539.3,447.1,544.2z M429.9,521.7c2.5,1.6,4.7,3,7.5,2.1
			c0,1.1,0,2.1,0,3.3c-2,1-3.8,0.2-5.7-0.7C429.8,525.6,430.5,523.7,429.9,521.7z M442.3,502.5c-0.1-2.3,0.3-4.3,0.8-6.2
			c0.1-0.5,1.1-0.9,1.8-1.1c4.2-1.1,8.4-2.1,12.6-3.1c4-1,8-2,12-2.9c0.4-0.1,0.8-0.1,1.5-0.2c0.5,1.8,1.1,3.6,1.7,5.8
			C462.4,497.3,452.5,499.8,442.3,502.5z M453.1,419.3c1.1-0.3,2.1-0.5,3.2-0.8c0.4-0.1,0.8-0.2,1.4-0.3c0.3,1,0.7,1.9,0.9,2.9
			c2.5,9.2,5,18.4,7.4,27.6c0.9,3.5,1.9,7,2.5,10.6c0.4,2.5,0.2,5.2,0.2,7.8c0,3.2-0.2,6.4-0.2,9.6c0,0.6,0.1,1.2,0.2,1.8
			c0.3,1.9,0.3,2-1.7,2.5c-7,1.8-14,3.6-21.1,5.4c-0.3,0.1-0.7,0.1-1.4,0.1c0.4-2.9,0.8-5.4,1.2-8c1.3-8.5,2.7-17,3.8-25.6
			c0.6-4.7,0.7-9.4,1-14.1c0.3-5.8,0.6-11.6,0.8-17.4C451.5,419.8,451.5,419.8,453.1,419.3z M452.6,400.1c0.3,0.4,0.7,0.7,0.9,1.1
			c0.3,0.7,0.5,1.4,0.6,2.2c1,4.1,2,8.2,3,12.3c0.1,0.4,0.1,0.8,0.3,1.5c-2,0.5-3.8,0.9-5.7,1.4C451.4,416.4,452.1,402,452.6,400.1z
			M446.3,487.3c5-1.3,10.1-2.6,15.1-3.9c2.5-0.6,5-1.3,7.8-2c0.5,2,0.8,3.7,1.3,5.7c-8.9,2.3-17.7,4.4-26.7,6.6
			c-0.4-2,0.1-3.7,0.6-5.4C444.6,487.8,445.6,487.5,446.3,487.3z M492.2,524.5c3.3,3.2,7.9,3.7,12.3,4.7c3.9,0.9,7.7,1.7,11.6,2.6
			c1.3,0.3,2.5,0.7,3.3,2c-0.7,1.8-2,2.9-4.1,3c-5.1,0.3-10.1,0.5-15.2,0.9c-2.6,0.2-5.1,0.7-7.7,0.9c-2.1,0.2-4.2,0.3-6.3,0.2
			c-2.9-0.2-4.6-1.8-4.6-4.7c0-2.9,0.4-5.7,0.6-8.7c1.9,0.2,3.5,0.5,5.1,0.4C488.7,525.7,490.2,525,492.2,524.5z M490.2,523.6
			c-1.2,0.8-2.6,1.3-4.1,1.1c-0.8-0.1-1.6-0.2-2.4-0.4c-1.7-0.4-1.8-0.6-1.6-2.9c1.5,0.3,2.9,0.7,4.3,0.7c1.3,0,2.7-0.4,4.1-0.6
			C491.2,522.3,491.1,523,490.2,523.6z M489.9,517.3c0.1,2-0.6,3.2-2.7,3.3c-1.7,0.1-3.4-0.3-5.1-0.6c-0.9-0.2-1-1-1.2-1.8
			c-1.9-7.2-3.8-14.3-5.7-21.5c-1.4-5.1-2.7-10.2-4.1-15.3c-0.7-2.5-1-5-1-7.5c0-2.8,0.1-5.6,0.3-8.4c0.3-3.7-0.1-7.4-1.1-11
			c-4.9-17.9-9.8-35.8-14.6-53.7c-0.1-0.5-0.2-0.9-0.4-1.4c-0.7-1.5-1.9-1.8-2.8-0.4c-0.6,1-1,2.3-1,3.5c-0.2,3.2-0.3,6.4-0.4,9.7
			c-0.3,8.8-0.6,17.5-1,26.3c-0.4,10.8-1.6,21.4-3.5,32.1c-2,11.2-4,22.4-5.8,33.6c-0.9,5.4-1.3,10.9-1.8,16.3
			c-0.2,2.1-0.6,2.6-2.7,2.2c-2.1-0.3-3.7-1.8-5.3-3c-0.3-0.2-0.3-0.9-0.4-1.3c-0.5-6.6-1-13.3-1.4-19.9c-0.5-8.3,0.2-16.6,2.6-24.6
			c1.6-5.4,1.3-10.9,0.6-16.3c-1.9-14.9-4-29.9-5.8-44.8c-0.7-5.5-0.3-11.1,0.7-16.6c0.8-4.9,1.7-9.9,3.4-14.6
			c0.2-0.7,0.5-1.4,0.9-2.3c3.1,1,6,1,8.6-1.1c-0.6-1.1-1.3-0.5-2-0.2c-1.7,0.8-3.4,1.1-5.2,0.8c-0.3-0.1-0.6-0.2-1.2-0.4
			c0.5-1.9,0.9-3.8,1.4-6c0.8,0.2,1.5,0.4,2.2,0.6c6.3,1.9,12.8,3.2,19.4,3.5c4.6,0.2,9.2-0.2,13.6-1.4c1-0.3,1.8-0.8,2.8-1.2
			c0,0,0,0,0,0c0.5,0,1.1-0.1,1.8-0.1c0.2,1.7,0.3,3.4,0.5,5.1c-1.9,0.4-2.5-1.9-4.7-1.8c0.6,0.7,0.9,1.2,1.3,1.6
			c0.6,0.5,1.2,1,1.9,1.2c1.4,0.5,1.8,1.5,1.9,2.8c0.6,7.8,2.5,15.4,4,23.1c2.3,11.5,4.7,23,7,34.4c1.1,5.5,1.8,11,1.5,16.5
			c-0.3,5.3,0.5,10.5,1,15.8c0.5,5.7,1,11.3,1.5,17c0.5,6.4,1,12.8,1.4,19.3C489.5,511.7,489.7,514.5,489.9,517.3z M581.1,405
			c-0.2,4.7-0.3,9.5-0.6,14.2c-0.3,5.3-0.6,10.7-1.2,16c-0.2-1.8-0.5-3.7-0.7-5.5c-0.8-6-2.1-11.9-4.5-17.5c-0.9-2.1-2-4.2-3.4-6
			c-3.4-4.4-8-5.3-13-2.9c-3,1.4-5.3,3.7-7.2,6.3c-3.4,4.5-5.9,9.6-7.8,14.9c-3,8-4.7,16.3-6.1,24.7c-1.1,7.2-2.1,14.4-3.1,21.6
			c-0.3,2.2-0.4,4.5-0.6,6.8c-0.1,1.9-0.1,2.1-2,2.6c-4.9,1.4-9.9,2.7-14.9,3.9c-7.8,2-15.7,3.9-23.5,5.8c-0.8,0.2-1.6,0.4-2.6,0.6
			c-0.7-1.8-0.6-3.7-0.4-5.5c0-0.4,0.9-0.8,1.4-0.9c3.7-1,7.4-1.9,11.2-2.8c8-2,16-3.9,23.9-5.9c0.3-0.1,0.5-0.1,0.8-0.2
			c0.6-0.2,1.6-0.1,1.3-1.1c-0.3-0.9-1.2-0.5-1.8-0.4c-3,0.7-6,1.5-9,2.2c-8.8,2.2-17.6,4.3-26.3,6.4c-0.5,0.1-1,0.2-1.9,0.3
			c-0.2-1.8-0.4-3.4-0.5-5c-0.1-0.9,0.5-1.2,1.2-1.4c1.6-0.4,3.2-0.8,4.8-1.2c3.6-0.9,7.3-1.9,10.9-2.8c2.1-0.5,2.2-0.6,2.2-2.8
			c0-5.6-0.1-11.2-0.1-16.9c0-1,0.1-2.1,0.1-3.1c0-1.1,0.6-1.6,1.5-1.9c0.7-0.2,1.5-0.4,2.2-0.5c6.6-1.2,13.2-2.4,19.8-3.6
			c1.1-0.2,2.3-0.4,3.4-0.7c0.4-0.1,0.8-0.3,1.1-0.8c-0.5,0-1-0.1-1.5,0c-8.7,1.7-17.5,3.4-26.2,5.1c-2,0.4-2.1,0.4-2.1,2.5
			c0,5.9,0.1,11.8,0.1,17.7c0,3.7-0.4,4.3-4.1,5.1c-2.2,0.5-4.4,0.9-6.6,1.4c-2.2,0.5-4.4,1.1-6.8,1.7c-0.2-0.6-0.4-1.1-0.5-1.6
			c-0.4-3.7-0.9-7.3-1.2-11c-0.1-1.5,0.1-3,0.5-4.4c2.8-10.5,5.9-21,8.6-31.5c1.3-5.1,2.2-10.3,3.2-15.5c0.1-0.5,0.1-0.9,0.1-1.4
			c0-0.1-0.1-0.2-0.2-0.4c-1.3,0-1.2,0.9-1.4,1.8c-0.6,3.5-1.1,7.1-2,10.5c-2.2,8.6-4.6,17.1-6.9,25.6c-0.6,2.1-1.2,4.2-1.8,6.7
			c-0.2-10.8-3.2-20.8-5-30.9c-0.5-2.8-1.2-5.6-1.7-8.5c-0.1-0.7-0.1-1.3-0.2-2.1c0.8-0.3,1.5-0.5,2.2-0.7
			c24.7-6.7,49.4-13.4,74.2-20.1c4.8-1.3,9.4-3,13.8-5.2c0.5-0.3,1.1-0.6,1.6-0.9c0.1-0.1,0.1-0.2,0.2-0.5c-0.4,0.1-0.8,0-1.1,0.2
			c-7.9,4.1-16.4,6.1-24.9,8.4c-21.1,5.8-42.3,11.5-63.5,17.2c-2.9,0.8-3,0.8-3.6-2.2c-1.4-7.1-2.7-14.1-4-21.2
			c-0.3-1.5-0.4-3.1-0.6-4.8c0.9-0.4,1.7-0.8,2.5-1.2c6.4-2.9,12.7-5.9,18.4-10c1.1-0.8,2.1-1.5,3-2.5c1.5-1.6,1.5-2.9,0.1-4.5
			c-1-1-2.1-2-3.3-2.7c-3.4-2.2-6.9-4.3-10.4-6.3c-1.2-0.7-1.8-1.5-1.9-2.9c-0.1-1.3-0.3-2.7-0.5-4.5c1.2,0.5,1.9,0.9,2.6,1.2
			c9.8,4.6,19.6,9.1,29.5,13.7c3.6,1.7,7.3,3.2,11.3,3.5c1.9,0.2,3.8,0.1,5.7,0.2c9.7,0.5,19.3,1.2,28.7,3.7c4.3,1.1,8.5,2.8,12.4,5
			c4.7,2.6,7.4,6.6,8,12C581.1,393.2,581.4,399.1,581.1,405z"/>
		<path d="M43.1,446.1c2.8,3.6,6.3,6.2,10.2,8.5c5.1,3,10.7,5,16.3,6.7c11.9,3.5,24.1,4.9,36.5,5.7c6.5,0.4,13,0.7,19.5,0.8
			c21.7,0.3,43.5,0.4,65.2-1.1c7.7-0.5,15.4-1,23.2-1.7c9.1-0.8,18.3-1.8,27.4-2.8c10.3-1.1,20.5-2.6,30.7-4.6
			c9.1-1.8,18-4.1,26.7-7.5c0.8-0.3,1.6-0.7,2.4-1.1c-0.6-1.5-1.4-1-2.2-0.7c-11.3,4.5-23,7.1-34.9,9.1c-11.3,1.9-22.7,3.6-34.2,4.6
			c-8.7,0.8-17.5,1.6-26.2,2.3c-7.1,0.5-14.2,0.9-21.3,1.2c-8.7,0.4-17.4,0.8-26.1,0.8c-12.1,0.1-24.1-0.1-36.2-0.2
			c-9-0.1-18.1-0.7-27.1-1.7c-7.1-0.8-14.1-1.9-21-3.8c-7.3-1.9-14.3-4.4-20.6-8.6c-5.6-3.7-10.1-8.3-11.2-15.3
			c-0.1-0.3-0.4-0.6-0.7-1c-0.1,0.1-0.3,0.1-0.4,0.2c0.1,0.8,0.2,1.6,0.4,2.4C39.9,441.3,41.3,443.8,43.1,446.1z"/>
		<path d="M187.4,536.1c2.2-0.2,2.9-1.5,2-3.4c-0.4-0.9-0.9-1.8-1.5-2.7c-1.7-2.4-3.3-4.9-5.1-7.2c-6.2-8.3-12.5-16.5-18.8-24.7
			c-0.2-0.2-0.3-0.4-0.5-0.6c-1.4-1.5-2.9-2.7-5.1-2.7c-1.4,0-2.7-0.3-4.1-0.3c-4,0.1-7.9,0.2-11.9,0.3c-13.2,0.3-26.3,0.5-39.5,0.9
			c-7.5,0.2-14.9,0.4-22.4,0.9c-3,0.2-5.9,1-8.9,1.6c-0.6,0.1-1.4,0.2-1.6,1.2c0.6,0.7,1.4,0.3,2.1,0.2c3-0.5,5.9-1.3,8.9-1.4
			c1.8-0.1,3.7-0.2,5.5-0.3l-0.5,2.7c-0.1,0.3-0.1,0.7-0.1,1.1c0,0.3,0,0.7,0.1,1c0.3,3,1.1,5.9,2.5,8.6c3.6,7.4,9.6,12,17.2,14.6
			c4.9,1.7,10.1,2.6,15.2,3.5c11.5,2,23.1,3.5,34.8,4.7c8,0.8,15.9,1.6,23.9,2.3C182.2,536.6,184.8,536.3,187.4,536.1z M147.5,531.7
			c-5.8-0.7-11.7-1.5-17.5-2.3c-6-0.8-12.1-1.7-17.9-3.4c-5.6-1.5-10.9-3.6-15.6-7.2c-4.6-3.5-7.6-8.1-8.5-13.9
			c-0.2-1.2-0.2-2.5-0.4-3.7c0-0.1,0-0.2,0-0.4l0.2-3.3c7.1-0.4,14.2-0.6,21.3-0.9c6.2-0.2,12.3-0.3,18.5-0.4
			c10.1-0.1,20.2-0.1,30.2-0.2c1.5,0,2.5,0.5,3.5,1.7c5.9,7.6,12,15.2,17.9,22.8c2.4,3.1,4.7,6.4,7,9.6c0.9,1.2,1.8,2.4,2,4.3
			c-2.7,0-5.1,0.1-7.6,0c-6.6-0.4-13.1-0.9-19.7-1.5C156.5,532.7,152,532.3,147.5,531.7z"/>
		<path d="M293.9,460.7c-1.1-1.3-2.1-0.8-3-0.6c-3.3,0.7-6.7,1.6-10,2.3c-13.2,2.6-26.5,5.3-39.7,7.7c-7.6,1.4-15.3,2.4-22.9,3.5
			c-5.7,0.8-11.4,1.5-17.1,2.2c-5.7,0.7-11.4,1.3-17.2,1.9c-6,0.6-12,1-18,1.4c-7.5,0.5-15,0.9-22.6,1.1c-14.5,0.3-28.9,0.2-43.4-0.8
			c-3.6-0.3-7.1-0.5-10.6-0.9c-5.5-0.6-11-1.3-16.5-1.9c-5.9-0.7-11.8-1.6-17.6-3.1c-0.8-0.2-1.5-0.4-2.3-0.5
			c0.4,0.5,0.8,0.7,1.3,0.9c2.3,0.6,4.5,1.2,6.8,1.7c14,3.2,28.2,4.6,42.6,5.3c8.1,0.4,16.2,0.6,24.3,0.7c4.8,0.1,9.6-0.1,14.4-0.2
			c6.9-0.2,13.8-0.4,20.7-0.8c8.9-0.6,17.8-1.3,26.6-2.1c6.7-0.6,13.4-1.3,20-2.2c11.4-1.6,22.8-3.4,34.1-5.2
			c14.9-2.4,29.6-5.4,44.3-8.7C289.9,461.7,291.7,461.2,293.9,460.7z"/>
		<path d="M256.1,419.8c-7.5-2-15.1-2-22.4,1.1c-4.5,1.9-9,3.7-13.4,5.9c-7.2,3.6-14.3,7.5-21.5,11.3c-9.6,5.1-19.1,10.1-28.7,15.2
			c-0.8,0.4-1.6,1-2.3,1.5c0.1,0.2,0.1,0.4,0.2,0.6c0.4,0,0.9,0.1,1.3,0.1c2.4-0.2,4.8-0.4,7.2-0.6c7.8-0.6,15.6-1,23.4-1.7
			c8.4-0.7,16.5-2.5,24.4-5.2c11.4-3.9,22.1-9.2,32.6-15c2.4-1.4,4.8-3,6.9-4.7c2.9-2.3,2.7-4.3-0.7-5.8
			C261,421.2,258.6,420.5,256.1,419.8z M263.6,427.3c-0.5,0.5-1,0.9-1.6,1.3c-12.2,7.4-24.9,13.9-38.5,18.5
			c-6.3,2.1-12.7,3.4-19.2,4.3c-8.4,1.1-16.9,1.6-25.4,2.1c-2.2,0.1-4.3,0.3-6.5,0.5c0-0.2-0.1-0.3-0.1-0.5c4.5-2.4,9-4.9,13.6-7.3
			c14.3-7.7,28.7-15.2,43.5-21.9c1.9-0.8,3.8-1.7,5.7-2.4c3.7-1.4,7.5-2.1,11.5-1.7c4.4,0.4,8.7,0.9,12.9,2.2c1.4,0.4,2.7,1,3.9,1.8
			C264.8,425,264.8,426.1,263.6,427.3z"/>
		<path d="M289,471.3c-1.5-0.5-1.9,0.5-2.2,1.2c-2.4,4.5-4.9,9-7.2,13.6c-4.1,8.3-6.3,17.2-6.8,26.5c-0.4,6.8-0.8,13.7-1.2,20.5
			c0,0.6-0.1,1.2-0.2,1.9c-0.6,0.1-1.1,0.3-1.7,0.3c-1.6,0.2-3.3,0.3-4.9,0.5c-3.5,0.5-7.1,1-10.6,1.4c-5.9,0.8-11.8,1.6-17.7,2.3
			c-5.2,0.6-10.3,1.2-15.5,1.8c-4.5,0.5-9,1.1-13.5,1.5c-5.2,0.5-10.4,1.1-15.5,1.4c-4,0.2-8.1,0-12.1,0c-0.6,0-1.4-0.4-1.9,0.9
			c0.6,0.2,1.1,0.5,1.6,0.5c1.8,0.1,3.7,0.4,5.5,0.3c5.9-0.3,11.9-0.7,17.8-1.2c6-0.5,12-1.2,18-1.9c5.3-0.6,10.6-1.2,15.9-1.8
			c6-0.7,11.9-1.5,17.9-2.3c5.4-0.7,10.9-1.5,16.3-2.3c2.3-0.3,2.3-0.5,2.4-2.7c0.4-7.4,0.8-14.8,1.3-22.2c0.5-8.4,2.5-16.5,6.2-24.1
			c2.3-4.7,4.8-9.2,7.2-13.8C288.3,472.8,288.6,472.1,289,471.3z"/>
		<path d="M170.1,443.3c12.2-7.4,25.2-13,38.6-17.8c24.2-8.6,48.7-15.7,73.8-21.3c9.7-2.2,19.4-4,29.2-5.9c2.2-0.4,4.5-0.7,6.7-1.1
			c0.6-0.1,1.3-0.1,1.3-1.4c-0.8,0-1.5-0.1-2.1,0c-5.9,1-11.8,1.8-17.6,3c-18.9,3.8-37.6,8.6-56.2,13.9
			c-19.2,5.5-38.2,11.9-56.5,20.1c-6.1,2.7-12,5.7-17.7,9.2c-0.7,0.4-1.5,0.6-1.7,1.6C168.8,444.4,169.5,443.6,170.1,443.3z"/>
		<path d="M283.2,474.4c-0.7-1.3-1.6-0.9-2.4-0.6c-6.8,2-13.6,4.1-20.5,6c-4.6,1.3-8,3.8-10.2,8c-0.3,0.5-0.6,1.1-0.9,1.6
			c-3.5,6.9-6.9,13.7-10.3,20.6c-0.9,1.8-0.6,2.3,1.4,2.3c0.3,0,0.7,0,1-0.1c3.6-0.6,7.2-1.1,10.7-1.7c4.6-0.8,8-3.2,10.7-7
			c6.4-9.2,13-18.3,19.5-27.5C282.6,475.5,282.9,474.9,283.2,474.4z M279.1,477.5c-6.1,8.7-12.3,17.3-18.4,26c-2,2.8-4.5,4.8-7.9,5.5
			c-3.4,0.7-6.8,1.3-10.3,1.9c-0.6,0.1-1.2,0-2.3,0c0.5-1,0.8-1.7,1.1-2.4c2.7-5.5,5.4-10.9,8.2-16.3c1-1.9,2.1-3.8,3.3-5.7
			c1.6-2.4,3.7-4,6.4-4.8c6.5-2,13.1-3.9,19.7-5.9c0.2-0.1,0.5,0,1.1,0C279.7,476.5,279.4,477.1,279.1,477.5z"/>
		<path d="M248.5,514.2c-3.4,0.6-6.7,1.4-10,2.1c-0.9,0.2-1.7,0.7-2.2,1.7c-2.8,5.4-5.6,10.8-8.4,16.2c-0.2,0.4-0.3,1-0.5,1.8
			c0.9-0.1,1.6,0,2.2-0.1c5.8-1,11.6-2,17.4-3.1c4.4-0.8,8.7-1.8,13-2.8c4-0.9,6.6-3.4,8.1-7.2c1.2-3.1,1.9-6.3,2.3-9.6
			c0.1-0.6,0-1.2,0-2.2c-2.4,0.3-4.4,0.6-6.4,0.9C258.8,512.7,253.6,513.4,248.5,514.2z M268.4,512.8c0.1,0.7,0.2,1.2,0.1,1.7
			c-0.6,2.6-1.1,5.2-2,7.7c-1.1,3.4-3.6,5.7-7.1,6.4c-5.1,1.1-10.2,2.2-15.3,3.2c-4.6,0.9-9.3,1.6-14.5,2.6c0.7-1.3,1.2-2.1,1.6-3
			c2-3.8,4-7.7,5.9-11.5c0.7-1.4,1.6-2.2,3-2.5c3.3-0.7,6.7-1.5,10-2.1c5.5-0.9,11-1.5,16.5-2.3C267.1,512.9,267.7,512.9,268.4,512.8
			z"/>
		<path d="M68,506.1c-0.8-1.8-2-3-3.8-3.7c-7.3-3-14.5-6.2-21.7-9.2c-0.7-0.3-1.4-0.5-2.3-0.9c-0.3,0.8-0.5,1.3-0.6,1.8
			c-0.6,3.2-1.2,6.5-1.8,9.7c-0.4,2-0.3,2,1.5,2.7c3.9,1.5,7.8,2.9,11.8,4.3c6.6,2.4,13.1,4.8,19.7,7.2c0.7,0.3,1.5,0.3,2.6,0.6
			c-0.3-1-0.5-1.6-0.7-2.1C71,513,69.4,509.6,68,506.1z M39.2,505.3c0.7-3.8,1.4-7.4,2.1-11.3c0.9,0.3,1.6,0.6,2.2,0.9
			c4.5,1.9,8.9,3.8,13.4,5.7c2,0.8,4,1.5,6,2.2c1.5,0.5,2.5,1.4,3.2,3c1.5,3.7,3.1,7.3,4.9,11.3C60.2,513,49.7,509.1,39.2,505.3z"/>
		<path d="M308.2,437.8c-0.5,0.6-1,1.2-1.6,1.9c1.3,0.9,1.8,0,2.4-0.6c4.6-5.1,10.3-8.8,16.7-11.4c6.6-2.6,13.4-3.9,20.4-4.3
			c6-0.3,11.9-0.2,17.9,0.5c3.7,0.5,7.4,1.2,11.1,1.8c0.7,0.1,1.5,0.5,2.1-0.7c-0.7-0.2-1.3-0.5-1.9-0.6c-5.1-0.7-10.1-1.6-15.2-2.1
			c-9.7-1-19.3-0.4-28.7,2.1C322.4,426.9,314.6,431,308.2,437.8z"/>
		<path d="M59.6,438.3c4.1,3.5,8.9,5.9,13.9,7.8c9.5,3.5,19.3,5.7,29.3,6.6c6.7,0.6,13.4,1,20.1,0.4c0.5,0,0.9-0.2,1.4-0.3
			c-0.4-0.4-0.8-0.6-1.2-0.6c-5.7-0.1-11.5,0.1-17.2-0.2c-9.6-0.4-19-2.4-28.1-5.5c-6.7-2.2-13.1-5.1-18.4-10.1
			c-0.4-0.4-0.9-0.9-1.8-0.4c0.1,0.3,0.2,0.5,0.3,0.7C58.4,437.3,59,437.8,59.6,438.3z"/>
		<path d="M36.1,464.5c0-0.1,0-0.3-0.1-0.4c-3.5-3.3-6.1-7.1-7.6-11.7c-0.1-0.4-0.6-0.7-1.1-1.3C27.2,455.1,32.2,462.5,36.1,464.5z"
			/>
		<path d="M32.7,485c1.3,3,2.3,5.7,3.8,8.3c0.1,0.2,0.5,0.2,0.9,0.3c-0.1-1.3-2.7-7.7-3.4-8.3C33.9,485,33.4,485.1,32.7,485z"/>
		<path d="M521.2,370.6c-4.2-1.3-8.3-0.7-12.2,0.9c-0.3,0.1-0.5,0.4-0.8,0.6c0,0.3,0,0.5,0.1,0.7c2.9,6.2,5.9,12.4,8.9,18.5
			c0.6,1.2,1.2,1.3,2.3,0.3c2.9-2.6,5.6-5.5,7.2-9.1C529,377.1,526.8,372.3,521.2,370.6z M525.5,380.3c-0.4,1.4-1,2.7-1.7,4
			c-1.3,2.4-3.6,4.9-5.4,6.1c-2.8-5.9-5.7-11.8-8.6-17.9c4.4-1.5,8.4-1.6,12.3,0.2C525.3,374,526.5,376.7,525.5,380.3z"/>
		<path d="M359.6,451.4c-4.5-6.2-10-11.1-17.2-13.9c-3.9-1.5-7.7-1.6-11.7-0.5c-5.2,1.5-9.9,4.1-14.1,7.5
			c-6.7,5.4-11.2,12.4-14.3,20.2c-4.3,10.7-5.8,21.9-6.3,33.4c0.6,5.8,0.9,11.6,1.8,17.3c1.1,7.2,3.9,13.8,8.5,19.6
			c8.6,10.8,24.6,14.5,37.2,6.8c9.2-5.5,15.5-13.4,19.4-23.2c3.4-8.5,4.6-17.4,4.9-26.5c0.2-8.2-0.6-16.3-1.7-24.4
			C365.4,461.8,363.1,456.3,359.6,451.4z M362.8,514.4c-3.6,10.9-9.8,19.8-19.6,26.1c-4.7,3-9.8,4.6-15.4,4.4
			c-6.8-0.3-12.8-2.8-17.9-7.4c-4.5-4-7.2-9.1-9.1-14.7c-1.7-5.3-2.6-10.8-2.8-16.4c-0.4-12.9,0.8-25.6,4.8-37.9
			c2.2-6.9,5.6-13.3,10.5-18.7c5-5.5,11.1-9.3,18.2-11.5c3.7-1.1,7.5-0.8,11.1,0.4c3.6,1.3,6.8,3.3,9.6,5.9
			c6.9,6.4,11.4,14,12.5,23.4c0.7,6.1,1.3,12.1,1.7,16.3C366.5,495.9,365.8,505.3,362.8,514.4z"/>
		<path d="M446.4,291c-0.2,0.4-0.5,0.8-0.9,1.4c-0.5-0.3-0.9-0.6-1.2-0.8c0.1-0.7,0.1-1.3,0.2-1.9c-1,0.4-1.8,0.7-2.4,0.9
			c0.1,1,0.3,1.9,0.4,2.9c2-1.1,2-1.1,3.6,2.1c0.4-0.4,0.8-0.9,1.4-1.5c0.9,0.5,1.8,1,2.5,1.4c0.7-0.5,1.3-1.2,1.9-1.3
			c0.6-0.1,1.3,0.5,2.2,0.9c-0.2-1.2-0.1-2.1,1.4-2c0.4,0.5,0.9,1.1,1.3,1.6c0.5-1,0.9-1.8,1.3-2.7c-0.7-0.4-1.5-0.9-2.3-1.3
			c-1.4,1.5-1.4,1.9-3.5,0.8c-0.9,2-1.3,2-2.8,0.3c-0.9,1.2-1.7,1.5-2.3,0.9c-0.2-0.5-0.3-1.1-0.5-1.6
			C446.7,291.2,446.5,291.1,446.4,291z"/>
		<path d="M443,281.9c-0.3-0.4-0.5-0.7-0.8-1.1c2-0.1,2.3-1.6,2.6-3.1c0.9,0.7,1.6,1.3,2.3,1.9c-0.5-2.4-3-4.3-5.1-4.2
			c-0.9,0.1-1.8,0.3-2.5,0.7c-1.5,0.9-1.8,2.4-0.8,3.8c0.9,1.2,2.1,2.1,3.7,2.3C442.5,282.3,442.7,282.1,443,281.9z M440,277.9
			c0-0.7,1-1.5,1.7-1.4c1,0.1,0.9,1,1.1,1.6c0,0.8-0.4,1.2-1.1,1.2C440.8,279.3,440,278.7,440,277.9z"/>
		<path d="M453.8,290.3c2.1-0.3,3.8-1.3,4.8-3.2c-0.1-0.2-0.2-0.4-0.3-0.5c-0.3-0.3-0.6-0.5-1-0.8c-2.6-1.7-4.2-4-5.2-6.9
			c-0.2-0.6-0.5-1.3-0.8-1.9c-0.3-0.5-0.7-0.8-1.5-0.2c0.9,4.3,3.2,7.7,6.8,10.3c-0.9,1.3-1.9,2-3.2,1.9c-1.2-0.1-2.4-0.5-3.6-0.7
			c0,0.2-0.1,0.3-0.1,0.5C450.7,290.2,452.2,290.5,453.8,290.3z"/>
		<path class="st1" d="M442.8,270.4c0.9,0.4,1.7,0.8,2.6,1.1c0.3,0.1,0.7,0,1.2,0c-0.2-0.4-0.3-0.8-0.4-0.9c-1.9-0.8-3.8-1.8-5.9-2.2
			c-1.9-0.5-4.1,1.5-4.2,3.6c0,0.3,0.3,0.7,0.6,1.4c0.4-0.5,0.7-0.7,0.7-0.9C438.4,269.7,440.5,269.5,442.8,270.4z"/>
	</g>
</g>
</svg>
