<?xml version="1.0" encoding="utf-8"?>
<!-- Generator: Adobe Illustrator 22.1.0, SVG Export Plug-In . SVG Version: 6.00 Build 0)  -->
<svg version="1.1" xmlns="http://www.w3.org/2000/svg" xmlns:xlink="http://www.w3.org/1999/xlink" x="0px" y="0px"
	 viewBox="0 0 612 792" style="enable-background:new 0 0 612 792;" xml:space="preserve">
<style type="text/css">
	.st0{fill:#FFFFFF;}
</style>
<g id="Layer_1">
	<g id="moon_1_">
		<path id="moon" class="st0" d="M612.2,57.6c0,22.9,0,45.8,0,68.7c-0.4,0.7-0.7,1.4-1.1,2.1c-5.8,11.5-13.8,21.2-24,29.1
			c-1,0.7-2,1.4-3,2.1c-2.8-3.1-4.2-6.9-6.2-10.3c-0.9,4.6-1.7,9.1-2.3,13.6c-0.2,1.7-1,2.5-2.4,3.2c-5.5,2.6-11.2,4.7-17.2,6.1
			c-3.3,0.8-6.7,1.5-10.2,1.6c-0.6-2-1.2-3.9-1.9-6.1c-0.4,0.6-0.7,1-0.9,1.4c-0.8,1.4-1.6,2.7-2.3,4.1c-0.3,0.6-0.7,1.2-1.5,1.1
			c-2,0-3.9,0-5.9,0c-1-2.7-1.9-5.1-3-7.9c-1.3,2.7-2.4,4.9-3.5,7.3c-2.1-0.4-4-0.7-6-1.1c-6.4-1.2-12.6-3.3-18.5-6
			c-0.9-0.4-1.5-0.9-1.6-1.9c-0.3-2.1-0.7-4.2-0.8-6.3c-0.1-4.7,0-9.3,0-14c0-0.5-0.1-1-0.2-2c-3.9,5.9-7.9,11-14,13.8
			c-9.6-7.2-19.1-19.7-22.5-28.1c0.1-0.2,0.2-0.4,0.4-0.6c3-3.1,6.6-4.4,10.8-3.5c1.8,0.4,3.5,0.9,5.4,1.3c0.7-3,1.3-5.7,1.9-8.4
			c0.4-1.9,1.2-3.7,2.8-4.9c3.2-2.3,6.4-4.3,9.8-6.6c0.5,1.3,1,2.3,1.5,3.5c1-0.4,1.8-0.8,2.7-1.1c3.2-1.2,6.3-0.2,8.5,2.4
			c1.8,2.2,2.8,4.7,2.3,7.6c-0.2,0.9-0.2,1.9-0.3,2.9c-0.1,1.1-0.1,2.1-0.3,3.7c0.7-0.6,1.1-0.9,1.4-1.2c1-1,2-2,3.1-3
			c3.3-3,7.9-2.6,10.6,1c0.8,1,1.4,2.2,2,3.3c0.7,1.3,1.3,2.6,1.9,3.9c0.9,1.7,1.5,1.7,2.5,0c0.8-1.3,1.5-2.6,2.4-3.9
			c0.7-1.1,1.5-2.1,2.4-3.1c1.6-1.8,3.7-2.5,6.1-2.2c1.8,0.2,3.3,1.2,4.5,2.6c1.2,1.4,2.4,2.8,3.5,4.1c0.4-2.1,0.5-4.1,0.3-6
			c-0.2-3.1,0.9-5.4,3-7.6c2.5-2.6,5.6-3.2,8.8-1.6c0.8,0.4,1.6,0.8,2.5,1.3c0.6-1.2,1.2-2.3,1.6-3.4c0.9-2.6,2.7-4.2,5.3-5
			c1.9-0.6,3.8-1.4,5.7-2.2c-0.8-0.5-1.5-0.6-2.3-0.6c-1.6-0.1-3.1-0.3-4.7-0.4c-6.5-0.6-11.3-3.8-14.5-9.5c-0.4-0.6-0.7-1.3-1-1.9
			c-0.4,0.8-0.6,1.4-0.7,2.1c-0.3,2.2-0.5,4.5-0.8,6.7c-1,5.8-4.4,9.6-10,11.3c-1.6,0.5-3.3,0.8-5.2,0.2c-1-2.9-2-5.9-3.1-9.2
			c-0.9,1.7-1.6,3-2.2,4.1c-1.4,0-2.6,0-3.9,0c-0.6-1.3-1.2-2.7-1.9-4.4c-1.4,3.2-2.7,6.1-3.9,9c-6.2,0.4-12.9-4.2-13.9-11.4
			c-0.4-3-0.3-6-0.5-9c0-0.4-0.1-0.8-0.2-1.6c-0.8,1.2-1.3,2-1.9,2.8c-3.3,4.5-7.8,7-13.4,7.4c-2.3,0.1-4.5,0-6.8,0
			c-0.5,0-1,0-1.5,0c0.5,0.7,1,1,1.5,1.2c1.7,0.8,3.5,1.7,5.2,2.5c1.2,0.6,2.2,1.3,2.7,2.9c-3.4,0.4-6.6,0.9-9.8,1.3
			c-9.9,1-18.2-2.3-24.8-9.7c-0.8-0.9-1.6-1.9-2.4-2.8c-0.3-0.3-0.6-0.6-1.2-1.1c0.3,6,1.3,11.7,1.4,17.7c-0.3-0.4-0.5-0.5-0.5-0.6
			c-1.8-8.7-2.2-17.6-1.1-26.4c1.5-12.3,5.4-23.7,12.2-34.2c12.8-19.9,30.8-32.2,54-37c8.6-1.8,17.3-2,26-0.9
			c10.3,1.3,20,4.4,29.2,9.4c10.4,5.7,19.2,13.3,26.4,22.8C606.6,47,609.6,52.2,612.2,57.6z"/>
	</g>
	<g id="background">
		<path class="st0" d="M56.8,792.4c-18.8,0-37.6,0-56.4,0c0-151.3,0-302.5,0-453.8c0.3,0.4,0.7,0.9,0.7,1.3c0.8,4.5,1.7,9,2.5,13.5
			c2.6,14.5,5.1,29,7.7,43.5c2.2,12.5,4.5,25.1,6.7,37.6c2.4,13.5,4.8,27,7.1,40.5c0.6,3.2,1.1,6.3,1.7,9.6
			c17.7-3,35.1-6.1,52.7-9.1c10.2,60,20.3,119.6,30.5,179.5c8.5-1.4,16.8-2.8,25.1-4.2c1,6,2,11.8,3.1,17.7
			c5.7-0.9,11.1-1.8,16.9-2.8c-0.1,3.5,2.2,6.3,1.4,9.9c-26.2,4.5-52.4,8.9-78.7,13.4c2.3,13.4,4.5,26.6,6.8,39.8
			c2.2,13.2,4.5,26.4,6.7,39.6c-0.1,0.1-0.2,0.1-0.3,0.2c-7.3-7.4-14.6-14.9-22.1-22.5c-0.3,0.8-0.5,1.3-0.6,1.8
			c-2.2,8.5-4.4,17-6.6,25.5C60.1,779.8,58.4,786.1,56.8,792.4z"/>
		<path class="st0" d="M612.2,25.1c-7-7.9-15-14.5-24.1-19.8c-3-1.8-6.1-3.3-9.2-4.9c11.1,0,22.2,0,33.3,0
			C612.2,8.6,612.2,16.9,612.2,25.1z"/>
		<path class="st0" d="M612.2,171.6c-3.7-0.7-7.6-0.7-11.3-1.6c3.8-3.8,7.6-7.5,11.3-11.1C612.2,163.1,612.2,167.3,612.2,171.6z"/>
		<path class="st0" d="M612.2,174.4c0,206,0,412,0,618c-24.8,0-49.6,0-74.5,0c-0.1-0.3-0.1-0.7-0.2-1c-3.7-8.4-7.5-16.8-11.2-25.1
			c-0.7-1.6-1.5-3.2-2.3-4.9c-0.5,0.4-0.9,0.6-1.3,0.9c-7.3,5.5-14.7,10.9-22.7,15.6c-2.1,1.2-4.2,2.5-6.9,3.1
			c-2.5-10.4-2.7-20.9-3.7-31.7c-7.5,4.7-14.5,9.7-22.3,14.7c1.9-14.1,3.6-27.8,5.4-41.4c-8.2,6.1-15.7,12.7-23.9,19.3
			c0-1.5,0-2.4,0-3.4c0-88.4,0-176.9,0-265.3c0-5.3-0.5-10.5-1.3-15.8c-2-12.9-6.2-25.1-12.6-36.5c-7-12.5-16-23.4-27.1-32.5
			c-8.3-6.8-17.2-12.7-26.6-17.7c-9.7-5.2-19.8-9.3-30.3-12.5c-8.9-2.7-17.9-4.6-27.1-5.7c-8.3-1-16.6-1.6-25-1.3
			c-2.2,0.1-4.4,0-6.6,0c-0.1-0.3-0.2-0.7-0.3-1.1c-1.9-8.7-3.7-17.4-5.5-26.1c-1.9-9.1-3.9-18.2-5.8-27.3c-1.1-5-2.1-10.1-3.1-15.1
			c-0.2-1.1-0.7-2-1.8-2.6c-1.6-0.9-3.2-1.9-4.7-2.9c-5-3.1-9.9-6.1-14.9-9.1c-1.2-0.7-1.8-1.6-2-2.9c-0.1-0.5-0.3-1.1-0.4-1.6
			c-1.2-5.3-2.4-10.7-3.6-16c-0.1-0.5-0.3-0.9-0.5-1.5c-6,2.6-11.7,5.1-17.3,7.6c-3.3-2.5-6.5-4.8-9.9-7.3
			c2.7-11.2,5.5-22.5,8.3-33.8c-0.1-0.1-0.3-0.1-0.4-0.2c-12.8,8.5-25.7,17-38.6,25.5c-3.6-3-7-6-10.5-9c-0.6,0.1-1,0.2-1.5,0.4
			c-11.4,3.1-22.9,6-34.3,9.2c-8.1,2.3-16.1,5.1-24.1,7.7c-9.7,3.1-19.4,6.3-29.1,9.5c-10.2,3.3-20.3,6.6-30.5,9.9
			c-8.5,2.8-17,5.6-25.6,8.3c-2.2,0.7-4.5,1.3-6.8,1.7c-4.5,0.8-9.1,1.3-13.6,2c-5,0.7-10,1.5-15,2.2c0-92.7,0-185.4,0-278.1
			c164.8,0,329.7,0,494.5,0c-0.2,0.2-0.4,0.4-0.6,0.5c-7.3,3.5-14.1,7.7-20.3,12.7c-13.8,11.2-24,25.1-30.5,41.6
			c-5,12.7-7.2,25.8-6.9,39.4c0.3,9.4,1.7,18.7,4.7,27.7c0.7,2.1,1.4,4.1,2.1,6.3c-2.1,1-4.2,1.6-6.5,1.6c-2.7-4.6-5.3-9.1-8.1-14
			c-0.8,3-1.5,5.6-2.2,7.8c-2.2,0.4-4,0.7-6,1c-1.4-1.9-2.9-4.1-4.6-6.6c-1.1,5.6-2.1,10.8-3.1,16c-1.1,0.2-2,0.4-3,0.5
			c-11.2,1-20.9-5.9-23.6-16.8c-1-4-2-8-3-12c-0.2-0.7-0.4-1.4-0.6-2c-1,1.6-1.6,3.2-2.3,4.7c-3.8,8.9-10.3,14.7-19.7,17.1
			c-3.7,0.9-7.5,1.6-11.2,2.4c-0.8,0.2-1.6,0.4-2.4,0.6c0.4,0.5,0.7,0.6,1,0.7c4.1,1,8.1,2,12.2,2.9c2.6,0.6,4.6,2,6,4.3
			c1.1,1.8,2.2,3.5,3.3,5.2c0.4,0.7,0.9,1.3,1.4,2.1c1.3-0.9,2.4-1.7,3.6-2.4c1.1-0.7,2.2-1.4,3.5-1.8c6.7-2.2,15.6,3.5,16.9,10.8
			c0,0.2,0.1,0.4,0.1,0.6c0.2,2,0.5,4.1,0.7,6.1c0.3,2.2,0.5,4.4,0.9,7c0.6-0.8,0.9-1.2,1.2-1.7c1.6-2.5,3.2-5,4.9-7.4
			c4-5.6,11.4-6.6,16.5-2c1.6,1.4,3.1,3.1,4.5,4.7c2,2.3,3.8,4.7,5.6,7c0.8-0.1,1.5-0.3,2.2-0.4c1-2.9,1.9-5.7,2.9-8.4
			c0.8-2.1,1.7-4.2,2.8-6.2c2.6-4.7,7.9-6.7,13.1-5.1c1.2,0.4,2,1,2.7,2c2.3,3.2,4.6,6.3,7,9.4c0.6,0.8,1.3,1.6,2.2,2.7
			c-2,0-3.6,0-5.2,0c3.3,2.1,6.6,3.8,9.9,5.6c4,2.2,7.4,4.9,8.3,9.8c0.3,1.5,0.9,3,1.4,4.5c0.2,0.5,0.4,1,0.6,1.5
			c1.5-0.5,2.8-1.1,4.2-1.5c1-0.3,2-0.6,3-0.8c0.6-0.1,1.4,0.1,1.9,0.3c3.1,1.5,6.2,3.2,9.3,4.8c0.4,0.2,0.8,0.4,1,0.7
			c2.4,3.2,4,6.6,3.4,10.7c-0.5,3.4-1,6.8-1.4,10.2c-0.1,1-0.3,1.9-0.1,3.1c0.7-0.6,1.2-1.1,1.7-1.5c2.2-2,4.4-4.1,6.7-6.1
			c5.5-4.6,13.3-3.5,17.3,2.3c1.3,2,2.5,4.1,3.5,6.2c1.4,2.9,2.7,5.8,4,8.7c0.8,0,1.5,0.1,2.2,0.1c1.5-2.2,2.9-4.6,4.5-6.8
			c1.5-2.1,3-4.2,4.8-6.2c5.3-5.8,13.4-5.5,18.4,0.6c1.9,2.3,3.7,4.6,5.5,6.9c0.3,0.4,0.7,0.8,1.2,1.3c0.1-0.8,0.2-1.4,0.2-1.9
			c0.1-3.7,0.2-7.4,0.3-11.1c0.2-6.1,5.4-12.6,11.3-14.3c0.5-0.1,1.1-0.2,1.6-0.3c2.8-0.3,5.4,0.2,7.9,1.6c1.3,0.8,2.7,1.5,4.1,2.3
			c1.5-2.9,2.9-5.6,4.2-8.3c1.1-2.2,2.7-3.8,5-4.6C606.2,176.4,609.2,175.4,612.2,174.4z M414.4,200.4c-0.1,0-0.3,0.1-0.4,0.1
			c0,0.3-0.1,0.7-0.1,1c-0.5,7.1-1,14.2-1.6,21.3c-1,12.4-9.8,22.4-22,25.1c-2.5,0.5-5,0.9-7.5,0.4c-1.3-3.5-2.6-7-3.9-10.5
			c-1.3-3.5-2.5-7-4.1-10.7c-1.9,4-3.5,7.6-5.2,11.1c-1-0.3-1.7-0.5-2.4-0.8c-0.3,0.5-0.6,1-0.9,1.5c-0.4-0.6-0.7-1-1.1-1.5
			c-0.8,0.3-1.5,0.5-2.4,0.7c-1.7-3.7-3.4-7.3-5.2-11.2c-2.8,7.4-5.4,14.4-8,21.4c-0.5,0-0.9,0.1-1.2,0.1
			c-14.8,0.3-27.4-11.4-28.3-26.2c-0.4-6.4-0.9-12.7-1.4-19.1c-0.1-0.9-0.2-1.8-0.4-3.2c-0.6,0.9-1,1.4-1.3,1.9
			c-1.3,2.2-2.6,4.5-4,6.7c-2.7,4.4-6.1,8.1-10.4,11c-6.1,4.2-12.9,6.3-20.2,6.6c-6.2,0.2-12.5,0.4-18.7,0.7c-0.5,0-0.9,0.2-1.9,0.3
			c1.1,0.5,1.8,0.8,2.5,1.1c6,2.6,12.1,5.2,18.1,7.8c2.8,1.2,4.8,3.2,5.9,6c1.3,3.2,2.6,6.3,3.9,9.5c0.3,0.6,0.5,1.2,0.9,2
			c0.7-0.3,1.2-0.5,1.8-0.7c1.6-0.7,3.2-1.6,4.8-2.3c6.2-2.7,12.9-1.1,17.2,4.2c0.7,0.9,1.3,1.7,2,2.6c2.5,3.1,3.7,6.7,3.4,10.7
			c-0.2,3.6-0.4,7.1-0.6,10.7c-0.1,2.6-0.2,5.1-0.3,7.7c0.2,0.1,0.4,0.2,0.5,0.3c0.4-0.5,0.8-1.1,1.2-1.6c3.2-3.4,6.3-6.9,9.6-10.2
			c6.1-6.2,15.6-5.7,20.9,1.1c1.8,2.3,3.4,4.8,4.9,7.3c1.6,2.7,3.1,5.5,4.6,8.3c0.3,0.6,0.7,1.2,1.1,1.8c0.7-0.3,1.3-0.6,2-0.8
			c0.7,0.3,1.4,0.5,2.1,0.8c2.2-4,4.2-8,6.5-11.8c1.4-2.4,3.2-4.6,4.9-6.8c1.3-1.6,3.1-2.7,5.1-3.4c5.7-1.9,10.7-0.6,14.9,3.6
			c3.4,3.4,6.6,7,9.8,10.5c0.3,0.4,0.8,0.6,1.3,1.1c0-1,0-1.8,0-2.5c-0.3-5.4-0.6-10.8-0.9-16.2c0-0.7,0-1.4,0-2.1
			c-0.2-5.3,6.8-14.1,11.6-15.7c3.8-1.2,7.5-1.2,11.2,0.5c2.1,1,4.2,2,6.4,3c0.4-0.8,0.7-1.4,0.9-2c1.3-3,2.5-6.1,3.7-9.1
			c1.2-3.1,3.3-5.2,6.4-6.5c6-2.5,11.9-5.1,17.9-7.7c0.7-0.3,1.3-0.6,2-0.9c-0.7-0.4-1.3-0.5-2-0.5c-6.1-0.2-12.2-0.4-18.3-0.7
			c-5.4-0.2-10.6-1.4-15.5-3.8c-6.4-3.2-11.5-7.8-15.2-14C417.6,205.8,416,203.1,414.4,200.4z"/>
	</g>
	<g id="bats">
		<path class="st0" d="M478.7,177.8c-0.6-2-1.3-3.8-1.9-5.7c-1-3.8-3.3-6.5-6.9-8.2c-1.1-0.5-2.2-1.2-3.4-2
			c12.3,1.1,22.6-2.6,31-11.8c0,0.7,0,1.3,0,2c0,3.1-0.1,6.2,0.1,9.2c1,11.7,10.5,21.4,22.1,22.8c1.4,0.2,2.9,0.2,4.4,0.3
			c1.9-4,3.7-7.8,5.7-12c0.8,2,1.4,3.5,2,5.2c1.5-0.3,2.9-1,4.3-0.9c1.4,0.1,2.7,1,4.2,1.6c0.9-1.5,1.7-3,2.8-4.8
			c1.3,4.5,2.4,8.5,3.6,12.7c4,0.9,8,0.9,11.9-0.3c10.6-3.1,16.9-10.2,18.8-21.1c0.5-2.6,0.8-5.3,1.3-8.2c0.5,0.5,0.8,0.8,1,1.2
			c5.8,9.1,14.1,14.1,24.8,15.3c0.9,0.1,1.9,0.3,2.9,0.7c-1.3,0.4-2.5,0.9-3.8,1.3c-3.7,1.1-6.3,3.4-8,6.9c-0.8,1.8-1.8,3.5-2.8,5.4
			c-0.9-0.5-1.7-0.9-2.4-1.3c-6.1-3.3-13-2.3-17.8,2.8c-0.8,0.9-1.7,1.8-2.5,2.7c-2.1,2.6-3.3,5.5-3.4,8.8c-0.1,2.4-0.2,4.7-0.6,7.3
			c-1-1.2-1.9-2.4-2.9-3.6c-3-3.6-6.9-5.4-11.5-5.3c-3.5,0.1-6.6,1.3-9,3.8c-1.8,1.8-3.4,3.8-4.9,5.8c-1.6,2.1-3,4.4-4.6,7
			c-0.5-1-0.8-1.7-1.2-2.4c-1.7-3.6-3.1-7.3-5.4-10.6c-5.2-7.7-14.8-9-21.7-2.8c-1.1,0.9-2.1,1.9-3.5,2.7c0.2-1.7,0.3-3.3,0.6-5
			c1.5-7.1-1.3-12.7-6.2-17.4c-4-3.8-8.9-4.6-14.2-3C480.8,177.1,479.9,177.4,478.7,177.8z"/>
		<path class="st0" d="M458.7,147.8c-1.3-1-2.3-1.7-3.4-2.5c-7.1-5.3-16-3.3-20.3,4.5c-1.6,3-2.6,6.2-3.8,9.3
			c-0.3,1-0.7,1.9-1.1,3.3c-0.6-0.7-1.1-1.2-1.5-1.8c-2.4-2.8-4.6-5.8-7.3-8.4c-6.4-6.1-16.4-4.6-20.9,2.7c-0.6,1-1.3,1.9-2.3,2.8
			c-0.2-1.7-0.5-3.3-0.6-5c-0.4-7-4.6-11.3-10.3-14.3c-4.3-2.3-8.8-1.7-12.9,0.8c-0.8,0.5-1.6,1.1-2.5,1.7c-0.4-0.5-0.7-0.8-1-1.3
			c-0.9-1.4-1.8-2.9-2.7-4.3c-1.6-2.5-3.8-4-6.7-4.8c-1.4-0.3-2.7-0.7-4.2-1.2c11.3-1.9,19.7-7.6,25-18.2c0.3,0.6,0.5,1,0.6,1.4
			c0.6,2.3,1.1,4.5,1.7,6.8c3.4,12.6,16.1,20.2,28.8,17.3c1.2-0.3,1.8-0.7,2-2.1c0.4-2.9,1.1-5.8,1.6-8.7c0.1-0.5,0.3-0.9,0.5-1.6
			c1,1.4,2,2.7,2.9,4c1.3-0.7,2.5-1.6,3.8-1.9c1.3-0.2,2.7,0.3,4.1,0.5c0.5-1.6,0.9-3.1,1.5-4.9c2.2,3.7,4.1,7,6.1,10.4
			c1.8,0.3,3.4-0.1,5.1-0.5c11.9-3,19.5-14.1,18.1-26.3c-0.3-2.4-0.4-4.7-0.7-7.6c8.5,8.2,18.3,10.9,29.4,8.9c0,0.2,0.1,0.3,0.1,0.5
			c-0.9,0.6-1.7,1.2-2.6,1.7c-3.1,1.8-4.9,4.5-5.6,8c-0.4,1.9-0.8,3.7-1.3,5.7c-1-0.2-1.7-0.4-2.5-0.6c-6.2-1.6-12.3,1-15.5,6.5
			c-2,3.5-3.7,7.1-3,11.3c0.3,2.1,0.9,4.1,1.3,6.2C458.6,146.5,458.6,147,458.7,147.8z"/>
		<path class="st0" d="M529.1,128.3c-0.8-1.7-1.4-3-2.1-4.3c-0.7-1.3-1.4-2.5-2.3-3.7c-3-3.9-8.3-4.4-12-1.2
			c-0.7,0.6-1.4,1.3-2.1,1.9c0,0-0.1,0-0.3-0.1c0.1-1.3,0.2-2.5,0.3-3.8c0.4-4-1.6-7-4.6-9.4c-2.2-1.8-4.9-2-7.6-1.1
			c-0.6,0.2-1.1,0.4-2,0.7c-0.3-0.9-0.6-1.6-0.9-2.5c0.7-0.6,1.3-1,2.2-1.8c-1.1,0.1-1.9,0.1-2.8,0.2c-0.9-2.7-3.4-3.6-5.7-5
			c7,0.2,12.9-2.1,17.7-8.1c0.1,1.8,0.1,3.1,0.2,4.5c0.2,1.6,0.2,3.2,0.6,4.7c2.1,7.4,9.3,11.3,15.5,10.5c0.9-2.1,1.9-4.4,3.1-6.9
			c0.5,1.1,0.9,1.9,1.4,2.9c1.6-0.6,3.2-0.7,4.7,0.3c0.6-0.9,1-1.7,1.7-2.8c0.9,2.6,1.7,4.9,2.4,7.1c8.4,1.5,16.2-4.3,17.2-12.6
			c0.2-1.7,0.4-3.3,0.7-5.5c4.2,6.3,9.8,9.2,16.9,9.4c-1.9,1.2-3.8,2-5.1,3.3c-1.3,1.4-2,3.4-3,5.2c-0.7-0.3-1.3-0.6-1.9-0.9
			c-3.2-1.4-6.8-0.7-9.3,1.8c-2.5,2.4-4,5.2-3.7,8.8c0.1,0.9,0,1.7,0,3.1c-0.9-0.9-1.4-1.5-1.9-2.1c-3.7-4.1-9.1-4.1-12.7,0.1
			c-1.1,1.3-2.1,2.9-3.1,4.4C530.3,126.3,529.8,127.1,529.1,128.3z"/>
		<path class="st0" d="M417.6,214.2c4.2,5.3,8.9,9.3,14.6,12.2c5.6,2.8,11.6,4.2,17.9,4.7c-0.5,0.3-1,0.6-1.5,0.8
			c-4.4,1.7-7.4,4.9-9,9.3c-0.8,2.1-1.7,4.2-2.6,6.4c-0.8-0.3-1.5-0.6-2.1-0.9c-8.4-3.8-17.4-1.6-23.1,5.6c-0.1,0.2-0.2,0.3-0.4,0.5
			c-4.6,5.1-6.6,10.9-5.7,17.8c0.1,1.1,0.1,2.2,0.1,3.3c0,0.1-0.1,0.2-0.2,0.6c-1-0.6-1.7-1.6-2.4-2.4c-3.7-3.8-8.1-5.8-13.4-5.8
			c-5.8-0.1-10.5,2.3-14.2,6.7c-2.2,2.6-4.1,5.3-5.6,8.3c-1.1,2.1-2.3,4.2-3.6,6.6c-0.5-0.8-0.9-1.5-1.2-2.1
			c-2.3-4.1-4.5-8.3-7.4-12.1c-7.5-9.9-21.1-9.5-28.5-1.3c-0.6,0.7-1.3,1.4-2.2,2.3c-0.1-0.8-0.2-1.2-0.2-1.6
			c0.1-1.9,0.3-3.8,0.3-5.7c0.1-4.3-1.2-8.2-3.7-11.7c-1-1.3-2-2.6-3-3.9c-5.3-6.4-14.1-8.6-21.8-5.3c-0.9,0.4-1.9,0.8-2.9,1.2
			c-0.8-2-1.6-3.8-2.3-5.6c-1.7-4.9-4.9-8.5-9.9-10.3c-0.3-0.1-0.6-0.3-0.9-0.6c13.1-0.7,23.9-6,32.4-16.7c0.1,0.9,0.2,1.5,0.3,2
			c0.4,3.7,0.5,7.6,1.2,11.2c3.1,14.8,16.3,25.4,31.5,25.5c1.6,0,3.3-0.1,5-0.2c1.7-4.6,3.4-9.1,5.2-14c0.9,1.9,1.7,3.4,2.5,5.2
			c1.1-0.4,2.1-0.7,3.1-1.2c1.8-1,3.5-0.9,5.2,0c0.9,0.5,1.9,0.7,3,1.1c0.8-1.6,1.5-3.1,2.4-5c0.4,0.8,0.7,1.3,0.9,1.8
			c1.3,3.5,2.7,7.1,3.9,10.6c0.3,1,0.8,1.4,1.9,1.5c14.5,1.3,28.1-6.8,33.6-20.2c1.7-4.3,2.3-8.7,2.6-13.2
			C417.3,218,417.4,216.4,417.6,214.2z"/>
	</g>
	<g id="gravestone">
		<path class="st0" d="M444.1,788.2c-7.5,0-14.6,0-21.8,0c-2.4-11.6-4.7-23.1-7.1-34.9c-12.6,8.1-24.9,15.9-37.6,24
			c-0.2-2.2-0.1-4.1-0.1-5.9c0-1.9,0-3.8,0-5.8c0-2,0-4,0-6c0-1.9,0-3.8,0-5.8s0-3.8,0-5.8c0-1.9,0-3.8,0-6.2
			c-5.2,4.1-9.9,8.3-14.7,12.4c-4.8,4-9.6,8.2-14.7,12.5c-1.7-8.9-2.9-17.5-4.9-26.2c-9.1,15.8-18.2,31.6-27.4,47.5
			c-51.4,0-102.9,0-154.5,0c0-0.8-0.1-1.4-0.1-2.1c0-49.4,0-98.7,0.1-148.1c0-2.6,0.9-5.2,1.5-7.8c2.4-9.9,4.8-19.7,7.2-29.5
			c0.6-2.5,1.2-5.1,1.9-7.6c0.4-1.3,0.3-2.2-0.7-3.3c-3.1-3.7-6-7.5-9.1-11.2c-0.8-0.9-1-1.8-1-3c0-7.1,0-14.1,0-21.2
			c0-25.4,0-50.7,0-76.1c0-0.8,0-1.6,0-2.7c0.9-0.3,1.8-0.6,2.7-0.8c4.4-1.1,4.4-1.1,7.3-4.6c5.5-6.7,11.1-13.4,16.6-20.1
			c0.3-0.4,0.6-0.9,1-1.4c-1.4-3.4-2.8-6.8-4.4-10.5c11,1.2,21.7,2.4,32.6,3.7c0.5-8.6,1-17.2,1.5-25.9c10.4,0.2,20.7,1.1,31.1,1.2
			c-6.3-5.7-12.8-11.1-19.2-16.5c-6.4-5.4-12.8-10.9-19.5-16.5c1.4-0.9,2.5-1.8,3.8-2.6c11.1-7.2,22.9-12.9,35.4-17.1
			c8.9-3,18-5.2,27.3-6.6c15.8-2.4,31.5-2.6,47.3-0.4c16,2.2,31.3,6.6,46,13.4c13.9,6.5,26.8,14.6,38.2,25
			c10.1,9.2,18.1,19.9,24.2,32.2c4.7,9.5,8,19.4,9.5,29.8c0.7,5.1,1.3,10.2,1.3,15.3c0.1,90.2,0.1,180.3,0.1,270.5
			c0,14.1,0,28.2-0.1,42.4C444.1,786.6,444.1,787.3,444.1,788.2z M245.3,515.5c0.6-0.4,0.9-0.7,1.2-0.9c4.3-3.1,7.9-6.7,10.3-11.5
			c3-6,1.4-12.5-4-16.4c-2.3-1.6-4.9-2.7-7.7-3.3c-5.1-1.1-10.3-1.6-15.5-1.6c-8.8-0.1-17.7,0-26.5,0c-2.3,0-4.6,0-7.1,0
			c0.4,2.2,0.7,4.2,1,6.3c3.5,0.4,6.9,0.7,10.3,1.1c0.5,18.6,0.4,36.9,0,55.5c-3.5,0.4-6.8,0.7-10.2,1.1c-0.4,2.1-0.9,4.2-1.4,6.5
			c13.1-0.8,26-0.7,39.1,0c-0.4-2.3-0.8-4.4-1.2-6.5c-1.8-0.2-3.4-0.3-5-0.5c-1.6-0.2-3.2-0.4-4.7-0.5c-0.6-2.9-0.8-21.4-0.3-23.2
			c1.4-0.1,2.8-0.1,4.2-0.3c1.1-0.1,1.7,0.2,2.5,1c6.1,6.5,12.2,13.1,18.6,19.5c3.9,3.9,8.1,7.4,12.2,11c1.8,1.6,3.9,2.4,6.4,1.7
			c2-0.5,4.1-0.6,6.6-1C262.6,541.9,254,528.8,245.3,515.5z M363.4,545.7c-0.4,2.2-0.8,4.2-1.2,6.5c14-0.8,27.6-0.7,41.6,0
			c-0.6-2.3-1.1-4.4-1.6-6.4c-4.2-0.7-8.2-0.5-12.1-1.4c-0.7-7.6-0.6-52.4,0.1-55.4c3.5,0.2,6.9,0.5,10.1,2.1
			c2.6,1.4,4.5,3.5,5.3,6.3c1,3.5,0.8,7.1-0.6,10.5c-1.9,4.7-5.8,7.3-10.4,8.9c-1.2,0.4-2.3,0.7-3.6,1c-0.2,2.2-0.8,4.3-0.8,6.5
			c0.4,0,0.6,0.1,0.8,0c7.9-0.8,15.3-3.3,21.7-8c5.5-4.1,9-9.5,9.7-16.5c0.4-4-0.8-7.6-3.5-10.6c-1.8-1.9-4-3.4-6.4-4.4
			c-4.7-2-9.6-2.8-14.6-2.9c-9.9-0.2-19.9-0.3-29.8-0.3c-1.8,0-3.6,0.1-5.7,0.2c0.3,2.2,0.6,4.2,0.9,6.1c1.9,0.2,3.6,0.3,5.2,0.5
			c1.7,0.2,3.4,0.4,5.3,0.6c0.5,18.6,0.4,37,0,55.5C370.2,544.9,366.9,545.3,363.4,545.7z M322.1,544.6c-0.4-18.6-0.5-37,0-55.5
			c3.4-0.5,6.7-1,10.1-1.4c0.5-2.2,1-4.2,1.6-6.4c-13.4,0.8-26.4,0.7-39.7,0.1c0.4,1.7,0.7,3.3,1.1,4.8c0.4,1.7,0.5,1.6,2.2,1.8
			c2.7,0.3,5.4,0.7,8.3,1c0.5,18.6,0.5,37,0,55.5c-3.6,0.4-6.9,0.8-10.3,1.2c-0.4,2.1-0.8,4.2-1.2,6.5c13.3-0.7,26.3-0.7,39.6,0
			c-0.6-2.4-1.2-4.5-1.7-6.5C328.8,545.3,325.6,545,322.1,544.6z"/>
		<path class="st0" d="M223.2,513.9c0.1-8.4,0.2-16.5,0.3-25c1.5,0.1,2.7,0.2,3.9,0.3c3.2,0.4,6.3,1.2,9.2,2.8
			c5.1,3,6.4,7.1,4.3,12.6c-1,2.7-3,4.8-5.4,6.2C231.7,513,227.7,513.9,223.2,513.9z"/>
	</g>
	<g id="rip">
		<path class="st0" d="M212.9,486.3c-0.3,0-0.7,0.1-1.1,0.1c0.7,20.2,0.6,40.3,0,60.6c2.5,0,4.8,0,7.1,0c0-20.3,0-40.5,0-60.7
			C216.8,486.3,214.8,486.3,212.9,486.3z"/>
		<path class="st0" d="M232.5,517.3c2.5,4,25.2,27.1,29.2,29.6c-8.1-10.6-15.9-21.4-22.6-32.8C236.9,515.2,234.7,516.3,232.5,517.3z
			"/>
		<path class="st0" d="M246.2,498c0.7,5.2-0.9,9.7-4.2,13.7c4.4-1.8,9.5-7.3,11.1-11.4c1.6-4.1,0.4-7.7-3.4-10.1
			c-3.8-2.4-8.1-2.8-12.4-3.2C241.8,489.4,245.4,492.6,246.2,498z"/>
		<path class="st0" d="M385.4,486.1c-2.4,0-4.8,0-7.2,0c0.6,20.3,0.5,40.5,0,60.8c0.6,0.1,1.1,0.1,1.5,0.1c1.8,0,3.7,0,5.7,0
			C384.9,526.6,384.8,506.4,385.4,486.1z"/>
		<path class="st0" d="M415.1,491.8c-3.2-3-7.3-4.2-11.9-4.8c10,8.4,9.1,17.7,3.1,27.8c0.9-0.5,1.5-0.9,2.2-1.3
			c5.1-3.5,8.8-8,9.3-14.5C418,496.2,417.2,493.8,415.1,491.8z"/>
		<path class="st0" d="M317.6,486.4c-2.5,0-4.8,0-7.4,0c0.6,20.3,0.5,40.4,0,60.5c2.6,0,4.9,0,7.4,0
			C317.1,526.7,317.1,506.6,317.6,486.4z"/>
	</g>
	<g id="eyes">
		<path class="st0" d="M95.9,349.2c0,12.8-8.6,24.4-20.9,27.9c-15.1,4.4-30.6-3.5-36-18.3c-1.2-3.3-1.3-6.3,0.7-9.5
			c3.3-5.2,6.9-10.2,10.8-15c4-4.9,8.1-9.6,12.3-14.3c3.1-3.6,6.7-4.4,11.1-2.8c4.6,1.7,8.3,4.7,11.6,8.3c3.5,3.9,6.4,8.2,8.3,13.1
			C95.1,342,95.9,345.5,95.9,349.2z M73.4,349.1c0-3.8-3-6.8-6.7-6.8c-3.7,0-6.7,3-6.7,6.8c0,3.8,2.9,6.8,6.7,6.8
			C70.4,355.9,73.4,352.9,73.4,349.1z"/>
		<path class="st0" d="M68.8,349.2c0,1.3-1,2.2-2.3,2.1c-1.2-0.1-2-0.9-2.1-2.1c0-1.2,1-2.3,2.1-2.3C67.8,346.9,68.8,348,68.8,349.2
			z"/>
		<path class="st0" d="M200.9,334.1c-3.8,0-6.8-2.9-6.8-6.7c0-3.8,3-6.8,6.7-6.8c3.8,0,6.8,3,6.8,6.7
			C207.7,331.1,204.7,334.1,200.9,334.1z M203,327.3c0-1.2-1-2.3-2.2-2.2c-1.1,0-2.2,1.1-2.2,2.3c0,1.1,1,2.1,2.1,2.1
			C202,329.6,203,328.6,203,327.3z"/>
		<path class="st0" d="M221.5,315.2c2.8,2.9,5.8,5.6,8.4,8.7c2.9,3.5,2.6,7.5,0.9,11.5c-2,4.9-5.5,8.7-9.5,11.9
			c-4.9,3.9-10.2,6.9-16.4,8c-14,2.6-28.1-5.6-32.8-19.1c-1.9-5.5-1.9-11.1-0.9-16.6c1.1-6.1,3.4-11.7,7.2-16.6
			c2.1-2.6,4.4-4.8,7.7-5.9c2-0.7,4-0.7,6,0.2c3.5,1.6,7.1,3.3,10.6,5c0.6,0.3,1.1,0.7,1.7,1.2c-5.7-0.7-11,0.3-15.9,3.4
			c-4.9,3.1-8.3,7.5-9.8,13c-2.9,10,0.4,20.3,8.9,26.5c8,5.8,19.2,5.7,26.9-0.2c4.7-3.6,7.7-8.3,8.9-14.1c1.2-5.7,0.2-11.1-2.3-16.4
			C221.2,315.4,221.4,315.3,221.5,315.2z"/>
	</g>
	<g id="robot">
		<path class="st0" d="M88.3,473.8c9.7,57.1,19.4,114,29.1,171c13.2-2.3,26.1-4.5,39.1-6.7c0.1-1.2,0.1-2.3,0.4-3.2
			c1.1-4.5,2.2-8.9,3.3-13.4c2.3-9.2,4.5-18.4,6.8-27.5c0.3-1.2,0.1-2.2-0.7-3.2c-2.9-3.4-5.6-7-8.4-10.4c-0.9-1-1.2-2-1.2-3.3
			c0-34.3,0-68.6,0-102.8c0-0.7,0-1.5,0-2.1c1.6-0.5,3-1.1,4.4-1.3c3.5-0.4,6-2.2,8-5.1c1.5-2.2,3.3-4.1,5.3-6.6
			C145.5,464.1,117.1,468.9,88.3,473.8z"/>
		<path class="st0" d="M151.9,648.1c-2.7,0.4-5.2,0.9-7.9,1.3c0.5,3,1,5.9,1.5,8.8c2.8-0.5,5.3-0.9,7.9-1.3
			C152.9,653.8,152.4,651,151.9,648.1z"/>
		<path class="st0" d="M142.2,722.5c-1.9-11.1-3.8-22.1-5.7-33.2c-0.1-0.3-0.2-0.6-0.4-1c-5.1,0.9-10.2,1.7-15.4,2.6
			c0.3,2,0.7,3.8,1,5.6c1.4,8.4,2.9,16.9,4.3,25.3c0.1,0.8,0.4,1.6,0.8,2.3c5.7,10.1,11.4,20.1,17.2,30.2c0.3,0.6,0.7,1.1,1.3,1.9
			c0.8-1.7,2.1-2.7,1.8-4.6C145.4,742,143.9,732.2,142.2,722.5z"/>
		<path class="st0" d="M118.9,692.6c-0.1-0.4-0.3-0.8-0.4-1.3c-5.3,0.9-10.4,1.8-15.7,2.7c0.1,0.9,0.1,1.5,0.2,2.1
			c1.1,6.7,2.3,13.5,3.4,20.2c1.3,7.8,2.7,15.7,4,23.5c0.8,4.9,1.7,9.8,2.5,14.8c0.2,1.5,1,2.4,2.5,3.1c0.5-2,1-3.8,1.5-5.7
			c2.4-8.6,4.7-17.3,7.1-25.9c0.2-0.7,0.2-1.5,0.1-2.2C122.4,713.4,120.6,703,118.9,692.6z"/>
		<path class="st0" d="M154.8,712.5c-1.3-7.7-2.6-15.4-3.9-23.1c-0.2-1.1-0.4-2.2-0.7-3.5c-4,0.7-7.7,1.3-11.6,2
			c3.5,20.6,7,41,10.5,61.5c0.3-0.1,0.5-0.1,0.6-0.2c2.3-3.7,4.5-7.3,6.7-11c0.3-0.5,0.3-1.3,0.3-2c0-2.9,0-5.9,0-8.8
			c0-1.6,0-3.2-0.2-4.7C156,719.2,155.4,715.9,154.8,712.5z"/>
		<path class="st0" d="M88.3,696.5c0.1,0.7,0.1,1.2,0.2,1.7c0.8,4.6,1.5,9.2,2.3,13.8c1.4,8.5,2.9,17,4.3,25.5
			c0.2,1.2,0.7,2.1,1.6,3c4,3.7,8,7.5,12,11.2c0.4,0.4,0.9,0.8,1.3,1.2c0.1-0.1,0.2-0.1,0.3-0.2c-3.3-19.3-6.6-38.7-9.9-58.3
			C96.2,695.1,92.3,695.8,88.3,696.5z"/>
		<path class="st0" d="M230.3,411.8c-0.4-2.1-0.7-4-1-5.9c0.1-0.1,0.2-0.1,0.3-0.2c2.3,1.9,4.6,3.9,7.2,6.1
			C234.4,411.8,232.5,411.8,230.3,411.8z"/>
		<path class="st0" d="M0.4,310.6c0-7.7,0-15.4,0-23c1.6-0.2,3.1-0.4,4.7-0.6c9-1.3,18-2.7,27-4c0.9-0.1,1.9-0.4,2.8-0.7
			c8-2.6,16-5.2,24-7.8c7.9-2.6,15.9-5.1,23.8-7.7c10-3.2,19.9-6.5,29.9-9.7c6.6-2.1,13.1-4.3,19.7-6.4c4.7-1.5,9.3-3.2,14.1-4.5
			c10.2-2.8,20.5-5.5,30.7-8.3c1-0.3,1.7-0.1,2.4,0.6c1.4,1.3,2.9,2.5,4.4,3.8c2.2,1.9,4.4,3.7,6.6,5.7c8.5-5.4,16.7-11.1,25.1-16.5
			c0.1,0.1,0.2,0.2,0.3,0.3c-3.4,13.9-6.8,27.8-10.3,42.2c12.7-5.6,24.9-10.9,37.3-16.3c0.9,4,1.9,7.7,2.6,11.5
			c0.4,2,1.3,3.1,2.9,4.1c6.5,3.9,12.8,7.9,19.3,11.8c0.7,0.4,1.1,1,1.2,1.8c1.7,8.3,3.5,16.6,5.3,24.9c2.4,11.4,4.8,22.8,7.2,34.2
			c0.4,2.1,0.8,4.2,1.3,6.5c-29.2,3.7-55.6,13.9-79.2,31.4c5.3,4.5,10.3,8.8,15.7,13.4c-8.4,2.2-16.3,4.3-24.3,6.4
			c-1.4-2.6-2.7-5-4.1-7.6c-1.4,0.7-2.6,1.4-4,2.1c1.2,2.3,2.2,4.4,3.5,6.7c-5.2,1.4-10.2,2.7-15.4,4.1c-0.8-4.7-1.6-9.1-2.3-13.6
			c-0.8-4.4-1.4-8.9-2.3-13.3c-1.6,0.3-2.9,0.5-4.4,0.8c1.5,9.1,3,18.1,4.6,27.2c-4.3,1.2-8.5,2.3-13,3.5c-0.6-3.7-1.3-7.2-1.9-10.8
			c-1.7,0.3-3,0.5-4.4,0.8c0.6,3.9,1.2,7.4,1.8,11.2c-5.9,1.6-11.6,3.1-17.4,4.6c-2.8-7.3-5.5-14.2-8.2-21.3
			c-1.3,0.4-2.3,0.8-3.3,1.2c-0.2,0.1-0.4,0.3-0.9,0.6c2.6,6.9,5.2,13.7,7.9,20.8c-7.5,2-14.8,4-22.1,6c-2.3-5.2-4.5-10.2-6.8-15.3
			c-1.5,0.7-2.8,1.2-4.1,1.9c2.1,4.9,4.2,9.7,6.4,14.7c-5.6,1.6-11.1,3.1-16.8,4.6c-1.5-9-3-17.7-4.6-26.5c-1.6,0.3-3,0.5-4.4,0.8
			c1.4,9.2,3.1,18,4.5,27c-6.1,1.7-12,3.4-17.9,5c-2-3.8-4-7.4-6-11.2c-0.8,0.4-1.4,0.7-2,1c-0.6,0.3-1.3,0.7-2,1.1
			c1.9,3.5,3.6,6.8,5.4,10.3c-2.5,0.8-4.9,1.5-7.3,2.2c0.4,1.5,0.8,2.8,1.2,4.3c2.8-0.8,5.5-1.5,8.3-2.3c1.9,3.6,3.8,7,5.8,10.6
			c1.5-0.8,2.7-1.5,3.9-2.2c-1.8-3.3-3.4-6.4-5.1-9.8c5.6-1.6,10.9-3.2,16.5-4.5c1.3,7.4,2.5,14.4,3.7,21.6c1.6-0.3,3-0.5,4.5-0.8
			c-1.3-7.5-2.5-14.8-3.7-22.2c6.1-1.7,11.9-3.3,17.9-4.9c2.3,5.1,4.4,10,6.7,15.1c1.5-0.7,2.7-1.3,4.1-1.9
			c-2.1-4.9-4.2-9.6-6.3-14.4c7.4-2,14.6-4,21.9-6c2.3,5.9,4.5,11.7,6.8,17.6c1.5-0.6,2.8-1.1,4.2-1.6c-2.2-5.8-4.3-11.4-6.5-17.2
			c5.6-1.5,11-2.9,16.5-4.4c0.7,3.7,1.3,7.3,2,11c1.5-0.3,2.9-0.6,4.4-0.9c-0.6-3.9-1.2-7.6-1.8-11.3c4.4-1.2,8.6-2.3,12.9-3.4
			c0.8,4.2,1.5,8.3,2.2,12.5c1.6-0.3,2.9-0.6,4.4-0.8c-0.7-4.3-1.4-8.5-2.1-12.9c5.6-1.5,11.2-3,16.9-4.4c2.6,4.9,5.1,9.6,7.7,14.3
			c1.4-0.8,2.7-1.5,4-2.2c-2.4-4.5-4.7-8.9-7.1-13.3c8.9-2.4,17.6-4.7,26.5-7c0.6,3.7,1.2,7.2,1.8,11c-3.9-0.2-7.5-0.3-11.2-0.4
			c-0.5,8.6-1,17-1.4,25.6c-11.9-1.3-23.6-2.6-35.6-4c2.2,5.3,4.3,10.4,6.5,15.6c-1,0.2-1.6,0.4-2.3,0.5c-7.5,1.3-15,2.6-22.5,3.9
			c-11.3,1.9-22.5,3.9-33.8,5.8c-10.3,1.7-20.5,3.4-30.8,5.2c-5.9,1.1-11.9,1.9-17.7,3.3c-5.5,1.3-11.2,2-16.8,3
			c-5.9,1-11.9,2.1-17.8,3.1c-2.6,0.4-5.1,0.8-7.8,1.3c-0.2-0.8-0.4-1.5-0.5-2.2c-1.9-10.9-3.8-21.7-5.8-32.6
			c-1.6-9-3.2-17.9-4.8-26.9c-2.6-14.7-5.2-29.4-7.8-44.1c-1.3-7.5-2.6-15-4-22.5c-0.6-3.4-1-7-2-10.3c-2.5-8-5.4-15.8-8.1-23.7
			C1.1,311.5,0.7,311.1,0.4,310.6z M182.8,293.2c-0.6,0.4-1,0.7-1.4,0.9c-3.1,1.9-5.6,4.4-7.6,7.4c-4.3,6.2-6.7,13.2-7.5,20.6
			c-0.7,6-0.1,11.9,2.3,17.5c6.4,15.2,22.8,23.6,38.9,19.8c6.7-1.6,12.6-5,17.8-9.5c4.2-3.6,7.8-7.7,9.9-12.9
			c2.5-6.2,2.1-12.1-2.6-17.2c-2-2.2-4.3-4.3-6.4-6.4c-0.7-0.6-1.3-1.3-2-1.9c0.1-0.1,0.1-0.2,0.2-0.3c5.2,2.3,10.5,4.5,15.8,6.8
			c0.7-1.5,1.2-2.8,1.8-4.2c-20.2-8.8-40.2-17.5-60.3-26.3c-0.6,1.5-1.2,2.8-1.8,4.1C180.9,292.2,181.8,292.6,182.8,293.2z
			 M33.5,355.9c0.4,1.5,0.7,2.5,1,3.5c0.3,1,0.7,2.1,1.2,3.1c4.7,10.5,12.7,17.2,23.9,19.7c8.5,1.9,16.6,0.5,24.2-3.8
			c11.5-6.6,18.4-20.5,16.4-33.6c-0.9-6.2-3.4-11.8-7-16.9c-3.9-5.6-8.5-10.4-14.6-13.6c-4.5-2.3-9.1-3.3-14-1.3
			c0,0-0.2-0.1-0.4-0.3c3.1-4.4,6.2-8.8,9.3-13.2c-1.3-0.9-2.4-1.7-3.7-2.6c-14.8,20.8-29.4,41.5-44.2,62.3c1.3,0.9,2.4,1.7,3.7,2.6
			C30.7,359.8,31.9,358,33.5,355.9z M39.1,377.1c0.2,0.3,0.3,0.5,0.4,0.7c0.5,0.5,0.9,1,1.4,1.5c4.4,4.4,9.5,7.6,15.4,9.5
			c10,3.3,19.9,3,29.3-1.9c8.3-4.3,13.6-11.3,16.7-20c0.1-0.2,0-0.4,0-0.7c-0.6-0.2-1.1-0.3-1.7-0.5c-0.2,0.6-0.4,1-0.6,1.4
			c-1.4,3.5-3.2,6.8-5.7,9.7c-5.8,7-13.2,10.9-22.3,11.6c-9.3,0.7-17.6-1.6-25.1-7.1c-2.2-1.6-4.2-3.5-6.3-5.3
			c-0.1,0-0.3,0.1-0.4,0.2C39.8,376.5,39.5,376.8,39.1,377.1z M233.7,343.2c-0.3,0.2-0.3,0.3-0.4,0.3c-0.1,0.2-0.2,0.5-0.4,0.7
			c-5.7,12.3-15.3,19.7-28.7,22c-9.4,1.6-17.7-1.3-25-7.3c-2-1.6-3.7-3.6-5.7-5.4c-0.5,0.3-1,0.7-1.6,1.1c1.5,2.2,3.3,4,5.2,5.6
			c7.5,6.5,16.3,9.6,26.2,8.4c12.6-1.5,22.3-7.8,29.1-18.5c1.2-1.9,2.3-3.9,3-6.1C234.9,343.6,234.3,343.4,233.7,343.2z"/>
	</g>
</g>
<g id="outlines">
	<path d="M56.8,792.4c1.6-6.3,3.3-12.6,4.9-18.9c2.2-8.5,4.4-17,6.6-25.5c0.1-0.5,0.3-1,0.6-1.8c7.5,7.6,14.8,15,22.1,22.5
		c0.1-0.1,0.2-0.1,0.3-0.2c-2.2-13.2-4.5-26.4-6.7-39.6c-2.2-13.2-4.5-26.3-6.8-39.8c26.3-4.5,52.5-8.9,78.7-13.4
		c0.8-3.5-1.5-6.4-1.4-9.9c-5.8,1-11.2,1.9-16.9,2.8c-1-5.9-2-11.7-3.1-17.7c-8.4,1.4-16.6,2.8-25.1,4.2
		c-10.2-59.9-20.3-119.6-30.5-179.5c-17.6,2.9-35,6.1-52.7,9.1c-0.6-3.3-1.1-6.5-1.7-9.6c-2.4-13.5-4.8-27-7.1-40.5
		c-2.2-12.5-4.5-25.1-6.7-37.6c-2.6-14.5-5.1-29-7.7-43.5c-0.8-4.5-1.6-9-2.5-13.5c-0.1-0.5-0.5-0.9-0.7-1.3c0-9.3,0-18.7,0-28
		c0.3,0.5,0.7,0.9,0.8,1.4c2.7,7.9,5.6,15.7,8.1,23.7c1,3.3,1.4,6.8,2,10.3c1.3,7.5,2.7,15,4,22.5c2.6,14.7,5.2,29.4,7.8,44.1
		c1.6,9,3.2,17.9,4.8,26.9c1.9,10.9,3.8,21.7,5.8,32.6c0.1,0.7,0.3,1.4,0.5,2.2c2.7-0.4,5.2-0.8,7.8-1.3c5.9-1,11.9-2.1,17.8-3.1
		c5.6-1,11.3-1.7,16.8-3c5.9-1.4,11.8-2.2,17.7-3.3c10.2-1.8,20.5-3.5,30.8-5.2c11.3-1.9,22.6-3.8,33.8-5.8c7.5-1.3,15-2.6,22.5-3.9
		c0.7-0.1,1.3-0.3,2.3-0.5c-2.2-5.2-4.3-10.2-6.5-15.6c12,1.4,23.7,2.7,35.6,4c0.5-8.6,1-17,1.4-25.6c3.7,0.1,7.3,0.3,11.2,0.4
		c-0.6-3.7-1.2-7.3-1.8-11c-8.9,2.3-17.6,4.6-26.5,7c2.4,4.5,4.7,8.8,7.1,13.3c-1.3,0.7-2.5,1.4-4,2.2c-2.6-4.8-5.1-9.5-7.7-14.3
		c-5.6,1.5-11.2,3-16.9,4.4c0.7,4.4,1.4,8.6,2.1,12.9c-1.5,0.3-2.8,0.5-4.4,0.8c-0.8-4.2-1.5-8.3-2.2-12.5
		c-4.4,1.2-8.5,2.2-12.9,3.4c0.6,3.7,1.2,7.4,1.8,11.3c-1.5,0.3-2.9,0.6-4.4,0.9c-0.7-3.7-1.3-7.3-2-11c-5.5,1.5-10.9,2.9-16.5,4.4
		c2.2,5.8,4.3,11.3,6.5,17.2c-1.4,0.5-2.7,1-4.2,1.6c-2.3-5.9-4.5-11.7-6.8-17.6c-7.3,2-14.5,3.9-21.9,6c2.1,4.8,4.1,9.5,6.3,14.4
		c-1.4,0.6-2.6,1.2-4.1,1.9c-2.2-5-4.4-10-6.7-15.1c-6,1.6-11.8,3.2-17.9,4.9c1.2,7.4,2.5,14.7,3.7,22.2c-1.5,0.3-2.8,0.5-4.5,0.8
		c-1.2-7.2-2.5-14.3-3.7-21.6c-5.5,1.3-10.8,3-16.5,4.5c1.7,3.3,3.4,6.4,5.1,9.8c-1.3,0.7-2.5,1.4-3.9,2.2c-1.9-3.6-3.8-7-5.8-10.6
		c-2.8,0.8-5.4,1.5-8.3,2.3c-0.4-1.5-0.8-2.8-1.2-4.3c2.4-0.7,4.7-1.5,7.3-2.2c-1.8-3.5-3.6-6.8-5.4-10.3c0.7-0.4,1.4-0.8,2-1.1
		c0.6-0.3,1.2-0.6,2-1c2,3.7,4,7.4,6,11.2c5.9-1.7,11.8-3.3,17.9-5c-1.4-9-3.1-17.8-4.5-27c1.5-0.3,2.8-0.5,4.4-0.8
		c1.5,8.9,3,17.6,4.6,26.5c5.7-1.6,11.2-3.1,16.8-4.6c-2.2-5-4.2-9.7-6.4-14.7c1.4-0.6,2.7-1.2,4.1-1.9c2.3,5.1,4.5,10.1,6.8,15.3
		c7.4-2,14.6-4,22.1-6c-2.7-7.1-5.3-13.9-7.9-20.8c0.4-0.3,0.6-0.5,0.9-0.6c1-0.4,2-0.7,3.3-1.2c2.7,7.1,5.4,14.1,8.2,21.3
		c5.8-1.5,11.5-3.1,17.4-4.6c-0.6-3.8-1.2-7.3-1.8-11.2c1.4-0.2,2.8-0.5,4.4-0.8c0.6,3.6,1.2,7.1,1.9,10.8c4.4-1.2,8.6-2.3,13-3.5
		c-1.5-9.2-3.1-18.1-4.6-27.2c1.5-0.3,2.8-0.5,4.4-0.8c0.9,4.5,1.6,8.9,2.3,13.3c0.8,4.4,1.5,8.9,2.3,13.6
		c5.2-1.4,10.1-2.7,15.4-4.1c-1.2-2.4-2.3-4.5-3.5-6.7c1.4-0.7,2.6-1.4,4-2.1c1.4,2.6,2.7,5,4.1,7.6c8-2.1,16-4.2,24.3-6.4
		c-5.4-4.6-10.4-8.9-15.7-13.4c23.7-17.5,50-27.7,79.2-31.4c-0.5-2.3-0.9-4.4-1.3-6.5c-2.4-11.4-4.8-22.8-7.2-34.2
		c-1.8-8.3-3.5-16.6-5.3-24.9c-0.2-0.8-0.5-1.3-1.2-1.8c-6.4-3.9-12.8-7.9-19.3-11.8c-1.6-1-2.6-2.1-2.9-4.1
		c-0.7-3.8-1.7-7.5-2.6-11.5c-12.4,5.4-24.6,10.8-37.3,16.3c3.5-14.3,6.9-28.3,10.3-42.2c-0.1-0.1-0.2-0.2-0.3-0.3
		c-8.4,5.4-16.6,11.1-25.1,16.5c-2.3-1.9-4.4-3.8-6.6-5.7c-1.5-1.2-2.9-2.5-4.4-3.8c-0.7-0.7-1.4-0.8-2.4-0.6
		c-10.2,2.8-20.5,5.4-30.7,8.3c-4.7,1.3-9.4,3-14.1,4.5c-6.6,2.1-13.1,4.3-19.7,6.4c-10,3.2-19.9,6.5-29.9,9.7
		c-7.9,2.6-15.9,5.1-23.8,7.7c-8,2.6-16,5.2-24,7.8c-0.9,0.3-1.8,0.5-2.8,0.7c-9,1.4-18,2.7-27,4c-1.6,0.2-3.1,0.4-4.7,0.6
		c0-3,0-6,0-9.1c5-0.7,10-1.5,15-2.2c4.5-0.7,9.1-1.2,13.6-2c2.3-0.4,4.5-1,6.8-1.7c8.5-2.7,17.1-5.5,25.6-8.3
		c10.2-3.3,20.3-6.6,30.5-9.9c9.7-3.2,19.4-6.3,29.1-9.5c8-2.6,16-5.3,24.1-7.7c11.4-3.3,22.9-6.2,34.3-9.2c0.5-0.1,0.9-0.2,1.5-0.4
		c3.5,3,6.9,5.9,10.5,9c12.9-8.5,25.8-17,38.6-25.5c0.1,0.1,0.3,0.1,0.4,0.2c-2.8,11.3-5.5,22.6-8.3,33.8c3.4,2.5,6.5,4.9,9.9,7.3
		c5.6-2.5,11.4-5,17.3-7.6c0.2,0.5,0.4,1,0.5,1.5c1.2,5.3,2.4,10.7,3.6,16c0.1,0.5,0.3,1.1,0.4,1.6c0.2,1.3,0.9,2.2,2,2.9
		c5,3,9.9,6.1,14.9,9.1c1.6,1,3.1,2,4.7,2.9c1.1,0.6,1.6,1.4,1.8,2.6c1,5,2.1,10.1,3.1,15.1c1.9,9.1,3.9,18.2,5.8,27.3
		c1.8,8.7,3.7,17.4,5.5,26.1c0.1,0.4,0.2,0.8,0.3,1.1c2.3,0,4.5,0.1,6.6,0c8.4-0.3,16.7,0.3,25,1.3c9.2,1.1,18.2,3,27.1,5.7
		c10.5,3.1,20.6,7.3,30.3,12.5c9.5,5.1,18.4,10.9,26.6,17.7c11.1,9.1,20.1,19.9,27.1,32.5c6.4,11.4,10.6,23.6,12.6,36.5
		c0.8,5.2,1.3,10.5,1.3,15.8c0,88.4,0,176.9,0,265.3c0,0.9,0,1.9,0,3.4c8.2-6.6,15.7-13.1,23.9-19.3c-1.8,13.6-3.6,27.3-5.4,41.4
		c7.7-4.9,14.8-9.9,22.3-14.7c1,10.8,1.1,21.3,3.7,31.7c2.7-0.6,4.8-1.9,6.9-3.1c7.9-4.6,15.3-10.1,22.7-15.6
		c0.4-0.3,0.8-0.5,1.3-0.9c0.8,1.7,1.6,3.3,2.3,4.9c3.8,8.4,7.5,16.8,11.2,25.1c0.1,0.3,0.2,0.6,0.2,1
		C377.4,792.4,217.1,792.4,56.8,792.4z M444.1,788.2c0-0.9,0-1.7,0-2.4c0-14.1,0.1-28.2,0.1-42.4c0-90.2,0-180.3-0.1-270.5
		c0-5.1-0.5-10.3-1.3-15.3c-1.5-10.4-4.8-20.4-9.5-29.8c-6.1-12.2-14.1-23-24.2-32.2c-11.4-10.3-24.3-18.5-38.2-25
		c-14.6-6.8-30-11.2-46-13.4c-15.8-2.2-31.6-2-47.3,0.4c-9.3,1.4-18.4,3.6-27.3,6.6c-12.5,4.2-24.3,9.9-35.4,17.1
		c-1.2,0.8-2.4,1.7-3.8,2.6c6.6,5.6,13.1,11.1,19.5,16.5c6.4,5.5,12.9,10.8,19.2,16.5c-10.4-0.1-20.7-0.9-31.1-1.2
		c-0.5,8.8-1,17.3-1.5,25.9c-11-1.2-21.6-2.4-32.6-3.7c1.5,3.7,3,7.1,4.4,10.5c-0.4,0.5-0.7,1-1,1.4c-5.5,6.7-11.1,13.4-16.6,20.1
		c-2.9,3.5-2.9,3.5-7.3,4.6c-0.9,0.2-1.8,0.5-2.7,0.8c0,1,0,1.8,0,2.7c0,25.4,0,50.7,0,76.1c0,7.1,0,14.1,0,21.2c0,1.1,0.2,2.1,1,3
		c3.1,3.7,6,7.5,9.1,11.2c0.9,1.1,1,2.1,0.7,3.3c-0.7,2.5-1.3,5-1.9,7.6c-2.4,9.8-4.8,19.7-7.2,29.5c-0.6,2.6-1.5,5.2-1.5,7.8
		c-0.1,49.4-0.1,98.7-0.1,148.1c0,0.7,0.1,1.3,0.1,2.1c51.6,0,103,0,154.5,0c9.2-15.9,18.3-31.7,27.4-47.5c2,8.6,3.2,17.3,4.9,26.2
		c5.1-4.4,9.9-8.5,14.7-12.5c4.8-4,9.4-8.2,14.7-12.4c0,2.4,0,4.3,0,6.2c0,1.9,0,3.8,0,5.8s0,3.8,0,5.8c0,2,0,4,0,6
		c0,1.9,0,3.8,0,5.8c0,1.9-0.1,3.8,0.1,5.9c12.6-8.1,25-16,37.6-24c2.4,11.8,4.8,23.3,7.1,34.9C429.5,788.2,436.6,788.2,444.1,788.2
		z M88.3,473.8c9.7,57.1,19.4,114,29.1,171c13.2-2.3,26.1-4.5,39.1-6.7c0.1-1.2,0.1-2.3,0.4-3.2c1.1-4.5,2.2-8.9,3.3-13.4
		c2.3-9.2,4.5-18.4,6.8-27.5c0.3-1.2,0.1-2.2-0.7-3.2c-2.9-3.4-5.6-7-8.4-10.4c-0.9-1-1.2-2-1.2-3.3c0-34.3,0-68.6,0-102.8
		c0-0.7,0-1.5,0-2.1c1.6-0.5,3-1.1,4.4-1.3c3.5-0.4,6-2.2,8-5.1c1.5-2.2,3.3-4.1,5.3-6.6C145.5,464.1,117.1,468.9,88.3,473.8z
		 M145.4,756.3c0.8-1.7,2.1-2.7,1.8-4.6c-1.7-9.7-3.3-19.4-5-29.2c-1.9-11.1-3.8-22.1-5.7-33.2c-0.1-0.3-0.2-0.6-0.4-1
		c-5.1,0.9-10.2,1.7-15.4,2.6c0.3,2,0.7,3.8,1,5.6c1.4,8.4,2.9,16.9,4.3,25.3c0.1,0.8,0.4,1.6,0.8,2.3c5.7,10.1,11.4,20.1,17.2,30.2
		C144.4,754.9,144.8,755.4,145.4,756.3z M102.7,694c0.1,0.9,0.1,1.5,0.2,2.1c1.1,6.7,2.3,13.5,3.4,20.2c1.3,7.8,2.7,15.7,4,23.5
		c0.8,4.9,1.7,9.8,2.5,14.8c0.2,1.5,1,2.4,2.5,3.1c0.5-2,1-3.8,1.5-5.7c2.4-8.6,4.7-17.3,7.1-25.9c0.2-0.7,0.2-1.5,0.1-2.2
		c-1.7-10.4-3.5-20.8-5.3-31.2c-0.1-0.4-0.3-0.8-0.4-1.3C113.2,692.2,108.1,693.1,102.7,694z M149,749.4c0.3-0.1,0.5-0.1,0.6-0.2
		c2.3-3.7,4.5-7.3,6.7-11c0.3-0.5,0.3-1.3,0.3-2c0-2.9,0-5.9,0-8.8c0-1.6,0-3.2-0.2-4.7c-0.5-3.4-1.1-6.8-1.7-10.1
		c-1.3-7.7-2.6-15.4-3.9-23.1c-0.2-1.1-0.4-2.2-0.7-3.5c-4,0.7-7.7,1.3-11.6,2C142.1,708.6,145.5,729,149,749.4z M110,752.8
		c0.1-0.1,0.2-0.1,0.3-0.2c-3.3-19.3-6.6-38.7-9.9-58.3c-4.2,0.7-8.1,1.4-12.1,2.1c0.1,0.7,0.1,1.2,0.2,1.7
		c0.8,4.6,1.5,9.2,2.3,13.8c1.4,8.5,2.9,17,4.3,25.5c0.2,1.2,0.7,2.1,1.6,3c4,3.7,8,7.5,12,11.2C109.1,752.1,109.5,752.4,110,752.8z
		 M144.1,649.4c0.5,3,1,5.9,1.5,8.8c2.8-0.5,5.3-0.9,7.9-1.3c-0.5-3.1-1-5.9-1.5-8.8C149.3,648.6,146.7,649,144.1,649.4z
		 M230.3,411.8c2.2,0,4.1,0,6.6,0c-2.6-2.2-4.9-4.2-7.2-6.1c-0.1,0.1-0.2,0.1-0.3,0.2C229.6,407.8,229.9,409.7,230.3,411.8z"/>
	<path d="M414.4,200.4c1.6,2.7,3.2,5.4,4.8,8.1c3.7,6.1,8.8,10.8,15.2,14c4.9,2.4,10,3.6,15.5,3.8c6.1,0.2,12.2,0.4,18.3,0.7
		c0.6,0,1.3,0.1,2,0.5c-0.7,0.3-1.3,0.6-2,0.9c-6,2.6-11.9,5.2-17.9,7.7c-3.1,1.3-5.2,3.4-6.4,6.5c-1.2,3.1-2.5,6.1-3.7,9.1
		c-0.3,0.6-0.6,1.2-0.9,2c-2.2-1-4.3-2-6.4-3c-3.7-1.7-7.4-1.7-11.2-0.5c-4.8,1.5-11.8,10.4-11.6,15.7c0,0.7,0,1.4,0,2.1
		c0.3,5.4,0.6,10.8,0.9,16.2c0,0.7,0,1.5,0,2.5c-0.5-0.4-1-0.7-1.3-1.1c-3.3-3.5-6.5-7.1-9.8-10.5c-4.2-4.2-9.2-5.5-14.9-3.6
		c-2,0.7-3.8,1.8-5.1,3.4c-1.8,2.2-3.5,4.4-4.9,6.8c-2.3,3.8-4.3,7.8-6.5,11.8c-0.7-0.3-1.4-0.5-2.1-0.8c-0.6,0.3-1.2,0.5-2,0.8
		c-0.4-0.6-0.7-1.2-1.1-1.8c-1.5-2.8-3-5.6-4.6-8.3c-1.5-2.5-3.1-5-4.9-7.3c-5.3-6.8-14.8-7.3-20.9-1.1c-3.3,3.3-6.4,6.8-9.6,10.2
		c-0.5,0.5-0.8,1.1-1.2,1.6c-0.2-0.1-0.4-0.2-0.5-0.3c0.1-2.6,0.2-5.1,0.3-7.7c0.2-3.6,0.4-7.1,0.6-10.7c0.3-4-0.9-7.6-3.4-10.7
		c-0.7-0.8-1.3-1.7-2-2.6c-4.3-5.3-11-6.9-17.2-4.2c-1.6,0.7-3.2,1.5-4.8,2.3c-0.5,0.3-1.1,0.4-1.8,0.7c-0.3-0.7-0.6-1.3-0.9-2
		c-1.3-3.2-2.6-6.3-3.9-9.5c-1.1-2.8-3.1-4.8-5.9-6c-6-2.6-12.1-5.2-18.1-7.8c-0.7-0.3-1.3-0.6-2.5-1.1c0.9-0.2,1.4-0.3,1.9-0.3
		c6.2-0.2,12.5-0.5,18.7-0.7c7.4-0.3,14.1-2.3,20.2-6.6c4.2-2.9,7.7-6.6,10.4-11c1.4-2.2,2.7-4.5,4-6.7c0.3-0.5,0.7-1,1.3-1.9
		c0.2,1.4,0.3,2.3,0.4,3.2c0.5,6.4,0.9,12.7,1.4,19.1c1,14.8,13.5,26.4,28.3,26.2c0.3,0,0.7,0,1.2-0.1c2.6-7,5.2-14,8-21.4
		c1.8,4,3.5,7.6,5.2,11.2c0.8-0.3,1.5-0.5,2.4-0.7c0.3,0.4,0.7,0.9,1.1,1.5c0.3-0.5,0.6-1,0.9-1.5c0.8,0.2,1.5,0.5,2.4,0.8
		c1.7-3.6,3.3-7.1,5.2-11.1c1.7,3.7,2.8,7.3,4.1,10.7c1.3,3.5,2.6,6.9,3.9,10.5c2.6,0.4,5.1,0.1,7.5-0.4c12.1-2.7,20.9-12.8,22-25.1
		c0.6-7.1,1.1-14.2,1.6-21.3c0-0.3,0.1-0.7,0.1-1C414.2,200.5,414.3,200.4,414.4,200.4z M417.6,214.2c-0.2,2.1-0.3,3.8-0.4,5.4
		c-0.3,4.5-0.8,9-2.6,13.2c-5.5,13.4-19,21.5-33.6,20.2c-1.1-0.1-1.6-0.5-1.9-1.5c-1.3-3.5-2.6-7.1-3.9-10.6c-0.2-0.5-0.5-1-0.9-1.8
		c-0.9,1.8-1.6,3.4-2.4,5c-1.1-0.4-2.1-0.7-3-1.1c-1.8-0.9-3.5-1-5.2,0c-0.9,0.5-2,0.8-3.1,1.2c-0.8-1.7-1.6-3.3-2.5-5.2
		c-1.8,4.9-3.5,9.4-5.2,14c-1.7,0.1-3.4,0.2-5,0.2c-15.2-0.1-28.3-10.7-31.5-25.5c-0.8-3.7-0.8-7.5-1.2-11.2c-0.1-0.6-0.1-1.1-0.3-2
		c-8.5,10.6-19.2,15.9-32.4,16.7c0.3,0.3,0.6,0.5,0.9,0.6c5,1.8,8.1,5.4,9.9,10.3c0.7,1.9,1.5,3.7,2.3,5.6c1.1-0.5,2-0.9,2.9-1.2
		c7.7-3.2,16.4-1.1,21.8,5.3c1.1,1.3,2.1,2.6,3,3.9c2.6,3.5,3.8,7.4,3.7,11.7c0,1.9-0.2,3.8-0.3,5.7c0,0.4,0.1,0.8,0.2,1.6
		c0.9-1,1.6-1.6,2.2-2.3c7.5-8.3,21-8.6,28.5,1.3c2.9,3.8,5.1,8,7.4,12.1c0.4,0.6,0.7,1.3,1.2,2.1c1.3-2.4,2.5-4.4,3.6-6.6
		c1.5-3,3.5-5.7,5.6-8.3c3.7-4.4,8.4-6.8,14.2-6.7c5.3,0,9.7,2,13.4,5.8c0.8,0.8,1.4,1.7,2.4,2.4c0.1-0.3,0.2-0.4,0.2-0.6
		c0-1.1,0-2.2-0.1-3.3c-0.9-6.8,1.1-12.7,5.7-17.8c0.1-0.2,0.2-0.3,0.4-0.5c5.7-7.2,14.7-9.4,23.1-5.6c0.7,0.3,1.3,0.6,2.1,0.9
		c0.9-2.2,1.8-4.3,2.6-6.4c1.7-4.4,4.6-7.5,9-9.3c0.5-0.2,1-0.5,1.5-0.8c-6.4-0.5-12.3-1.9-17.9-4.7
		C426.5,223.5,421.8,219.6,417.6,214.2z"/>
	<path d="M182.8,293.2c-1.1-0.5-1.9-1-2.9-1.5c0.6-1.3,1.1-2.6,1.8-4.1c20.1,8.8,40.1,17.5,60.3,26.3c-0.6,1.4-1.1,2.7-1.8,4.2
		c-5.3-2.3-10.6-4.6-15.8-6.8c-0.1,0.1-0.1,0.2-0.2,0.3c0.7,0.6,1.3,1.3,2,1.9c2.1,2.1,4.4,4.2,6.4,6.4c4.7,5.1,5.1,11,2.6,17.2
		c-2.1,5.2-5.7,9.3-9.9,12.9c-5.2,4.5-11.1,7.9-17.8,9.5c-16.1,3.8-32.5-4.5-38.9-19.8c-2.4-5.6-3-11.5-2.3-17.5
		c0.9-7.5,3.2-14.4,7.5-20.6c2-3,4.5-5.5,7.6-7.4C181.8,293.8,182.2,293.6,182.8,293.2z M221.5,315.2c-0.2,0.1-0.3,0.2-0.5,0.3
		c2.6,5.2,3.6,10.6,2.3,16.4c-1.2,5.8-4.2,10.5-8.9,14.1c-7.7,5.9-18.8,6-26.9,0.2c-8.5-6.2-11.8-16.5-8.9-26.5
		c1.6-5.5,5-9.9,9.8-13c4.8-3,10.2-4,15.9-3.4c-0.5-0.5-1.1-0.9-1.7-1.2c-3.5-1.7-7-3.4-10.6-5c-2-0.9-4-0.8-6-0.2
		c-3.3,1.1-5.7,3.3-7.7,5.9c-3.8,4.9-6.1,10.6-7.2,16.6c-1,5.6-1,11.2,0.9,16.6c4.7,13.5,18.7,21.7,32.8,19.1
		c6.2-1.2,11.6-4.1,16.4-8c4-3.3,7.5-7,9.5-11.9c1.7-4,1.9-8-0.9-11.5C227.3,320.8,224.3,318,221.5,315.2z M200.9,334.1
		c3.8,0,6.8-3,6.7-6.8c0-3.8-3-6.8-6.8-6.7c-3.8,0-6.7,3-6.7,6.8C194.1,331.2,197.1,334.1,200.9,334.1z"/>
	<path d="M33.5,355.9c-1.5,2.1-2.8,3.8-4.2,5.7c-1.3-0.9-2.4-1.7-3.7-2.6c14.8-20.8,29.4-41.5,44.2-62.3c1.3,0.9,2.4,1.7,3.7,2.6
		c-3.2,4.5-6.2,8.9-9.3,13.2c0.2,0.2,0.3,0.3,0.4,0.3c4.9-2,9.6-1,14,1.3c6.1,3.2,10.7,8,14.6,13.6c3.5,5.1,6.1,10.7,7,16.9
		c1.9,13.1-4.9,27-16.4,33.6c-7.6,4.3-15.7,5.7-24.2,3.8c-11.2-2.5-19.2-9.2-23.9-19.7c-0.4-1-0.8-2-1.2-3.1
		C34.1,358.4,33.9,357.4,33.5,355.9z M95.9,349.2c0-3.7-0.7-7.2-2.1-10.6c-1.9-4.9-4.7-9.3-8.3-13.1c-3.3-3.6-6.9-6.6-11.6-8.3
		c-4.5-1.6-8-0.8-11.1,2.8c-4.2,4.7-8.3,9.5-12.3,14.3c-3.9,4.8-7.5,9.7-10.8,15c-2,3.2-1.9,6.2-0.7,9.5c5.4,14.8,20.9,22.7,36,18.3
		C87.3,373.5,95.9,362,95.9,349.2z"/>
	<path d="M39.1,377.1c0.4-0.3,0.7-0.6,1.1-0.8c0.2-0.1,0.3-0.2,0.4-0.2c2.1,1.8,4.1,3.7,6.3,5.3c7.4,5.5,15.8,7.8,25.1,7.1
		c9.1-0.7,16.5-4.6,22.3-11.6c2.4-2.9,4.3-6.2,5.7-9.7c0.2-0.4,0.4-0.9,0.6-1.4c0.6,0.2,1.2,0.3,1.7,0.5c0,0.3,0.1,0.5,0,0.7
		c-3.1,8.7-8.4,15.7-16.7,20c-9.4,4.9-19.3,5.1-29.3,1.9c-5.9-1.9-11-5.2-15.4-9.5c-0.5-0.5-0.9-1-1.4-1.5
		C39.4,377.7,39.3,377.5,39.1,377.1z"/>
	<path d="M233.7,343.2c0.6,0.2,1.1,0.4,1.8,0.6c-0.7,2.3-1.8,4.3-3,6.1c-6.8,10.7-16.5,17-29.1,18.5c-9.9,1.2-18.6-1.9-26.2-8.4
		c-1.9-1.6-3.7-3.4-5.2-5.6c0.6-0.4,1.1-0.8,1.6-1.1c1.9,1.9,3.7,3.8,5.7,5.4c7.3,6,15.6,8.9,25,7.3c13.4-2.2,23-9.6,28.7-22
		c0.1-0.2,0.2-0.5,0.4-0.7C233.4,343.4,233.5,343.4,233.7,343.2z"/>
	<path d="M245.3,515.5c8.7,13.3,17.3,26.3,28.8,37.7c-2.5,0.4-4.6,0.5-6.6,1c-2.6,0.7-4.6-0.1-6.4-1.7c-4.1-3.6-8.3-7.2-12.2-11
		c-6.3-6.4-12.4-12.9-18.6-19.5c-0.7-0.8-1.4-1.1-2.5-1c-1.4,0.2-2.8,0.2-4.2,0.3c-0.5,1.8-0.3,20.3,0.3,23.2
		c1.5,0.2,3.1,0.4,4.7,0.5c1.6,0.2,3.3,0.3,5,0.5c0.4,2.1,0.8,4.2,1.2,6.5c-13.1-0.7-26-0.7-39.1,0c0.5-2.3,0.9-4.4,1.4-6.5
		c3.4-0.4,6.7-0.7,10.2-1.1c0.4-18.5,0.5-36.9,0-55.5c-3.4-0.4-6.8-0.7-10.3-1.1c-0.3-2.1-0.7-4-1-6.3c2.5,0,4.8,0,7.1,0
		c8.8,0,17.7,0,26.5,0c5.2,0,10.4,0.5,15.5,1.6c2.8,0.6,5.4,1.6,7.7,3.3c5.4,3.9,7,10.4,4,16.4c-2.4,4.8-6,8.4-10.3,11.5
		C246.2,514.9,245.8,515.1,245.3,515.5z M218.9,546.9c0-20.3,0-40.5,0-60.7c-2.1,0-4.1,0-6,0c-0.3,0-0.7,0.1-1.1,0.1
		c0.7,20.2,0.6,40.3,0,60.6C214.3,546.9,216.6,546.9,218.9,546.9z M223.2,513.9c4.6,0,8.6-0.8,12.2-3c2.5-1.5,4.4-3.5,5.4-6.2
		c2.1-5.5,0.8-9.7-4.3-12.6c-2.8-1.6-5.9-2.4-9.2-2.8c-1.2-0.1-2.4-0.2-3.9-0.3C223.4,497.3,223.3,505.5,223.2,513.9z M261.8,546.9
		c-8.1-10.6-15.9-21.4-22.6-32.8c-2.3,1.1-4.5,2.2-6.7,3.2C235,521.3,257.7,544.5,261.8,546.9z M241.9,511.7
		c4.4-1.8,9.5-7.3,11.1-11.4c1.6-4.1,0.4-7.7-3.4-10.1c-3.8-2.4-8.1-2.8-12.4-3.2c4.5,2.5,8.2,5.6,8.9,11
		C246.9,503.2,245.2,507.7,241.9,511.7z"/>
	<path d="M363.4,545.7c3.6-0.4,6.8-0.8,10.3-1.2c0.5-18.6,0.5-37,0-55.5c-1.9-0.2-3.6-0.5-5.3-0.6c-1.6-0.2-3.3-0.3-5.2-0.5
		c-0.3-1.9-0.6-3.9-0.9-6.1c2.1-0.1,3.9-0.2,5.7-0.2c9.9,0.1,19.9,0.1,29.8,0.3c5,0.1,10,0.9,14.6,2.9c2.4,1,4.6,2.4,6.4,4.4
		c2.8,3,3.9,6.5,3.5,10.6c-0.7,7-4.2,12.4-9.7,16.5c-6.4,4.7-13.8,7.2-21.7,8c-0.2,0-0.4,0-0.8,0c0-2.2,0.5-4.3,0.8-6.5
		c1.2-0.4,2.4-0.7,3.6-1c4.7-1.6,8.5-4.1,10.4-8.9c1.4-3.4,1.6-6.9,0.6-10.5c-0.8-2.8-2.7-4.9-5.3-6.3c-3.2-1.7-6.6-2-10.1-2.1
		c-0.8,3-0.9,47.8-0.1,55.4c3.9,0.9,7.9,0.7,12.1,1.4c0.5,2,1,4.1,1.6,6.4c-13.9-0.6-27.6-0.8-41.6,0
		C362.6,549.9,362.9,547.9,363.4,545.7z M385.4,547.1c-0.5-20.5-0.6-40.7,0-60.9c-2.4,0-4.8,0-7.2,0c0.6,20.3,0.5,40.5,0,60.8
		c0.6,0.1,1.1,0.1,1.5,0.1C381.5,547.1,383.4,547.1,385.4,547.1z M403.2,487.1c10,8.4,9.1,17.7,3.1,27.8c0.9-0.5,1.5-0.9,2.2-1.3
		c5.1-3.5,8.8-8,9.3-14.5c0.2-2.9-0.6-5.3-2.7-7.2C411.9,488.8,407.9,487.6,403.2,487.1z"/>
	<path d="M322.1,544.6c3.5,0.4,6.6,0.7,10,1.1c0.5,2,1.1,4.1,1.7,6.5c-13.3-0.7-26.4-0.8-39.6,0c0.4-2.3,0.8-4.3,1.2-6.5
		c3.4-0.4,6.7-0.8,10.3-1.2c0.5-18.6,0.5-37,0-55.5c-2.9-0.4-5.6-0.7-8.3-1c-1.8-0.2-1.8-0.1-2.2-1.8c-0.4-1.6-0.7-3.1-1.1-4.8
		c13.3,0.6,26.3,0.8,39.7-0.1c-0.5,2.2-1,4.2-1.6,6.4c-3.4,0.5-6.7,0.9-10.1,1.4C321.6,507.6,321.7,525.9,322.1,544.6z M310.2,486.4
		c0.6,20.3,0.5,40.4,0,60.5c2.6,0,4.9,0,7.4,0c-0.5-20.2-0.6-40.3,0-60.5C315.1,486.4,312.8,486.4,310.2,486.4z"/>
	<path d="M203,327.3c0,1.2-1,2.2-2.2,2.2c-1.1,0-2.1-1-2.1-2.1c0-1.2,1-2.3,2.2-2.3C202,325.1,203,326.1,203,327.3z"/>
	<path d="M73.4,349.1c0,3.8-2.9,6.8-6.7,6.8c-3.8,0-6.7-2.9-6.7-6.8c0-3.8,3-6.8,6.7-6.8C70.4,342.3,73.4,345.4,73.4,349.1z
		 M68.8,349.2c0-1.2-1-2.3-2.2-2.3c-1.1,0-2.2,1.1-2.1,2.3c0,1.2,0.9,2.1,2.1,2.1C67.8,351.4,68.8,350.4,68.8,349.2z"/>
	<path d="M612.2,57.6c-2.6-5.4-5.6-10.6-9.3-15.4c-7.2-9.5-16-17-26.4-22.8c-9.1-5-18.9-8.1-29.2-9.4c-8.7-1.1-17.4-0.9-26,0.9
		c-23.2,4.8-41.2,17.2-54,37c-6.7,10.4-10.7,21.9-12.2,34.2c-1.1,8.8-0.7,17.7,1.1,26.4c0,0.1,0.2,0.2,0.5,0.6
		c-0.1-6-1.1-11.7-1.4-17.7c0.6,0.5,0.9,0.8,1.2,1.1c0.8,0.9,1.6,1.9,2.4,2.8c6.7,7.4,14.9,10.7,24.8,9.7c3.3-0.3,6.5-0.8,9.8-1.3
		c-0.5-1.6-1.5-2.3-2.7-2.9c-1.7-0.9-3.5-1.7-5.2-2.5c-0.5-0.3-1-0.6-1.5-1.2c0.5,0,1,0,1.5,0c2.3,0,4.5,0.1,6.8,0
		c5.6-0.4,10.1-2.9,13.4-7.4c0.6-0.8,1.2-1.7,1.9-2.8c0.1,0.8,0.2,1.2,0.2,1.6c0.1,3,0,6.1,0.5,9c1,7.2,7.7,11.8,13.9,11.4
		c1.2-2.8,2.5-5.7,3.9-9c0.7,1.7,1.3,3.1,1.9,4.4c1.3,0,2.5,0,3.9,0c0.6-1.1,1.3-2.4,2.2-4.1c1.1,3.3,2.1,6.3,3.1,9.2
		c1.8,0.6,3.5,0.2,5.2-0.2c5.7-1.7,9.1-5.4,10-11.3c0.4-2.2,0.5-4.5,0.8-6.7c0.1-0.7,0.2-1.3,0.7-2.1c0.3,0.6,0.7,1.3,1,1.9
		c3.2,5.7,8,8.9,14.5,9.5c1.6,0.1,3.1,0.2,4.7,0.4c0.7,0.1,1.5,0.2,2.3,0.6c-1.9,0.7-3.7,1.6-5.7,2.2c-2.6,0.8-4.4,2.3-5.3,5
		c-0.4,1.1-1,2.2-1.6,3.4c-0.9-0.5-1.7-0.9-2.5-1.3c-3.2-1.5-6.3-0.9-8.8,1.6c-2.1,2.1-3.2,4.5-3,7.6c0.2,1.9,0,3.9-0.3,6
		c-1.2-1.4-2.4-2.7-3.5-4.1c-1.2-1.4-2.7-2.3-4.5-2.6c-2.4-0.3-4.5,0.4-6.1,2.2c-0.9,1-1.6,2-2.4,3.1c-0.8,1.3-1.6,2.6-2.4,3.9
		c-1,1.7-1.6,1.7-2.5,0c-0.7-1.3-1.2-2.6-1.9-3.9c-0.6-1.1-1.3-2.3-2-3.3c-2.7-3.6-7.3-4-10.6-1c-1.1,1-2.1,2-3.1,3
		c-0.3,0.3-0.7,0.6-1.4,1.2c0.1-1.5,0.2-2.6,0.3-3.7c0.1-1,0.1-1.9,0.3-2.9c0.5-2.9-0.5-5.4-2.3-7.6c-2.2-2.7-5.2-3.6-8.5-2.4
		c-0.9,0.3-1.8,0.7-2.7,1.1c-0.5-1.2-0.9-2.2-1.5-3.5c-3.4,2.2-6.6,4.3-9.8,6.6c-1.6,1.2-2.4,3-2.8,4.9c-0.6,2.7-1.2,5.5-1.9,8.4
		c-1.9-0.5-3.6-1-5.4-1.3c-4.2-0.9-7.8,0.4-10.8,3.5c-0.2,0.2-0.3,0.4-0.4,0.6c3.4,8.3,12.9,20.9,22.5,28.1
		c6.1-2.8,10.1-7.9,14-13.8c0.1,1,0.2,1.5,0.2,2c0,4.7-0.1,9.3,0,14c0,2.1,0.5,4.2,0.8,6.3c0.1,1,0.7,1.5,1.6,1.9
		c5.9,2.7,12.1,4.8,18.5,6c1.9,0.4,3.9,0.7,6,1.1c1.2-2.4,2.2-4.7,3.5-7.3c1.1,2.8,2,5.2,3,7.9c2,0,3.9,0,5.9,0
		c0.8,0,1.2-0.5,1.5-1.1c0.8-1.4,1.5-2.8,2.3-4.1c0.2-0.4,0.5-0.7,0.9-1.4c0.7,2.2,1.3,4.1,1.9,6.1c3.6-0.1,6.9-0.9,10.2-1.6
		c6-1.4,11.7-3.5,17.2-6.1c1.4-0.7,2.2-1.5,2.4-3.2c0.5-4.5,1.4-9,2.3-13.6c2.1,3.4,3.4,7.1,6.2,10.3c1-0.7,2-1.3,3-2.1
		c10.2-7.9,18.2-17.6,24-29.1c0.4-0.7,0.7-1.4,1.1-2.1c0,10.8,0,21.7,0,32.5c-3.7,3.7-7.4,7.4-11.3,11.1c3.7,0.9,7.5,1,11.3,1.6
		c0,1,0,1.9,0,2.9c-3,1-6,1.9-9,3c-2.3,0.8-3.9,2.4-5,4.6c-1.4,2.7-2.7,5.4-4.2,8.3c-1.4-0.8-2.8-1.5-4.1-2.3
		c-2.5-1.5-5.1-2-7.9-1.6c-0.5,0.1-1.1,0.2-1.6,0.3c-5.9,1.6-11.1,8.2-11.3,14.3c-0.1,3.7-0.2,7.4-0.3,11.1c0,0.5-0.1,1.1-0.2,1.9
		c-0.5-0.6-0.9-0.9-1.2-1.3c-1.8-2.3-3.6-4.6-5.5-6.9c-5-6.1-13.1-6.4-18.4-0.6c-1.7,1.9-3.3,4.1-4.8,6.2c-1.6,2.2-3,4.6-4.5,6.8
		c-0.8,0-1.4-0.1-2.2-0.1c-1.3-2.9-2.5-5.8-4-8.7c-1.1-2.1-2.2-4.3-3.5-6.2c-4-5.8-11.9-6.9-17.3-2.3c-2.3,1.9-4.5,4-6.7,6.1
		c-0.5,0.5-1,0.9-1.7,1.5c-0.2-1.2,0-2.2,0.1-3.1c0.5-3.4,0.9-6.8,1.4-10.2c0.6-4.1-1-7.5-3.4-10.7c-0.2-0.3-0.6-0.5-1-0.7
		c-3.1-1.6-6.2-3.2-9.3-4.8c-0.6-0.3-1.3-0.4-1.9-0.3c-1,0.1-2,0.4-3,0.8c-1.4,0.4-2.7,1-4.2,1.5c-0.2-0.6-0.5-1-0.6-1.5
		c-0.5-1.5-1.1-3-1.4-4.5c-0.9-4.9-4.3-7.6-8.3-9.8c-3.3-1.8-6.6-3.6-9.9-5.6c1.6,0,3.2,0,5.2,0c-0.9-1.1-1.6-1.9-2.2-2.7
		c-2.4-3.1-4.7-6.2-7-9.4c-0.7-1-1.6-1.7-2.7-2c-5.1-1.6-10.4,0.3-13.1,5.1c-1.1,2-2,4.1-2.8,6.2c-1.1,2.7-1.9,5.6-2.9,8.4
		c-0.7,0.1-1.4,0.2-2.2,0.4c-1.8-2.3-3.7-4.7-5.6-7c-1.4-1.7-2.9-3.3-4.5-4.7c-5.1-4.5-12.6-3.6-16.5,2c-1.7,2.4-3.3,4.9-4.9,7.4
		c-0.3,0.4-0.6,0.9-1.2,1.7c-0.3-2.6-0.6-4.8-0.9-7c-0.2-2-0.5-4.1-0.7-6.1c0-0.2,0-0.4-0.1-0.6c-1.3-7.3-10.2-13-16.9-10.8
		c-1.2,0.4-2.4,1.1-3.5,1.8c-1.2,0.7-2.2,1.5-3.6,2.4c-0.5-0.7-1-1.4-1.4-2.1c-1.1-1.7-2.2-3.5-3.3-5.2c-1.4-2.3-3.4-3.7-6-4.3
		c-4.1-1-8.1-2-12.2-2.9c-0.3-0.1-0.6-0.2-1-0.7c0.8-0.2,1.6-0.4,2.4-0.6c3.8-0.8,7.5-1.5,11.2-2.4c9.4-2.4,15.9-8.2,19.7-17.1
		c0.7-1.6,1.2-3.2,2.3-4.7c0.2,0.7,0.4,1.4,0.6,2c1,4,1.9,8,3,12c2.8,10.9,12.4,17.8,23.6,16.8c0.9-0.1,1.9-0.3,3-0.5
		c1-5.2,2-10.4,3.1-16c1.7,2.5,3.2,4.6,4.6,6.6c2-0.3,3.9-0.7,6-1c0.6-2.2,1.3-4.7,2.2-7.8c2.9,4.9,5.5,9.4,8.1,14
		c2.3,0,4.4-0.6,6.5-1.6c-0.7-2.1-1.4-4.2-2.1-6.3c-3-9-4.4-18.2-4.7-27.7c-0.4-13.6,1.9-26.8,6.9-39.4
		c6.5-16.5,16.7-30.4,30.5-41.6c6.3-5.1,13-9.3,20.3-12.7c0.2-0.1,0.4-0.3,0.6-0.5c28,0,56,0,83.9,0c3.1,1.6,6.2,3.1,9.2,4.9
		c9.1,5.3,17.1,11.9,24.1,19.8C612.2,35.9,612.2,46.8,612.2,57.6z M478.7,177.8c1.1-0.4,2.1-0.7,3.1-1c5.3-1.6,10.2-0.8,14.2,3
		c4.9,4.7,7.7,10.3,6.2,17.4c-0.3,1.6-0.4,3.3-0.6,5c1.4-0.8,2.5-1.7,3.5-2.7c6.9-6.2,16.5-4.9,21.7,2.8c2.2,3.3,3.7,7,5.4,10.6
		c0.3,0.7,0.7,1.4,1.2,2.4c1.7-2.5,3.1-4.8,4.6-7c1.5-2,3.1-4,4.9-5.8c2.4-2.5,5.5-3.8,9-3.8c4.7-0.1,8.5,1.7,11.5,5.3
		c1,1.2,1.9,2.4,2.9,3.6c0.5-2.5,0.6-4.9,0.6-7.3c0.1-3.3,1.3-6.3,3.4-8.8c0.8-0.9,1.6-1.9,2.5-2.7c4.8-5.1,11.7-6.2,17.8-2.8
		c0.8,0.4,1.5,0.8,2.4,1.3c1-1.9,1.9-3.6,2.8-5.4c1.6-3.5,4.2-5.8,8-6.9c1.3-0.4,2.5-0.9,3.8-1.3c-1-0.4-1.9-0.6-2.9-0.7
		c-10.7-1.2-19-6.2-24.8-15.3c-0.2-0.4-0.5-0.7-1-1.2c-0.5,2.9-0.8,5.6-1.3,8.2c-2,10.9-8.2,18-18.8,21.1c-3.9,1.1-7.8,1.1-11.9,0.3
		c-1.2-4.1-2.3-8.2-3.6-12.7c-1.1,1.9-2,3.4-2.8,4.8c-1.5-0.6-2.8-1.5-4.2-1.6c-1.3-0.1-2.8,0.5-4.3,0.9c-0.6-1.7-1.2-3.2-2-5.2
		c-2,4.2-3.8,8.1-5.7,12c-1.6-0.1-3-0.2-4.4-0.3c-11.7-1.3-21.2-11-22.1-22.8c-0.3-3.1-0.1-6.2-0.1-9.2c0-0.7,0-1.3,0-2
		c-8.4,9.3-18.8,13-31,11.8c1.1,0.8,2.2,1.5,3.4,2c3.6,1.7,5.9,4.4,6.9,8.2C477.4,174,478.1,175.8,478.7,177.8z M458.7,147.8
		c-0.1-0.8-0.2-1.3-0.3-1.7c-0.4-2.1-1-4.1-1.3-6.2c-0.7-4.2,1-7.8,3-11.3c3.2-5.5,9.3-8.1,15.5-6.5c0.8,0.2,1.6,0.4,2.5,0.6
		c0.5-2,0.9-3.8,1.3-5.7c0.7-3.5,2.5-6.2,5.6-8c0.9-0.5,1.8-1.2,2.6-1.7c0-0.2-0.1-0.3-0.1-0.5c-11.2,2-20.9-0.6-29.4-8.9
		c0.3,2.9,0.4,5.3,0.7,7.6c1.4,12.2-6.2,23.3-18.1,26.3c-1.6,0.4-3.3,0.8-5.1,0.5c-2-3.4-3.9-6.7-6.1-10.4c-0.6,1.9-1,3.3-1.5,4.9
		c-1.4-0.2-2.8-0.7-4.1-0.5c-1.3,0.2-2.5,1.2-3.8,1.9c-1-1.3-1.9-2.6-2.9-4c-0.2,0.7-0.4,1.2-0.5,1.6c-0.6,2.9-1.2,5.8-1.6,8.7
		c-0.2,1.3-0.8,1.8-2,2.1c-12.7,2.9-25.4-4.7-28.8-17.3c-0.6-2.2-1.1-4.5-1.7-6.8c-0.1-0.4-0.3-0.8-0.6-1.4
		c-5.2,10.5-13.7,16.2-25,18.2c1.5,0.5,2.8,0.9,4.2,1.2c2.8,0.7,5.1,2.3,6.7,4.8c0.9,1.4,1.8,2.9,2.7,4.3c0.3,0.4,0.6,0.8,1,1.3
		c0.9-0.6,1.7-1.2,2.5-1.7c4.2-2.5,8.7-3,12.9-0.8c5.7,3,9.9,7.3,10.3,14.3c0.1,1.7,0.4,3.3,0.6,5c1-0.9,1.7-1.8,2.3-2.8
		c4.5-7.3,14.5-8.8,20.9-2.7c2.7,2.6,4.9,5.5,7.3,8.4c0.4,0.5,0.9,1.1,1.5,1.8c0.5-1.3,0.8-2.3,1.1-3.3c1.1-3.2,2.1-6.3,3.8-9.3
		c4.3-7.8,13.2-9.8,20.3-4.5C456.4,146.1,457.4,146.8,458.7,147.8z M529.1,128.3c0.7-1.2,1.2-2,1.7-2.8c1-1.5,1.9-3,3.1-4.4
		c3.5-4.2,9-4.2,12.7-0.1c0.5,0.6,1,1.2,1.9,2.1c0-1.4,0.1-2.3,0-3.1c-0.3-3.6,1.2-6.4,3.7-8.8c2.5-2.5,6.1-3.2,9.3-1.8
		c0.6,0.3,1.2,0.6,1.9,0.9c1-1.8,1.7-3.8,3-5.2c1.3-1.4,3.2-2.1,5.1-3.3c-7.1-0.2-12.7-3.1-16.9-9.4c-0.3,2.2-0.5,3.8-0.7,5.5
		c-1,8.3-8.9,14.1-17.2,12.6c-0.8-2.2-1.5-4.5-2.4-7.1c-0.7,1.1-1.2,1.9-1.7,2.8c-1.5-1-3.1-0.9-4.7-0.3c-0.5-0.9-0.8-1.7-1.4-2.9
		c-1.1,2.6-2.1,4.8-3.1,6.9c-6.1,0.8-13.3-3.1-15.5-10.5c-0.4-1.5-0.5-3.1-0.6-4.7c-0.1-1.3-0.1-2.6-0.2-4.5
		c-4.8,6-10.6,8.3-17.7,8.1c2.3,1.4,4.8,2.3,5.7,5c0.9-0.1,1.7-0.1,2.8-0.2c-0.9,0.7-1.5,1.2-2.2,1.8c0.3,0.9,0.6,1.6,0.9,2.5
		c0.8-0.3,1.4-0.5,2-0.7c2.7-0.9,5.4-0.7,7.6,1.1c2.9,2.4,4.9,5.3,4.6,9.4c-0.1,1.3-0.2,2.5-0.3,3.8c0.2,0,0.3,0.1,0.3,0.1
		c0.7-0.6,1.4-1.3,2.1-1.9c3.7-3.2,9-2.8,12,1.2c0.9,1.1,1.6,2.4,2.3,3.7C527.7,125.3,528.3,126.6,529.1,128.3z"/>
</g>
</svg>
